<?xml version="1.0" encoding="UTF-8"?>
<svg width="96px" height="134px" viewBox="0 0 96 134" version="1.1" xmlns="http://www.w3.org/2000/svg" xmlns:xlink="http://www.w3.org/1999/xlink">
    <!-- Generator: Sketch 52.4 (67378) - http://www.bohemiancoding.com/sketch -->
    <title>fifco-flame</title>
    <desc>Created with Sketch.</desc>
    <defs>
        <filter x="-20.0%" y="-13.4%" width="140.0%" height="126.9%" filterUnits="objectBoundingBox" id="filter-1">
            <feOffset dx="0" dy="0" in="SourceAlpha" result="shadowOffsetOuter1"></feOffset>
            <feGaussianBlur stdDeviation="4" in="shadowOffsetOuter1" result="shadowBlurOuter1"></feGaussianBlur>
            <feColorMatrix values="0 0 0 0 0   0 0 0 0 0   0 0 0 0 0  0 0 0 0.5 0" type="matrix" in="shadowBlurOuter1" result="shadowMatrixOuter1"></feColorMatrix>
            <feMerge>
                <feMergeNode in="shadowMatrixOuter1"></feMergeNode>
                <feMergeNode in="SourceGraphic"></feMergeNode>
            </feMerge>
        </filter>
    </defs>
    <g id="Homepage" stroke="none" stroke-width="1" fill="none" fill-rule="evenodd">
        <g id="Desktop-HD" transform="translate(-1172.000000, -725.000000)">
            <g id="home-video" transform="translate(2.000000, 90.000000)">
                <g id="fifco-flame" filter="url(#filter-1)" transform="translate(1178.000000, 643.000000)">
                    <path d="M45.7993443,2.84217094e-14 C33.6625366,7.13845366 23.9818654,17.7969797 18.0406557,30.562623 C26.3358363,35.4338815 33.5315083,41.971342 39.1737705,49.762623 C53.492459,69.4557377 56.5009836,95.3416393 47.2340984,117.807213 C67.4965312,105.269114 79.8477149,83.1563992 79.8977049,59.3285246 C79.8441462,34.9082287 66.8729198,12.3392924 45.7993443,2.84217094e-14 Z" id="Path" fill="#085FA9"></path>
                    <path d="M5.4504918,62.4262295 C28.7947541,72.7291803 43.517377,94.4681967 45.9908197,118.158689 C53.3009836,95.5409836 48.7134426,69.7783607 31.6091803,50.9167213 C25.133812,43.7802213 17.2220465,38.0942264 8.39344262,34.2321311 C5.42545565,43.3063761 4.39078766,52.9016261 5.35606557,62.4 C5.38681156,62.4111836 5.41838262,62.4199534 5.4504918,62.4262295 Z" id="Path" fill="#7F97CB"></path>
                    <path d="M-2.84217094e-14,68.4065574 C5.16721311,91.6642623 22.2190164,110.704262 44.7763934,118.47082 C39.5478887,95.1443607 22.6006538,76.1957419 -2.84217094e-14,68.4065574 Z" id="Path" fill="#26AAE1"></path>
                </g>
            </g>
        </g>
    </g>
</svg>