<svg xmlns="http://www.w3.org/2000/svg" viewBox="0 0 304.61 451.67"><defs><style>.cls-1{fill:#085fa9;}.cls-2{fill:#7f97cb;}.cls-3{fill:#26aae1;}</style></defs><title>fifco-flame</title><g id="Layer_2" data-name="Layer 2"><g id="Layer_1-2" data-name="Layer 1"><path class="cls-1" d="M304.61,226.19A262.78,262.78,0,0,0,174.61,0,264.81,264.81,0,0,0,68.78,116.52a265.43,265.43,0,0,1,80.57,73.2c54.59,75.08,66.06,173.77,30.73,259.42A262.83,262.83,0,0,0,304.61,226.19Z"/><path class="cls-2" d="M20.78,238c89,39.28,145.13,122.16,154.56,212.48,27.87-86.23,10.38-184.45-54.83-256.36A260.48,260.48,0,0,0,32,130.51,260.67,260.67,0,0,0,20.42,237.9,2.4,2.4,0,0,0,20.78,238Z"/><path class="cls-3" d="M0,260.8c19.7,88.67,84.71,161.26,170.71,190.87A262.65,262.65,0,0,0,0,260.8Z"/></g></g></svg>