<svg xmlns="http://www.w3.org/2000/svg" viewBox="0 0 837.57 201.3"><defs><style>.cls-1{fill:#29abe2;}.cls-2{fill:#085ea9;}.cls-3{fill:#7f98cc;}</style></defs><title>fifco-usa</title><g id="Layer_2" data-name="Layer 2"><g id="Layer_1-2" data-name="Layer 1"><path class="cls-1" d="M571,80.92h20.17v58.35q0,9.78,2.31,14.29,3.6,8,15.67,8t15.61-8q2.31-4.5,2.31-14.29V80.92h20.18v58.39q0,15.15-4.7,23.59-8.76,15.48-33.4,15.47T575.66,162.9q-4.71-8.43-4.7-23.59Z"/><path class="cls-1" d="M680.59,146.6q.93,6.51,3.62,9.73,4.93,5.86,16.92,5.87a36.36,36.36,0,0,0,11.64-1.55q8.49-3,8.49-11a8.11,8.11,0,0,0-4.16-7.29q-4.15-2.51-13.19-4.44l-10.28-2.26q-15.17-3.34-20.84-7.28-9.6-6.59-9.6-20.56a27.3,27.3,0,0,1,9.4-21.21q9.39-8.45,27.6-8.44,15.19,0,25.93,8t11.26,23.1H718.3q-.52-8.56-7.67-12.18a26.22,26.22,0,0,0-11.82-2.38q-7.87,0-12.56,3.09a9.78,9.78,0,0,0-4.69,8.64,8.13,8.13,0,0,0,4.63,7.6q3,1.68,12.62,3.94l16.67,3.93q11,2.58,16.43,6.89,8.49,6.7,8.5,19.4a27.28,27.28,0,0,1-10.07,21.63q-10.07,8.59-28.44,8.6-18.75,0-29.51-8.47t-10.75-23.3Z"/><path class="cls-1" d="M781.49,80.92H804l33.61,95H816l-6.27-19.53h-35l-6.44,19.53H747.58Zm-1.3,59.1h24.33l-12-37.38Z"/><path class="cls-2" d="M537.93,100.81A117.12,117.12,0,0,0,480,0a118,118,0,0,0-47.17,51.93,119.14,119.14,0,0,1,49.6,148.24A117.14,117.14,0,0,0,537.93,100.81Z"/><path class="cls-3" d="M411.44,106.09a116.53,116.53,0,0,1,68.88,94.69A116.29,116.29,0,0,0,416.43,58.17,116.12,116.12,0,0,0,411.28,106Z"/><path class="cls-1" d="M402.18,116.23a117.14,117.14,0,0,0,76.08,85.07A117.07,117.07,0,0,0,402.18,116.23Z"/><path class="cls-2" d="M527.14,29.63A12.09,12.09,0,1,1,539.27,17.5,12,12,0,0,1,527.14,29.63ZM527.2,8a9.49,9.49,0,0,0-9.56,9.63,9.4,9.4,0,0,0,9.52,9.55,9.51,9.51,0,0,0,9.56-9.63A9.4,9.4,0,0,0,527.2,8Zm2.68,10.88L532.66,23h-2.93l-2.45-3.7h-2V23h-2.53V11.47h5.08c2.75,0,4.51,1.4,4.51,3.8A3.55,3.55,0,0,1,529.88,18.83Zm-2.14-5.13h-2.46v3.38h2.53c1.27,0,2-.69,2-1.65C529.78,14.31,529,13.7,527.74,13.7Z"/><path class="cls-1" d="M273.36,129.45v-.38c0-27.51,21.87-50.26,51.38-50.26s51.19,22.41,51.19,49.9v.36c0,27.33-21.84,50.11-51.54,50.11C295,179.18,273.36,156.77,273.36,129.45Zm80.53,0v-.38c0-16.92-12.2-31-29.5-31-17.68,0-29,13.85-29,30.6v.36c0,16.77,12.23,30.8,29.34,30.8C342.59,159.87,353.89,146,353.89,129.45Z"/><path class="cls-2" d="M0,80.32H74.78V99.09H24.29v20.43H65.56v18.9H24.29v39.31H0Z"/><path class="cls-2" d="M112.94,80.32h74.78V99.09H137.23v20.43H178.5v18.9H137.23v39.31H112.94Z"/><path class="cls-2" d="M82.91,80.32h21.25v97.41H82.91Z"/><path class="cls-1" d="M237,179.06c-27.64,0-49.29-21.88-49.29-49.82V129c0-28.55,21.49-50.09,50-50.09,13.72,0,24.18,3.59,33.91,11.64l1.23,1-9.31,18.62-1.94-1.77c-8-7.25-15.41-10.48-24-10.48-16.1,0-28.69,13.53-28.69,30.81V129c0,17.65,12.33,31,28.69,31,10.49,0,17.26-4.19,24.22-10.48l1.68-1.5,11,15.7-1.24,1.18C262.67,174.81,251.83,179.06,237,179.06Z"/></g></g></svg>