<svg viewBox="0 0 547 201.3" xmlns="http://www.w3.org/2000/svg"><g fill="#fff"><path d="m527.1 29.6a12 12 0 0 1 -12-12.1 12.05 12.05 0 0 1 24.1 0 11.91 11.91 0 0 1 -11.9 12.1zm.1-21.6a9.63 9.63 0 0 0 -9.6 9.4v.2a9.31 9.31 0 0 0 9.2 9.5h.3a9.58 9.58 0 0 0 9.6-9.5v-.2a9.31 9.31 0 0 0 -9.2-9.5.37.37 0 0 1 -.3.1zm2.7 10.9 2.8 4.1h-2.9l-2.5-3.7h-2v3.7h-2.5v-11.5h5.1c2.8 0 4.5 1.4 4.5 3.8a3.89 3.89 0 0 1 -2.5 3.6zm-2.2-5.1h-2.5v3.4h2.5c1.3 0 2-.7 2-1.6.1-1.3-.7-1.9-2-1.8z"/><path d="m273.4 129.4v-.4c0-27.5 21.9-50.3 51.4-50.3s51.2 22.4 51.2 49.9v.4c0 27.3-21.8 50.1-51.5 50.1-29.5.1-51.1-22.3-51.1-49.7zm80.5 0v-.4c0-16.9-12.2-31-29.5-31-17.7 0-29 13.8-29 30.6v.4c0 16.8 12.2 30.8 29.3 30.8 17.9.1 29.2-13.8 29.2-30.4z"/><path d="m0 80.3h74.8v18.8h-50.5v20.4h41.3v18.9h-41.3v39.3h-24.3z"/><path d="m112.9 80.3h74.8v18.8h-50.5v20.4h41.3v18.9h-41.3v39.3h-24.3z"/><path d="m82.9 80.3h21.2v97.4h-21.2z"/><path d="m237 179.1c-27.6 0-49.3-21.9-49.3-49.8v-.3c0-28.6 21.5-50.1 50-50.1 13.7 0 24.2 3.6 33.9 11.6l1.2 1-9.3 18.6-1.9-1.8c-8-7.2-15.4-10.5-24-10.5-16.1 0-28.7 13.5-28.7 30.8v.3c0 17.6 12.3 31 28.7 31 10.5 0 17.3-4.2 24.2-10.5l1.7-1.5 11 15.7-1.2 1.2c-10.6 10-21.5 14.3-36.3 14.3z"/></g><path d="m537 101a115.08 115.08 0 0 0 -56.93-99 116 116 0 0 0 -46.34 51 116.14 116.14 0 0 1 35.27 32 117.44 117.44 0 0 1 13.46 113.6 115.08 115.08 0 0 0 54.54-97.6z" fill="#085fa9"/><path d="m412.71 106.16a114.52 114.52 0 0 1 67.68 93.05 114.24 114.24 0 0 0 -62.77-140.12 114.27 114.27 0 0 0 -5.07 47z" fill="#7f97cb"/><path d="m403.61 116.15a115.09 115.09 0 0 0 74.75 83.58 115 115 0 0 0 -74.75-83.58z" fill="#26aae1"/></svg>