<svg xmlns="http://www.w3.org/2000/svg" viewBox="0 0 481.79 227.36"><defs><style>.cls-1,.cls-5{fill:#121212;}.cls-1,.cls-2,.cls-6{fill-rule:evenodd;}.cls-2,.cls-4{fill:#fff;}.cls-3,.cls-6{fill:#c10230;}.cls-7{fill:none;}</style></defs><title>Asset 4</title><g id="Layer_2" data-name="Layer 2"><g id="Layer_1-2" data-name="Layer 1"><path class="cls-1" d="M0,106.67C0,47.75,107.85,0,240.89,0s240.9,47.75,240.9,106.67S373.94,213.36,240.89,213.36,0,165.6,0,106.67"/><path class="cls-2" d="M5.72,106.67c0-45.5,105.29-82.4,235.17-82.4s235.19,36.9,235.19,82.4-105.31,82.41-235.19,82.41S5.72,152.19,5.72,106.67"/><path class="cls-3" d="M347.84,200.62c0-4.49-.16-9.22-1.5-13.53-.89-2.87-.49-7.73-3.31-9.6-1-.69-2.56-1.15-3.76-1.88s-2.56-2-4-2.39c-3.8-1.12-9.33-.16-13.24-.16-7.21,0-14.35,1.16-21.55,1.5-6.87.33-13.61.78-20.48,1.68-6.18.82-11.39,2.54-17.71,2.69-4.86.12-9.9.37-14.54,1.9a11.1,11.1,0,0,1-.93,2.42,9.36,9.36,0,0,0-.7,1.11v9.16c.11.32.24.63.37.94.6,2.68-.36,5.95.38,8.25a28.79,28.79,0,0,1,1.1,11.21c10.21,1.13,21.41-3.29,31.24-4.14,6.27-.54,12.37-.56,18.58-1.9a68.35,68.35,0,0,1,16.88-1,7.82,7.82,0,0,0-2.17,2.24c-1.14,1.82-1.25,4.16.51,7.16,2.71,4.64,9.61,4,14.18,4.05,4.35.1,9.72.68,13-2,1.92-1.59,5.37-2.82,6.68-4.58l.41.11a6.79,6.79,0,0,1,0-.78,2.19,2.19,0,0,0,.1-1.25,34.81,34.81,0,0,0,.52-4.33Z"/><path class="cls-4" d="M282,196.29a4.2,4.2,0,0,1-3.4,4.17c-2,.36-3.31-.87-3.29-3l.07-5.55a4.19,4.19,0,0,1,3.38-4.19c2-.35,3.33.87,3.31,3v.65l-2,.36V191c0-1.12-.62-1.39-1.33-1.26a1.62,1.62,0,0,0-1.36,1.75l-.07,5.71c0,1.12.62,1.39,1.32,1.27a1.66,1.66,0,0,0,1.37-1.76v-.89l2-.37Z"/><path class="cls-4" d="M283.89,196l.07-5.55a4.09,4.09,0,0,1,3.4-4.12c2-.31,3.35.95,3.32,3.06l-.07,5.55A4.09,4.09,0,0,1,287.2,199C285.22,199.32,283.87,198.07,283.89,196Zm2.08-6-.07,5.71c0,1.12.62,1.41,1.32,1.3a1.61,1.61,0,0,0,1.38-1.73l.07-5.7c0-1.13-.62-1.41-1.34-1.3A1.58,1.58,0,0,0,286,190Z"/><path class="cls-4" d="M294.94,191l-.09,6.78-2,.26L293,185.6l2-.25,2.1,7.27,2.28-7.84,2-.25-.16,12.38-2,.26.09-6.82-1.57,5.15-1.36.17Z"/><path class="cls-4" d="M303.84,196.64l.16-12.39,3.21-.3c2-.18,3.38,1,3.35,3.44l0,1.83a3.71,3.71,0,0,1-3.45,4l-1.16.11,0,3.09ZM306,186.05l-.07,5.34.94-.09a1.7,1.7,0,0,0,1.65-1.91l0-1.79c0-1.48-.8-1.72-1.61-1.64Z"/><path class="cls-4" d="M316.62,193.21l-2.86.17-.57,2.45-2.07.12,3.12-12.55,2.19-.13,2.76,12.21-2.08.12Zm-2.47-1.65,2.15-.12-1-5.09Z"/><path class="cls-4" d="M327.74,195.38h-1.92l-2.82-7.2-.09,7.22-2,0,.15-12.38,1.93,0,2.79,7.3.09-7.3,2.07,0Z"/><path class="cls-4" d="M332.4,191.1l-2.76-8.1,2.14.14,1.69,5.39,1.85-5.17,2.12.13-3,7.74-.05,4.46-2-.12Z"/><path class="cls-3" d="M225.63,218.34c-.77-5.37-1.18-10.74-1.95-16.31-.57-4.09-1.27-25.46-6.27-25.5-4.71,0-9.4-.08-14,.34l0,.87a71.46,71.46,0,0,0-9.15.76c-4.09.57-7.84,1.88-12,2.48a62,62,0,0,0-8,1.94c-2.64.75-5.14.56-7.82,1-.92.14-3.16.39-3.79,1-.09-7.45-4.55-11.74-12.32-12-5.12-.19-11.76,1.31-16.63,3.14-2.8,1.06-5.51,2.46-6.73,5.11a13.49,13.49,0,0,0-.75,2.16V192a3.42,3.42,0,0,1,.63,1.9c.21,6.18.47,12.45,2.67,18.29a3.16,3.16,0,0,1,.21,1,11.6,11.6,0,0,0,4.53,4c4.44,2,8.59,5,13.53,4.73,6.06-.4,12-1.17,18.1-1.69a95.34,95.34,0,0,0,15.82-2.42c6.94-1.78,13.94-3.36,21-4.59.71-.13,1.38-.24,2.05-.34l.2,5.29a3.22,3.22,0,0,1,.3,1.57c-.27,6,3.65,6,8.36,6l.88-.15a53.53,53.53,0,0,1,6-.74c1.93-.47,3.85-1,5.78-1.5C226.07,221.62,225.85,219.92,225.63,218.34Z"/><path class="cls-4" d="M142,196.18l3.64.07c2.34,0,3.89,1.11,3.78,3.71l0,.66c-.07,1.57-.64,2.37-1.57,2.74,1,.44,1.51,1.22,1.43,2.91l0,.83c-.11,2.54-1.76,3.5-4.1,3.46l-3.75-.07Zm3.13,12.1c1.08,0,1.66-.23,1.73-1.63l0-.73c.06-1.28-.5-1.63-1.49-1.65l-1.38,0-.18,4Zm.31-5.88c.9,0,1.52-.19,1.58-1.6l0-.54c.06-1.46-.58-1.7-1.6-1.72l-1.17,0-.18,3.86Z"/><path class="cls-4" d="M151.67,210.54l.65-14.3,3.77-.26c2.35-.16,3.88,1.27,3.75,4.07l-.08,1.89a4.29,4.29,0,0,1-2.18,3.85l1.81,4.22-2.59.18-1.43-3.66-1.14.08-.17,3.77Zm2.94-12.17-.27,6,1.09-.07c1-.07,1.9-.52,2-2.24l.08-1.83c.08-1.62-.8-2-1.79-1.9Z"/><path class="cls-4" d="M169,196.7l-4.23.64-.17,3.74,3.15-.49-.1,2.09-3.15.49-.17,3.87,4.23-.65-.1,2.3-6.58,1,.64-14.3,6.59-1Z"/><path class="cls-4" d="M170.7,194.05l2.34-.53,1.23,8.91,2-9.62,2.07-.46,1.16,8.91,2.07-9.64,2.32-.52L180.54,206l-2.38.53-1.11-8.67-1.94,9.35-2.36.53Z"/><path class="cls-4" d="M187.58,204.57l-2.33.47.65-14.31,2.33-.46Z"/><path class="cls-4" d="M198.49,202.65l-2.21.37-2.95-7.78-.37,8.34-2.35.39.65-14.3,2.21-.37,2.92,7.91.38-8.44,2.37-.4Z"/><path class="cls-4" d="M209.35,194.29l-.14,3.1a4.68,4.68,0,0,1-4.14,4.59c-2.3.28-3.83-1.22-3.72-3.65l.29-6.43a4.7,4.7,0,0,1,4.1-4.61c2.3-.27,3.83,1.2,3.77,3.57l-2.36.28c0-1.26-.59-1.64-1.5-1.54s-1.59.68-1.66,2.12l-.29,6.41c-.06,1.26.61,1.66,1.48,1.56a1.84,1.84,0,0,0,1.67-1.93l.05-1.1-1.58.19.1-2.09Z"/><path class="cls-5" d="M348.74,198.61c-.83-5.86-.64-14-3.7-19.11-3.69-6.22-12-7.63-18.59-7.91-2.19-.1-4.37,0-6.55,0-3.6.1-7.19.3-10.79.54-3.94.27-7.91.68-11.83,1.18-6.95.89-25,3.06-33.93,4.66a29.65,29.65,0,0,0-44.29-2c-.82-.08-1.6-.13-2.32-.16l-1.89-.1c-5-.31-10.38-.79-28.42,3.25-7.48,1.66-12.33,3-17.11,4.05-1.94.3-4,.58-6.45.83.71-4.26.23-9.68-4.16-11.62a17.7,17.7,0,0,0-3.84-1,43.19,43.19,0,0,0-11-.35c-6.14.5-21.21,2.41-20.56,11.45.14,2.12.65,4.23,1,6.34,1,6.92,2.26,13.8,3.35,20.69.29,1.77.57,3.53.85,5.3,0,0,2,7.1,14.08,8.38,10.53,1.12,18,0,32.63-3.18l.48-.1c9-1.88,18.07-4.43,27.26-5.7l1.32-.16a22.84,22.84,0,0,0-.4,6.59c.84,8.84,12.23,7.29,19.38,5.23a36.05,36.05,0,0,0,5-2,29.62,29.62,0,0,0,35.19-8.54c.7-.19,1.29-.33,1.48-.38a39.88,39.88,0,0,1,4.83-.91c12.17-1.7,24.33-3.5,36.53-4.94,1.68-.2,3.36-.37,5.05-.53a15.14,15.14,0,0,0,.21,3.09,31.42,31.42,0,0,0,.8,3.71c1.84,6.77,12.35,6.13,17.66,5.77,4.52-.32,14-1.36,18.07-5.7a5.1,5.1,0,0,0,.19-.55l0,0C350.32,209.87,349.56,204.43,348.74,198.61ZM147.06,181.39a30.26,30.26,0,0,0,12.89-4c.54,2.16.92,5,.39,6.8-5.06.45-9.61.71-13.33.74a60,60,0,0,1-6.39-.22l-.8-3.47A28,28,0,0,0,147.06,181.39Zm58.85,29c-1,.16-3.52.69-4.77.94-3,.49-6.67,1.13-11,2-11.31,2.21-20.44,4-28.82,5.09-3.11.31-6.21.49-9.4.52a59.47,59.47,0,0,1-6.09-.22c-11-1.16-13-7.26-13-7.38l-4.7-29c2,1.84,5.34,3.7,10.56,4.47.46.07.9.15,1.38.21l1.16.09q2.51.2,5.85.16c.38,0,.81,0,1.2,0,5-.17,18.18-.73,27.58-3.29,1.67-.45,3.36-.81,5-1.2,2-.49,4.06-1,6.09-1.41,17.75-4,22.93-3.49,27.77-3.2a23.8,23.8,0,0,1,3.08,1.17c1.71,1.61,2.21,4.13,2.58,6.8.77,5.56,1.18,10.93,2,16.29a86.8,86.8,0,0,0,1.48,8.87,4.08,4.08,0,0,0-2.28-.88,19.7,19.7,0,0,0-7.84-.93h-.12a62.12,62.12,0,0,0-6.9.81Zm15.69,13.93a67.67,67.67,0,0,1-8.5,1.07c-2.15.06-4.61-.41-5.78-2.45s1.49-3.72,3-4.51c2.46-1.31,5.24-1.6,8-2a29.58,29.58,0,0,0,7.86,6.24C225.44,223.41,223.66,224,221.6,224.36Zm105.5-13.43a29.12,29.12,0,0,0-12.47,3.74,14.71,14.71,0,0,1-.34-6.41c.06-.19.9-.33,1.08-.38a13.46,13.46,0,0,1,1.89-.38,38.49,38.49,0,0,1,3.89-.32,28.09,28.09,0,0,1,6.08.2,37.3,37.3,0,0,1,6.33,1.35l.53,2.46A26.63,26.63,0,0,0,327.1,210.93Zm18.73-1.41c-6.06-5.45-15.16-5.75-22.85-5.46-2.45.1-4.89.26-7.33.4-4.17.23-8.26.65-12.39,1.2-9.71,1.27-19.35,3-29.06,4.18a78,78,0,0,0-8,1.39,29.62,29.62,0,0,0-.9-30.56c1.71-.3,3-.37,3.1-.38,2.55-.28,5.09-.64,7.63-1l11.23-1.56c4.09-.57,8.18-1.14,12.27-1.68,3.54-.47,7.08-.94,10.63-1.32A118.36,118.36,0,0,1,324,174a58.6,58.6,0,0,1,8.87.7c3.5.56,10.5,3.26,10.95,7.6l.77,7.68.25,2.3,1.84,18.06Z"/><path class="cls-2" d="M255.5,197.1v10.17a5.1,5.1,0,0,1-5.13,5.09h-7.69v-5.94h4.53a1.68,1.68,0,0,0,1.68-1.67v-3H247V197.1ZM240,206.42h-5.17a1.68,1.68,0,0,1-1.67-1.67V189.5a1.67,1.67,0,0,1,1.67-1.67h.67v-3.11a1.15,1.15,0,0,1,1.15-1.13H237a1.14,1.14,0,0,1,1.14,1.13v.75a1.5,1.5,0,0,0,.61.9l.3.19a14.78,14.78,0,0,1-.19-2.28,4.61,4.61,0,0,1,.53-2.43h-8.16a5.12,5.12,0,0,0-5.14,5.1v20.32a5.11,5.11,0,0,0,5.14,5.09H240Zm10.35-24.57H242.9a4.51,4.51,0,0,1,.54,2.43,12.64,12.64,0,0,1-.5,3.55h.47v-.66a1.14,1.14,0,0,1,1.14-1.14h.33a1.13,1.13,0,0,1,1.14,1.14v.66h1.19a1.67,1.67,0,0,1,1.68,1.67v3.4h6.61v-6A5.11,5.11,0,0,0,250.37,181.85Zm-10.91,18.7-1.32-.85a2.56,2.56,0,0,1-1.12-1.86v-.73h-.35v3.28a2.2,2.2,0,0,0,.91,1.61l1.32.85A2.55,2.55,0,0,1,240,204.7v.73h.38v-3.28A2.23,2.23,0,0,0,239.46,200.55Zm.94-4.58v3.28H240v-.74a2.57,2.57,0,0,0-1.12-1.85l-1.32-.84a2.24,2.24,0,0,1-.91-1.62v-3.29H237v.75a2.54,2.54,0,0,0,1.12,1.85l1.32.85A2.25,2.25,0,0,1,240.4,196Zm0-6.19V193H240v-.72a2.54,2.54,0,0,0-1.12-1.84l-1.32-.86a2.2,2.2,0,0,1-.91-1.6v-3.3H237v.75a2.52,2.52,0,0,0,1.12,1.84l1.32.86A2.23,2.23,0,0,1,240.4,189.78ZM242.1,203l1.33-.86a2.57,2.57,0,0,0,1.12-1.84v-.74h.33v3.28a2.21,2.21,0,0,1-.9,1.61l-1.32.86a2.54,2.54,0,0,0-1.12,1.84v5.68h-.38V204.6A2.25,2.25,0,0,1,242.1,203Zm0-6.19,1.33-.86a2.59,2.59,0,0,0,1.12-1.85v-.74h.33v3.29a2.21,2.21,0,0,1-.9,1.61l-1.32.85a2.57,2.57,0,0,0-1.12,1.85v.74h-.38v-3.28A2.29,2.29,0,0,1,242.1,196.8Zm0-6.18,1.33-.86a2.6,2.6,0,0,0,1.12-1.86v-.73h.33v3.29a2.27,2.27,0,0,1-.9,1.61l-1.32.84a2.57,2.57,0,0,0-1.12,1.85v.74h-.38v-3.28A2.27,2.27,0,0,1,242.1,190.62Zm.2-6.34c0,1.77-.52,4.19-1.14,4.19s-1.14-2.42-1.14-4.19c0-1.6.41-2.11.95-2.2v-4.21h.38v4.21C241.89,182.17,242.3,182.68,242.3,184.28Z"/><path class="cls-3" d="M184.89,61.06l11.59,42.1V61.06h16.91v91.19H195.93l-11.87-44.12v44.12H167.32V61.06Zm90.72,13.32V96c0,15.08,28.74,16.13,28.74,25.37v9.83c0,2.17-1.13,5.76-6.19,5.76S292,133.37,292,131.2v-9.47H275.61v17.32c0,8,10.27,14.5,22.95,14.5s22.95-6.5,22.95-14.5V112.52c0-10.93-29.53-15.84-29.53-23.89V82.19c0-2.15,1.13-5.76,6.18-5.76s6.19,3.61,6.19,5.76v5.7h17.16V74.38c0-8-10.27-14.5-22.95-14.5s-22.95,6.47-22.95,14.5M105.1,74.11c0-7.83-10-14.16-22.38-14.16s-22.4,6.33-22.4,14.16v65.13c0,7.81,10,14.16,22.4,14.16s22.38-6.35,22.38-14.16V100.41H83.91v15.81h4.82V131c0,2.11-2.43,5.05-6,5.05s-6-2.94-6-5.05V82.3c0-2.09,2.4-5,6-5s6,2.94,6,5v6.13H105.1Zm278.63-13v91.19h37.51V135.89H400.79V113h16.9V97.32h-16.9V76.8h20.65V61.06Zm-50,0v91.19h37.51V135.89H350.83V113h16.91V97.32H350.82V76.8h20.66V61.06Zm-108.12,0v91.19h37.51V135.89H242.7V113h16.92V97.32H242.7V76.8h20.65V61.06Zm-108.28,0v91.19h37.5V135.89H134.43V113h16.9V97.32h-16.9V76.8h20.65V61.06Z"/><path class="cls-6" d="M422.71,149.11a2.84,2.84,0,1,1,2.83,2.83,2.83,2.83,0,0,1-2.83-2.83m2.83,2.28a2.28,2.28,0,1,0-2.27-2.28,2.28,2.28,0,0,0,2.27,2.28m1.13-2.24a1,1,0,0,0,.32-.41.93.93,0,0,0,.05-.53.91.91,0,0,0-.37-.61,2.06,2.06,0,0,0-.76-.25,3.16,3.16,0,0,0-.92,0,4.92,4.92,0,0,0-.88.21c0,.57.06,1.12.08,1.66s.07,1,.1,1.45c.13,0,.24,0,.36,0H425c0-.17,0-.35.05-.53s0-.39,0-.6h.2c.16.24.34.48.52.71s.34.45.48.61l.38-.22a2.54,2.54,0,0,0,.28-.21q.12-.07.12-.09c-.13-.13-.27-.27-.41-.44s-.32-.34-.49-.53a1.5,1.5,0,0,0,.5-.27m-1.51-.93a1.49,1.49,0,0,1,.5-.05,1.36,1.36,0,0,1,.38.07.25.25,0,0,1,.16.16c0,.13-.06.24-.26.33a2,2,0,0,1-.81.15c0-.22,0-.45,0-.66"/><rect class="cls-7" x="48.34" y="59.5" width="385.67" height="93.33"/></g></g></svg>