
<svg width="20px" height="20px" viewBox="0 0 20 20" version="1.1" xmlns="http://www.w3.org/2000/svg" xmlns:xlink="http://www.w3.org/1999/xlink">
    <g id="Home—Desktop" stroke="none" stroke-width="1" fill="none" fill-rule="evenodd">
        <g id="R2_Home" transform="translate(-1297.000000, -41.000000)" fill="#ffffff" fill-rule="nonzero">
            <g id="NAV">
                <g id="Search" transform="translate(1297.000000, 41.000000)">
                    <g id="Layer_1">
                        <path d="M19.41625,19.41625 C19.064744,19.7679625 18.5878756,19.9655699 18.090625,19.9655699 C17.5933744,19.9655699 17.116506,19.7679625 16.765,19.41625 L13.45625,16.1075 C12.095,16.97875 10.48625,17.5 8.75,17.5 C3.9175,17.5 0,13.5825 0,8.75 C0,3.9175 3.9175,0 8.75,0 C13.5825,0 17.5,3.9175 17.5,8.75 C17.5,10.48625 16.97875,12.095 16.1075,13.45625 L19.41625,16.765 C19.7679625,17.116506 19.9655699,17.5933744 19.9655699,18.090625 C19.9655699,18.5878756 19.7679625,19.064744 19.41625,19.41625 Z M8.75,2.5 C5.29875,2.5 2.5,5.2975 2.5,8.75 C2.5,12.2025 5.29875,15 8.75,15 C12.2025,15 15,12.2025 15,8.75 C15,5.2975 12.2025,2.5 8.75,2.5 Z" id="Shape"></path>
                    </g>
                </g>
            </g>
        </g>
    </g>
</svg>