<svg xmlns="http://www.w3.org/2000/svg" xmlns:xlink="http://www.w3.org/1999/xlink" viewBox="0 0 766.55 1052.27"><defs><style>.cls-1{fill:none;}.cls-2{isolation:isolate;}.cls-3{fill:#fff;}.cls-12,.cls-4{mix-blend-mode:multiply;}.cls-5{clip-path:url(#clip-path);}.cls-6{fill:#9b9da0;}.cls-7{clip-path:url(#clip-path-2);}.cls-8{fill:#dcddde;}.cls-10,.cls-9{fill:#231f20;}.cls-10{fill-rule:evenodd;}.cls-11{fill:#c89211;}.cls-12{opacity:0.4;}.cls-13{clip-path:url(#clip-path-3);}.cls-14{fill:#939598;}.cls-15{clip-path:url(#clip-path-4);}.cls-16{fill:#d1d3d4;}.cls-17{clip-path:url(#clip-path-5);}.cls-18{fill:#e6e7e8;}</style><clipPath id="clip-path"><rect class="cls-1" x="314.33" y="371.47" width="131.24" height="120.97"/></clipPath><clipPath id="clip-path-2"><rect class="cls-1" x="318.04" y="381.86" width="128.49" height="144.38"/></clipPath><clipPath id="clip-path-3"><rect class="cls-1" x="292.8" y="372.86" width="181.46" height="169.95"/></clipPath><clipPath id="clip-path-4"><rect class="cls-1" x="323.83" y="383.14" width="122.83" height="139.96"/></clipPath><clipPath id="clip-path-5"><rect class="cls-1" x="320.28" y="373.05" width="125.46" height="117.3"/></clipPath></defs><title>imperial</title><g class="cls-2"><g id="Layer_2" data-name="Layer 2"><g id="Layer_1-2" data-name="Layer 1"><path class="cls-3" d="M306.71,376.15l2,2.52c.65.95,3.88,6.23,3.88,16.2l-.08,93.23c-.05.46-.48,5.69,5.25,9.23,8.36,5.14,52.78,28.22,65.76,34.92,13-6.7,57.41-29.78,65.75-34.92,5.77-3.54,5.31-8.77,5.26-9.38l-.06-.9V394.87c0-10,3.21-15.25,3.88-16.2l.3-.42,1.69-2.1L383.48,364.6Z"/><g class="cls-4"><g class="cls-5"><path class="cls-6" d="M380.86,371.49a6.17,6.17,0,0,0-.86,0L316.83,381a2.81,2.81,0,0,0-2,1.28,2.85,2.85,0,0,0-.38,2.36,43.65,43.65,0,0,1,1.39,11.17l-.09,93.25v.8a4.26,4.26,0,0,0,1.19,2.57l4.67-4,.09-92.59a50.66,50.66,0,0,0-.87-9.51l59.62-9,59.62,9a1.23,1.23,0,0,0,0,.26l5.53-4.76A2.62,2.62,0,0,0,444,381Z"/></g></g><g class="cls-4"><g class="cls-7"><path class="cls-8" d="M445.11,489.32l-.06-93.48a43.46,43.46,0,0,1,1.38-11.18,3,3,0,0,0-.37-2.36c-.12-.17-.31-.3-.45-.46L440,386.71a52,52,0,0,0-.8,9.13V488c0,.05,0,.59,0,.73-7,4.16-35.53,19.17-58.79,31.26-23-12-51.22-26.79-58.66-31.22L318,492l3.33,3.32c10.2,5.75,36.4,19.53,57.71,30.58a3.07,3.07,0,0,0,1.35.34,3.11,3.11,0,0,0,1.36-.34c24-12.46,54.39-28.45,61-32.48a4.76,4.76,0,0,0,2.35-4.1"/></g></g><path class="cls-3" d="M241,210.2s8.33,23.29,39.48,10.21c21.6-9.06,30.66-34,47.09-33.28,0,0-8.58-5.91-19.28,1-12,7.72-18.4,20.6-37.24,27.47s-29.88-6-30-5.38"/><path class="cls-9" d="M365.69,30.1c6.69-4,4.18-9.44,4.18-9.44s-.79,4.2-6.84,4.72c-3.26.28-7.61-4.24-.46-8.85,6.77-4.36,18.57-4.26,26.54-.49a42.09,42.09,0,0,1,17.48,15.25s-5.9-2.93-15.59-2c-8.48.8-22.38,4-31.83,15.51,0,0-7.18,9.36-5.35,20.44.78,4.63,3.15,9.26,8.79,12.93,7.59,4.93,18.87,1.22,23.2-5.26,3.12-4.62,1.78-13.66-2.59-15.35,0,0,3.82,8.72-5.29,13.28-9.27,4.64-19.46-5.72-14.83-17.72s28.12-21,46.95-5.55,18.16,46.87,2.13,61.15c0,0,21-6.42,22.63-37l0,.1c1-11.73,2.14-23,4.43-28.23,5.83-13.39,16.5-9.3,16.5-9.3-3.32-6.46-15.21-8.22-23.4,1a27.08,27.08,0,0,0-3.22,4.53c-3.8-7.15-10.46-15.69-22.23-24.11a48.64,48.64,0,0,0-44.4-6A24.4,24.4,0,0,0,357.23,12a.33.33,0,0,1-.1.06h0a15.7,15.7,0,0,0-7.31,8.56c-3.19,9.59,7.59,14.46,15.83,9.52"/><path class="cls-9" d="M556.87,551.32c-26.78-26.19-39.58-16.28-34.14.07,16.23,39.67,42.82,60.9,72.13,70.41,20.36,6.61,28.51,1.66,46,5.24,23.32,4.78,18.87,20.88,18.87,20.88s-13.84-12.53-42.92-8.39c10.64,10,21.13,10.38,30.15,21.41,10.57,12.92-.89,24.22-.89,24.22.16.21-8.39-23.58-42.06-34.42,3.68,11,11.73,18,12.8,28.49,1.3,12.68-6.78,17.83-14.25,19.38.23-.06-.53-24.06-19.31-46.79-31.66,15.87-25.58,30-25.58,30-16-10.71-9.72-21.9-4.66-27.93,9.11-10.85,26.75-12.87,18-23.14-7-8.3-37.64-13.42-45.88,15.61,0,0-15.22-17.64-22.19-46.86a45.09,45.09,0,0,0-7.36,10.47,231,231,0,0,0-19.1-30.1c-16.89-22.61-27.36-9.09-21.14,11,10.31,34.37,41.68,84.93,106,136.52,0,0-32.34,21-59.73,8.54a58,58,0,0,1-11.42-9.56C472,700.53,444.8,657.08,430.57,603.2c0,0-2.7,63.77,62.32,153.41-8.13,2.13-17.08,4.09-26.84,5.79-10.61,1.28-34,2.1-38.58-14.08l-.08.1c-8.15-26.49-21.53-73.69-24.45-119,0,0-4.57,65.93,13.47,138.94l-.15-.15s-6.74,9.66-32.07,9.66c-22.63,0-32.14-9.66-32.14-9.66l-.16.15c17.69-73,12.78-138.94,12.78-138.94-2.68,45.32-15.84,92.52-23.85,119l-.07-.1c-4.58,16.18-27.92,15.36-38.53,14.08-9.79-1.7-18.73-3.66-26.89-5.79,64.61-89.64,61.6-153.41,61.6-153.41-14,53.88-40.9,97.33-59.07,123.14a57.12,57.12,0,0,1-11.38,9.56c-27.32,12.42-59.77-8.54-59.77-8.54,62.75-50.5,92.58-99.41,106.74-136.21,6.19-20.11-2.64-33.62-19.51-11a248.56,248.56,0,0,0-19.08,29.49,31.42,31.42,0,0,0-9-10.48c-7,29.21-22.2,46.86-22.2,46.86-8.25-29-38.82-23.93-45.87-15.62-8.72,10.28,8.93,12.3,18,23.14,5.07,6,11.33,17.24-4.66,27.93,0,0,6.07-14.09-25.59-30-18.76,22.72-19.54,46.71-19.33,46.76-7.44-1.57-15.5-6.69-14.22-19.38,1.06-10.47,9.11-17.45,12.8-28.49-33.67,10.86-42.23,34.65-42.06,34.44,0,0-11.47-11.34-.89-24.24,9-11,19.5-11.41,30.15-21.4-29.09-4.15-42.92,8.4-42.92,8.4s-4.44-16.11,18.87-20.88c17.44-3.6,25.59,1.35,46-5.25,29.29-9.52,55.9-33.55,72.13-73.2,5.42-16.35-7.37-26.28-34.14-.1-9.83,9.58-49.51,51.3-114.06,59.38-10.55-7.48-17.5-16.84-23.72-23.73,65.24-13.74,112.18-43,128.34-64.86-23.57,19.58-97,45.83-145.14,45.51a295.49,295.49,0,0,1-27.77-45.41c47.89,2,132.36-11.92,155.57-26-17.77,4.58-104.55,15.15-165.84,1.75A314.23,314.23,0,0,1,1.56,417.72C56,461,133,462.23,177.71,457.3,120.19,449,41,425.71,0,369.67A374.34,374.34,0,0,1,31.15,234.21c5.72,141.85,148.29,182.06,148.29,182.06-89.1-61.52-143.86-164.78-107.55-254a365.55,365.55,0,0,1,85.29-85.46c-84.5,166,43.62,303.27,43.62,303.27-27.92-50.48-45.46-140.24-36.58-202.45C177.17,86.65,237.85,22.1,294.36,1.2c3.58-.94,1.33-.42,4.92-1.2-51.6,31.43-109.22,149.23-77.95,213.06,13.72,28,37.59,16.41,43.35,42.92,5.37,24.79-14.51,33-6.7,46.76,4.37,7.51,12.88,9.43,26.07,10.24s50.62-13.68,66.32-44c0,0-8.67,3.66-15.87,2.43,0,0,31-25.38,39.53-73.9,0,0,17.84-8.09,21.42-16.65,0,0-20.76,17.15-50.58,11.11,0,0-10.13,14.12-27.15,9.57,0,0,21.24-15.53,14.08-18.37s-32-9.29-45.69,15.64c0,0-11.51-19.46,5.52-32.57a72,72,0,0,1,17-9.59s8.54-28.78,42.62-31.79c23.43-2.06,34-9.17,33.52-14.87-.25-2.6-3-5.52-7.76-5.52,0,0-4.47-.29-6.59,2.24,0,0,2.15-9.95,17-8.72,15.47,1.28,16.17,16.92,12.24,21.83,0,0,33.78-8,53.38,22.58,20.33,31.69-14.95,91.55,15.48,129.71,0,0-8.08,1.21-14.37-1.22,0,0,4,41.28,39.48,41.31,6.55-1,11.75-4.08,14.87-9.46,7.81-13.71-12.07-22-6.71-46.76,5.77-26.51,29.66-14.91,43.36-42.92C576.46,149.23,518.85,31.43,467.28,0c3.56.78,1.29.26,4.91,1.2,56.5,20.9,117.19,85.45,130.15,176.4,8.86,62.21-8.7,152-36.62,202.45,0,0,128.11-137.3,43.62-303.27a365.82,365.82,0,0,1,85.31,85.46c36.3,89.25-18.48,192.51-107.56,254,0,0,142.57-40.21,148.31-182.06a376,376,0,0,1,31.15,135.46c-41,56-120.21,79.28-177.74,87.63C633.52,462.23,710.58,461,765,417.72a312.86,312.86,0,0,1-17.71,77.09c-61.31,13.4-148.07,2.83-165.82-1.75,23.17,14.08,107.66,28,155.54,26-1.34,2.77-2.78,5.53-4.26,8.32a266.78,266.78,0,0,1-22,35.17h-.13c-.48.61-.94,1.3-1.43,1.92C661,564.79,587.65,538.54,564.06,519c16.18,21.91,63.11,51.12,128.35,64.86-6.23,6.89-13.18,16.25-23.74,23.73-64.55-8.08-101-47.67-111.8-56.23"/><path class="cls-10" d="M241,210.2s8.33,23.29,39.48,10.21c21.6-9.06,30.66-34,47.09-33.28,0,0-8.58-5.91-19.28,1-12,7.72-18.4,20.6-37.24,27.47s-29.88-6-30-5.38"/><path class="cls-3" d="M289,185.92S286.5,170.37,310.09,164a38.65,38.65,0,0,0,14.18,11.07s-20.82-5.94-35.31,10.81"/><path class="cls-3" d="M365.32,144.87c-3.53.15-6.35,1.52-9.42,3.33-1.95,1.13-4.34,2.32-7.5,3.79,1.46,2.75,4.57,3.9,7,2.58a4.55,4.55,0,0,0,1.54-1.35,8.57,8.57,0,0,1-4.55,5.81A9.89,9.89,0,0,1,340,155.29c-9.9,2.45-15.4-2.24-15.4-2.24,7.29,1.71,13.94-.34,20.39-5.14a51.13,51.13,0,0,1,9.63-5.47c6.3-2.55,11.16-1.73,14.28-.46a11.29,11.29,0,0,1,5.72,4.91,18.64,18.64,0,0,0-9.28-2"/><path class="cls-9" d="M383.48,373.43l63.18,9.49a46.77,46.77,0,0,0-1.48,11.95v92.74l.07.9v.17c-.05.68-.84,1.17-1.07,1.36-6.13,3.75-34.57,18.72-60.7,32.28-26.12-13.56-54.56-28.53-60.67-32.28-.68-.43-1.07-.87-1.1-1.31v-.62l.1-93.24a46.72,46.72,0,0,0-1.49-11.95l63.16-9.49m0-8.83-76.77,11.55,2,2.52c.65,1,3.88,6.24,3.88,16.2l-.08,93.23c-.05.45-.48,5.69,5.25,9.23,8.36,5.15,52.78,28.22,65.76,34.94,13-6.72,57.42-29.79,65.75-34.94,5.77-3.54,5.31-8.78,5.26-9.37l-.06-.91V394.87c0-10,3.21-15.24,3.88-16.2l.3-.42,1.69-2.1Z"/><path class="cls-11" d="M465.62,383.84,477,369.59l-93.51-14.06-93.23,14,11,14.17c.1.13,2.34,3.66,2.34,11.16l-.08,92.88A19.17,19.17,0,0,0,313,505c8.68,5.33,53,28.35,66.35,35.29l4.12,2.13,4.14-2.13C401,533.31,445.27,510.3,453.93,505c7.73-4.77,10-12.31,9.51-17.58l-.05-92.51C463.39,387.45,465.64,383.84,465.62,383.84Z"/><g class="cls-12"><g class="cls-13"><path class="cls-14" d="M453.89,504.07c-10.2,6.18-70.37,36.85-70.37,36.85s-60.18-30.67-70.35-36.85c-7-4.29-8.44-10.28-8.65-13.6-.18,2.13-.12,10.16,8.65,15.45,10.17,6.21,70.35,36.89,70.35,36.89s60.17-30.68,70.37-36.89c8.74-5.29,8.81-13.27,8.65-15.44-.19,3.33-1.63,9.31-8.65,13.59"/><path class="cls-14" d="M304.55,394.87c0-8.38-2.74-12.37-2.74-12.37l-7.67-9.64-1.34.2,9,11.31s2.74,4,2.74,12.37Z"/><path class="cls-14" d="M465.25,382.5s-2.76,4-2.76,12.37v1.87c0-8.38,2.76-12.37,2.76-12.37l9-11.31-1.34-.2Z"/></g></g><path class="cls-3" d="M383.48,373.43l63.18,9.49a46.77,46.77,0,0,0-1.48,11.95v92.74l.07.9v.16c-.05.7-.84,1.19-1.07,1.36-6.13,3.76-34.57,18.73-60.7,32.29-26.12-13.56-54.56-28.53-60.67-32.29-.68-.42-1.07-.86-1.1-1.3v-.62l.1-93.24a46.72,46.72,0,0,0-1.49-11.95l63.16-9.49"/><path class="cls-9" d="M416.92,479.69a50.82,50.82,0,0,1-30.38,10.16c-26.91,0-48.79-20.9-48.79-46.61,0-24.9,22.08-46,48.22-46a52,52,0,0,1,30.84,10l.44.37,4.82-5.46-.49-.37A59.78,59.78,0,0,0,386,390.27c-30.16,0-55.66,24.23-55.66,53,0,29.59,25.21,53.66,56.23,53.66a59,59,0,0,0,35-11.63l.44-.35-4.52-5.59Zm-6.23-7.81-18.26-22c7.53-1.1,13.45-7,13.45-14.33A15,15,0,0,0,397.81,422c-4.48-2.36-10.13-2.36-14.31-2.36H370.88v47.66h7.05V425.8h6.55c3.62,0,7.39,0,10.27,2a9,9,0,0,1,4.07,7.31,8.87,8.87,0,0,1-5.63,8.3c-2.74,1.19-6.22,1.18-9.3,1.15h-4.47l21.13,25.77a28.64,28.64,0,0,1-14.25,4c-16.72,0-31.39-14.19-31.39-30.37,0-18.33,12.84-31.08,31.25-31.08a31,31,0,0,1,19.51,7l.47.36,4.76-5.32-.46-.42a36.23,36.23,0,0,0-24.28-8.71c-22.09,0-38.73,16.4-38.73,38.13,0,19.91,18.17,37.41,38.87,37.41,8.15,0,16.14-3,23.68-8.85Z"/><path class="cls-9" d="M383.48,373.43l63.18,9.49a46.77,46.77,0,0,0-1.48,11.95v92.74l.07.9v.17c-.05.68-.84,1.17-1.07,1.36-6.13,3.75-34.57,18.72-60.7,32.28-26.12-13.56-54.56-28.53-60.67-32.28-.68-.43-1.07-.87-1.1-1.31v-.62l.1-93.24a46.72,46.72,0,0,0-1.49-11.95l63.16-9.49m0-8.83-76.77,11.55,2,2.52c.65,1,3.88,6.24,3.88,16.2l-.08,93.23c-.05.45-.48,5.69,5.25,9.23,8.36,5.15,52.78,28.22,65.76,34.94,13-6.72,57.42-29.79,65.75-34.94,5.77-3.54,5.31-8.78,5.26-9.37l-.06-.91V394.87c0-10,3.21-15.24,3.88-16.2l.3-.42,1.69-2.1Z"/><g class="cls-4"><g class="cls-15"><path class="cls-16" d="M445.3,487.32l-.05-90.64a43.12,43.12,0,0,1,1.32-10.85,2.89,2.89,0,0,0-.36-2.28,2.09,2.09,0,0,0-.42-.42l-5.36,4.7a49.59,49.59,0,0,0-.76,8.85v90.06c-6.65,4-33.95,18.6-56.2,30.32-22-11.59-49-26-56.06-30.27l-3.58,3.13,3.18,3.21c9.74,5.57,34.82,18.92,55.17,29.64a2.71,2.71,0,0,0,1.29.32,2.76,2.76,0,0,0,1.31-.32c23-12.08,52-27.56,58.28-31.49a4.58,4.58,0,0,0,2.24-4"/></g></g><g class="cls-4"><g class="cls-17"><path class="cls-18" d="M383.89,373.07a3.84,3.84,0,0,0-.83,0l-60.38,9.22a2.78,2.78,0,0,0-1.95,1.26,3,3,0,0,0-.36,2.28,43,43,0,0,1,1.34,10.83l-.09,90.42v.78a4,4,0,0,0,1.15,2.48l4.46-3.88.07-89.78a50.27,50.27,0,0,0-.83-9.22l57-8.71,57,8.71a1.32,1.32,0,0,0,0,.24l5.3-4.63a2.79,2.79,0,0,0-1.45-.78Z"/></g></g><path class="cls-9" d="M362,923.05a79.7,79.7,0,0,0-9.77-38.37c-6.62-13.21-14.87-20.36-17.48-21.95a6.44,6.44,0,0,0-5-.38s-10.57,4.75-24.42,20l-.34-.21S293,867,281.7,862.71c0,0-3.62-1.61-5.41,1-2,2.88-13,20.4-15.33,25.42A55.28,55.28,0,0,1,273.19,898c2.4,2.27,2.72,3,2.72,6.68,0,7.91,0,130.25,0,130.25a55.06,55.06,0,0,1-.69,10.11c-1.16,5.89-2.15,7-2.15,7s.1.17.05.27l28.42-9.94v0l.92-.32a7.12,7.12,0,0,0,4-6.78V1035l0-.24s0-15.31,0-35.46A80.06,80.06,0,0,0,362,923.05Zm-55.35,62.6a2.12,2.12,0,0,1-.22.13L306,897.53a63.87,63.87,0,0,1,6.39-6.9s0,0,0,0a2,2,0,0,1,.93-.5,63.25,63.25,0,0,1-6.75,95.47Zm285.94-92.06c-.28.51-.05,106-.05,106l-30.46.09s.32-93.87.32-101.77c0-8.51-9.58-10.29-9.58-10.29,3.19-7.44,11.1-19.67,14.51-23.37,3.79-4.15,7.92-1.85,7.92-1.85A54.84,54.84,0,0,1,590.92,874c1.24,1.46,1.71,2.74,1.71,6.43v12.91A1.28,1.28,0,0,0,592.57,893.59Zm150,105.11-30.47.1s.33-146.32.33-154.22c0-8.93-9.07-10.17-9.07-10.17,2.7-6.53,10.61-20.26,14-24,3.83-4.14,7.93-1.83,7.93-1.83A55.48,55.48,0,0,1,741,820.21c1.22,1.46,1.72,2.73,1.72,6.44C742.72,829.71,742.59,998.7,742.59,998.7Zm-47.9-16.57c-2.71-3.92-4.19-6.59-4.19-7.43V888.14a21.51,21.51,0,0,0-1.73-8.33,20.14,20.14,0,0,0-2-4.27c-5.67-8.91-14.18-12.47-22.69-13.85-18.27-2.91-31.1,1.34-40.09,8.74a38.53,38.53,0,0,0-12.24,17.62c20.07-8.45,44.27-6.21,47.3,5.28a11.44,11.44,0,0,1,.28,2.14c0,2.25-1.11,3-2.49,3.89-2.52,1.64-6.94,3.47-11.88,5.37-36.21,13.91-36.66,44.62-36.66,51.4q0,22.39,12.67,37.39c3.41,4.07,5.85,6.12,7.3,6.12.89,0,6.62-3.46,15.35-8.15a150.88,150.88,0,0,1,15.74-7.21c2.16,3.74,3.77,6.47,4.83,8.16,3.24,4.9,6.54,7.23,9.23,7.23,1.27,0,4,.26,11-4.82,6.13-4.5,9.76-9.27,10.5-11A1.64,1.64,0,0,0,694.69,982.13Zm-35-12.14c-2.7.89-7.34,2.84-8.05,3.2a24.41,24.41,0,0,1-9.55-8.7c-4-6-7.82-20.53-.27-36.66,3.08-6.62,10.3-13.5,17.87-15.31ZM546.41,877.4a5.86,5.86,0,0,0-.27.59,204.3,204.3,0,0,1-14.47,22.16c-8-5.73-14.74-9.14-17.09-9.14h-.16a.79.79,0,0,0-.22,0,5,5,0,0,0-3,2L506,900.87a5.07,5.07,0,0,0-.73,2.52c0,.77,0,82.41,0,82.41l0,13.77H475.16s0-87,0-94.89c0-3.68-.34-4.41-2.74-6.68a55.28,55.28,0,0,0-12.23-8.88c2.32-5,13.32-22.54,15.33-25.42,1.81-2.6,5.41-1,5.41-1,11.28,4.27,24.08,20.57,24.25,20.8,3.22-5,10.5-16.06,13.37-20,3.75-5.13,10.1-1.28,10.1-1.28a70.53,70.53,0,0,1,17.23,10.42C546.25,872.93,547.94,874.63,546.41,877.4ZM559,807.22c0-.93,1.41-2.92,3.28-.87,1,1.08,3,4.09,6.52,6,8.39,4.59,12.51,1.51,19.91,8.29a13.22,13.22,0,0,1,4.25,9.92s-.13,16.07-.13,16.27c0,1.89-1.65,2-4.12-.24-7.43-6.76-11.77-3.68-20.27-8-4.22-2.16-5.76-3.75-7.15-5.66a13.6,13.6,0,0,1-2.23-7.48S559,808.15,559,807.22ZM406.77,965.84c-.54-12.64,13.9-27.29,39.43-34.52,2.11-.6,2.59-.81,4.72-1.53a3.65,3.65,0,0,0,2.77-3.89c-2.16-34.62-21.17-57.76-35.82-64.45a5,5,0,0,0-3.95-.05c-8.72,3.53-27.58,16.93-35.9,24.27a4.26,4.26,0,0,0-1.6,3.52l-.16,80.86h0s-.15,8.7,2.77,14.91a23.06,23.06,0,0,0,10.62,10.81c.45.21-.31-.21,0,0a52.87,52.87,0,0,0,12.9,3.85c18.29,2.93,31.08-1.32,40.1-8.73,6.15-5.06,10.4-11.52,11.86-17.67C432.89,982.59,407.33,978.75,406.77,965.84Zm-.61-85.1S420.4,895,423.44,923.31c.12,1,.14,3.19-1.54,4.21-2.31,1.4-6.49,4.06-10.29,6.85A39.06,39.06,0,0,0,406,939.1ZM95.21,826a20.16,20.16,0,0,1-2.63,5.51c-4.89,8.08-10.47,14.85-12.86,20.36a15.24,15.24,0,0,0-1,5.32s.11,4.12.06,4.1c-.06,24.53.08,131.53.08,131.53v.12l0,.24v.27h0a7.14,7.14,0,0,1-4,6.68l-.94.3v0l-28.42,9.92c0-.08-.11-.15-.05-.25s1-1.08,2.14-6.94a53.51,53.51,0,0,0,.71-10.12l.1-21.94c0-37.12,0-114,0-119.8,0-5.1-1.19-10.5-8.06-14.44-6.06-3.43-13.28-2-13.28-2,2.16-4.37,12.67-21.52,16.09-25.11,3-3.13,7.91-1.84,7.91-1.84,7.66,1.52,12.78,10.67,22,15.91C81.62,828.61,88.56,829.2,95.21,826Zm152.07,62.81-.21,110.29h-30.3l.06-99.53a4.71,4.71,0,0,0-1.81-3.76,44,44,0,0,0-10-6.07,4.61,4.61,0,0,0-3.32-.33c-2.6,1.32-7.77,10-7.77,10l0-.37-.19,100H163.42l.06-99.53a4.74,4.74,0,0,0-1.82-3.76,44,44,0,0,0-10-6.07,4.61,4.61,0,0,0-3.32-.33c-2.61,1.32-7.76,10-7.76,10l0,99.67H110.1c0-7.59.05-86.88.05-94.4,0-3.68-.33-4.41-2.74-6.68a54.51,54.51,0,0,0-12.23-8.88c2.33-5,13.32-22.54,15.33-25.42,1.8-2.6,5.4-1,5.4-1,11.36,4.31,23.27,19.39,23.27,19.39S147.35,869,152.49,864c3.7-3.61,9-.36,9-.36s17.29,8.91,30.84,18.69c2-3,9.08-14.07,13.49-18.33,3.72-3.61,9-.36,9-.36A230.9,230.9,0,0,1,244.34,882,9.72,9.72,0,0,1,247.28,888.79ZM362,923.05a79.7,79.7,0,0,0-9.77-38.37c-6.62-13.21-14.87-20.36-17.48-21.95a6.44,6.44,0,0,0-5-.38s-10.57,4.75-24.42,20l-.34-.21S293,867,281.7,862.71c0,0-3.62-1.61-5.41,1-2,2.88-13,20.4-15.33,25.42A55.28,55.28,0,0,1,273.19,898c2.4,2.27,2.72,3,2.72,6.68,0,7.91,0,130.25,0,130.25a55.06,55.06,0,0,1-.69,10.11c-1.16,5.89-2.15,7-2.15,7s.1.17.05.27l28.42-9.94v0l.92-.32a7.12,7.12,0,0,0,4-6.78V1035l0-.24s0-15.31,0-35.46A80.06,80.06,0,0,0,362,923.05Zm-55.35,62.6a2.12,2.12,0,0,1-.22.13L306,897.53a63.87,63.87,0,0,1,6.39-6.9s0,0,0,0a2,2,0,0,1,.93-.5,63.25,63.25,0,0,1-6.75,95.47Zm285.94-92.06c-.28.51-.05,106-.05,106l-30.46.09s.32-93.87.32-101.77c0-8.51-9.58-10.29-9.58-10.29,3.19-7.44,11.1-19.67,14.51-23.37,3.79-4.15,7.92-1.85,7.92-1.85A54.84,54.84,0,0,1,590.92,874c1.24,1.46,1.71,2.74,1.71,6.43v12.91A1.28,1.28,0,0,0,592.57,893.59Zm150,105.11-30.47.1s.33-146.32.33-154.22c0-8.93-9.07-10.17-9.07-10.17,2.7-6.53,10.61-20.26,14-24,3.83-4.14,7.93-1.83,7.93-1.83A55.48,55.48,0,0,1,741,820.21c1.22,1.46,1.72,2.73,1.72,6.44C742.72,829.71,742.59,998.7,742.59,998.7Zm-47.9-16.57c-2.71-3.92-4.19-6.59-4.19-7.43V888.14a21.51,21.51,0,0,0-1.73-8.33,20.14,20.14,0,0,0-2-4.27c-5.67-8.91-14.18-12.47-22.69-13.85-18.27-2.91-31.1,1.34-40.09,8.74a38.53,38.53,0,0,0-12.24,17.62c20.07-8.45,44.27-6.21,47.3,5.28a11.44,11.44,0,0,1,.28,2.14c0,2.25-1.11,3-2.49,3.89-2.52,1.64-6.94,3.47-11.88,5.37-36.21,13.91-36.66,44.62-36.66,51.4q0,22.39,12.67,37.39c3.41,4.07,5.85,6.12,7.3,6.12.89,0,6.62-3.46,15.35-8.15a150.88,150.88,0,0,1,15.74-7.21c2.16,3.74,3.77,6.47,4.83,8.16,3.24,4.9,6.54,7.23,9.23,7.23,1.27,0,4,.26,11-4.82,6.13-4.5,9.76-9.27,10.5-11A1.64,1.64,0,0,0,694.69,982.13Zm-35-12.14c-2.7.89-7.34,2.84-8.05,3.2a24.41,24.41,0,0,1-9.55-8.7c-4-6-7.82-20.53-.27-36.66,3.08-6.62,10.3-13.5,17.87-15.31ZM546.41,877.4a5.86,5.86,0,0,0-.27.59,204.3,204.3,0,0,1-14.47,22.16c-8-5.73-14.74-9.14-17.09-9.14h-.16a.79.79,0,0,0-.22,0,5,5,0,0,0-3,2L506,900.87a5.07,5.07,0,0,0-.73,2.52c0,.77,0,82.41,0,82.41l0,13.77H475.16s0-87,0-94.89c0-3.68-.34-4.41-2.74-6.68a55.28,55.28,0,0,0-12.23-8.88c2.32-5,13.32-22.54,15.33-25.42,1.81-2.6,5.41-1,5.41-1,11.28,4.27,24.08,20.57,24.25,20.8,3.22-5,10.5-16.06,13.37-20,3.75-5.13,10.1-1.28,10.1-1.28a70.53,70.53,0,0,1,17.23,10.42C546.25,872.93,547.94,874.63,546.41,877.4ZM559,807.22c0-.93,1.41-2.92,3.28-.87,1,1.08,3,4.09,6.52,6,8.39,4.59,12.51,1.51,19.91,8.29a13.22,13.22,0,0,1,4.25,9.92s-.13,16.07-.13,16.27c0,1.89-1.65,2-4.12-.24-7.43-6.76-11.77-3.68-20.27-8-4.22-2.16-5.76-3.75-7.15-5.66a13.6,13.6,0,0,1-2.23-7.48S559,808.15,559,807.22ZM406.77,965.84c-.54-12.64,13.9-27.29,39.43-34.52,2.11-.6,2.59-.81,4.72-1.53a3.65,3.65,0,0,0,2.77-3.89c-2.16-34.62-21.17-57.76-35.82-64.45a5,5,0,0,0-3.95-.05c-8.72,3.53-27.58,16.93-35.9,24.27a4.26,4.26,0,0,0-1.6,3.52l-.16,80.86h0s-.15,8.7,2.77,14.91a23.06,23.06,0,0,0,10.62,10.81c.45.21-.31-.21,0,0a52.87,52.87,0,0,0,12.9,3.85c18.29,2.93,31.08-1.32,40.1-8.73,6.15-5.06,10.4-11.52,11.86-17.67C432.89,982.59,407.33,978.75,406.77,965.84Zm-.61-85.1S420.4,895,423.44,923.31c.12,1,.14,3.19-1.54,4.21-2.31,1.4-6.49,4.06-10.29,6.85A39.06,39.06,0,0,0,406,939.1ZM95.21,826a20.16,20.16,0,0,1-2.63,5.51c-4.89,8.08-10.47,14.85-12.86,20.36a15.24,15.24,0,0,0-1,5.32s.11,4.12.06,4.1c-.06,24.53.08,131.53.08,131.53v.12l0,.24v.27h0a7.14,7.14,0,0,1-4,6.68l-.94.3v0l-28.42,9.92c0-.08-.11-.15-.05-.25s1-1.08,2.14-6.94a53.51,53.51,0,0,0,.71-10.12l.1-21.94c0-37.12,0-114,0-119.8,0-5.1-1.19-10.5-8.06-14.44-6.06-3.43-13.28-2-13.28-2,2.16-4.37,12.67-21.52,16.09-25.11,3-3.13,7.91-1.84,7.91-1.84,7.66,1.52,12.78,10.67,22,15.91C81.62,828.61,88.56,829.2,95.21,826Z"/></g></g></g></svg>