<svg xmlns="http://www.w3.org/2000/svg" viewBox="0 0 775.36 511.98"><defs><style>.cls-1,.cls-3{fill:#000014;}.cls-2{fill:#009ca7;}.cls-3,.cls-4{fill-rule:evenodd;}.cls-4,.cls-5{fill:#fff;}.cls-6{fill:#ed1c24;}</style></defs><title>magic-hat</title><g id="Layer_2" data-name="Layer 2"><g id="Layer_1-2" data-name="Layer 1"><path class="cls-1" d="M654.25,68.74C582.46,24.41,487.79,0,387.68,0S192.9,24.41,121.11,68.74C43,117,0,183.47,0,256S43,395,121.11,443.24C192.9,487.57,287.56,512,387.68,512s194.79-24.41,266.57-68.74C732.35,395,775.36,328.51,775.36,256S732.35,117,654.25,68.74Z"/><path class="cls-2" d="M442.32,334.28c-1.15.32-2.32.64-3.5.94l18.51,15.65c1.13-.34,2.25-.69,3.37-1.05Z"/><path class="cls-2" d="M434.41,336.28c-1.21.28-2.44.54-3.68.79l18.88,16c1.17-.3,2.33-.62,3.49-.94Z"/><path class="cls-2" d="M449.84,331.94c-1.09.38-2.2.74-3.32,1.1l18.25,15.44,3.25-1.15Z"/><path class="cls-2" d="M463.69,326.27c-1,.47-2,.93-3,1.38L478.86,343c1-.44,2-.89,3-1.35Z"/><path class="cls-2" d="M457,329.27c-1,.42-2.08.83-3.14,1.24L472,345.85l3.13-1.25Z"/><path class="cls-2" d="M470,322.92c-.91.52-1.84,1-2.79,1.54l18.29,15.47c1-.48,1.94-1,2.89-1.45Z"/><path class="cls-2" d="M426.1,337.94c-1.28.23-2.57.43-3.88.63L441.61,355c1.21-.27,2.42-.55,3.62-.84Z"/><path class="cls-2" d="M408.18,340.18q-2.12.17-4.26.3l20.79,17.59q2-.29,3.9-.6Z"/><path class="cls-2" d="M398.54,340.73c-1.48,0-3,.08-4.48.11l21.72,18.37c1.36-.14,2.71-.3,4.05-.47Z"/><path class="cls-2" d="M417.35,339.24c-1.34.17-2.69.33-4.06.47l20,16.94c1.27-.23,2.52-.47,3.76-.72Z"/><path class="cls-2" d="M491.13,306c-.64.74-1.3,1.48-2,2.21l20.24,17.11c.81-.62,1.6-1.25,2.38-1.88Z"/><path class="cls-2" d="M503.1,264a40.74,40.74,0,0,1,.83,4.6l31.12,26.33c.43-.95.85-1.91,1.23-2.87Z"/><path class="cls-2" d="M504.25,273.63c0,1.26-.05,2.51-.16,3.77l27.8,23.52c.52-.88,1-1.76,1.49-2.65Z"/><path class="cls-2" d="M497.33,250.38c.47.79,1,1.56,1.41,2.37a45.82,45.82,0,0,1,2.2,4.59l36.63,31c.33-1,.63-2.09.88-3.15Z"/><path class="cls-2" d="M503.49,281.68q-.32,1.63-.75,3.27l25.45,21.53c.6-.81,1.17-1.63,1.72-2.45Z"/><path class="cls-2" d="M443.16,195.87c-1.75-.2-3.49-.37-5.23-.52l101.34,85.72c.18-1.18.34-2.35.43-3.54Z"/><path class="cls-2" d="M388.43,340.86h-1.72c-1,0-2-.06-3-.09l22.82,19.3c1.41-.1,2.81-.21,4.21-.34Z"/><path class="cls-2" d="M481.46,315.21c-.79.63-1.6,1.24-2.43,1.85l19,16.05c.9-.55,1.78-1.1,2.65-1.66Z"/><path class="cls-2" d="M486.53,310.81c-.72.68-1.46,1.36-2.22,2l19.52,16.52,2.52-1.77Z"/><path class="cls-2" d="M501.55,288.73c-.36,1-.75,1.94-1.18,2.91l23.68,20c.66-.76,1.29-1.52,1.91-2.29Z"/><path class="cls-2" d="M495.22,300.77c-.56.81-1.14,1.62-1.76,2.42l21.14,17.87c.76-.66,1.51-1.33,2.24-2Z"/><path class="cls-2" d="M476,319.25c-.85.57-1.72,1.14-2.61,1.69l18.55,15.7,2.78-1.56Z"/><path class="cls-2" d="M266.73,259.21c0-1,0-2.11,0-3.18,0-.22,0-.43.05-.64l-26.76-22.63c-.33,1-.64,2.06-.93,3.11Z"/><path class="cls-2" d="M287.3,207.05c.68-.72,1.39-1.42,2.11-2.12l-17.82-15.07c-.79.63-1.57,1.27-2.35,1.92Z"/><path class="cls-2" d="M292.1,202.41c.75-.66,1.5-1.33,2.28-2L277,185.75c-.84.6-1.66,1.2-2.48,1.82Z"/><path class="cls-2" d="M282.93,212.05c.62-.78,1.24-1.55,1.89-2.3L266.44,194.2c-.75.67-1.49,1.34-2.22,2Z"/><path class="cls-2" d="M275.55,223.2c.48-.89,1-1.79,1.47-2.66l-20-16.9c-.65.75-1.3,1.51-1.93,2.27Z"/><path class="cls-2" d="M279,217.42c.55-.83,1.13-1.65,1.71-2.46l-19.13-16.18c-.71.71-1.4,1.42-2.08,2.14Z"/><path class="cls-2" d="M297.3,198.12c.81-.62,1.63-1.22,2.46-1.82l-17-14.42c-.88.56-1.74,1.13-2.59,1.71Z"/><path class="cls-2" d="M204.73,285c-.54-1.7-1-3.42-1.47-5.15l-43.39-36.71c-.18,1.18-.34,2.35-.46,3.52Z"/><path class="cls-2" d="M328.75,181.25l3.25-1.16-17.12-14.47c-1.05.41-2.09.83-3.12,1.25Z"/><path class="cls-2" d="M308.85,190.49c.91-.52,1.84-1,2.78-1.55l-16.76-14.18q-1.42.75-2.82,1.53Z"/><path class="cls-2" d="M302.88,194.14c.86-.57,1.74-1.12,2.63-1.67l-16.84-14.25q-1.37.79-2.7,1.62Z"/><path class="cls-2" d="M315.13,187.11c1-.48,2-.93,3-1.39l-16.79-14.2c-1,.47-1.95.94-2.92,1.43Z"/><path class="cls-2" d="M469.18,200.49q-3.17-.83-6.39-1.51l75.9,64.21a49.18,49.18,0,0,0-1.44-5.13Z"/><path class="cls-2" d="M270.73,280q-1-2.69-1.82-5.45l-32.05-27.1c-.13,1.2-.24,2.4-.32,3.62Z"/><path class="cls-2" d="M320.58,327a126.7,126.7,0,0,1-11.52-5.85l44.34,37.51c1.78.24,3.57.46,5.39.66Z"/><path class="cls-2" d="M272.61,229.4c.4-1,.82-1.9,1.26-2.83l-21-17.79c-.61.79-1.2,1.59-1.78,2.4Z"/><path class="cls-2" d="M338.91,333.76c-2.57-.77-5.08-1.61-7.55-2.49l33.81,28.6c1.67.14,3.36.27,5.05.37Z"/><path class="cls-2" d="M353.42,337.33q-3.17-.63-6.25-1.38l29.07,24.6c1.59.06,3.19.11,4.79.15Z"/><path class="cls-2" d="M267.53,268.59c-.25-1.46-.44-2.92-.58-4.39l-28.82-24.38c-.24,1.1-.46,2.22-.65,3.34Z"/><path class="cls-2" d="M270.2,236.07c.32-1,.64-2.06,1-3.06L249,214.23c-.55.84-1.08,1.69-1.6,2.55Z"/><path class="cls-2" d="M268.39,243.23c.23-1.11.47-2.2.74-3.28L245.56,220c-.49.9-1,1.8-1.41,2.71Z"/><path class="cls-2" d="M267.17,250.9c.13-1.19.3-2.35.48-3.51l-25.08-21.21c-.42,1-.81,1.92-1.19,2.9Z"/><path class="cls-2" d="M377.7,340.49c-1.7-.11-3.38-.23-5.06-.38l24.21,20.48c1.47,0,2.93-.11,4.39-.19Z"/><path class="cls-2" d="M405.18,124.16l4.79.16-29.54-25c-1.5,0-3,.08-4.46.13Z"/><path class="cls-2" d="M217.05,199.8c.55-.84,1.11-1.66,1.69-2.48l-25.68-21.71c-.65.75-1.29,1.51-1.92,2.27Z"/><path class="cls-2" d="M239.08,175c.76-.66,1.52-1.32,2.29-2l-24.31-20.56-2.34,1.92Z"/><path class="cls-2" d="M229.45,184.2c.68-.72,1.38-1.43,2.08-2.14l-24.62-20.83c-.74.68-1.46,1.37-2.18,2.06Z"/><path class="cls-2" d="M220.89,194.36c.6-.8,1.2-1.59,1.82-2.37l-25.22-21.34c-.68.74-1.35,1.47-2,2.21Z"/><path class="cls-2" d="M280,148.69c1-.47,2-.94,3-1.39l-24.63-20.84c-1,.47-2,.94-2.93,1.43Z"/><path class="cls-2" d="M234.15,179.48c.72-.7,1.44-1.38,2.18-2.06L211.9,156.75l-2.26,2Z"/><path class="cls-2" d="M249.68,166.53l2.5-1.78-24.24-20.51c-.84.59-1.68,1.18-2.51,1.78Z"/><path class="cls-2" d="M267.24,155.3c.93-.52,1.86-1,2.79-1.54L245.61,133.1c-.92.52-1.83,1.05-2.74,1.58Z"/><path class="cls-2" d="M273.51,151.91c1-.5,1.91-1,2.88-1.47L251.87,129.7,249,131.21Z"/><path class="cls-2" d="M261.17,158.86q1.33-.83,2.7-1.62l-24.33-20.58c-.89.55-1.79,1.09-2.67,1.65Z"/><path class="cls-2" d="M255.32,162.61c.86-.58,1.72-1.15,2.59-1.71l-24.26-20.53c-.87.57-1.73,1.15-2.58,1.72Z"/><path class="cls-2" d="M244.26,170.64c.8-.63,1.6-1.25,2.41-1.86l-24.26-20.52L220,150.11Z"/><path class="cls-2" d="M200.23,255.13c0-1.29,0-2.57.09-3.83l-34.93-29.54c-.36,1-.71,2-1,3Z"/><path class="cls-2" d="M200.61,246.76q.15-1.81.36-3.6l-33-27.91c-.41,1-.81,1.93-1.19,2.89Z"/><path class="cls-2" d="M201.94,274c-.29-1.51-.55-3-.77-4.54l-39.89-33.75c-.26,1.11-.49,2.21-.7,3.31Z"/><path class="cls-2" d="M200.58,264.13c-.12-1.37-.21-2.75-.27-4.13l-37.17-31.45c-.32,1.06-.61,2.11-.89,3.15Z"/><path class="cls-2" d="M201.58,238.89c.19-1.14.4-2.26.63-3.38L170.84,209q-.68,1.4-1.32,2.79Z"/><path class="cls-2" d="M210.33,211.51c.45-.92.9-1.84,1.38-2.74L184.79,186q-.89,1.22-1.74,2.43Z"/><path class="cls-2" d="M213.51,205.5c.5-.87,1-1.73,1.55-2.59l-26.23-22.19c-.62.78-1.24,1.56-1.84,2.34Z"/><path class="cls-2" d="M203.1,231.48c.26-1.08.55-2.14.84-3.19l-30-25.35c-.5.89-1,1.79-1.44,2.68Z"/><path class="cls-2" d="M207.52,217.82c.39-1,.79-1.92,1.21-2.87L181,191.46c-.56.84-1.11,1.67-1.65,2.51Z"/><path class="cls-2" d="M205.09,224.47c.33-1,.68-2,1-3L177.36,197.1c-.52.87-1.05,1.73-1.55,2.59Z"/><path class="cls-2" d="M323.06,133l3.52-.93-25.5-21.57-3.46,1Z"/><path class="cls-2" d="M476.91,154.85c-2-.39-4-.78-6-1.14l37.31,31.57c3.91,1.77,7.69,3.66,11.31,5.66Z"/><path class="cls-2" d="M286.65,145.64c1-.45,2-.88,3.07-1.31l-24.79-21-3,1.37Z"/><path class="cls-2" d="M336.05,178.73c1.11-.36,2.23-.72,3.37-1.06L322,163c-1.08.38-2.16.77-3.23,1.17Z"/><path class="cls-2" d="M384.34,123.93l2.84,0h1.76l-28-23.65-4.19.35Z"/><path class="cls-2" d="M394.65,124l4.7.07L370.57,99.68c-1.45.07-2.91.14-4.34.23Z"/><path class="cls-2" d="M374.53,124.32c1.46-.09,2.91-.17,4.34-.23l-27.19-23-4.09.44Z"/><path class="cls-2" d="M499.17,212.37l24,20.32A85.1,85.1,0,0,0,499.17,212.37Z"/><path class="cls-2" d="M423.58,148.42,448,169q2.76.33,5.47.72l-24.95-21.1Z"/><path class="cls-2" d="M451.48,150.73c-1.79-.22-3.57-.43-5.36-.62L474,173.67q3.35.81,6.62,1.7Z"/><path class="cls-2" d="M463.84,152.49c-1.88-.3-3.75-.58-5.63-.85L489.35,178c2.68.86,5.29,1.78,7.86,2.74Z"/><path class="cls-2" d="M439.71,149.47c-1.71-.15-3.41-.29-5.11-.41l25.79,21.81c2,.34,4,.72,5.93,1.11Z"/><path class="cls-2" d="M426.94,125.18l5,.35-31-26.2c-1.56,0-3.12,0-4.69-.06Z"/><path class="cls-2" d="M315.37,135.14c1.14-.34,2.28-.68,3.43-1L293.45,112.7l-3.36,1.06Z"/><path class="cls-2" d="M307.89,137.51q1.67-.56,3.33-1.08L286,115.1l-3.26,1.15Z"/><path class="cls-2" d="M485.89,205.92c-2.65-1.07-5.35-2-8.09-2.93l56.5,47.79c-1.09-2.39-2.26-4.67-3.5-6.87Z"/><path class="cls-2" d="M293.53,142.76l3.15-1.24-24.91-21.07-3.09,1.29Z"/><path class="cls-2" d="M300.61,140.05c1.07-.39,2.15-.78,3.24-1.16L278.79,117.7c-1.06.4-2.13.8-3.18,1.21Z"/><path class="cls-2" d="M339.12,129.15c1.25-.26,2.49-.5,3.73-.74L317,106.55c-1.22.26-2.45.53-3.66.81Z"/><path class="cls-2" d="M331,131q1.81-.44,3.63-.84L308.92,108.4l-3.54.91Z"/><path class="cls-2" d="M347.51,127.56c1.3-.23,2.58-.44,3.86-.64l-26.06-22c-1.26.23-2.51.47-3.76.72Z"/><path class="cls-2" d="M356.18,126.19c1.34-.18,2.67-.36,4-.52L333.85,103.4c-1.3.2-2.58.42-3.86.64Z"/><path class="cls-2" d="M365.18,125.1l4.14-.39-26.67-22.57c-1.33.18-2.67.35-4,.54Z"/><path class="cls-2" d="M321.79,184.06c1-.44,2-.88,3.08-1.3L308,168.47c-1,.44-2,.89-3,1.34Z"/><path class="cls-2" d="M449.82,196.7l90,76.17c0-1.38-.12-2.75-.27-4.13l-84.12-71.16Q452.65,197.1,449.82,196.7Z"/><path class="cls-2" d="M498.73,295c-.47.89-1,1.77-1.49,2.64l22.26,18.84c.72-.71,1.41-1.42,2.09-2.14Z"/><path class="cls-2" d="M438.23,126c1.72.15,3.44.3,5.16.47L411.57,99.58c-1.6,0-3.18-.11-4.79-.14Z"/><path class="cls-2" d="M225,189.15q1-1.12,1.95-2.25l-24.87-21c-.71.7-1.41,1.41-2.1,2.12Z"/><path class="cls-2" d="M241.61,286.23c.74,2,1.57,4,2.47,6l66.13,55.93q3.81,1.43,7.78,2.68Z"/><path class="cls-2" d="M366.15,339.41q-2.79-.35-5.53-.78l26.16,22.14h.4c1.4,0,2.79,0,4.18,0Z"/><path class="cls-2" d="M415.94,124.57c1.63.07,3.27.15,4.9.24L390.6,99.23h-1.5c-1,0-2.06,0-3.09,0Z"/><path class="cls-2" d="M474.17,130.35q2.86.45,5.71.93L444.6,101.43l-5.1-.41Z"/><path class="cls-2" d="M449.83,127.15c1.77.19,3.55.39,5.32.6L422.34,100l-4.86-.2Z"/><path class="cls-2" d="M456.12,102.49c-1.72-.18-3.46-.34-5.21-.5l36.15,30.58q3,.56,6,1.16Z"/><path class="cls-2" d="M461.79,128.57c1.83.24,3.67.49,5.5.75l-34-28.72-5-.29Z"/><path class="cls-2" d="M248.62,300.86a89.26,89.26,0,0,0,6.49,9.39l32.19,27.23c3.76,2.17,7.7,4.21,11.81,6.09Z"/><path class="cls-2" d="M395.3,168c1.43-.1,2.86-.2,4.28-.28L378.69,150c-1.34.16-2.67.33-4,.51Z"/><path class="cls-2" d="M404.93,167.43c1.49-.06,3-.1,4.45-.14L387.87,149.1c-1.4.11-2.79.24-4.17.38Z"/><path class="cls-2" d="M415,167.2c1.55,0,3.09,0,4.63,0l-22.16-18.75c-1.45.07-2.9.15-4.34.24Z"/><path class="cls-2" d="M444.76,235.9l25.38,21.47c-.05-.22-.08-.43-.12-.65a18.22,18.22,0,0,0-2-5.07l-14.35-12.13A68.35,68.35,0,0,0,444.76,235.9Z"/><path class="cls-2" d="M430.3,232.36l40.78,34.5c0-1.33,0-2.66-.12-4l-34.63-29.29C434.37,233.12,432.36,232.71,430.3,232.36Z"/><path class="cls-2" d="M417.7,148.24c-1.57,0-3.14-.06-4.7-.07l23.35,19.75c1.72.13,3.43.27,5.13.43Z"/><path class="cls-2" d="M236.77,264.74c.13,1.47.32,2.92.53,4.36l103.4,87.47c1.92.36,3.87.71,5.84,1Z"/><path class="cls-2" d="M274.51,288l-38.14-32.26c0,.14,0,.29,0,.43,0,1.19,0,2.36.08,3.53l44,37.2A71.88,71.88,0,0,1,274.51,288Z"/><path class="cls-2" d="M238.3,274.74q.54,2.49,1.21,4.92l87.13,73.7c2.15.57,4.32,1.12,6.53,1.62Z"/><path class="cls-2" d="M425.39,167.35c1.63.05,3.25.11,4.85.2l-22.89-19.37c-1.51,0-3,0-4.51.09Z"/><path class="cls-2" d="M179.41,320.57c1.92,3.06,4,6.13,6.24,9.18l58.12,49.17q5.32,2.83,11.07,5.46Z"/><path class="cls-2" d="M154.34,181.53c.56-.82,1.13-1.63,1.71-2.45l-24.82-21c-.71.71-1.39,1.43-2.08,2.14Z"/><path class="cls-2" d="M90.14,288.54q.64,2.55,1.39,5.07L245.47,423.83q3.65,1.19,7.33,2.3Z"/><path class="cls-2" d="M523.59,81.3c-2.1-.51-4.23-1-6.37-1.48l25.35,21.44q3.73,1.14,7.35,2.32Z"/><path class="cls-2" d="M527.05,96.82q3.47.93,6.84,1.88L509.61,78.16c-2-.41-4-.81-6.05-1.21Z"/><path class="cls-2" d="M93.66,300.21c.68,1.92,1.39,3.83,2.15,5.72l132.1,111.74c2.7,1,5.41,2,8.15,3Z"/><path class="cls-2" d="M627.16,207.59l61.23,51.8c-.15-1.21-.32-2.41-.52-3.61,0-.29-.11-.58-.16-.87l-68.2-57.69A113,113,0,0,1,627.16,207.59Z"/><path class="cls-2" d="M512.48,93.19c2.16.51,4.31,1,6.43,1.54L496.28,75.59c-1.92-.34-3.85-.68-5.81-1Z"/><path class="cls-2" d="M99.16,313.55q1.64,3.45,3.46,6.83l105.15,88.95q4.68,2.12,9.49,4.12Z"/><path class="cls-2" d="M367.05,427.13c-1.64-.06-3.26-.14-4.88-.22L384,445.34l3,0,1.65,0Z"/><path class="cls-2" d="M108.29,330c2.07,3.23,4.29,6.4,6.63,9.52l67.17,56.81q6.18,3.52,12.66,6.82Z"/><path class="cls-2" d="M129.5,355.41l-.23-.19c-.89-.59-1.8-1.22-2.71-1.85a213.58,213.58,0,0,0,33.79,29.19c-3.37-2.95-6.76-5.81-10.09-8.62C143.33,368.1,136.16,362.07,129.5,355.41Z"/><path class="cls-2" d="M485.45,87.72q3,.51,5.86,1l-20.14-17c-1.8-.24-3.6-.48-5.43-.69Z"/><path class="cls-2" d="M170.69,304.5c1,2.22,2.13,4.46,3.32,6.71l92.21,78c2.66,1,5.4,2.05,8.2,3Z"/><path class="cls-2" d="M307.06,280.74A60.46,60.46,0,0,0,317,293l6.6,5.58a83.32,83.32,0,0,0,15.22,9Z"/><path class="cls-2" d="M200.33,347a168.74,168.74,0,0,0,22.8,19.29Z"/><path class="cls-2" d="M498.64,90.19q3.09.61,6.13,1.28l-21.3-18c-1.83-.28-3.7-.54-5.56-.8Z"/><path class="cls-2" d="M165.37,291.31c.65,1.87,1.34,3.76,2.1,5.68L283.69,395.3c2.31.71,4.66,1.39,7.05,2.06Z"/><path class="cls-2" d="M162,279.73q.6,2.47,1.33,5L298.92,399.48q3.13.76,6.36,1.48Z"/><path class="cls-2" d="M159.93,269.31c.22,1.49.48,3,.77,4.56L312.78,402.51q2.93.57,5.91,1.1Z"/><path class="cls-2" d="M354.45,381.69c-1.8-.2-3.58-.41-5.35-.63l33.12,28c1.41,0,2.81,0,4.25,0h.4Z"/><path class="cls-2" d="M499,160.07,613.26,256.7c0-.3,0-.61,0-.92-.07-1.09-.17-2.18-.29-3.27L506,162.06Q502.53,161,499,160.07Z"/><path class="cls-2" d="M484.47,156.45,613.41,265.53c0-1.3,0-2.6,0-3.89L490.86,158C488.74,157.44,486.61,156.93,484.47,156.45Z"/><path class="cls-2" d="M403,301c-1.33.18-2.69.34-4.06.46L415,315.08c1.28-.22,2.54-.45,3.78-.71Z"/><path class="cls-2" d="M426,294.34c-1,.47-2,.93-3,1.36l15.15,12.82c1-.44,2-.89,3-1.35Z"/><path class="cls-2" d="M437.41,286.65c-.71.67-1.47,1.33-2.27,2l15.52,13.13q1.29-.88,2.49-1.8Z"/><path class="cls-2" d="M432.09,290.84c-.85.57-1.74,1.12-2.66,1.65l15.23,12.89c.95-.51,1.87-1,2.77-1.57Z"/><path class="cls-2" d="M444.34,275.12a16.82,16.82,0,0,1-.94,3.11l17.38,14.71c.67-.76,1.3-1.52,1.9-2.3Z"/><path class="cls-2" d="M370.72,299.8a72.47,72.47,0,0,1-7-2l23.19,19.62c1.53,0,3,0,4.53-.07Z"/><path class="cls-2" d="M441.67,281.56a27.32,27.32,0,0,1-1.76,2.41l16.14,13.65c.76-.66,1.5-1.34,2.21-2Z"/><path class="cls-2" d="M383.23,301.68c-1.75-.11-3.5-.29-5.24-.53l18.85,16c1.45-.08,2.87-.18,4.27-.29Z"/><path class="cls-2" d="M393.66,301.82c-1.49.05-3,.08-4.52.07l17.06,14.44c1.37-.15,2.71-.32,4-.5Z"/><path class="cls-2" d="M343.65,176.46l3.5-.94-17.76-15c-1.12.35-2.23.71-3.34,1.08Z"/><path class="cls-2" d="M419,297.2q-1.62.57-3.33,1.08L431,311.18c1.12-.36,2.19-.75,3.26-1.14Z"/><path class="cls-2" d="M411.41,299.43c-1.21.29-2.43.56-3.68.8l15.53,13.14c1.2-.3,2.38-.6,3.53-.92Z"/><path class="cls-2" d="M443.16,265.42a16.21,16.21,0,0,1,1.4,5.1l20.25,17.12c.55-.85,1.06-1.72,1.54-2.59Z"/><path class="cls-2" d="M377,169.86c1.33-.18,2.66-.35,4-.51l-19.73-16.69-3.77.71Z"/><path class="cls-2" d="M386,168.8l1.67-.18,2.47-.22-20.3-17.17c-1.3.19-2.6.4-3.89.61Z"/><path class="cls-2" d="M368.2,171.14c1.29-.21,2.6-.4,3.91-.6l-19.19-16.23q-1.85.39-3.66.81Z"/><path class="cls-2" d="M351.54,174.43c1.2-.28,2.42-.55,3.65-.81L337,158.23l-3.44,1Z"/><path class="cls-2" d="M359.74,172.68c1.25-.25,2.49-.5,3.76-.73l-18.66-15.78c-1.19.29-2.37.59-3.55.9Z"/><path class="cls-2" d="M420.83,194.37l-4.75-.12,23.06,19.51c2.14.46,4.29,1,6.43,1.53Z"/><path class="cls-2" d="M301.23,267.1a48.67,48.67,0,0,0,1.77,5.4l46.33,39.19q3.42,1.13,7,2Z"/><path class="cls-2" d="M410.34,194.2h-4.61l20.53,17.37c1.85.23,3.71.51,5.58.81Z"/><path class="cls-2" d="M412.26,230.59c-1.56,0-3.12-.06-4.69-.06L468,281.64c.42-1,.79-2,1.12-3Z"/><path class="cls-2" d="M431.71,194.88c-1.65-.11-3.3-.2-4.94-.28L454.41,218q4.41,1.53,8.68,3.44Z"/><path class="cls-2" d="M423.49,231.4c-1.71-.2-3.44-.36-5.19-.49l51.88,43.88c.25-1.12.46-2.24.61-3.39Z"/><path class="cls-2" d="M380.31,238.35a8.3,8.3,0,0,0,2.18,5.74l3.16,2.68a21.51,21.51,0,0,0,7.9,2.78Z"/><path class="cls-2" d="M384.14,232.89a7.09,7.09,0,0,0-2.43,1.85L399.77,250c1.72.05,3.28.07,4.71.08Z"/><path class="cls-2" d="M392.6,231.35c-1.35.15-2.7.31-4,.49l21.55,18.23c1.74,0,3.2-.09,4.45-.14Z"/><path class="cls-2" d="M384.57,211.07c1.27-.14,2.67-.28,4.14-.4L371.33,196c-1.3.2-2.59.41-3.86.64Z"/><path class="cls-2" d="M402.05,230.65c-1.44.06-2.89.14-4.34.24L420,249.76a19.33,19.33,0,0,1,5.82,1Z"/><path class="cls-2" d="M394,210.33c1.42-.07,2.88-.13,4.41-.17l-18-15.22c-1.4.11-2.78.24-4.15.39Z"/><path class="cls-2" d="M299.66,257.08c.08,1.43.21,2.85.41,4.25L364,315.38c1.85.33,3.74.62,5.65.88Z"/><path class="cls-2" d="M350.81,291.65a50.73,50.73,0,0,1-11.73-9.92L300,248.68a36.09,36.09,0,0,0-.37,3.59l76.45,64.67c1.65.13,3.3.24,5,.31Z"/><path class="cls-2" d="M404,210.11c1.54,0,3.1,0,4.71.08l-18.58-15.71-2.94.07-1.5.07Z"/><path class="cls-2" d="M400.15,194.26l-4.52.08,19.07,16.13q2.49.15,5.07.39Z"/><path class="cls-2" d="M376.17,212.67c1.27-.32,2.48-.6,3.64-.83l-16.92-14.31c-1.21.27-2.41.55-3.6.85Z"/><path class="cls-2" d="M343.5,228.5c.78-.64,1.57-1.27,2.39-1.88l-17.82-15.07c-.88.56-1.74,1.13-2.59,1.71Z"/><path class="cls-2" d="M331.37,244.33c.38-1,.8-1.91,1.27-2.83l-20.15-17.05c-.68.74-1.33,1.5-1.95,2.25Z"/><path class="cls-2" d="M334.52,238.3c.54-.83,1.13-1.64,1.74-2.43l-19-16.11c-.75.68-1.48,1.36-2.18,2.06Z"/><path class="cls-2" d="M329.52,251.46a30.39,30.39,0,0,1,.62-3.37l-21.86-18.5c-.59.82-1.15,1.64-1.69,2.47Z"/><path class="cls-2" d="M329.54,260.17c-.16-1.35-.24-2.73-.27-4.13l-24.58-20.79q-.74,1.35-1.38,2.73Z"/><path class="cls-2" d="M338.63,233.08c.67-.73,1.37-1.44,2.09-2.13l-18.3-15.48c-.82.61-1.61,1.24-2.39,1.88Z"/><path class="cls-2" d="M332.57,271.43a38.69,38.69,0,0,1-1.94-5.55l-28.77-24.33c-.36,1-.68,2-1,3.09Z"/><path class="cls-2" d="M368.59,215c1.13-.4,2.24-.76,3.33-1.09L355,199.55c-1.14.34-2.27.68-3.38,1Z"/><path class="cls-2" d="M355,220.85c1-.51,1.91-1,2.87-1.47l-17.23-14.57c-1,.45-2,.9-3,1.38Z"/><path class="cls-2" d="M361.56,217.69q1.54-.67,3.09-1.29L347.6,202c-1.07.39-2.13.79-3.17,1.21Z"/><path class="cls-2" d="M349,224.44c.87-.57,1.76-1.12,2.65-1.66L334.15,208c-.94.51-1.87,1-2.78,1.55Z"/><path class="cls-2" d="M318.59,85.69l3.82-.67L308.8,73.51c-1.27.22-2.54.45-3.8.69Z"/><path class="cls-2" d="M377.69,427.43c-1.6,0-3.17-.08-4.76-.12l21.28,18,4.55-.05Z"/><path class="cls-2" d="M356.12,426.58c-1.67-.11-3.34-.21-5-.33l22.37,18.93,4.74.1Z"/><path class="cls-2" d="M388.06,427.51h-1.12c-1.18,0-2.34,0-3.52,0l20.86,17.64c1.49,0,3-.06,4.47-.11Z"/><path class="cls-2" d="M398.2,427.4l-4.52.07,20.48,17.32c1.46-.06,2.94-.11,4.4-.18Z"/><path class="cls-2" d="M408.16,427.12l-4.43.16,20.14,17c1.44-.08,2.89-.15,4.32-.24Z"/><path class="cls-2" d="M417.93,426.68l-4.36.22,19.84,16.79c1.42-.11,2.85-.2,4.25-.32Z"/><path class="cls-2" d="M294.9,418.27c-2.15-.48-4.26-1-6.36-1.48l27.7,23.43q2.76.4,5.53.78Z"/><path class="cls-2" d="M344.86,425.74c-1.73-.15-3.46-.3-5.17-.47l23,19.49c1.62.08,3.25.15,4.87.21Z"/><path class="cls-2" d="M308.36,421q-3-.54-5.93-1.12l26,22c1.77.22,3.55.42,5.33.61Z"/><path class="cls-2" d="M321.06,423l-5.62-.85,24.79,21c1.72.17,3.44.33,5.17.47Z"/><path class="cls-2" d="M333.23,424.6c-1.82-.21-3.61-.44-5.4-.67l23.83,20.16,5,.33Z"/><path class="cls-2" d="M463.82,422c-1.3.2-2.62.38-3.93.57l18.73,15.85,3.86-.63Z"/><path class="cls-2" d="M480.86,419.05l-3.76.73,18.47,15.62,3.72-.76Z"/><path class="cls-2" d="M489.1,417.33c-1.22.27-2.43.54-3.67.8l18.38,15.55,3.65-.82Z"/><path class="cls-2" d="M472.43,420.62l-3.85.65L487.17,437l3.79-.69Z"/><path class="cls-2" d="M505.06,413.44l-3.52.92,18.28,15.47,3.51-.94Z"/><path class="cls-2" d="M497.18,415.47l-3.6.85,18.32,15.5,3.57-.88Z"/><path class="cls-2" d="M280.45,414.74q-3.51-.94-6.92-1.95l30,25.37q2.88.51,5.77,1Z"/><path class="cls-2" d="M446,424.36q-2,.24-4.08.45L461,441c1.34-.17,2.69-.33,4-.51Z"/><path class="cls-2" d="M436.85,425.3l-4.18.37L452,442c1.36-.15,2.73-.29,4.09-.45Z"/><path class="cls-2" d="M427.49,426.08l-4.28.28,19.57,16.56,4.17-.38Z"/><path class="cls-2" d="M455,423.27l-4,.52,18.89,16c1.32-.18,2.64-.37,3.94-.57Z"/><path class="cls-2" d="M222.84,392.09q-8.31-4.51-15.74-9.41l54.36,46c2.25.63,4.5,1.24,6.77,1.83Z"/><path class="cls-2" d="M135.89,218.1c.34-1,.68-2,1-3l-30.57-25.86c-.53.86-1.07,1.71-1.58,2.57Z"/><path class="cls-2" d="M133.8,225c.29-1.05.58-2.1.9-3.15L102.92,195c-.5.88-1,1.77-1.46,2.67Z"/><path class="cls-2" d="M129.86,247.77c.09-1.2.2-2.41.33-3.62L94.12,213.64c-.38,1-.72,2-1.08,3Z"/><path class="cls-2" d="M130.72,239.81c.16-1.15.35-2.29.55-3.44L96.79,207.21c-.42.95-.84,1.9-1.23,2.86Z"/><path class="cls-2" d="M138.3,211.45c.38-1,.79-1.94,1.19-2.9L110,183.61c-.57.83-1.12,1.66-1.67,2.49Z"/><path class="cls-2" d="M132.06,232.25c.23-1.1.48-2.19.73-3.28L99.72,201q-.69,1.38-1.35,2.76Z"/><path class="cls-2" d="M150.66,187.12c.54-.85,1.08-1.69,1.63-2.53l-25.67-21.71c-.67.73-1.34,1.47-2,2.21Z"/><path class="cls-2" d="M141,205c.43-.93.86-1.87,1.3-2.8l-28.44-24.06c-.6.8-1.18,1.61-1.75,2.42Z"/><path class="cls-2" d="M158.21,176.11c.59-.79,1.2-1.58,1.81-2.37l-24-20.32c-.73.69-1.45,1.38-2.16,2.08Z"/><path class="cls-2" d="M144,198.86c.46-.9.94-1.8,1.42-2.7L118,172.93c-.62.78-1.25,1.55-1.85,2.34Z"/><path class="cls-2" d="M147.22,192.9c.5-.88,1-1.75,1.52-2.62L122.2,167.83l-1.94,2.26Z"/><path class="cls-2" d="M512.76,411.25c-1.14.34-2.28.68-3.43,1l18.27,15.46,3.44-1Z"/><path class="cls-2" d="M129.56,256.21c0-.06,0-.12,0-.18,0-1.22,0-2.44.07-3.67l-37.83-32c-.33,1-.65,2.06-1,3.1Z"/><path class="cls-2" d="M170.93,352.08c-4-4.31-7.57-8.69-10.87-13.1L87.94,278q.39,2.32.84,4.62Z"/><path class="cls-2" d="M246.26,403.21c-3.23-1.33-6.4-2.7-9.48-4.12l39.5,33.41c2.11.51,4.23,1,6.37,1.48Z"/><path class="cls-2" d="M264.52,410q-4-1.32-7.82-2.71l33.55,28.37c2,.42,4,.82,6,1.21Z"/><path class="cls-2" d="M143.22,311.25c-1-2.11-1.95-4.21-2.83-6.3L86.2,259.12c0,1.34.08,2.69.15,4Z"/><path class="cls-2" d="M152.16,327.51q-2.43-3.88-4.57-7.78L86.71,268.24c.13,1.43.27,2.86.44,4.28Z"/><path class="cls-2" d="M137.56,297.77c-.68-1.85-1.31-3.69-1.89-5.5L86.29,250.5c-.06,1.26-.09,2.53-.11,3.81Z"/><path class="cls-2" d="M130,265.31c-.14-1.42-.25-2.81-.32-4.17L89.77,227.36c-.28,1.08-.52,2.17-.76,3.26Z"/><path class="cls-2" d="M131.38,275.15c-.28-1.53-.53-3-.74-4.53L88.17,234.7c-.22,1.13-.42,2.26-.6,3.4Z"/><path class="cls-2" d="M133.79,285.88c-.45-1.66-.85-3.3-1.22-4.93L87,242.38c-.14,1.19-.27,2.39-.38,3.58Z"/><path class="cls-2" d="M554.52,90.08c-2.42-.8-4.87-1.58-7.38-2.34L578,113.83q4.72,1.92,9.24,3.91Z"/><path class="cls-2" d="M644.53,261.87c.08,1.35.14,2.7.17,4l40,33.88c.31-1.05.61-2.11.88-3.16Z"/><path class="cls-2" d="M209.94,298.13q-1.47-3.08-2.73-6.21L159,251.16c-.07,1.28-.12,2.55-.13,3.79Z"/><path class="cls-2" d="M641.83,242.19q.52,2.33,1,4.71L688,285.12q.25-1.75.45-3.51Z"/><path class="cls-2" d="M638.52,230.69c.61,1.75,1.17,3.54,1.7,5.34l48.62,41.13q.12-1.89.18-3.75Z"/><path class="cls-2" d="M632.67,217.05q1.64,3.18,3.06,6.49L689,268.63q0-2-.18-4.05Z"/><path class="cls-2" d="M642.17,294.65c-.23,1.1-.46,2.2-.72,3.29l32.63,27.6c.49-.9,1-1.8,1.42-2.7Z"/><path class="cls-2" d="M535,117.05q-3.36-.94-6.8-1.85l158.36,134c-.36-1.63-.74-3.26-1.16-4.88Z"/><path class="cls-2" d="M640.44,301.88c-.28,1.05-.6,2.09-.91,3.13l31.19,26.39c.52-.86,1-1.73,1.55-2.59Z"/><path class="cls-2" d="M644.74,270.73c0,1.28,0,2.55-.1,3.82l37.91,32.07c.36-1,.7-2,1-3Z"/><path class="cls-2" d="M638.32,308.77c-.34,1-.7,2-1.07,3l29.89,25.27c.56-.83,1.09-1.67,1.63-2.52Z"/><path class="cls-2" d="M643.5,287.07c-.17,1.16-.34,2.31-.54,3.45l34.22,29c.45-.93.9-1.86,1.32-2.78Z"/><path class="cls-2" d="M644.37,279.12c-.09,1.21-.2,2.42-.33,3.62l36,30.44c.41-1,.79-1.94,1.17-2.91Z"/><path class="cls-2" d="M572.32,96.43c-2.71-1.05-5.46-2.09-8.28-3.1l35.65,30.16q6,2.9,11.5,5.83Z"/><path class="cls-2" d="M162.29,170.87c.62-.77,1.24-1.55,1.88-2.31l-23.25-19.67c-.75.67-1.5,1.33-2.24,2Z"/><path class="cls-2" d="M593.1,105.32c-3.18-1.5-6.47-3-9.84-4.42l45.22,38.25a272,272,0,0,1,24,16.45Z"/><path class="cls-2" d="M621.93,121q-6.93-4.33-14.74-8.56l71.7,60.65c-2.42-3.49-5.3-7.27-8.67-11.24Z"/><path class="cls-2" d="M667.73,168.45a207.4,207.4,0,0,1,18.12,19.23l2.61,2.21a68.51,68.51,0,0,0-3.24-6.64Z"/><path class="cls-2" d="M569.24,128.61c-2.76-1.11-5.57-2.18-8.42-3.23L679,225.39q-1.35-3.18-2.85-6.31Z"/><path class="cls-2" d="M551.12,122q-3.66-1.22-7.41-2.37L683.61,238c-.56-1.82-1.15-3.62-1.79-5.42Z"/><path class="cls-2" d="M531.67,83.34l27.69,23.43c2.75,1,5.44,2,8.09,2.94l-29-24.53Q535.1,84.23,531.67,83.34Z"/><path class="cls-2" d="M591.16,138.46q-5.13-2.58-10.54-5l91.08,77.05c-1.54-2.72-3.17-5.41-4.92-8.06Z"/><path class="cls-2" d="M607.28,147.3l50.2,42.47C644.67,174,628,159.7,607.28,147.3Z"/><path class="cls-2" d="M561.58,391.69l-2.85,1.48,19,16.09c1-.46,2-.91,3-1.38Z"/><path class="cls-2" d="M567.82,388.27l-2.77,1.56,19.26,16.28c1-.48,1.94-.95,2.9-1.44Z"/><path class="cls-2" d="M573.87,384.69c-.89.55-1.8,1.08-2.7,1.62l19.54,16.53c.95-.5,1.9-1,2.83-1.51Z"/><path class="cls-2" d="M520.28,408.92,516.93,410l18.29,15.46,3.37-1Z"/><path class="cls-2" d="M585.37,377c-.83.6-1.66,1.19-2.51,1.78l20.2,17.09c.91-.54,1.79-1.09,2.68-1.64Z"/><path class="cls-2" d="M579.71,380.94c-.86.57-1.72,1.14-2.6,1.7L597,399.43c.93-.52,1.85-1,2.76-1.57Z"/><path class="cls-2" d="M548.55,398.05c-1,.46-2,.91-3,1.35l18.65,15.77,3.11-1.27Z"/><path class="cls-2" d="M527.63,406.44l-3.28,1.13,18.34,15.51c1.1-.37,2.21-.73,3.3-1.11Z"/><path class="cls-2" d="M534.78,403.8c-1,.41-2.12.8-3.19,1.2L550,420.57l3.24-1.16Z"/><path class="cls-2" d="M555.17,395l-2.95,1.4L571,412.28c1-.44,2-.88,3-1.33Z"/><path class="cls-2" d="M590.83,373c-.8.62-1.61,1.24-2.43,1.85L609,392.23c.88-.56,1.73-1.13,2.6-1.7Z"/><path class="cls-2" d="M541.76,401l-3.1,1.28,18.51,15.66,3.17-1.22Z"/><path class="cls-2" d="M610.56,354.86c-.67.73-1.35,1.46-2,2.18l22.64,19.15c.79-.64,1.57-1.28,2.33-1.93Z"/><path class="cls-2" d="M626.62,333.66c-.52.85-1,1.71-1.6,2.55l25.62,21.68c.68-.74,1.36-1.47,2-2.2Z"/><path class="cls-2" d="M623,339.28c-.56.82-1.14,1.63-1.72,2.44l24.78,21q1.07-1.06,2.1-2.13Z"/><path class="cls-2" d="M596.08,368.69c-.77.65-1.54,1.3-2.33,1.94l21,17.79c.86-.58,1.69-1.17,2.54-1.75Z"/><path class="cls-2" d="M630,327.81c-.48.89-1,1.78-1.47,2.66l26.56,22.46c.65-.75,1.28-1.51,1.91-2.28Z"/><path class="cls-2" d="M619.08,344.68c-.6.79-1.2,1.58-1.82,2.36l24,20.31c.73-.69,1.44-1.39,2.15-2.08Z"/><path class="cls-2" d="M633.08,321.74c-.44.92-.89,1.84-1.36,2.75l27.58,23.33c.62-.79,1.22-1.57,1.82-2.36Z"/><path class="cls-2" d="M601.13,364.27l-2.25,2,21.53,18.2,2.47-1.81Z"/><path class="cls-2" d="M605.94,359.66c-.7.7-1.41,1.4-2.14,2.09l22.06,18.66c.81-.62,1.62-1.24,2.41-1.87Z"/><path class="cls-2" d="M635.85,315.39q-.58,1.46-1.2,2.88l28.66,24.25c.59-.81,1.18-1.61,1.75-2.42Z"/><path class="cls-2" d="M614.94,349.87c-.64.76-1.29,1.51-1.94,2.26l23.3,19.71c.76-.67,1.5-1.34,2.24-2Z"/><path class="cls-2" d="M643.64,252.41c.15,1.12.3,2.24.42,3.37,0,.32.05.64.08,1l42.44,35.9q.38-1.67.69-3.33Z"/><path class="cls-2" d="M541.1,339.58c-.77.64-1.56,1.28-2.36,1.91l24.1,20.38c.8-.62,1.6-1.25,2.38-1.88Z"/><path class="cls-2" d="M546.14,335.15c-.73.67-1.48,1.34-2.23,2l24.17,20.45c.77-.66,1.51-1.33,2.26-2Z"/><path class="cls-2" d="M550.89,330.47c-.68.71-1.38,1.42-2.09,2.13l24.26,20.53c.73-.69,1.46-1.38,2.17-2.07Z"/><path class="cls-2" d="M555.34,325.54q-.95,1.14-2,2.25l24.43,20.67c.7-.72,1.39-1.44,2.06-2.16Z"/><path class="cls-2" d="M559.48,320.35c-.59.8-1.19,1.59-1.81,2.37l24.66,20.86c.66-.75,1.3-1.5,1.94-2.26Z"/><path class="cls-2" d="M524.38,351.52c-.89.55-1.78,1.09-2.69,1.62l24.13,20.42,2.66-1.65Z"/><path class="cls-2" d="M512,358.4c-1,.49-1.93,1-2.92,1.44l24.31,20.56c1-.49,1.92-1,2.87-1.48Z"/><path class="cls-2" d="M518.3,355.07c-.93.51-1.87,1-2.82,1.52l24.2,20.47c.94-.51,1.87-1,2.78-1.55Z"/><path class="cls-2" d="M563.29,314.88c-.54.83-1.09,1.66-1.66,2.49l25,21.12c.62-.78,1.24-1.56,1.84-2.35Z"/><path class="cls-2" d="M530.21,347.76c-.85.58-1.71,1.15-2.58,1.72l24.08,20.37c.87-.57,1.73-1.14,2.58-1.72Z"/><path class="cls-2" d="M535.78,343.78c-.81.61-1.63,1.21-2.47,1.81L557.4,366c.83-.6,1.65-1.2,2.46-1.81Z"/><path class="cls-2" d="M576.47,273.86c0,1.24-.08,2.49-.18,3.74l30.15,25.51c.36-1,.71-2,1-3Z"/><path class="cls-2" d="M566.72,309.08c-.48.88-1,1.76-1.49,2.64l25.38,21.47c.58-.82,1.16-1.63,1.72-2.45Z"/><path class="cls-2" d="M574,254.37c.13.47.27.94.39,1.41.3,1.16.55,2.32.79,3.49l35.33,29.89c.25-1.11.48-2.21.7-3.31Z"/><path class="cls-2" d="M576.05,264.8c.16,1.4.28,2.8.35,4.21l32.26,27.28c.31-1.05.6-2.11.88-3.16Z"/><path class="cls-2" d="M569.47,241.85q1.34,2.94,2.45,6l40,33.87c.18-1.16.35-2.32.5-3.48Z"/><path class="cls-2" d="M559.18,224.45a94.4,94.4,0,0,1,5.9,8.89l47.86,40.48c.11-1.22.2-2.45.28-3.66Z"/><path class="cls-2" d="M505.39,361.54c-1,.45-2,.9-3,1.34l24.42,20.66c1-.46,2-.92,3-1.39Z"/><path class="cls-2" d="M569.75,303c-.41.94-.85,1.87-1.31,2.8l25.91,21.91c.55-.85,1.07-1.7,1.59-2.56Z"/><path class="cls-2" d="M572.34,296.44c-.35,1-.71,2-1.1,3l26.58,22.49c.5-.89,1-1.78,1.46-2.67Z"/><path class="cls-2" d="M575.83,282c-.16,1.15-.34,2.29-.56,3.43l28.61,24.2c.41-1,.81-1.93,1.19-2.89Z"/><path class="cls-2" d="M574.39,289.48c-.26,1.06-.54,2.12-.85,3.19L601,315.89c.46-.92.9-1.85,1.33-2.78Z"/><path class="cls-2" d="M279.5,361.76Q273.61,359,268.08,356l57.64,48.75c1.84.28,3.69.56,5.58.81Z"/><path class="cls-2" d="M407.29,382.9c-1.46.08-2.93.13-4.4.19l28.39,24,4.13-.41Z"/><path class="cls-2" d="M166.55,165.77c.64-.75,1.31-1.49,2-2.23l-22.52-19-2.31,1.95Z"/><path class="cls-2" d="M397.43,383.26q-2.24.06-4.5.09l29,24.53c1.42-.11,2.84-.2,4.24-.32Z"/><path class="cls-2" d="M342.33,380.13c-1.93-.29-3.83-.61-5.73-.94l35.09,29.68c1.58.05,3.17.1,4.77.13Z"/><path class="cls-2" d="M387.31,383.4h-.37c-1.43,0-2.86,0-4.28,0l29.67,25.1,4.33-.24Z"/><path class="cls-2" d="M376.84,383.24c-1.62-.05-3.23-.12-4.84-.19l30.54,25.82c1.48,0,2.94-.11,4.41-.17Z"/><path class="cls-2" d="M220.7,315.92q-3.25-4.38-6-9L159,259.82c.07,1.34.17,2.73.3,4.15Z"/><path class="cls-2" d="M522.88,167.65q-3.89-1.43-7.86-2.74L612,247c-.33-1.65-.71-3.28-1.16-4.89Z"/><path class="cls-2" d="M299.06,369.62q-4.15-1.44-8.16-3L338,406.42c1.73.21,3.51.38,5.28.57Z"/><path class="cls-2" d="M329.32,377.82c-2.08-.43-4.15-.87-6.2-1.34l37.74,31.92c1.61.09,3.26.16,4.89.23Z"/><path class="cls-2" d="M315.12,374.51c-2.34-.62-4.64-1.28-6.93-2l41.42,35c1.69.14,3.38.29,5.1.41Z"/><path class="cls-2" d="M468.85,374.11c-1.18.3-2.37.6-3.57.88l25.47,21.55c1.17-.32,2.31-.65,3.45-1Z"/><path class="cls-2" d="M476.64,372l-3.47,1,25.22,21.33c1.13-.35,2.24-.71,3.35-1.07Z"/><path class="cls-2" d="M498.56,364.47c-1,.42-2.08.83-3.14,1.24L520,386.5c1-.43,2.06-.86,3.07-1.3Z"/><path class="cls-2" d="M460.81,376c-1.21.27-2.45.52-3.69.78l25.78,21.8c1.19-.29,2.39-.58,3.56-.89Z"/><path class="cls-2" d="M416.85,382.3c-1.41.1-2.82.21-4.25.3l27.84,23.56c1.36-.16,2.68-.34,4-.51Z"/><path class="cls-2" d="M484.2,369.7c-1.11.36-2.24.71-3.37,1.06l25,21.12c1.1-.37,2.2-.75,3.27-1.13Z"/><path class="cls-2" d="M491.49,367.18c-1.07.39-2.15.78-3.24,1.16l24.77,21c1.06-.4,2.11-.82,3.15-1.23Z"/><path class="cls-2" d="M452.53,377.7c-1.26.23-2.51.47-3.79.69l26.1,22.08c1.23-.26,2.44-.54,3.65-.82Z"/><path class="cls-2" d="M435.2,380.43c-1.33.17-2.66.35-4,.51l26.87,22.73c1.29-.21,2.58-.42,3.85-.65Z"/><path class="cls-2" d="M426.16,381.48c-1.37.14-2.76.27-4.15.39L449.35,405c1.32-.18,2.64-.37,3.94-.57Z"/><path class="cls-2" d="M444,379.18l-3.91.58,26.48,22.41c1.26-.24,2.5-.49,3.74-.75Z"/><path class="cls-2" d="M365.93,382.69c-1.7-.11-3.39-.24-5.07-.38l31.64,26.76L397,409Z"/><path class="cls-2" d="M243.7,109.31c1-.46,2-.92,3-1.37L231.49,95.07l-3.15,1.25Z"/><path class="cls-2" d="M257.28,103.41l3.14-1.25L245.8,89.79l-3.25,1.15Z"/><path class="cls-2" d="M250.42,106.29c1-.44,2-.89,3.05-1.32l-14.89-12.6-3.2,1.2Z"/><path class="cls-2" d="M543,176q-4.71-2.21-9.62-4.25l75.22,63.64q-1.29-3.24-2.91-6.37Z"/><path class="cls-2" d="M237.16,112.46c1-.48,2-.95,2.92-1.42L224.53,97.88c-1,.43-2.07.85-3.09,1.29Z"/><path class="cls-2" d="M230.78,115.76l2.84-1.49L217.7,100.8c-1,.44-2,.88-3,1.33Z"/><path class="cls-2" d="M294.21,91.16c1.17-.31,2.36-.61,3.54-.9L284,78.66l-3.58.88Z"/><path class="cls-2" d="M286.47,93.31l3.46-1L276.11,80.65c-1.17.3-2.35.6-3.52.92Z"/><path class="cls-2" d="M264.32,100.66c1.06-.4,2.15-.79,3.22-1.18L253.17,87.33l-3.31,1.09Z"/><path class="cls-2" d="M271.54,98.07l3.28-1.13L260.68,85l-3.38,1Z"/><path class="cls-2" d="M278.92,95.62c1.12-.36,2.23-.72,3.36-1.06L268.33,82.75l-3.46,1Z"/><path class="cls-2" d="M302.15,89.18c1.2-.28,2.39-.58,3.61-.85L292.13,76.8l-3.64.83Z"/><path class="cls-2" d="M190.48,142.54l2.35-1.92-19.3-16.32L170.91,126Z"/><path class="cls-2" d="M185.36,146.9l2.27-2L167.75,128.1l-2.56,1.75Z"/><path class="cls-2" d="M180.39,151.4c.73-.68,1.48-1.36,2.22-2L162.1,132c-.84.59-1.66,1.19-2.49,1.8Z"/><path class="cls-2" d="M171,160.84c.68-.73,1.36-1.45,2-2.17l-21.82-18.46c-.8.63-1.58,1.27-2.36,1.91Z"/><path class="cls-2" d="M175.61,156.05l2.13-2.1-21.16-17.9c-.82.61-1.61,1.24-2.42,1.86Z"/><path class="cls-2" d="M201.21,134.22c.82-.6,1.65-1.2,2.49-1.79L185.5,117l-2.74,1.59Z"/><path class="cls-2" d="M195.76,138.31c.8-.62,1.61-1.23,2.43-1.85l-18.74-15.85c-.9.54-1.8,1.09-2.68,1.64Z"/><path class="cls-2" d="M212.56,126.44l2.64-1.67L198,110.2c-1,.49-1.89,1-2.84,1.5Z"/><path class="cls-2" d="M206.81,130.27c.85-.59,1.69-1.17,2.56-1.74l-17.7-15-2.78,1.55Z"/><path class="cls-2" d="M218.47,122.74l2.71-1.61L204.42,107l-2.9,1.45Z"/><path class="cls-2" d="M224.55,119.19l2.77-1.57L211,103.82l-3,1.39Z"/><path class="cls-2" d="M520.14,113.16q-3.15-.75-6.35-1.47l56.12,47.48q7,3.57,13.56,7.56Z"/><path class="cls-2" d="M460.5,84l5.45.71L447.57,69.17c-1.68-.15-3.4-.28-5.1-.42Z"/><path class="cls-2" d="M472.76,85.68q2.83.42,5.64.87L459.21,70.32Q456.6,70,454,69.78Z"/><path class="cls-2" d="M437.08,81.58c1.73.15,3.44.29,5.14.45l-17-14.42-4.91-.25Z"/><path class="cls-2" d="M448.62,82.65c1.78.18,3.54.38,5.29.57L436.25,68.28l-5-.32Z"/><path class="cls-2" d="M462.63,103.19l38,32.14c2.12.47,4.24,1,6.34,1.46L468,103.84Z"/><path class="cls-2" d="M557.45,183.41l42,35.54C589.6,205.23,575,193.33,557.45,183.41Z"/><path class="cls-2" d="M425.84,80.78q2.52.15,5,.33l-16.53-14c-1.6-.06-3.2-.13-4.82-.17Z"/><path class="cls-2" d="M506.2,110.06c-2-.41-4-.81-6-1.19l48.05,40.65q4.56,1.77,9,3.67Z"/><path class="cls-2" d="M492.93,107.54c-1.89-.33-3.82-.65-5.75-1l43.46,36.76q3.83,1.22,7.58,2.5Z"/><path class="cls-2" d="M480.25,105.5q-2.76-.41-5.55-.78L515,138.83c2.28.6,4.56,1.21,6.81,1.86Z"/><path class="cls-2" d="M383.33,79.6c1.21,0,2.4,0,3.61,0h1l-15-12.72-4.41.17Z"/><path class="cls-2" d="M344.85,81.83c1.37-.15,2.75-.28,4.13-.41L335.05,69.64c-1.34.15-2.68.33-4,.5Z"/><path class="cls-2" d="M414.86,80.18l4.9.25L403.67,66.82c-1.57,0-3.14-.08-4.73-.1Z"/><path class="cls-2" d="M327.14,84.23c1.29-.21,2.58-.42,3.89-.61L317.38,72.07c-1.3.21-2.6.4-3.89.62Z"/><path class="cls-2" d="M363.56,80.27c1.44-.09,2.89-.17,4.34-.24L353.54,67.89c-1.41.1-2.82.2-4.23.32Z"/><path class="cls-2" d="M335.89,82.94l4-.52L326.13,70.78c-1.32.18-2.64.36-4,.56Z"/><path class="cls-2" d="M354.09,81l4.21-.35L344.2,68.68l-4.13.41Z"/><path class="cls-2" d="M373.3,79.8c1.48,0,3-.08,4.47-.12L363.1,67.27l-4.32.25Z"/><path class="cls-2" d="M393.62,79.6l4.7.08-15.39-13c-1.52,0-3,0-4.55.06Z"/><path class="cls-2" d="M404.14,79.8l4.78.14L393.21,66.66c-1.55,0-3.09,0-4.65,0Z"/><path class="cls-2" d="M310.27,87.36l3.71-.77-13.6-11.5c-1.25.24-2.48.5-3.72.76Z"/><path class="cls-1" d="M448.93,247.32h0Z"/><path class="cls-1" d="M444.65,254.32Z"/><path class="cls-1" d="M444.65,254.32Z"/><path class="cls-1" d="M653,271.1a7.69,7.69,0,0,1-5-1.84h0a7.71,7.71,0,1,1,11.74-2.08L658,269.26A7.7,7.7,0,0,1,653,271.1Z"/><path class="cls-3" d="M437.34,195.34c-35.29,0-56.1-22-57.1-60.37-.5-19.58,5.21-35.92,16.52-47.25,10-10,24-15.7,39.56-16.12l2.2,0A87.78,87.78,0,0,1,463,75c2.58.73,4.85,1.44,6.67,2,1.29.41,2.7.85,3.61,1.1.15-.23.31-.45.48-.67l4.39-1.69,2.43.46,3.46,5.62-9.61,33.77-6.59,2.61-2.47-1.47L463.21,113l0-1.63c-1.32-2.4-12.35-6.58-21.34-6.58h-.58c-7.84.2-14.24,2.59-18.5,6.89-4.87,4.92-7.2,12.42-6.94,22.3.49,19,10,29.42,26.64,29.42h.95a44.64,44.64,0,0,0,15-2.8l-.24-9-11.5.3a9.06,9.06,0,0,0-.11,1.69l-4.36,4.53-2.94.08-4.58-4.35-.82-31.48,5.46-4.47,3.26.74,3.48,4.24a2.83,2.83,0,0,0,0-.4,19.93,19.93,0,0,0,4.15,6.66l36.07-6.45L491.5,127l.86,34.77a6.26,6.26,0,0,0,.43,2.11l.76,0,4.64,4.35.08,3L496.39,175c-13.63,9.71-36.49,19.75-56.82,20.29Z"/><path class="cls-3" d="M501.53,202.13l-.1-3.27,4.09-4.59a12.93,12.93,0,0,0,2.72-.43s-7.58-103.62-7.59-103.65a12.49,12.49,0,0,0-2.76-.29l-4.32-4.37-.07-3.28,4.35-4.56,46.42-1.21,4.59,4.34.09,3.26-4.06,4.58a13.85,13.85,0,0,0-2.74.44v.28L539.93,193a13.61,13.61,0,0,0,2.78.31l4.29,4.34.09,3.26-4.35,4.59-36.63,1Z"/><path class="cls-3" d="M612.73,230.48c-29.12,0-60.67-17.2-61.91-65.47-.57-22,5.7-40,18.15-52.12,10.57-10.24,25.59-16.12,42.32-16.56h1.28c8.8,0,17.16,2.18,24.18,4.31,2.84.85,4.47,1.43,5.45,1.78l.44.16v0l4.92-2.28,4.44,1,3.45,5.12L648.35,148l-6,3.44-4.84-1.81L634.66,145a9.54,9.54,0,0,1,.33-1.72c-2.12-6.3-11.14-13.06-22.12-13.06h-.7c-18,.48-27,20-26.69,33.85.56,21.9,16.64,31.75,27.88,31.75h.52c10.15-.27,19.43-5.72,23-10.71.71-1,1.84-2.89,1.38-4.36a14.76,14.76,0,0,1-.47-4.93,13.11,13.11,0,0,0,0-1.44l1.86-4.34,3.89-2.71,6.51,1.58,19.77,37.45-1.47,5.81-4.09,2.72-6-1.26-.43.31c-6.58,4.78-22,16-43,16.5C614.09,230.47,613.41,230.48,612.73,230.48Z"/><path class="cls-3" d="M163.69,406.41l-.08-2.54,4.15-4.6a23.81,23.81,0,0,0,3.19-.4l-8.8-77.47a21,21,0,0,0-3.39-.28l-4.38-4.38,0-2.48,4.34-4.56,51.43-1.37,4.59,4.36.07,2.52-4.15,4.57a21.54,21.54,0,0,0-3.38.46l-1.11,21.21,53.76,1.44-1.65-24a19,19,0,0,0-3.35-.27l-4.38-4.36-.07-2.51,4.35-4.58,51.46-1.33,4.58,4.37.05,2.51-4.12,4.55a20,20,0,0,0-3.42.47L298,395.58a20.72,20.72,0,0,0,3.21.24l4.39,4.38,0,2.55-4.35,4.55-40.9,1.05L255.83,404l-.06-2.52,4.12-4.57a22.16,22.16,0,0,0,3.32-.44l-1.59-26.67-54.76,1.71-1,26.46a22.09,22.09,0,0,0,3.29.26l4.35,4.39.05,2.52-4.36,4.55-40.9,1.05Z"/><path class="cls-3" d="M505.15,403.45l0-2.76,4.06-4.53a13.48,13.48,0,0,0,2.66-.45l-6-66.17-38.61,1a3.32,3.32,0,0,0-.87.1,2.48,2.48,0,0,0,0,.57L462,335.79l-3.58.07-4.56-4.35-.88-33.84,4.39-4.58,3.62-.06,4.54,4.37a2.26,2.26,0,0,0,0,.46,2.71,2.71,0,0,0,.7.07l125.84-3.23a3.64,3.64,0,0,0,.88-.13,2.29,2.29,0,0,0,0-.52l4.36-4.59,3.61-.08,4.57,4.35.87,33.84L602,332.15l-3.57.1-4.6-4.34a2.11,2.11,0,0,0-.06-.56,2.49,2.49,0,0,0-.7-.08l-38.87,1-3.84,66.43a12.72,12.72,0,0,0,2.65.31l4.3,4.39,0,2.8-4.35,4.54-43.32,1.09Z"/><path class="cls-3" d="M261.92,199.89l-3.44-4.21-.1-3.09,4.3-4.6a3,3,0,0,0,.94-.22c5.87-18.81,11.9-37.56,17.23-54.13,6.85-21.31,13.35-41.5,14.34-46.14l-2.66-2.83-.08-3.16,4.35-4.59,43.12-1.09,4.58,4.36.07,3.12-2.41,2.91c1.54,4.62,9.19,23,16,39.41,8.5,20.44,18.06,43.46,23.26,57.26l.6,0,4.65,4.33.1,3.15-3.06,4.37-34,11.31-5.88-4.13-.08-3.13,4.26-4.57a3.48,3.48,0,0,0-1.77.53,5,5,0,0,0,1.15-1.47c-.6-2.36-4-10.31-6.09-15.16-1-2.44-2-4.68-2.77-6.53L299.9,176.7c-.55,1.79-1.26,3.91-2,6.1-1.18,3.53-3.13,9.38-3.34,11a6.26,6.26,0,0,0,1.36,2.07,3.57,3.57,0,0,0-2.13-.64l4.48,4.38.06,3.11-5.49,4.44Zm45.46-50.75,18.59-.62-9.2-26.81Z"/><path class="cls-3" d="M311.68,426.37l-2.92-4-.11-2.68L313,415h.77c.57,0,1.42,0,2-.07,11.89-22.89,24.42-44.23,33.6-59.86,4.56-7.77,8.92-15.2,10.77-18.79l-3-3-.09-2.7,4.36-4.61L421,324.41l4.59,4.35.07,2.68L423,334.5c2.91,4.63,10.36,15.35,17.6,25.78,12.25,17.64,27.42,39.47,34.87,52h.22c.44,0,.89,0,1.34,0l.77,0,4.61,4.38.06,2.67-3.13,4.36-43.7,13.71-5.81-4.13-.08-2.64,2.82-3.06c-2-3.29-6.19-9.5-8.94-13.53-2.21-3.23-3.9-5.72-5.08-7.54l-55.87,5.81c-.49,1.1-1.1,2.41-1.78,3.88-1.78,3.85-5.29,11.44-6.25,14.35l3.1,3.24-.34,3.53-6,3.77Zm64.79-39.76,28.11-2.78-13.74-22.4Z"/><path class="cls-3" d="M109.7,243.22l-.1-3.39,3.92-4.56a10.73,10.73,0,0,0,2.31-.49v-.19s-6.06-122.09-6.07-122.17a10.21,10.21,0,0,0-2.35-.38l-4.14-4.29-.13-3.37,4.36-4.64,58.76-1.47,4.58,4.34.1,3.42-4,4.57a6.54,6.54,0,0,0-1.29.24c1,2.73,5.81,13.49,9.74,22.23,2.85,6.36,5.75,12.83,8.09,18.18,9.47-28,15.2-47,15.47-50.06q0-.21,0-.33a6.54,6.54,0,0,0-1.34-.19l-4.23-4.32L193.22,93l4.36-4.62,61.86-1.47L264,91.26l.09,3.4-3.94,4.55a11,11,0,0,0-2.32.47v.4l-3.18,131.31a.37.37,0,0,0,0,.11,9.52,9.52,0,0,0,2.37.39l4.13,4.32.11,3.36-4.36,4.61-43.6,1-4.45-5.53.83-3.39,3.79-3.37a10.64,10.64,0,0,0,2.34-.5c0-.05,0-.43,0-.43l2.28-75.95L188,229l-8.22.09-31.59-72.24,1.25,76.93a.76.76,0,0,1,0,.15,10.19,10.19,0,0,0,2.4.39l4.13,4.35.08,3.37-4.36,4.58-37.46.89Z"/><path class="cls-3" d="M441.91,193.07c-35.28,0-56.09-22-57.09-60.37-.5-19.58,5.21-35.92,16.52-47.24,10-10,24-15.71,39.56-16.13l2.2,0a87.83,87.83,0,0,1,24.5,3.39c2.58.73,4.85,1.44,6.67,2,1.29.4,2.7.84,3.61,1.09.15-.22.31-.45.48-.67l4.39-1.69,2.43.46,3.46,5.62L479,113.3l-6.59,2.61L470,114.44l-2.18-3.68-.06-1.63c-1.31-2.4-12.34-6.58-21.33-6.58h-.59c-7.83.21-14.23,2.59-18.49,6.89-4.87,4.92-7.21,12.42-6.94,22.3.49,19,9.95,29.43,26.64,29.43l1,0a44.68,44.68,0,0,0,15-2.8l-.24-9-11.5.31a8.87,8.87,0,0,0-.11,1.68l-4.36,4.54-2.95.07-4.58-4.35-.81-31.48,5.46-4.47,3.26.74,3.48,4.24a2,2,0,0,0-.05-.4,20.13,20.13,0,0,0,4.16,6.66l36.07-6.45,5.26,4.29.86,34.77a6.3,6.3,0,0,0,.42,2.11l.77,0,4.64,4.35.08,3.06L501,172.76c-13.63,9.71-36.49,19.74-56.82,20.28Z"/><path class="cls-3" d="M506.11,199.86l-.1-3.27L510.1,192a13.07,13.07,0,0,0,2.72-.43S505.24,88,505.23,87.92a13.19,13.19,0,0,0-2.76-.29l-4.32-4.37L498.08,80l4.35-4.56,46.42-1.21,4.59,4.34.09,3.26-4.06,4.58a13.85,13.85,0,0,0-2.74.44v.28l-2.22,103.63a12.87,12.87,0,0,0,2.78.31l4.29,4.34.09,3.26-4.35,4.59-36.63.95Z"/><path class="cls-3" d="M617.3,228.21c-29.11,0-60.66-17.2-61.9-65.47-.58-22,5.7-40,18.15-52.12,10.56-10.24,25.59-16.12,42.32-16.56h1.28c8.8,0,17.16,2.18,24.18,4.31,2.84.85,4.47,1.43,5.45,1.78l.44.16s0,0,0,0L652.14,98l4.45,1,3.45,5.11-7.11,41.65-6,3.44-4.84-1.81-2.88-4.62a9.72,9.72,0,0,1,.33-1.72c-2.12-6.3-11.14-13.06-22.12-13.06h-.7c-18,.48-27,20-26.69,33.85.56,21.9,16.64,31.75,27.88,31.75h.52c10.15-.26,19.43-5.72,23-10.71.71-1,1.84-2.88,1.38-4.36a14.74,14.74,0,0,1-.47-4.93,13.11,13.11,0,0,0,0-1.44l1.86-4.34,3.89-2.71,6.5,1.58L674.4,204.1l-1.48,5.81-4.08,2.72-6-1.26-.43.31c-6.58,4.78-22,16-43,16.5C618.67,228.2,618,228.21,617.3,228.21Z"/><path class="cls-3" d="M168.27,404.14l-.08-2.54,4.15-4.6a22.42,22.42,0,0,0,3.19-.4l-8.8-77.47a21,21,0,0,0-3.4-.28L159,314.47l-.05-2.48,4.35-4.56,51.43-1.37,4.59,4.36.06,2.52-4.14,4.58a20.74,20.74,0,0,0-3.38.45l-1.11,21.21,53.76,1.44-1.65-24a19,19,0,0,0-3.36-.27L255.08,312,255,309.5l4.35-4.58,51.45-1.33,4.59,4.37,0,2.51L311.34,315a22.79,22.79,0,0,0-3.43.47l-5.31,77.82a21,21,0,0,0,3.22.24l4.38,4.39.05,2.54L305.9,405,265,406.08l-4.59-4.36-.06-2.52,4.12-4.57a22.16,22.16,0,0,0,3.32-.44l-1.59-26.67-54.76,1.71-1,26.46a22.09,22.09,0,0,0,3.29.26l4.35,4.39,0,2.53-4.35,4.54-40.9,1Z"/><path class="cls-3" d="M509.73,401.18l-.05-2.76,4.06-4.53a13.79,13.79,0,0,0,2.66-.45l-6-66.17-38.62,1a3.16,3.16,0,0,0-.86.1,2.48,2.48,0,0,0,0,.57l-4.38,4.55-3.57.07-4.56-4.35-.89-33.84,4.4-4.58,3.62-.06,4.54,4.37a2.19,2.19,0,0,0,0,.46,2.61,2.61,0,0,0,.7.08l125.84-3.24a3.19,3.19,0,0,0,.88-.13,3,3,0,0,0,0-.51l4.36-4.6,3.6-.08,4.58,4.35L611,325.3l-4.34,4.58-3.57.1-4.6-4.34a2.11,2.11,0,0,0-.06-.56,3,3,0,0,0-.7-.08l-38.87,1L555,392.44a12.62,12.62,0,0,0,2.65.31l4.3,4.39.05,2.8-4.35,4.54-43.32,1.09Z"/><path class="cls-3" d="M266.5,197.62l-3.44-4.21-.1-3.09,4.3-4.6a3.07,3.07,0,0,0,.94-.22c5.87-18.81,11.9-37.56,17.23-54.13,6.85-21.31,13.35-41.5,14.34-46.14l-2.66-2.83L297,79.24l4.35-4.59,43.12-1.09,4.58,4.36.07,3.12L346.74,84c1.54,4.62,9.19,23,16,39.42,8.5,20.44,18.06,43.45,23.26,57.25l.6-.05,4.65,4.33.1,3.15-3.06,4.38-34,11.31-5.88-4.13-.08-3.14,4.26-4.57a3.48,3.48,0,0,0-1.77.53A5.12,5.12,0,0,0,352,191c-.61-2.35-4-10.31-6.09-15.16-1.05-2.43-2-4.68-2.77-6.52l-38.67,5.16c-.55,1.79-1.26,3.9-2,6.09-1.18,3.53-3.13,9.38-3.34,11.06a6.46,6.46,0,0,0,1.35,2.06,3.5,3.5,0,0,0-2.12-.64l4.48,4.38.06,3.11-5.49,4.44ZM312,146.87l18.59-.62-9.19-26.81Z"/><path class="cls-3" d="M316.26,424.1l-2.92-4-.11-2.69,4.37-4.65.77,0c.57,0,1.42,0,2-.07,11.89-22.89,24.42-44.22,33.6-59.86,4.56-7.77,8.92-15.2,10.77-18.79l-3-3-.09-2.7,4.35-4.61,59.56-1.54,4.59,4.36.07,2.67-2.71,3.06c2.91,4.63,10.36,15.35,17.6,25.78,12.25,17.64,27.42,39.47,34.87,52h.22l1.34,0,.77,0,4.61,4.37L487,417l-3.13,4.35-43.7,13.71-5.81-4.13-.08-2.64,2.82-3.06c-1.95-3.29-6.19-9.5-8.94-13.53-2.21-3.23-3.9-5.72-5.08-7.54L367.23,410l-1.78,3.87c-1.78,3.85-5.29,11.44-6.25,14.36l3.1,3.23L362,435l-6,3.77Zm64.79-39.76,28.11-2.78-13.75-22.4Z"/><path class="cls-3" d="M114.28,241l-.1-3.38,3.91-4.57a10.12,10.12,0,0,0,2.32-.49v-.18s-6.06-122.1-6.07-122.18a10.21,10.21,0,0,0-2.35-.38l-4.14-4.29-.13-3.37,4.35-4.64L170.84,96l4.58,4.34.1,3.42-4,4.57a5.8,5.8,0,0,0-1.3.25c1,2.72,5.82,13.48,9.75,22.22,2.85,6.36,5.75,12.83,8.09,18.18,9.47-28,15.2-47,15.46-50.06a2.63,2.63,0,0,0,0-.33,6.54,6.54,0,0,0-1.34-.19l-4.23-4.32-.11-3.36,4.36-4.62L264,84.63,268.59,89l.08,3.4-3.93,4.55a11.5,11.5,0,0,0-2.32.47v.4l-3.18,131.32v.11a10.47,10.47,0,0,0,2.38.38l4.13,4.32.11,3.36-4.36,4.61-43.6,1-4.45-5.53.83-3.38,3.78-3.38a10.63,10.63,0,0,0,2.35-.5s0-.43,0-.43l2.28-75.95-30.07,73-8.23.09L152.8,154.62l1.25,76.93s0,.11,0,.15a10.19,10.19,0,0,0,2.4.39l4.13,4.36.08,3.36-4.36,4.58-37.46.89Z"/><path class="cls-4" d="M452.33,132.39c-3.23.08-8.12-8.7-8.18-10.75l-3.26-.74.82,31.47,2.94-.07c0-2.05.26-6.12,3.51-6.2l16.92-.44.44,16.5a48.31,48.31,0,0,1-19.46,4.35c-17.56.42-31.54-9.61-32.16-33.76-.64-23.6,12.66-33.33,29.79-33.78,9.7-.24,26.36,4.66,26.49,10.75l.06,1.76,2.48,1.48,9.61-33.78-2.43-.46c-1,1.29-1.36,2.59-3.34,2.61-1.44,0-5.72-1.62-12.22-3.46A84,84,0,0,0,439,74.68c-27.39.74-52.74,19.17-51.73,58.78s23.28,56.81,54.74,56c20.16-.53,42.1-10.73,54.36-19.46l-.09-3.05-1.78.07c-2.43.05-3.93-3.21-4-6.51l-.87-34.77Z"/><path class="cls-4" d="M500.53,80.77,500.6,84c4.37.14,7,.91,7.09,4.72l7.59,103.48c.08,3.82-2.49,4.73-6.82,5.09l.1,3.27,36.63-.95-.09-3.26c-4.33-.17-7-.92-7.08-4.74l2.23-103.76c-.08-3.81,2.5-4.68,6.8-5.07L547,79.56Z"/><path class="cls-4" d="M649.17,103.23c-.58,1.11-1.52,2.55-2.91,2.57-2.16.06-1.44-.25-8.25-2.28s-15.33-4.33-24-4.11c-28.85.75-57.31,18.68-56.11,64.1s30.49,61.85,59.35,61.08c25.13-.63,41.9-17.71,43.85-17.76,1.22,0,2.23,1.32,3.29,3l4.09-2.72-19.78-37.45-3.89,2.7c.25,1.67-.25,3.85.33,5.72,2.69,8.67-12.73,20.45-28.55,20.87-14.85.37-32.37-12.56-33-36.1s16.22-38,31-38.43c13-.34,24.41,7.66,27.2,16.19.6,1.82,0,2.09-.15,3.48l4.84,1.81,7.11-41.65Z"/><path class="cls-4" d="M268.39,363.79,270.31,396c.07,3-3.18,3.65-7.51,4l.06,2.52,40.91-1.05,0-2.54c-4.32-.08-7.6-.64-7.69-3.58l5.46-79.9c0-2.94,3.16-3.64,7.49-4l-.06-2.51-51.45,1.33.07,2.51c4.32.08,7.59.63,7.67,3.58l2,29.74L204,344.4l1.39-26.51c-.07-2.92,3.16-3.64,7.48-3.95l-.06-2.53-51.43,1.37,0,2.48c4.33.1,7.59.64,7.66,3.58l9,79.55c.11,2.92-3.14,3.64-7.48,3.95l.08,2.53,40.9-1.05,0-2.52c-4.36-.12-7.63-.63-7.69-3.6l1.23-31.92Z"/><path class="cls-4" d="M469.05,301c-2.36.07-5.39-.75-5.47-4.91l-3.62.07.88,33.83,3.57-.07c-.07-4.19,2.87-5.2,5.26-5.22l42.81-1.14,6.45,71.33c.07,3.21-3.48,4-6.8,4.32l0,2.76,43.32-1.09,0-2.79c-3.3-.12-6.93-.77-7-4l4.14-71.57,42.8-1.11c2.38-.08,5.41.76,5.53,5l3.57-.11-.88-33.84-3.6.09c.12,4.18-2.84,5.16-5.26,5.23Z"/><path class="cls-4" d="M303.61,152.43l15.72-45.89,15.39,44.85Zm81.26,36.63-.1-3.14c-1.65.06-3.43,1.29-4.1-.52-9.76-26.53-40.55-97.58-40.6-100.69-.07-1.82.56-2.36,2.6-2.69l-.07-3.12L299.48,80l.09,3.15c2.06.19,2.68.72,2.76,2.52.08,3.64-16.81,53.66-32.06,102.64-.58,1.84-3.21,2.69-4.85,2.75l.09,3.09,30.93,7.32-.06-3.11c-.85,0-3.68-3.41-3.73-5.75-.09-2.87,5.21-16.63,6.31-21.34l45.07-6c1.57,4.64,10.43,23.68,10.48,26.54.09,2.32-2.86,5.4-3.68,5.44l.07,3.13Z"/><path class="cls-4" d="M370.87,390.51l22.39-39.24,21.43,34.91ZM480.53,418l0-2.67c-2.3.07-4.84.36-5.74-1.15-13.13-22.43-54.51-79-54.61-81.68,0-1.55.82-2,3.64-2.3l-.07-2.67L364.15,329l.08,2.7c2.85.14,3.71.52,3.75,2.09.08,3.09-24.48,40.93-46.17,82.83-.84,1.56-3.84,1.42-6.13,1.46l.11,2.69,39.71,14.64.33-3.53c-1.14,0-3.26-.35-3.31-2.35-.09-2.45,8-18.88,9.65-22.87l61.25-6.38c2.08,3.94,16.92,24.22,17,26.63.05,2-2.5,2-3.65,2.1l.08,2.64Z"/><path class="cls-4" d="M259.38,238.32l-.11-3.36c-5.72-.43-6.44-2.39-6.52-4.93l3.19-131.45c-.09-2.55.57-4.52,6.25-5.2l-.08-3.4-61.86,1.47.11,3.37c3.64.19,5.53,1.56,5.6,5,.11,3.65-9.86,34.62-19.53,62.76-2.52-7.56-22.67-50.6-22.74-52.55-.07-3.41,1.72-4.85,5.35-5.22l-.1-3.41-58.77,1.47.13,3.37c5.69.42,6.45,2.37,6.5,4.92l6.06,122c.07,2.56-.55,4.53-6.23,5.23l.1,3.39,37.46-.9-.08-3.37c-5.72-.43-6.46-2.38-6.54-4.93L146,133.29,186.47,226l39.4-95.65-3,100.45c.07,2.51-.55,4.51-6.25,5.22l-.83,3.39Z"/><path class="cls-1" d="M529.15,249.49c.34-.86.71-1.67,1.77-1.94,1.53-.39,2.49.14,2.69,1.71.4,3.19,1.91,16.86,2.28,20.51.2,1.9-.33,2.44-2.15,2.33-1-.06-1.41-.33-1.6-1.43s-1.25-10.32-1.56-13.07a.2.2,0,0,0-.38-.05c-1.15,2.84-5.35,13.17-5.48,13.55a2.36,2.36,0,0,1-2.3,1.74,2.77,2.77,0,0,1-2.45-1.57c-1.64-2.9-5.5-10.46-6.71-12.83a.2.2,0,0,0-.37.09c0,2.91-.14,12.72-.21,13.2-.18,1.27-.64,1.65-1.94,1.69s-1.95-.45-2-1.78c0-2.47.07-15.09.11-18.93,0-.74.05-1.49.07-2.23s.12-1.58,1-1.74,2-.41,2.72.52a7.92,7.92,0,0,1,.82,1.3c2.22,4.27,7.4,14.08,8.42,16.08a.2.2,0,0,0,.36,0C523.25,264.5,527.56,253.53,529.15,249.49Z"/><path class="cls-1" d="M531.67,247.43c1.1-.05,1.78.54,1.94,1.83.4,3.19,1.91,16.86,2.28,20.51.17,1.66-.2,2.28-1.5,2.34a4.77,4.77,0,0,1-.65,0c-1-.06-1.41-.33-1.6-1.43s-1.25-10.32-1.56-13.07a.19.19,0,0,0-.21-.17.18.18,0,0,0-.17.12c-1.15,2.84-5.35,13.17-5.48,13.55a2.36,2.36,0,0,1-2.25,1.73h-.05a2.77,2.77,0,0,1-2.45-1.57c-1.64-2.9-5.5-10.46-6.71-12.83a.19.19,0,0,0-.18-.11.2.2,0,0,0-.19.2c0,2.91-.14,12.72-.21,13.2-.18,1.25-.62,1.63-1.86,1.69h-.08c-1.34.05-1.95-.45-2-1.78,0-2.47.07-15.09.11-18.93,0-.74.05-1.49.07-2.23s.12-1.58,1-1.74a8.16,8.16,0,0,1,1.09-.15,1.79,1.79,0,0,1,1.63.67,7.92,7.92,0,0,1,.82,1.3c2.22,4.27,7.4,14.08,8.42,16.08a.2.2,0,0,0,.36,0c.94-2.12,5.25-13.09,6.84-17.13.34-.86.71-1.67,1.77-1.94a3.63,3.63,0,0,1,.75-.12m-.15-3.21h0a8,8,0,0,0-1.4.22,5.75,5.75,0,0,0-4,3.87l-.7,1.76c-1,2.51-2.43,6.18-3.68,9.32-.4-.75-.81-1.54-1.23-2.34-1.56-3-3.18-6-4.18-8a11.43,11.43,0,0,0-1.16-1.83,5,5,0,0,0-4.29-1.87,10.57,10.57,0,0,0-1.34.17l-.15,0c-1.08.18-3.61,1-3.7,4.82l0,.87c0,.47,0,.94,0,1.41,0,2.71-.16,16.35-.11,19a4.91,4.91,0,0,0,1.46,3.66,5,5,0,0,0,3.83,1.28H511a4.75,4.75,0,0,0,4.88-4.45,14.41,14.41,0,0,0,.07-1.61c.48.89.91,1.68,1.25,2.28a1,1,0,0,0,.11.17,5.82,5.82,0,0,0,5.23,3h.1a5.57,5.57,0,0,0,5.13-3.89c.06-.16.42-1,1-2.52.1.78.18,1.34.22,1.58a4.55,4.55,0,0,0,4.56,4.1c.37,0,.7,0,1,0a4.71,4.71,0,0,0,3.5-1.57,5.55,5.55,0,0,0,1.05-4.31c-.38-3.63-1.9-17.38-2.3-20.58a5,5,0,0,0-5.27-4.64Z"/><path class="cls-1" d="M218.28,279.57a.27.27,0,0,0,.51,0c.85-3.2,4-15.07,4.34-16a2.06,2.06,0,0,1,2.19-1.57,2,2,0,0,1,2.09,1.45l5.78,14.65a.28.28,0,0,0,.52,0c.88-3,4.08-13.82,4.41-14.9.52-1.71,1.26-2.19,3.06-2,.88.1,1.24.46,1.19,1.35a8.21,8.21,0,0,1-.34,1.68l-5.76,20c-.26.89-.51,1.79-1.6,2-1.41.33-2.22-.06-2.81-1.55-1.44-3.6-5-12.24-6-14.8a.27.27,0,0,0-.51,0c-.75,2.64-3.28,11.53-4.35,15.31-.43,1.52-.79,1.78-2.08,1.86s-1.66-.17-2.22-1.46-8.11-19.9-8.23-20.22c-.55-1.48-.47-2,.4-2.33a2.5,2.5,0,0,1,3.18.79,11,11,0,0,1,.7,1.57C214.05,268.9,217.28,277,218.28,279.57Z"/><path class="cls-1" d="M240.29,261.15a5.64,5.64,0,0,1,.89,0c.88.1,1.24.46,1.19,1.35a8.21,8.21,0,0,1-.34,1.68l-5.76,20c-.26.89-.51,1.79-1.6,2a4,4,0,0,1-.71.11c-1,0-1.61-.44-2.1-1.66-1.44-3.6-5-12.24-6-14.8a.26.26,0,0,0-.26-.16.26.26,0,0,0-.25.19c-.75,2.64-3.28,11.53-4.35,15.31-.43,1.52-.79,1.78-2.08,1.86h-.07c-1.19.06-1.6-.19-2.15-1.46s-8.11-19.9-8.23-20.22c-.55-1.48-.47-2,.4-2.33a3,3,0,0,1,1-.25,2.3,2.3,0,0,1,2.13,1,11,11,0,0,1,.7,1.57c1.31,3.46,4.54,11.6,5.54,14.13a.27.27,0,0,0,.27.17.26.26,0,0,0,.24-.2c.85-3.2,4-15.07,4.34-16a2.06,2.06,0,0,1,2.19-1.57h0a2,2,0,0,1,2.09,1.45l5.78,14.65a.28.28,0,0,0,.52,0c.88-3,4.08-13.82,4.41-14.9.43-1.39,1-2,2.17-2m-.16-3.2c-2.53.12-4.25,1.56-5.08,4.29-.17.55-1,3.48-2,6.75l-2.65-6.71a5.49,5.49,0,0,0-10.29.2c-.17.48-.88,3-2.12,7.62-.88-2.25-1.72-4.41-2.25-5.8a13.41,13.41,0,0,0-.93-2.05,5.5,5.5,0,0,0-5.06-2.62,6.14,6.14,0,0,0-2.18.51c-1.76.77-3.56,2.5-2.12,6.39.25.67,7.84,19.32,8.29,20.37,1.06,2.47,2.68,3.52,5.25,3.4h.1c3.4-.19,4.43-2.22,5-4.19.47-1.68,1.24-4.39,2-7.1,1.08,2.64,2.14,5.27,2.79,6.88,1.34,3.35,3.85,3.74,5.24,3.67a7.6,7.6,0,0,0,1.27-.18,5.4,5.4,0,0,0,4-4.25q2.91-10,5.77-20a10.47,10.47,0,0,0,.46-2.38,4.26,4.26,0,0,0-4-4.72,8.57,8.57,0,0,0-1.41-.05Z"/><path class="cls-1" d="M616,259.94a.26.26,0,0,0,.46-.19c-.13-2.59-.54-11.13-.7-14.71-.07-1.64.66-2.29,2.29-2.18.84.06,1.44.38,1.57,1.28a17.11,17.11,0,0,1,.25,1.87c.32,6.37,1,19.91.93,20.3a1.39,1.39,0,0,1-1.21,1.27,3.29,3.29,0,0,1-3.38-1.12c-3.26-3.86-10.8-12.48-12.81-14.77a.26.26,0,0,0-.46.18c.14,3,.66,14.18.66,14.48a2.06,2.06,0,0,1-3.1,2,1.66,1.66,0,0,1-.73-1.06,20.4,20.4,0,0,1-.32-2.91q-.46-9.12-.9-18.24c0-.79-.21-1.66.72-2.11a2.73,2.73,0,0,1,2.93.18,7,7,0,0,1,1.21,1.22C606.59,249.2,614,257.66,616,259.94Z"/><path class="cls-1" d="M617.48,242.85a4.77,4.77,0,0,1,.53,0c.84.06,1.44.38,1.57,1.28a17.11,17.11,0,0,1,.25,1.87c.32,6.37,1,19.91.93,20.3a1.39,1.39,0,0,1-1.21,1.27c-.23,0-.44.06-.65.07a3.1,3.1,0,0,1-2.73-1.19c-3.26-3.86-10.8-12.48-12.81-14.77a.25.25,0,0,0-.2-.1.28.28,0,0,0-.26.28c.14,3,.66,14.18.66,14.48a2.09,2.09,0,0,1-1.91,2.31,2.35,2.35,0,0,1-1.19-.28,1.66,1.66,0,0,1-.73-1.06,20.4,20.4,0,0,1-.32-2.91q-.46-9.12-.9-18.24c0-.79-.21-1.66.72-2.11a3.25,3.25,0,0,1,1.25-.34,2.67,2.67,0,0,1,1.68.52,7,7,0,0,1,1.21,1.22c3.22,3.74,10.6,12.2,12.59,14.48a.3.3,0,0,0,.21.09.27.27,0,0,0,.25-.28c-.13-2.59-.54-11.13-.7-14.71-.06-1.45.5-2.13,1.76-2.19m-.15-3.2c-3.07.14-5,2.32-4.82,5.53.07,1.49.18,3.83.29,6.25l-7-8.07-.12-.14a9.14,9.14,0,0,0-1.66-1.6,5.86,5.86,0,0,0-3.69-1.1,6.53,6.53,0,0,0-2.5.65c-1.84.89-2.7,2.56-2.54,5v.2l.14,2.77q.38,7.74.76,15.48a24.29,24.29,0,0,0,.38,3.36,4.88,4.88,0,0,0,2.42,3.3,5.61,5.61,0,0,0,2.81.63,5.28,5.28,0,0,0,5-5.57c0-.06,0-.24-.27-6.14,2.64,3,5.51,6.35,7.21,8.37a6.28,6.28,0,0,0,5.34,2.32,8.91,8.91,0,0,0,1-.1,4.57,4.57,0,0,0,3.89-4c.07-.47.11-.73-.9-20.94,0-.64-.13-1.23-.21-1.74l-.07-.44a4.63,4.63,0,0,0-4.52-4,7,7,0,0,0-.91,0Z"/><path class="cls-1" d="M144.78,277.84a.32.32,0,0,0,.08.52,6.82,6.82,0,0,1,3.38,3.84,6.58,6.58,0,0,1-2.64,7.71,10,10,0,0,1-4.84,1.58c-2.92.18-5.84.28-8.77.36-1.41,0-1.84-.38-2.05-1.75-.05-.34-1.12-20.72-1.11-21.12,0-1.21.43-1.7,1.6-1.8,2.79-.25,5.59-.55,8.39-.64a7.9,7.9,0,0,1,6.16,2.09,6.38,6.38,0,0,1,1.61,5.77A7.49,7.49,0,0,1,144.78,277.84Zm-7.38,2.8-2.4.12c-1.45.1-1.8.44-1.75,1.92s.18,2.74.3,4.11c.11,1.15.47,1.53,1.62,1.52,1.66,0,3.33-.1,5-.26a8,8,0,0,0,2.13-.59,3.37,3.37,0,0,0,2.43-3.7,3.22,3.22,0,0,0-3.05-3A28.39,28.39,0,0,0,137.4,280.64ZM134,270.39a1.13,1.13,0,0,0-1.2,1.2c0,1.6.12,3.21.24,4.81a1,1,0,0,0,1,1,52.29,52.29,0,0,0,6.63-.71,3.15,3.15,0,0,0,2.5-3.6,3.37,3.37,0,0,0-3.49-2.93C138.71,270.11,134.93,270.33,134,270.39Z"/><path class="cls-1" d="M137.85,266.58l1,0a7.9,7.9,0,0,1,6.16,2.09,6.38,6.38,0,0,1,1.61,5.77,7.49,7.49,0,0,1-1.81,3.44.32.32,0,0,0,.08.52,6.82,6.82,0,0,1,3.38,3.84,6.58,6.58,0,0,1-2.64,7.71,10,10,0,0,1-4.84,1.58l-2.33.13c-2.14.1-4.29.17-6.44.23-1.41,0-1.84-.38-2.05-1.75-.05-.34-1.12-20.72-1.11-21.12,0-1.21.43-1.7,1.6-1.8,2.47-.22,4.94-.48,7.42-.6M134,277.39h0a52.29,52.29,0,0,0,6.63-.71,3.15,3.15,0,0,0,2.5-3.6,3.37,3.37,0,0,0-3.49-2.93c-.43,0-1.51,0-2.62.07l-3.06.17a1.13,1.13,0,0,0-1.2,1.2c0,1.6.12,3.21.24,4.81a1,1,0,0,0,1,1m3.45,3.25-1.49.07-.91.05c-1.45.1-1.8.44-1.75,1.92s.18,2.74.3,4.11c.11,1.15.47,1.53,1.62,1.52.76,0,1.52,0,2.27-.07.9,0,1.81-.1,2.71-.19a8,8,0,0,0,2.13-.59,3.37,3.37,0,0,0,2.43-3.7,3.22,3.22,0,0,0-3.05-3,30,30,0,0,0-4.11-.16h-.15m.3-17.26h0c-2,.09-4,.28-5.92.45l-1.63.15a4.65,4.65,0,0,0-4.53,4.91c0,.12,1,20.82,1.14,21.69.58,3.8,3.21,4.53,5.32,4.48,2.62-.07,4.63-.15,6.51-.24.79,0,1.57-.08,2.36-.12a13.42,13.42,0,0,0,6.36-2.07,9.86,9.86,0,0,0,3.94-11.55,10.14,10.14,0,0,0-2.33-3.69,10.75,10.75,0,0,0,.81-2.32,9.6,9.6,0,0,0-2.49-8.72,10.91,10.91,0,0,0-8.53-3l-1,0ZM136,273.49l1.13-.06c1.85-.09,2.27-.07,2.31-.07a1,1,0,0,1,.5.11l0,.06a27.16,27.16,0,0,1-3.9.49c0-.18,0-.35,0-.53Zm4.58,7.33Zm-3.06,3,.23,0a27.3,27.3,0,0,1,3.4.13l.33.08c0,.11,0,.18,0,.22a1.89,1.89,0,0,1-.42.21,5.11,5.11,0,0,1-1.25.38c-.84.08-1.7.14-2.56.18l-.67,0-.09-1.17h.26l.76,0Z"/><path class="cls-1" d="M499.6,261.25c.46,6.51-2.9,11.55-8.77,13.34a14,14,0,0,1-8.79-.17,11.17,11.17,0,0,1-7.44-7.75c-1.33-4.59-1-9,2.14-12.86a11.28,11.28,0,0,1,8.16-4.24,19.51,19.51,0,0,1,5,.13,11.79,11.79,0,0,1,9.56,10C499.49,260.28,499.55,260.85,499.6,261.25Zm-12.41,10c5.36-.26,8.7-4,8.37-9.45s-4-8.84-9.31-8.57-8.53,4.07-8.3,9.41S481.87,271.53,487.19,271.27Z"/><path class="cls-1" d="M485.91,249.5a17.84,17.84,0,0,1,3.94.2,11.79,11.79,0,0,1,9.56,10c.08.56.14,1.13.19,1.53.46,6.51-2.9,11.55-8.77,13.34a14.37,14.37,0,0,1-3.5.61,13.83,13.83,0,0,1-5.29-.78,11.17,11.17,0,0,1-7.44-7.75c-1.33-4.59-1-9,2.14-12.86a11.28,11.28,0,0,1,8.16-4.24l1-.07m1.27,21.77h0c5.36-.26,8.7-4,8.37-9.45s-4-8.82-9.27-8.57h0c-5.18.27-8.53,4.07-8.3,9.41s3.91,8.87,9.23,8.61m-1.42-25h0l-1.11.07a14.53,14.53,0,0,0-10.4,5.41c-3.58,4.38-4.5,9.69-2.73,15.78a14.37,14.37,0,0,0,9.47,9.9,17.09,17.09,0,0,0,6.49,1,17.64,17.64,0,0,0,4.28-.75c7.37-2.24,11.6-8.62,11-16.64,0-.06,0-.12,0-.18l-.05-.36c0-.36-.09-.8-.16-1.24a15.07,15.07,0,0,0-12.16-12.7,20.11,20.11,0,0,0-4.66-.24Zm1.42,25-.16-3.2a5.56,5.56,0,0,1-4.13-1.28,6,6,0,0,1-1.73-4.27c-.16-3.57,1.86-5.89,5.25-6.06,3.57-.17,5.73,1.85,5.95,5.56a5.81,5.81,0,0,1-1.27,4.35,5.67,5.67,0,0,1-4.06,1.7l.15,3.2Z"/><path class="cls-1" d="M316.8,267.92c1.45,0,1.92.33,2,1.73.21,2.92.32,5.84.48,8.77a1.84,1.84,0,0,1-1.18,1.9c-4.29,2-8.76,3.1-13.51,2.28a11.33,11.33,0,0,1-9.5-9.6,18.87,18.87,0,0,1-.12-5.46,11.8,11.8,0,0,1,10.48-10.08,28.41,28.41,0,0,1,8.73.29c1.48.27,1.92.92,1.64,2.26a1.47,1.47,0,0,1-1.81,1.38c-.86-.07-1.7-.27-2.55-.33a18.79,18.79,0,0,0-7.16.47,7.66,7.66,0,0,0-5.21,5.28,9.84,9.84,0,0,0,1.54,9.28,7.65,7.65,0,0,0,5.56,3,18.33,18.33,0,0,0,7.93-1.06c1.3-.43,1.51-.77,1.48-2.14,0-.86-.06-1.72-.13-2.58-.12-1.52-.51-1.87-2.07-1.82-1.9.07-3.78.23-5.68.28-1.15,0-1.67-.51-1.7-1.65s.44-1.64,1.66-1.73C309.24,268.31,315.31,268,316.8,267.92Z"/><path class="cls-1" d="M307.52,257.28a29.44,29.44,0,0,1,6.68.47c1.48.27,1.92.92,1.64,2.26-.19.92-.6,1.35-1.42,1.39a1.72,1.72,0,0,1-.39,0c-.86-.07-1.7-.27-2.55-.33a31.53,31.53,0,0,0-3.76-.1,12.88,12.88,0,0,0-3.4.57,7.66,7.66,0,0,0-5.21,5.28,9.84,9.84,0,0,0,1.54,9.28,7.65,7.65,0,0,0,5.56,3,14.15,14.15,0,0,0,2.34.07,20.81,20.81,0,0,0,5.59-1.13c1.3-.43,1.51-.77,1.48-2.14,0-.86-.06-1.72-.13-2.58-.12-1.52-.51-1.87-2.07-1.82l-.85,0-3.59.2-1.24,0c-1.15,0-1.67-.51-1.7-1.65s.44-1.64,1.66-1.73,5.29-.34,7.67-.46c.62,0,1.12-.05,1.43-.05,1.45,0,1.92.33,2,1.73.21,2.92.32,5.84.48,8.77a1.84,1.84,0,0,1-1.18,1.9,25.13,25.13,0,0,1-9.4,2.53,18.5,18.5,0,0,1-4.11-.25,11.33,11.33,0,0,1-9.5-9.6,18.87,18.87,0,0,1-.12-5.46,11.8,11.8,0,0,1,10.48-10.08c.68-.09,1.36-.15,2-.18m-.16-3.21c-.77,0-1.55.1-2.3.2a15.1,15.1,0,0,0-13.24,12.81,21.78,21.78,0,0,0,.12,6.42,14.6,14.6,0,0,0,12.13,12.27,22,22,0,0,0,4.8.29,28,28,0,0,0,10.6-2.83,5.06,5.06,0,0,0,3-5c-.05-.88-.09-1.75-.14-2.63-.1-2-.2-4.12-.35-6.2-.12-1.8-1-4.81-5.29-4.71-.32,0-.86,0-1.52.06-2.41.11-6.48.36-7.76.46a4.9,4.9,0,0,0,.39,9.79l1.29,0,1.83-.1,1.4-.08c0,.16,0,.31,0,.47a16.49,16.49,0,0,1-4,.74,11.09,11.09,0,0,1-1.83-.06,4.48,4.48,0,0,1-3.35-1.76,6.64,6.64,0,0,1-1.05-6.4,4.49,4.49,0,0,1,3.12-3.19,10.3,10.3,0,0,1,2.59-.43,28.64,28.64,0,0,1,3.37.1c.3,0,.65.08,1,.14s1,.15,1.48.19a5.78,5.78,0,0,0,.82,0,4.61,4.61,0,0,0,4.4-3.95,5,5,0,0,0-.63-4,5.19,5.19,0,0,0-3.58-2.11,33.25,33.25,0,0,0-7.41-.52Z"/><path class="cls-1" d="M269.23,282.61c0,1.41-.42,1.94-1.71,2.06a1.7,1.7,0,0,1-2.14-1.82c-.17-2.58-1-20.46-1-20.63,0-.79-.23-1.74.75-2.07a2.72,2.72,0,0,1,2.78.29c.39.33,11.91,13.66,13.82,15.84a.24.24,0,0,0,.42-.17c-.07-2.4-.61-14.9-.61-15.3,0-1.27.5-1.79,1.72-1.89a1.72,1.72,0,0,1,2.12,1.7c.1,1,1,19.76,1.05,20.62s.12,1.72-.77,2.11a2.68,2.68,0,0,1-2.92-.25c-.44-.36-14.51-16.54-14.51-16.54S269.23,282.21,269.23,282.61Z"/><path class="cls-1" d="M283.36,258.91a1.71,1.71,0,0,1,2,1.71c.1,1,1,19.76,1.05,20.62s.12,1.72-.77,2.11a3.38,3.38,0,0,1-1.23.31,2.4,2.4,0,0,1-1.69-.56c-.44-.36-14.51-16.54-14.51-16.54s1,15.65,1,16.05c0,1.41-.42,1.94-1.71,2.06h-.2c-1.22.06-1.85-.49-1.94-1.83-.17-2.58-1-20.46-1-20.63,0-.79-.23-1.74.75-2.07a4.28,4.28,0,0,1,1.16-.24,2.21,2.21,0,0,1,1.62.53c.39.33,11.91,13.66,13.82,15.84a.21.21,0,0,0,.19.08.23.23,0,0,0,.23-.25c-.07-2.4-.61-14.9-.61-15.3,0-1.27.5-1.79,1.72-1.89h.12m-.15-3.2H283a4.76,4.76,0,0,0-4.67,5c0,.23,0,.88.26,6.7l0,.33c-8.17-9.41-8.33-9.55-8.62-9.8a5.45,5.45,0,0,0-3.85-1.29,7.54,7.54,0,0,0-2,.41c-1.43.48-3.11,1.73-2.94,4.94v.23c0,.49.86,18.33,1,20.78a4.82,4.82,0,0,0,5.3,4.83l.35,0c3-.29,4.67-2.22,4.62-5.3,0-.21-.14-2.46-.41-6.73,8.14,9.33,8.43,9.57,8.66,9.75a5.59,5.59,0,0,0,3.88,1.28,6.81,6.81,0,0,0,2.37-.58c2.88-1.27,2.73-4.18,2.68-5.13l-.07-1.42c-.62-12.77-.93-18.75-1-19.41a4.88,4.88,0,0,0-5.35-4.62Z"/><path class="cls-1" d="M161.63,281.81a.49.49,0,0,0-.48.51c.07,1.7.32,5.19.34,6.07,0,1.39-.44,1.82-1.85,1.89s-1.85-.22-2-1.69c-.08-1-.78-13.4-1.08-18.56-.05-1,0-1.94,0-2.91a1.35,1.35,0,0,1,1.25-1.43c2.55-.29,7.69-1,10.59-.37s5.27,2.34,6,5.43.26,6.26-2.51,8.55c-1.51,1.23-1.59,1-.2,2.72s2.67,3.3,4,5a4.32,4.32,0,0,1,.67,1c.31.74.08,1.26-.69,1.44-1.4.32-2.73.31-3.74-1-1.37-1.76-2.84-3.46-4.18-5.25a3.44,3.44,0,0,0-3.36-1.5C163.62,281.69,162.74,281.75,161.63,281.81Zm-1-7.13c.15,3.58-.26,3.54,2.59,3.43a13.43,13.43,0,0,0,4.83-.74,4.36,4.36,0,0,0,2.76-4.52,4.14,4.14,0,0,0-3.3-3.9,15.09,15.09,0,0,0-5.8-.1c-1,.13-1.29.58-1.27,1.69S160.63,274.23,160.65,274.68Z"/><path class="cls-1" d="M163.93,265.09a17.49,17.49,0,0,1,4.47.23c3,.64,5.27,2.34,6,5.43s.26,6.26-2.51,8.55c-1.51,1.23-1.59,1-.2,2.72s2.67,3.3,4,5a4.32,4.32,0,0,1,.67,1c.31.74.08,1.26-.69,1.44a6.69,6.69,0,0,1-1.14.17,2.88,2.88,0,0,1-2.6-1.16c-1.37-1.76-2.84-3.46-4.18-5.25a3.44,3.44,0,0,0-3.31-1.51H164l-2.39.14a.49.49,0,0,0-.48.51c.07,1.7.32,5.19.34,6.07,0,1.39-.44,1.82-1.85,1.89h0c-1.45.07-1.82-.23-2-1.69-.08-1-.78-13.4-1.08-18.56-.05-1,0-1.94,0-2.91a1.35,1.35,0,0,1,1.25-1.43c1.49-.17,3.84-.49,6.12-.6m-.17,13a12.6,12.6,0,0,0,4.31-.72,4.36,4.36,0,0,0,2.76-4.52,4.14,4.14,0,0,0-3.3-3.9,11.85,11.85,0,0,0-3.6-.31c-.73,0-1.47.12-2.2.21-1,.13-1.29.58-1.27,1.69s.17,3.69.19,4.14c.15,3.58-.26,3.54,2.59,3.43l.52,0m0-16.21c-2,.1-4,.34-5.49.52l-.81.1a4.55,4.55,0,0,0-4.13,4.55c0,1.06,0,2.1,0,3.17l.26,4.55c.43,7.51.76,13.32.83,14.09.27,3.18,2.1,4.78,5.29,4.63s5-2.05,4.94-5.17c0-.48-.07-1.43-.16-2.93l0-.52h.1a3.48,3.48,0,0,1,.42,0s.07.08.17.22c.82,1.08,1.66,2.13,2.49,3.14.58.71,1.16,1.43,1.73,2.15a6,6,0,0,0,5.28,2.4,10.39,10.39,0,0,0,1.71-.25,4.19,4.19,0,0,0,2.88-2.16,4.28,4.28,0,0,0,.05-3.67,7.13,7.13,0,0,0-1.06-1.66l-.06-.08-2.89-3.58-.4-.49c2.76-2.84,3.68-6.67,2.62-10.92-1-4.09-4-6.86-8.49-7.79a20.47,20.47,0,0,0-5.28-.3Zm-.05,10,.36,0a8.84,8.84,0,0,1,2.63.21c.73.19.87.47.9,1a1.21,1.21,0,0,1-.6,1.27,8.8,8.8,0,0,1-3.15.54c0-.11,0-.21,0-.32s0-.42,0-.8-.06-1.23-.09-1.88Z"/><path class="cls-1" d="M183.66,267.51c0-.58,0-1.15,0-1.72A1.36,1.36,0,0,1,185,264.3c.74-.1,13.77-.72,14.11-.69,1.59.13,2,.33,1.93,1.9,0,1.21-.45,1.64-1.86,1.72-2.87.17-5.74.29-8.6.42-2.62.13-3,0-3,1.33,0,.43.15,3.46.22,4.26.08,1.06.4,1.18,1.5,1.17,2.63-.1,8.41-.44,8.76-.44,1.75,0,2.6,1.16,2,2.83-.24.72-.81.88-1.49.91-2,.09-8.08.35-9.11.45s-1.39.43-1.37,1.55.09,2.52.18,3.78.37,1.67,1.84,1.6c3-.14,9.85-.57,10.31-.57a1.49,1.49,0,0,1,1.75,1.46,1.8,1.8,0,0,1-1.24,2.16c-.33.09-9.62.54-13.92.74-1.82.08-2.24-.31-2.33-2.12C184.53,283.44,183.81,270.6,183.66,267.51Z"/><path class="cls-1" d="M192.73,263.88c3.2-.15,6.21-.29,6.37-.27,1.59.13,2,.33,1.93,1.9,0,1.21-.45,1.64-1.86,1.72l-3.39.18-5,.23h-.23l-1.13,0c-1.58.07-1.85.18-1.83,1.27,0,.43.15,3.46.22,4.26.08,1.06.4,1.18,1.5,1.17l1.55-.07c2.57-.12,6.11-.32,7-.36h.2c1.75,0,2.6,1.16,2,2.83a1.39,1.39,0,0,1-1.47.91h0l-5.91.27c-1.5.07-2.78.14-3.2.18-1.09.1-1.39.43-1.37,1.55s.09,2.52.18,3.78.37,1.67,1.84,1.6h0c2.67-.13,8.46-.49,10-.56h.34a1.49,1.49,0,0,1,1.75,1.46,1.8,1.8,0,0,1-1.24,2.16c-.25.07-5.68.35-10.16.56l-3.76.18c-1.82.08-2.24-.31-2.33-2.12-.17-3.32-.89-16.16-1-19.25,0-.58,0-1.15,0-1.72A1.36,1.36,0,0,1,185,264.3c.39-.05,4.18-.25,7.74-.42m-.15-3.21c-3.33.16-7.42.37-8,.44a4.56,4.56,0,0,0-4.15,4.69v.47c0,.46,0,.92,0,1.38.08,1.92.39,7.43.65,12.29.17,3,.32,5.71.38,7,.19,3.58,2.1,5.31,5.68,5.15l3.78-.17c10.2-.49,10.43-.56,10.89-.69a5,5,0,0,0,3.52-5.74,4.67,4.67,0,0,0-4.91-4.17H200l-3.77.22-4.78.27,0-.55,1.46-.07L198,281l.71,0a4.55,4.55,0,0,0,4.39-3.08,5.12,5.12,0,0,0-5.12-7.08h-.29l-1.93.1-4.89.26v-.28h0l2.5-.12,2.52-.11c1.14-.06,2.28-.11,3.41-.18,4.3-.25,4.85-3.47,4.89-4.84.13-4.77-3.63-5.09-4.87-5.19-.25,0-.46,0-6.79.26Z"/><path class="cls-1" d="M578.16,244.82c1.69-.08,1.93.53,2.44,1.54,1.84,3.63,3.71,7.24,5.56,10.86,1.54,3,3.06,6,4.59,9a14.78,14.78,0,0,1,.65,1.4,1,1,0,0,1-.53,1.3c-1.16.64-3.11.35-3.64-.84-.44-1-1.15-2.29-1.61-3.28s-.23-1.14-1.35-1.07c-2.75.17-6.53.38-9.28.5-1.43.06-1.87-.13-2.2,1.05-.31.89-.92,2.77-1.3,3.6a2.7,2.7,0,0,1-3.5,1.25,1.57,1.57,0,0,1-.64-1.07,3,3,0,0,1,.32-1.31q4-10.44,8-20.87C576.09,245.72,576.48,244.91,578.16,244.82Zm4.51,14.5-3.9-7.56a.39.39,0,0,0-.71,0l-3.13,7.86a.4.4,0,0,0,.38.54l7-.3A.39.39,0,0,0,582.67,259.32Z"/><path class="cls-1" d="M578.16,244.82c1.69-.08,1.93.53,2.44,1.54,1.84,3.63,3.71,7.24,5.56,10.86,1.54,3,3.06,6,4.59,9a14.78,14.78,0,0,1,.65,1.4,1,1,0,0,1-.53,1.3,2.86,2.86,0,0,1-1.24.33,2.45,2.45,0,0,1-2.4-1.17c-.44-1-1.15-2.29-1.61-3.28s-.26-1.12-1.19-1.08h-.16c-2.29.15-5.29.31-7.81.43l-1.47.07-1,0c-.69,0-1,.17-1.22,1s-.92,2.77-1.3,3.6a2.76,2.76,0,0,1-2.33,1.5,2.25,2.25,0,0,1-1.17-.25,1.57,1.57,0,0,1-.64-1.07,3.15,3.15,0,0,1,.32-1.31q4-10.44,8-20.87c.45-1.2.84-2,2.52-2.1m4.18,15.07a.39.39,0,0,0,.33-.57l-3.9-7.56a.41.41,0,0,0-.37-.22.4.4,0,0,0-.34.25l-3.13,7.86a.4.4,0,0,0,.38.54l7-.3h0M578,241.62a5.64,5.64,0,0,0-5.37,4.16q-2,5.35-4.09,10.7-1.93,5.08-3.88,10.16l0,.11a5.66,5.66,0,0,0-.47,2.71,4.71,4.71,0,0,0,2.33,3.55,5.45,5.45,0,0,0,2.82.61,5.92,5.92,0,0,0,5.09-3.35c.31-.67.65-1.63,1.05-2.81l1.16,0,6.52-.35.36.72c.29.57.59,1.16.81,1.66a5.56,5.56,0,0,0,5.48,3.05,5.93,5.93,0,0,0,2.65-.73,4.17,4.17,0,0,0,2-5.19,15.57,15.57,0,0,0-.75-1.66l-.06-.1q-2.28-4.53-4.59-9.05l-2.25-4.4q-1.66-3.23-3.3-6.45l-.06-.11a5.12,5.12,0,0,0-5.4-3.18Z"/><path class="cls-1" d="M551.41,246.17a17.92,17.92,0,0,1,6.46.53,7.64,7.64,0,0,1,5.34,6.54,7.91,7.91,0,0,1-3.68,8.29,9.66,9.66,0,0,1-4.84,1.58c-1.08.06-2.17.1-3.26.18-1.76.12-2,.36-1.9,2.08.05,1.32.15,2.64.18,4a2,2,0,0,1-3,1.93,1.8,1.8,0,0,1-.79-1.2,21.16,21.16,0,0,1-.32-3.08q-.46-9-.9-18c-.08-1.69.35-2.17,2-2.35S549.75,246.27,551.41,246.17ZM549.2,258.5c0,.69.36,1.12,1,1.09a35.72,35.72,0,0,0,5.29-.42,4.56,4.56,0,0,0,3.76-5.3c-.37-2.48-2.25-4-5-3.93-1.38,0-2.75.09-4.12.2-1.17.09-1.37.33-1.36,1.51S549.15,257.3,549.2,258.5Z"/><path class="cls-1" d="M551.41,246.17a17.92,17.92,0,0,1,6.46.53,7.64,7.64,0,0,1,5.34,6.54,7.91,7.91,0,0,1-3.68,8.29,9.66,9.66,0,0,1-4.84,1.58l-.64,0-.71,0c-.63,0-1.27.06-1.91.11-1.76.12-2,.36-1.9,2.08.05,1.32.15,2.64.18,4a2,2,0,0,1-1.86,2.2,2.3,2.3,0,0,1-1.18-.27,1.8,1.8,0,0,1-.79-1.2,21.16,21.16,0,0,1-.32-3.08q-.46-9-.9-18c-.08-1.69.35-2.17,2-2.35s3.11-.32,4.77-.42m-1.17,13.42h.22c.73,0,1.47-.06,2.2-.09a19.67,19.67,0,0,0,2.88-.32,4.56,4.56,0,0,0,3.76-5.3c-.37-2.48-2.25-4-5-3.93-.65,0-1.29,0-1.94.06s-1.45.08-2.18.14c-1.17.09-1.37.33-1.36,1.51s.33,5.65.38,6.85c0,.68.35,1.12,1,1.09m1-16.62h0c-1.7.1-3.09.23-4.91.43-3.33.36-5,2.32-4.85,5.69q.43,9,.91,18.06a23.55,23.55,0,0,0,.37,3.52,5,5,0,0,0,2.51,3.47,5.63,5.63,0,0,0,2.76.6,5.2,5.2,0,0,0,4.92-5.47c0-.85-.06-1.7-.11-2.54l0-.31.71,0,.35,0,.35,0,.66,0a12.83,12.83,0,0,0,6.43-2.11,11,11,0,0,0,5.1-11.4,10.78,10.78,0,0,0-7.43-9.13,20.4,20.4,0,0,0-7.62-.72Zm.86,10.26.42,0q.91,0,1.83-.06c1.59,0,1.71.77,1.78,1.19a1.37,1.37,0,0,1-1.25,1.68,14.3,14.3,0,0,1-2.37.26h-.22c0-.19,0-.4,0-.6,0-.77-.1-1.68-.15-2.46Z"/><path class="cls-1" d="M463,276.26a19.92,19.92,0,0,1-6,.24c-.42-.05-.83-.1-1.24-.18a11.78,11.78,0,0,1-9.71-10.27c-.59-4.23.11-8.12,3.19-11.32a13.13,13.13,0,0,1,7.94-3.74,24.06,24.06,0,0,1,8.2.36c1.62.33,2,1.05,1.61,2.58a1.46,1.46,0,0,1-1.88,1.27c-1.42-.16-2.67-.41-4.15-.52a14.26,14.26,0,0,0-5,.53,8.06,8.06,0,0,0-6,7.52c-.44,5,2.39,9,6.83,9.91a17,17,0,0,0,7.31-.5c.77-.19,1.53-.47,2.31-.63,1.29-.26,1.81,0,2.15,1.08.41,1.25.13,2-1.1,2.45A32.27,32.27,0,0,1,463,276.26Z"/><path class="cls-1" d="M459.11,250.81a25.94,25.94,0,0,1,6.33.54c1.62.32,2,1.05,1.61,2.58-.23.87-.61,1.26-1.35,1.29a3.25,3.25,0,0,1-.53,0c-1.42-.16-2.67-.41-4.15-.52a14.29,14.29,0,0,0-1.73,0,13.89,13.89,0,0,0-3.29.55,8.06,8.06,0,0,0-6,7.52c-.44,5,2.39,9,6.83,9.91a11.71,11.71,0,0,0,2.94.2,24.25,24.25,0,0,0,4.37-.7c.77-.19,1.53-.47,2.31-.63a6.34,6.34,0,0,1,.65-.08c.83,0,1.23.31,1.5,1.16.41,1.25.13,2-1.1,2.45a32.27,32.27,0,0,1-4.43,1.22,19.82,19.82,0,0,1-2.76.34,21.53,21.53,0,0,1-3.21-.1c-.42-.05-.83-.1-1.24-.18a11.78,11.78,0,0,1-9.71-10.27c-.59-4.23.11-8.12,3.19-11.32a13.13,13.13,0,0,1,7.94-3.74c.62-.09,1.24-.15,1.87-.18M459,247.6c-.73,0-1.46.11-2.17.21A16.16,16.16,0,0,0,447,252.5c-3.49,3.63-4.85,8.33-4.06,14a15,15,0,0,0,12.28,13c.46.09,1,.16,1.51.22a24.23,24.23,0,0,0,3.7.11,21.57,21.57,0,0,0,3.24-.39,37.35,37.35,0,0,0,4.86-1.34,4.83,4.83,0,0,0,3.1-6.47,4.52,4.52,0,0,0-4.71-3.38,8.32,8.32,0,0,0-1.14.15c-.57.12-1.09.27-1.56.41l-.86.23a20.44,20.44,0,0,1-3.78.62,8.39,8.39,0,0,1-2.16-.14c-2.84-.55-4.55-3.15-4.25-6.47a4.88,4.88,0,0,1,3.76-4.73,10.63,10.63,0,0,1,2.52-.42,12,12,0,0,1,1.34,0c.8.06,1.54.17,2.33.28l1.7.23a7.46,7.46,0,0,0,1,0,4.55,4.55,0,0,0,4.3-3.67,4.88,4.88,0,0,0-4.08-6.56,28.75,28.75,0,0,0-7.12-.6Z"/><path class="cls-1" d="M628.64,242.13a3.25,3.25,0,0,1,2.88,1.49c1.84,2.56,6.2,8.45,6.45,8.76.78,1,.94,1,1.57,0s4.31-7.46,5.46-9.38a3.12,3.12,0,0,1,3.64-1.57.91.91,0,0,1,.79,1.26,7,7,0,0,1-.65,1.39c-2.24,3.94-4.74,8.17-7,12.08a3.74,3.74,0,0,0-.76,3c.15,1.6.28,3.87.32,5.48,0,1.42-.42,1.9-1.76,2s-2-.37-2.1-1.84c-.13-1.72-.25-4.34-.3-6.06,0-1.13-.36-1.2-1-2.12-2.65-3.6-8.28-11.31-8.59-11.83a1.94,1.94,0,0,1-.4-1.72A2.08,2.08,0,0,1,628.64,242.13Z"/><path class="cls-1" d="M628.64,242.13a3.25,3.25,0,0,1,2.88,1.49c1.84,2.56,6.2,8.45,6.45,8.76.4.48.63.72.85.71s.41-.26.72-.76c.7-1.12,4.31-7.46,5.46-9.38a3.09,3.09,0,0,1,2.57-1.67,4.49,4.49,0,0,1,1.07.1.91.91,0,0,1,.79,1.26,7,7,0,0,1-.65,1.39c-2.24,3.94-4.74,8.17-7,12.08a3.74,3.74,0,0,0-.76,3c.15,1.6.28,3.87.32,5.48,0,1.42-.42,1.9-1.76,2h-.12c-1.33.06-1.88-.42-2-1.85-.13-1.72-.25-4.34-.3-6.06,0-1.13-.36-1.2-1-2.12-2.65-3.6-8.28-11.31-8.59-11.83a1.94,1.94,0,0,1-.4-1.72,2.08,2.08,0,0,1,1.51-.86m-.15-3.21h-.16a5.2,5.2,0,0,0-4.13,2.74,5,5,0,0,0,.72,4.91c1.25,1.85,8.54,11.76,8.61,11.87s.29.38.42.53c0,1.81.18,4.33.29,6,.23,3.17,2.23,5,5.35,4.83l.18,0c3.09-.21,4.82-2.13,4.75-5.27,0-1.69-.18-4-.33-5.7,0-.22,0-.36,0-.43s.24-.43.36-.63l1.32-2.25c1.92-3.27,3.9-6.65,5.73-9.86a9.69,9.69,0,0,0,.95-2.09,4.19,4.19,0,0,0-.39-3.35,4.25,4.25,0,0,0-2.83-1.94,7.14,7.14,0,0,0-1.88-.16,6.3,6.3,0,0,0-5.18,3.23c-.53.89-1.59,2.73-2.65,4.56l-1.07,1.86c-1.43-1.93-3.3-4.47-4.4-6a6.4,6.4,0,0,0-5.51-2.82Z"/><path class="cls-1" d="M255.2,283.24c.1,1.46-.52,2.18-2.17,2.12a1.46,1.46,0,0,1-1.55-1.32,16.09,16.09,0,0,1-.2-1.7q-.5-9.79-1-19.59a2,2,0,0,1,2.93-2,1.72,1.72,0,0,1,.91,1.72C254.27,264.75,255,279.87,255.2,283.24Z"/><path class="cls-1" d="M252.07,260.5a2.59,2.59,0,0,1,1.17.24,1.72,1.72,0,0,1,.91,1.72c.12,2.29.83,17.41,1,20.78.09,1.34-.43,2.05-1.78,2.12H253a1.46,1.46,0,0,1-1.55-1.32,16.09,16.09,0,0,1-.2-1.7q-.5-9.79-1-19.59a1.92,1.92,0,0,1,1.76-2.25m-.16-3.2h0a5.11,5.11,0,0,0-4.81,5.61q.47,9.79,1,19.59a18.49,18.49,0,0,0,.24,2,4.63,4.63,0,0,0,4.61,4c.23,0,.44,0,.65,0a5,5,0,0,0,3.64-1.6A5.14,5.14,0,0,0,258.4,283c-.16-2.48-.59-11.47-.85-16.85-.09-1.86-.16-3.3-.19-3.89a4.77,4.77,0,0,0-2.82-4.48,5.69,5.69,0,0,0-2.63-.51Z"/><path class="cls-5" d="M529.15,249.49c.34-.86.71-1.67,1.77-1.94,1.53-.39,2.49.14,2.69,1.71.4,3.19,1.91,16.86,2.28,20.51.2,1.9-.33,2.44-2.15,2.33-1-.06-1.41-.33-1.6-1.43s-1.25-10.32-1.56-13.07a.2.2,0,0,0-.38-.05c-1.15,2.84-5.35,13.17-5.48,13.55a2.36,2.36,0,0,1-2.3,1.74,2.77,2.77,0,0,1-2.45-1.57c-1.64-2.9-5.5-10.46-6.71-12.83a.2.2,0,0,0-.37.09c0,2.91-.14,12.72-.21,13.2-.18,1.27-.64,1.65-1.94,1.69s-1.95-.45-2-1.78c0-2.47.07-15.09.11-18.93,0-.74.05-1.49.07-2.23s.12-1.58,1-1.74,2-.41,2.72.52a7.92,7.92,0,0,1,.82,1.3c2.22,4.27,7.4,14.08,8.42,16.08a.2.2,0,0,0,.36,0C523.25,264.5,527.56,253.53,529.15,249.49Z"/><path class="cls-5" d="M218.28,279.57a.27.27,0,0,0,.51,0c.85-3.2,4-15.07,4.34-16a2.06,2.06,0,0,1,2.19-1.57,2,2,0,0,1,2.09,1.45l5.78,14.65a.28.28,0,0,0,.52,0c.88-3,4.08-13.82,4.41-14.9.52-1.71,1.26-2.19,3.06-2,.88.1,1.24.46,1.19,1.35a8.21,8.21,0,0,1-.34,1.68l-5.76,20c-.26.89-.51,1.79-1.6,2-1.41.33-2.22-.06-2.81-1.55-1.44-3.6-5-12.24-6-14.8a.27.27,0,0,0-.51,0c-.75,2.64-3.28,11.53-4.35,15.31-.43,1.52-.79,1.78-2.08,1.86s-1.66-.17-2.22-1.46-8.11-19.9-8.23-20.22c-.55-1.48-.47-2,.4-2.33a2.5,2.5,0,0,1,3.18.79,11,11,0,0,1,.7,1.57C214.05,268.9,217.28,277,218.28,279.57Z"/><path class="cls-5" d="M616,259.94a.26.26,0,0,0,.46-.19c-.13-2.59-.54-11.13-.7-14.71-.07-1.64.66-2.29,2.29-2.18.84.06,1.44.38,1.57,1.28a17.11,17.11,0,0,1,.25,1.87c.32,6.37,1,19.91.93,20.3a1.39,1.39,0,0,1-1.21,1.27,3.29,3.29,0,0,1-3.38-1.12c-3.26-3.86-10.8-12.48-12.81-14.77a.26.26,0,0,0-.46.18c.14,3,.66,14.18.66,14.48a2.06,2.06,0,0,1-3.1,2,1.66,1.66,0,0,1-.73-1.06,20.4,20.4,0,0,1-.32-2.91q-.46-9.12-.9-18.24c0-.79-.21-1.66.72-2.11a2.73,2.73,0,0,1,2.93.18,7,7,0,0,1,1.21,1.22C606.59,249.2,614,257.66,616,259.94Z"/><path class="cls-5" d="M144.78,277.84a.32.32,0,0,0,.08.52,6.82,6.82,0,0,1,3.38,3.84,6.58,6.58,0,0,1-2.64,7.71,10,10,0,0,1-4.84,1.58c-2.92.18-5.84.28-8.77.36-1.41,0-1.84-.38-2.05-1.75-.05-.34-1.12-20.72-1.11-21.12,0-1.21.43-1.7,1.6-1.8,2.79-.25,5.59-.55,8.39-.64a7.9,7.9,0,0,1,6.16,2.09,6.38,6.38,0,0,1,1.61,5.77A7.49,7.49,0,0,1,144.78,277.84Zm-7.38,2.8-2.4.12c-1.45.1-1.8.44-1.75,1.92s.18,2.74.3,4.11c.11,1.15.47,1.53,1.62,1.52,1.66,0,3.33-.1,5-.26a8,8,0,0,0,2.13-.59,3.37,3.37,0,0,0,2.43-3.7,3.22,3.22,0,0,0-3.05-3A28.39,28.39,0,0,0,137.4,280.64ZM134,270.39a1.13,1.13,0,0,0-1.2,1.2c0,1.6.12,3.21.24,4.81a1,1,0,0,0,1,1,52.29,52.29,0,0,0,6.63-.71,3.15,3.15,0,0,0,2.5-3.6,3.37,3.37,0,0,0-3.49-2.93C138.71,270.11,134.93,270.33,134,270.39Z"/><path class="cls-5" d="M499.6,261.25c.46,6.51-2.9,11.55-8.77,13.34a14,14,0,0,1-8.79-.17,11.17,11.17,0,0,1-7.44-7.75c-1.33-4.59-1-9,2.14-12.86a11.28,11.28,0,0,1,8.16-4.24,19.51,19.51,0,0,1,5,.13,11.79,11.79,0,0,1,9.56,10C499.49,260.28,499.55,260.85,499.6,261.25Zm-12.41,10c5.36-.26,8.7-4,8.37-9.45s-4-8.84-9.31-8.57-8.53,4.07-8.3,9.41S481.87,271.53,487.19,271.27Z"/><path class="cls-5" d="M316.8,267.92c1.45,0,1.92.33,2,1.73.21,2.92.32,5.84.48,8.77a1.84,1.84,0,0,1-1.18,1.9c-4.29,2-8.76,3.1-13.51,2.28a11.33,11.33,0,0,1-9.5-9.6,18.87,18.87,0,0,1-.12-5.46,11.8,11.8,0,0,1,10.48-10.08,28.41,28.41,0,0,1,8.73.29c1.48.27,1.92.92,1.64,2.26a1.47,1.47,0,0,1-1.81,1.38c-.86-.07-1.7-.27-2.55-.33a18.79,18.79,0,0,0-7.16.47,7.66,7.66,0,0,0-5.21,5.28,9.84,9.84,0,0,0,1.54,9.28,7.65,7.65,0,0,0,5.56,3,18.33,18.33,0,0,0,7.93-1.06c1.3-.43,1.51-.77,1.48-2.14,0-.86-.06-1.72-.13-2.58-.12-1.52-.51-1.87-2.07-1.82-1.9.07-3.78.23-5.68.28-1.15,0-1.67-.51-1.7-1.65s.44-1.64,1.66-1.73C309.24,268.31,315.31,268,316.8,267.92Z"/><path class="cls-5" d="M269.23,282.61c0,1.41-.42,1.94-1.71,2.06a1.7,1.7,0,0,1-2.14-1.82c-.17-2.58-1-20.46-1-20.63,0-.79-.23-1.74.75-2.07a2.72,2.72,0,0,1,2.78.29c.39.33,11.91,13.66,13.82,15.84a.24.24,0,0,0,.42-.17c-.07-2.4-.61-14.9-.61-15.3,0-1.27.5-1.79,1.72-1.89a1.72,1.72,0,0,1,2.12,1.7c.1,1,1,19.76,1.05,20.62s.12,1.72-.77,2.11a2.68,2.68,0,0,1-2.92-.25c-.44-.36-14.51-16.54-14.51-16.54S269.23,282.21,269.23,282.61Z"/><path class="cls-5" d="M161.63,281.81a.49.49,0,0,0-.48.51c.07,1.7.32,5.19.34,6.07,0,1.39-.44,1.82-1.85,1.89s-1.85-.22-2-1.69c-.08-1-.78-13.4-1.08-18.56-.05-1,0-1.94,0-2.91a1.35,1.35,0,0,1,1.25-1.43c2.55-.29,7.69-1,10.59-.37s5.27,2.34,6,5.43.26,6.26-2.51,8.55c-1.51,1.23-1.59,1-.2,2.72s2.67,3.3,4,5a4.32,4.32,0,0,1,.67,1c.31.74.08,1.26-.69,1.44-1.4.32-2.73.31-3.74-1-1.37-1.76-2.84-3.46-4.18-5.25a3.44,3.44,0,0,0-3.36-1.5C163.62,281.69,162.74,281.75,161.63,281.81Zm-1-7.13c.15,3.58-.26,3.54,2.59,3.43a13.43,13.43,0,0,0,4.83-.74,4.36,4.36,0,0,0,2.76-4.52,4.14,4.14,0,0,0-3.3-3.9,15.09,15.09,0,0,0-5.8-.1c-1,.13-1.29.58-1.27,1.69S160.63,274.23,160.65,274.68Z"/><path class="cls-5" d="M183.66,267.51c0-.58,0-1.15,0-1.72A1.36,1.36,0,0,1,185,264.3c.74-.1,13.77-.72,14.11-.69,1.59.13,2,.33,1.93,1.9,0,1.21-.45,1.64-1.86,1.72-2.87.17-5.74.29-8.6.42-2.62.13-3,0-3,1.33,0,.43.15,3.46.22,4.26.08,1.06.4,1.18,1.5,1.17,2.63-.1,8.41-.44,8.76-.44,1.75,0,2.6,1.16,2,2.83-.24.72-.81.88-1.49.91-2,.09-8.08.35-9.11.45s-1.39.43-1.37,1.55.09,2.52.18,3.78.37,1.67,1.84,1.6c3-.14,9.85-.57,10.31-.57a1.49,1.49,0,0,1,1.75,1.46,1.8,1.8,0,0,1-1.24,2.16c-.33.09-9.62.54-13.92.74-1.82.08-2.24-.31-2.33-2.12C184.53,283.44,183.81,270.6,183.66,267.51Z"/><path class="cls-5" d="M578.16,244.82c1.69-.08,1.93.53,2.44,1.54,1.84,3.63,3.71,7.24,5.56,10.86,1.54,3,3.06,6,4.59,9a14.78,14.78,0,0,1,.65,1.4,1,1,0,0,1-.53,1.3c-1.16.64-3.11.35-3.64-.84-.44-1-1.15-2.29-1.61-3.28s-.23-1.14-1.35-1.07c-2.75.17-6.53.38-9.28.5-1.43.06-1.87-.13-2.2,1.05-.31.89-.92,2.77-1.3,3.6a2.7,2.7,0,0,1-3.5,1.25,1.57,1.57,0,0,1-.64-1.07,3,3,0,0,1,.32-1.31q4-10.44,8-20.87C576.09,245.72,576.48,244.91,578.16,244.82Zm4.51,14.5-3.9-7.56a.39.39,0,0,0-.71,0l-3.13,7.86a.4.4,0,0,0,.38.54l7-.3A.39.39,0,0,0,582.67,259.32Z"/><path class="cls-5" d="M551.41,246.17a17.92,17.92,0,0,1,6.46.53,7.64,7.64,0,0,1,5.34,6.54,7.91,7.91,0,0,1-3.68,8.29,9.66,9.66,0,0,1-4.84,1.58c-1.08.06-2.17.1-3.26.18-1.76.12-2,.36-1.9,2.08.05,1.32.15,2.64.18,4a2,2,0,0,1-3,1.93,1.8,1.8,0,0,1-.79-1.2,21.16,21.16,0,0,1-.32-3.08q-.46-9-.9-18c-.08-1.69.35-2.17,2-2.35S549.75,246.27,551.41,246.17ZM549.2,258.5c0,.69.36,1.12,1,1.09a35.72,35.72,0,0,0,5.29-.42,4.56,4.56,0,0,0,3.76-5.3c-.37-2.48-2.25-4-5-3.93-1.38,0-2.75.09-4.12.2-1.17.09-1.37.33-1.36,1.51S549.15,257.3,549.2,258.5Z"/><path class="cls-5" d="M463,276.26a19.92,19.92,0,0,1-6,.24c-.42-.05-.83-.1-1.24-.18a11.78,11.78,0,0,1-9.71-10.27c-.59-4.23.11-8.12,3.19-11.32a13.13,13.13,0,0,1,7.94-3.74,24.06,24.06,0,0,1,8.2.36c1.62.33,2,1.05,1.61,2.58a1.46,1.46,0,0,1-1.88,1.27c-1.42-.16-2.67-.41-4.15-.52a14.26,14.26,0,0,0-5,.53,8.06,8.06,0,0,0-6,7.52c-.44,5,2.39,9,6.83,9.91a17,17,0,0,0,7.31-.5c.77-.19,1.53-.47,2.31-.63,1.29-.26,1.81,0,2.15,1.08.41,1.25.13,2-1.1,2.45A32.27,32.27,0,0,1,463,276.26Z"/><path class="cls-5" d="M628.64,242.13a3.25,3.25,0,0,1,2.88,1.49c1.84,2.56,6.2,8.45,6.45,8.76.78,1,.94,1,1.57,0s4.31-7.46,5.46-9.38a3.12,3.12,0,0,1,3.64-1.57.91.91,0,0,1,.79,1.26,7,7,0,0,1-.65,1.39c-2.24,3.94-4.74,8.17-7,12.08a3.74,3.74,0,0,0-.76,3c.15,1.6.28,3.87.32,5.48,0,1.42-.42,1.9-1.76,2s-2-.37-2.1-1.84c-.13-1.72-.25-4.34-.3-6.06,0-1.13-.36-1.2-1-2.12-2.65-3.6-8.28-11.31-8.59-11.83a1.94,1.94,0,0,1-.4-1.72A2.08,2.08,0,0,1,628.64,242.13Z"/><path class="cls-5" d="M255.2,283.24c.1,1.46-.52,2.18-2.17,2.12a1.46,1.46,0,0,1-1.55-1.32,16.09,16.09,0,0,1-.2-1.7q-.5-9.79-1-19.59a2,2,0,0,1,2.93-2,1.72,1.72,0,0,1,.91,1.72C254.27,264.75,255,279.87,255.2,283.24Z"/><path class="cls-5" d="M652.88,258.59a4.51,4.51,0,1,1-4.29,4.72A4.51,4.51,0,0,1,652.88,258.59Zm3.92,4.33a3.71,3.71,0,1,0-3.52,3.95A3.73,3.73,0,0,0,656.8,262.92Z"/><path class="cls-5" d="M653.73,263.45a1.39,1.39,0,0,0,1.35-1.52c-.05-1.05-.7-1.51-1.87-1.46l-2,.1.25,5.27.8,0-.11-2.21.86,0,1.57,2.14.8,0Zm-1.64-.59-.08-1.6,1.09-.05c.56,0,1.15,0,1.18.72s-.6.85-1.33.89Z"/><path class="cls-6" d="M355.08,265.89l-32.48-29.6a.29.29,0,0,1,.24-.51l46.14,6.3a.37.37,0,0,0,.41-.36l.4-50.79a.27.27,0,0,1,.51-.13l20.77,39.13a.32.32,0,0,0,.53,0l39.28-49.16a.24.24,0,0,1,.42.23l-18.52,55.41a.32.32,0,0,0,.35.42l51.32-6.41a.23.23,0,0,1,.16.42l-47.93,31.22a.34.34,0,0,0,0,.54l31.48,29a.3.3,0,0,1-.26.52l-46.33-7.86a.41.41,0,0,0-.48.41l-.1,49.61a.28.28,0,0,1-.53.14L379.75,298a.36.36,0,0,0-.6-.06l-36.81,42.31a.23.23,0,0,1-.39-.22l17.5-52.38a.22.22,0,0,0-.26-.29l-46.6,10.76a.25.25,0,0,1-.21-.45l42.67-31.39A.29.29,0,0,0,355.08,265.89Z"/><path class="cls-1" d="M374.29,284c-10-5.07-11.59-18.56-3.61-30.22,7.72-11.35,21.64-16.69,31.58-12.35l.49.22c.18.09.33.17,0,.14l-.62,0c-7.19-.34-15.41,4-20.44,11.36-6.5,9.51-5.27,20.52,2.71,24.52,6.12,3.12,14.48,1.21,21-4.2l.48-.41c.13-.11.28-.11.07.2a6.41,6.41,0,0,1-.39.52c-8.14,10.46-21.74,15-31.23,10.26"/></g></g></svg>