<svg xmlns="http://www.w3.org/2000/svg" viewBox="0 0 323.01 194.55"><defs><style>.cls-1{fill:#bb8d0b;}.cls-2,.cls-4{fill:#000014;}.cls-3{fill:#ee3124;}.cls-3,.cls-4{fill-rule:evenodd;}</style></defs><title>portland-brewing</title><g id="Layer_2" data-name="Layer 2"><g id="_3-COLOR_LOGO" data-name="3-COLOR LOGO"><path class="cls-1" d="M273.14,56.39c-2.24-1.22-4.45-2.48-6.66-3.76l-7-.91q-6.44-.81-12.88-1.56L240,49.42c-.91-.1-1.88-.1-2.78-.24a26.75,26.75,0,0,0-2.72-.57c-2.19-.14-4.4-.31-6.6-.36-1.3,0-2.61,0-3.91,0-.67,0-2.71.34-3.17,0s-.25-1.8-.23-2.33c0-1.25,0-2.49,0-3.74a8.18,8.18,0,0,1,.37-2c.31-1.28.2-2-1-2.54a6.7,6.7,0,0,0-3.69,0c.05-.87-1.46-1.65-2.11-1.92-1.24-.52-1.32.33-1.57,1.28,0,.16-.29.18-.35.32s0,.37-.13.54a6.75,6.75,0,0,0-.33.66c-.12-.14,0-.37-.18-.52s-.16.06-.44,0a7.58,7.58,0,0,1-1.12-.34c-.29-.1-.5-.12-.44-.47s-.07-.64,0-1c.12-1.12.41-2.1-.42-3A32.81,32.81,0,0,0,206,30.44l-3.92,1.77,4.19,1,0,.69L202.66,33l-.06,2.69-4.33-1.08.14-5.93-.8-.18-7.32-7.9-2.42,1-12.63.12.2-9.18-.52-.31-1.56.22-5.51-2.84,0-1.64,1.2-1.2V6.38L156.1,0l-8.69,6,0-2.25.53-.14L147.12.73s-.25-.54-1.3-.43-1.27.65-1.27.65L143.83,4l.54.11,0,3h-.23l-1.54.73-6.15-.08-.6-.43-2.07-.1-3.08,6.18-2.15,1.34,0,5.35-5.72,3.65a1.78,1.78,0,0,0-.58.62,1.35,1.35,0,0,0-.19.73l0,2.57a8.11,8.11,0,0,0-2.92,1.6v-.5l-.44.15-.11-.31.06-.64-.62.2v-.8l-.31-.27-.06-.45-.31.13-.19-.64-.32.93-.31.07v.4h-.25l.36.89-.81-.1.19.76-.32.24-.32,0-.26.87-.57-.16.25.87-.32.18.15.71-3,.51-3,2,0,2.43-.22.05-.22-.15.07-.32-.19-.42.21-.7-.46.34.08-.61-.19-.48.28-.6-.59.32L107,33.07l-.13.32-.27-.12-.07.54-.13.45-.39,0-.21.82-.32,0,.11.69-.33.31-.39.21.18.54-.64-.27-.33.07s-.32.08-.06,0,.35-1.09.35-1.09l-.4.15.08-.43L103.8,35l-.25-.43-.21.52-.33.25v.78l-.52-.13.31.7-.46.23-.52-.13.11.93-.2.05.06.46-.45-.38-.14.26-.07.32.36,1.06-.85.06.05.71-.46.1.24.49-.25.06-2.07,1a.94.94,0,0,0,.06-.47c-.12,0-.27.2-.37.28a2.63,2.63,0,0,1-.48.31c0-.11,0-.23,0-.34a2.65,2.65,0,0,0,.12-.37.42.42,0,0,1,0-.27l.07-.06a1,1,0,0,0,0-.42c-.11,0-.34.08-.45.12s-.4.16-.52.11a1.8,1.8,0,0,1,.11-.83c.06-.15.14-.31,0-.43s-.54-.11-.52-.32.5-.41.34-.54c-.2.06-.42.27-.47,0s0-.34,0-.5a.48.48,0,0,1-.05-.18c0-.14,0-.28,0-.41s0-.37,0-.43-.15.3-.21.41a3.82,3.82,0,0,0-.31.75c-.06.22-.06.45-.11.68-.13,0-.14-.25-.23-.32-.06.23-.26.28-.28.49s0,.41,0,.61.06.42,0,.51-.69-.17-.84-.22a1.3,1.3,0,0,0,0,.59A1.61,1.61,0,0,0,94,41c0,.06,0,0,.06.1a.81.81,0,0,1,0,.22c0,.16,0,.84-.14.89a.26.26,0,0,1-.17,0,2.77,2.77,0,0,1-.41-.12.48.48,0,0,0-.31,0,1.6,1.6,0,0,1,.11.68c0,.07,0,.32-.07.38s-.38,0-.52,0c-.15.21.15.67.14.91a1.49,1.49,0,0,1-.41-.17.91.91,0,0,0,0-.17c-.08,0-.24.06-.32.09s-.29.11-.37.08a1.22,1.22,0,0,1,.08-.6c0-.1.1-.22,0-.31s-.39-.08-.37-.22.36-.3.24-.39-.3.19-.33,0,0-.24,0-.36a.42.42,0,0,1,0-.12c0-.1,0-.2,0-.3s0-.26,0-.3-.11.21-.15.29a2.11,2.11,0,0,0-.22.54c0,.16,0,.32-.09.49-.09,0-.09-.18-.16-.24,0,.17-.18.21-.2.36a3.23,3.23,0,0,0,0,.44c0,.09,0,.3,0,.36s-.5-.12-.61-.15a1,1,0,0,0,0,.42,1.22,1.22,0,0,0,0,.27s0,0,0,.07a.86.86,0,0,1,0,.16c0,.12,0,.61-.1.64a.24.24,0,0,1-.12,0l-.3-.09a.33.33,0,0,0-.22,0,1.15,1.15,0,0,1,.08.49s0,.23,0,.27-.27,0-.37,0,.11.48.1.66a1.24,1.24,0,0,1-.3-.13.49.49,0,0,0,0-.12c-.06,0-.17,0-.23.06S88,46,88,46a.9.9,0,0,1,.06-.43c0-.07.07-.16,0-.22s-.28-.06-.27-.16S88,45,88,44.9s-.22.14-.25,0,0-.17,0-.26a.16.16,0,0,1,0-.09,1.47,1.47,0,0,1,0-.21c0-.06,0-.19,0-.22s-.07.15-.1.21a1.88,1.88,0,0,0-.16.39,2,2,0,0,0-.06.35c-.07,0-.07-.13-.12-.17,0,.12-.13.15-.14.26s0,.21,0,.31,0,.22,0,.27-.35-.09-.43-.11a.61.61,0,0,0,0,.3,1.34,1.34,0,0,0,0,.2s0,0,0,0a.48.48,0,0,1,0,.12c0,.08,0,.44-.07.46l-.08,0-.21-.07a.33.33,0,0,0-.17,0,.68.68,0,0,1,.06.35.46.46,0,0,1,0,.2c-.06.07-.2,0-.27,0s.08.35.07.47-.24-.14-.33-.1,0,0,.06.06,0,.11.07.15a1.92,1.92,0,0,0,.18.22.64.64,0,0,1,.16.2s-.46-.15-.47-.07a1.45,1.45,0,0,1,.33.5s-.13,0-.17,0,0,0,0,.07l-.08,0s0,.12,0,.15-.12,0-.16,0,.32.22.45.29c-.16.06-.37,0-.54,0l-.08,0s0,0-.07,0a1.24,1.24,0,0,1,.44.41c0-.08-.23-.1-.31-.13s-.25-.13-.27,0,.08.17.12.22.16.18.23.27a1.61,1.61,0,0,0-.38,0,3.23,3.23,0,0,1-.44,0c0-.09.25-.31.3-.38s.13-.16.11-.24-.09-.07-.14-.1-.15-.07-.17-.15a.41.41,0,0,1,0-.19c0-.12.07-.25.11-.37A.83.83,0,0,0,85,48.2c-.07,0-.14.1-.19.14a2.2,2.2,0,0,1-.25.17.53.53,0,0,1,0-.18c0-.07,0-.12.06-.2a.2.2,0,0,1,0-.13l0,0a.55.55,0,0,0,0-.22s-.17,0-.23.06-.2.08-.27.06a.9.9,0,0,1,.06-.43c0-.08.07-.16,0-.23s-.28-.05-.27-.16.26-.21.18-.28-.22.14-.24,0,0-.18,0-.26l0-.09v-.21c0-.06,0-.19,0-.22s-.08.15-.11.21a1.8,1.8,0,0,0-.16.38,2.25,2.25,0,0,0-.06.36c-.06,0-.07-.13-.12-.17,0,.12-.13.15-.14.26s0,.21,0,.31,0,.22,0,.26-.36-.09-.44-.11a.61.61,0,0,0,0,.3,1.33,1.33,0,0,0,0,.2s0,0,0,0v.11c0,.09,0,.44-.08.47a.13.13,0,0,1-.08,0l-.21-.06s-.12,0-.16,0a.78.78,0,0,1,0,.34s0,.17,0,.2-.2,0-.27,0,.08.34.07.47-.24-.15-.32-.1,0,0,.06,0a1.66,1.66,0,0,0,.06.16,1.3,1.3,0,0,0,.19.22s.14.13.15.19-.46-.14-.47-.07a1.2,1.2,0,0,1,.28.41c-10,1.17-19.73,2.44-28.87,3.73q-1.53,1.59-3,3.28c34.73-5,78.58-9.93,115-9.93C199.21,47.46,239.65,51.79,273.14,56.39Z"/><polygon class="cls-2" points="191.56 28.3 189.06 27.64 188.96 31.81 191.46 32.38 191.56 28.3"/><polygon class="cls-2" points="195.9 29.53 193.55 28.85 193.46 32.85 195.81 33.43 195.9 29.53"/><polygon class="cls-2" points="186.96 27.09 184.36 26.52 184.26 30.86 186.85 31.36 186.96 27.09"/><path class="cls-2" d="M219.3,38.05l2.44.53a4.24,4.24,0,0,0-2.47-1.81,2.93,2.93,0,0,0-2.28.58l0,2.46v0l4.6,1.38A11.38,11.38,0,0,0,219.3,38.05Z"/><polygon class="cls-2" points="220.88 47.25 220.92 41.83 214.65 39.88 215.47 40.8 220.26 42.28 220.22 47.1 220.88 47.25"/><polygon class="cls-2" points="215.89 45.65 217.25 46 217.27 42.81 216.14 42.46 215.92 42.41 215.89 45.65"/><polygon class="cls-2" points="219.63 46.59 219.65 43.55 218.28 43.13 218.25 46.25 219.63 46.59"/><polygon class="cls-2" points="113.55 42.84 113.51 44 115.04 43.6 114.83 42.67 113.55 42.84"/><polygon class="cls-2" points="135.6 22.71 137.64 21.77 137.64 15.76 135.6 16.79 135.6 22.71"/><polygon class="cls-2" points="133.24 17.95 131.18 19.1 131.16 24.81 133.23 23.82 133.24 17.95"/><polygon class="cls-2" points="135.4 29.62 133.03 30.64 132.98 32.91 131.31 33.53 130.94 45.41 137.11 45.13 137.51 31.36 135.35 32.11 135.4 29.62"/><polygon class="cls-2" points="135.71 11.66 134.15 10.82 132.97 13.13 134.43 14.02 135.71 11.66"/><polygon class="cls-2" points="157.59 9.68 157.59 6.89 155.39 6.64 155.4 9.47 157.59 9.68"/><polygon class="cls-2" points="161.89 7.45 159.57 7.13 159.57 9.89 161.88 10.18 161.89 7.45"/><polygon class="cls-2" points="165.78 8.06 163.73 7.72 163.71 10.43 165.76 10.73 165.78 8.06"/><polygon class="cls-2" points="151.4 14.98 147.74 14.83 147.72 20.5 151.36 20.45 151.4 14.98"/><polygon class="cls-2" points="160.96 15.8 157.67 15.45 157.62 20.6 160.9 20.79 160.96 15.8"/><polygon class="cls-2" points="169.81 17.16 166.82 16.64 166.75 21.34 169.73 21.73 169.81 17.16"/><polygon class="cls-2" points="146.92 14.29 146.29 14.86 146.26 22.04 151.4 21.89 152.09 21.33 146.89 21.43 146.92 14.29"/><polygon class="cls-2" points="161.87 21.76 156.84 21.45 156.9 14.92 156.28 15.4 156.21 22 161.31 22.24 161.87 21.76"/><polygon class="cls-2" points="170.48 22.81 166.02 22.24 166.11 16 165.52 16.52 165.43 22.68 169.97 23.23 170.48 22.81"/><polygon class="cls-2" points="158.63 41.39 158.92 41.35 158.92 41.34 158.63 41.39"/><polygon class="cls-2" points="159.59 41.26 160.97 41.08 159.59 41.24 159.59 41.26"/><path class="cls-2" d="M273.14,56.39c-2.24-1.22-4.45-2.48-6.66-3.76-9.33-1.23-19.11-2.42-29.06-3.49h0l-.29,0a.23.23,0,0,1,.07-.07,1.92,1.92,0,0,0,.18-.22c0-.05,0-.12.07-.15s0,0,.06-.06-.23.09-.33.1.15-.37.07-.48-.21.09-.27,0a1.2,1.2,0,0,1,0-.2.86.86,0,0,1,.06-.35.23.23,0,0,0-.16,0l-.21.06-.09,0c-.1,0-.07-.38-.07-.47a.41.41,0,0,1,0-.11s0,0,0,0a.67.67,0,0,0,0-.2.76.76,0,0,0,0-.3c-.08,0-.35.2-.44.11s0-.19,0-.26,0-.21,0-.31-.12-.14-.15-.26c0,0,0,.15-.12.17a2.25,2.25,0,0,0-.06-.36,1.77,1.77,0,0,0-.15-.38c0-.06-.06-.18-.11-.22s0,.17,0,.23a1.47,1.47,0,0,1,0,.21.24.24,0,0,1,0,.09c0,.08,0,.18,0,.26s-.14,0-.24,0,.17.22.17.28-.2.1-.27.16,0,.15,0,.23a.88.88,0,0,1,.06.43c-.06,0-.22,0-.27-.06s-.17-.09-.23-.06a.55.55,0,0,0,0,.22l0,0a.3.3,0,0,1,0,.13.76.76,0,0,0,.06.2c0,.06,0,.11,0,.18a2.2,2.2,0,0,1-.25-.17.85.85,0,0,0-.19-.14v0a2.62,2.62,0,0,0-.4,0,.72.72,0,0,1,.18-.17c.07-.07.15-.13.21-.2s.05-.12.08-.14l.07-.05c-.08-.06-.24.06-.34.06s.2-.35.13-.47-.22.07-.27,0a.66.66,0,0,1,0-.2.67.67,0,0,1,.1-.34.22.22,0,0,0-.16,0l-.22,0a.15.15,0,0,1-.09,0c-.09,0,0-.38,0-.47a.43.43,0,0,1,0-.11s0,0,0,0a1.12,1.12,0,0,0,0-.2.75.75,0,0,0,0-.3c-.08,0-.37.16-.45.06s0-.2,0-.26,0-.21,0-.31-.09-.15-.11-.27c0,0-.07.14-.13.15s0-.24,0-.36a2.62,2.62,0,0,0-.11-.4c0-.06,0-.18-.09-.22s0,.16,0,.21,0,.15,0,.22a.29.29,0,0,1,0,.08c0,.09,0,.18,0,.26s-.14,0-.24,0,.14.24.14.3-.21.07-.28.13,0,.15,0,.22a.94.94,0,0,1,0,.44A.73.73,0,0,1,232,45c-.06,0-.17-.11-.22-.09a.57.57,0,0,0,0,.22l0,0a.33.33,0,0,1,0,.14c0,.08,0,.13,0,.2a.55.55,0,0,1,0,.18,1.07,1.07,0,0,1-.16-.14.35.35,0,0,0,0-.11h-.07s-.09-.1-.14-.11a.38.38,0,0,0,0,.15c-.07,0-.13,0-.16,0a.87.87,0,0,1,0-.28,1.13,1.13,0,0,1,.08-.48c-.07,0-.16,0-.22,0s-.2.07-.3.09a.24.24,0,0,1-.12,0c-.13,0-.1-.52-.1-.64a.86.86,0,0,1,0-.16c0-.05,0,0,0-.07a1.22,1.22,0,0,0,0-.27,1,1,0,0,0,0-.42c-.11,0-.48.28-.61.15s0-.27,0-.37a3.09,3.09,0,0,0,0-.43c0-.15-.15-.19-.2-.36-.07,0-.07.21-.16.24,0-.17,0-.34-.09-.5a2.2,2.2,0,0,0-.22-.53c0-.08-.07-.25-.15-.3s0,.23,0,.31,0,.2,0,.3a.42.42,0,0,1,0,.12c0,.12,0,.24,0,.36s-.2,0-.34,0,.23.29.24.38-.28.14-.37.23,0,.21,0,.31a1.22,1.22,0,0,1,.08.6c-.08,0-.3-.06-.37-.08s-.24-.12-.32-.09a.65.65,0,0,0,0,.31l0,0a.31.31,0,0,1,0,.19,2.76,2.76,0,0,0,.08.27,2.11,2.11,0,0,1,0,.25,2.12,2.12,0,0,1-.35-.23c-.07,0-.17-.18-.26-.2a1.13,1.13,0,0,0,.08.48c.05.18.09.36.15.53a.45.45,0,0,1,.05.25c0,.12-.14.16-.23.22s-.17.05-.19.14.08.26.14.33l0,.05-.46.46c-.14,0-.3,0-.33,0s0,.19,0,.25a.43.43,0,0,0,0,.05l-.5.5s1.12-1.89.37-3.38l-.27.16a5.83,5.83,0,0,0-1.12-3.49l.05-.11L224.18,42l-.45-.11-.24-.06a2,2,0,0,0-.63,1.4l-.79.19.19.77-.4.31.39,1.06s-.64-.06-.6,1.24a1.57,1.57,0,0,0,.23.74q-4.42-.4-8.85-.76v-.54a.74.74,0,0,0,1-.07,9,9,0,0,0,1.18-2.31l-.58-.14-.08-1.38-.74.09s-.23-1,.11-1.17l-.53-.51.38-.55-.17-.55a1.22,1.22,0,0,0-.52,0l.65-.76-.35-.28,2.64.85.11,0a1.28,1.28,0,0,0-.11-.2,9.06,9.06,0,0,0-1.84-2.5l1.88.44a4.36,4.36,0,0,0-2.44-1.84,2.81,2.81,0,0,0-2.24.53l0,2,0,.07a.48.48,0,0,0-.08.27l-.29.58.14.78-1.12.42.24,1.09-.47.23v.42a1.29,1.29,0,0,0-.35,1.36c.28.57.59.6.69.59a.43.43,0,0,0-.4.36l-2.39-.65.05-3.66,2.53-2.22,0-2.73.59-.56L206,30.44l-3.92,1.77,4.19,1,0,.69L202.66,33l-.06,2.69-4.33-1.08.14-5.93-.8-.18-7.32-7.9-2.42,1-12.63.12.2-9.18-.52-.31-1.56.22-5.51-2.84,0-1.64,1.2-1.2V6.38L156.1,0l-8.69,6,0-2.25.53-.14L147.12.73s-.25-.54-1.3-.43-1.27.65-1.27.65L143.83,4l.54.11,0,3h-.23l-1.54.73-6.15-.08-.6-.43-2.07-.1-3.08,6.18-2.15,1.34,0,5.35-5.72,3.65a1.78,1.78,0,0,0-.58.62,1.35,1.35,0,0,0-.19.73l0,2.57a8.11,8.11,0,0,0-2.92,1.6v-.5l-.44.15-.11-.31.06-.64-.62.2v-.8l-.31-.27-.06-.45-.31.13-.19-.64-.32.93-.31.07v.4h-.25l.36.89-.81-.1.19.76-.32.24-.32,0-.26.87-.57-.16.25.87-.32.18.15.71-3,.51-3,2,0,2.43-.22.05-.22-.15.07-.32-.19-.42.21-.7-.46.34.08-.61-.19-.48.28-.6-.59.32L107,33.07l-.13.32-.27-.12-.07.54-.13.45-.39,0-.21.82-.32,0,.11.69-.33.31-.39.21.18.54-.64-.27-.33.07s-.32.08-.06,0,.35-1.09.35-1.09l-.4.15.08-.43L103.8,35l-.25-.43-.21.52-.33.25v.78l-.52-.13.31.7-.46.23-.52-.13.11.93-.2.05.06.46-.45-.38-.14.26-.07.32.36,1.06-.85.06.05.71-.46.1.24.49-.25.06-2.07,1a.94.94,0,0,0,.06-.47c-.12,0-.27.2-.37.28a2.63,2.63,0,0,1-.48.31c0-.11,0-.23,0-.34a2.65,2.65,0,0,0,.12-.37.42.42,0,0,1,0-.27l.07-.06a1,1,0,0,0,0-.42c-.11,0-.34.08-.45.12s-.4.16-.52.11a1.8,1.8,0,0,1,.11-.83c.06-.15.14-.31,0-.43s-.54-.11-.52-.32.5-.41.34-.54c-.2.06-.42.27-.47,0s0-.34,0-.5a.48.48,0,0,1-.05-.18c0-.14,0-.28,0-.41s0-.37,0-.43-.15.3-.21.41a3.82,3.82,0,0,0-.31.75c-.06.22-.06.45-.11.68-.13,0-.14-.25-.23-.32-.06.23-.26.28-.28.49s0,.41,0,.61.06.42,0,.51-.69-.17-.84-.22a1.3,1.3,0,0,0,0,.59A1.61,1.61,0,0,0,94,41c0,.06,0,0,.06.1a.81.81,0,0,1,0,.22c0,.16,0,.84-.14.89a.26.26,0,0,1-.17,0,2.77,2.77,0,0,1-.41-.12.48.48,0,0,0-.31,0,1.6,1.6,0,0,1,.11.68c0,.07,0,.32-.07.38s-.38,0-.52,0c-.15.21.15.67.14.91a1.49,1.49,0,0,1-.41-.17.91.91,0,0,0,0-.17c-.08,0-.24.06-.32.09s-.29.11-.37.08a1.22,1.22,0,0,1,.08-.6c0-.1.1-.22,0-.31s-.39-.08-.37-.22.36-.3.24-.39-.3.19-.33,0,0-.24,0-.36a.42.42,0,0,1,0-.12c0-.1,0-.2,0-.3s0-.26,0-.3-.11.21-.15.29a2.11,2.11,0,0,0-.22.54c0,.16,0,.32-.09.49-.09,0-.09-.18-.16-.24,0,.17-.18.21-.2.36a3.23,3.23,0,0,0,0,.44c0,.09,0,.3,0,.36s-.5-.12-.61-.15a1,1,0,0,0,0,.42,1.22,1.22,0,0,0,0,.27s0,0,0,.07a.86.86,0,0,1,0,.16c0,.12,0,.61-.1.64a.24.24,0,0,1-.12,0l-.3-.09a.33.33,0,0,0-.22,0,1.15,1.15,0,0,1,.08.49s0,.23,0,.27-.27,0-.37,0,.11.48.1.66a1.24,1.24,0,0,1-.3-.13.49.49,0,0,0,0-.12c-.06,0-.17,0-.23.06S88,46,88,46a.9.9,0,0,1,.06-.43c0-.07.07-.16,0-.22s-.28-.06-.27-.16S88,45,88,44.9s-.22.14-.25,0,0-.17,0-.26a.16.16,0,0,1,0-.09,1.47,1.47,0,0,1,0-.21c0-.06,0-.19,0-.22s-.07.15-.1.21a1.88,1.88,0,0,0-.16.39,2,2,0,0,0-.06.35c-.07,0-.07-.13-.12-.17,0,.12-.13.15-.14.26s0,.21,0,.31,0,.22,0,.27-.35-.09-.43-.11a.61.61,0,0,0,0,.3,1.34,1.34,0,0,0,0,.2s0,0,0,0a.48.48,0,0,1,0,.12c0,.08,0,.44-.07.46l-.08,0-.21-.07a.33.33,0,0,0-.17,0,.68.68,0,0,1,.06.35.46.46,0,0,1,0,.2c-.06.07-.2,0-.27,0s.08.35.07.47-.24-.14-.33-.1,0,0,.06.06,0,.11.07.15a1.92,1.92,0,0,0,.18.22.64.64,0,0,1,.16.2s-.46-.15-.47-.07a1.45,1.45,0,0,1,.33.5s-.13,0-.17,0,0,0,0,.07l-.08,0s0,.12,0,.15-.12,0-.16,0,.32.22.45.29c-.16.06-.37,0-.54,0l-.08,0s0,0-.07,0a1.24,1.24,0,0,1,.44.41c0-.08-.23-.1-.31-.13s-.25-.13-.27,0,.08.17.12.22a3.08,3.08,0,0,0,.24.27h0a1.61,1.61,0,0,0-.38,0,3.23,3.23,0,0,1-.44,0c0-.09.25-.31.3-.38s.13-.16.11-.24-.09-.07-.14-.1-.15-.07-.17-.15a.41.41,0,0,1,0-.19c0-.12.07-.25.11-.37A.83.83,0,0,0,85,48.2c-.07,0-.14.1-.19.14a2.2,2.2,0,0,1-.25.17.53.53,0,0,1,0-.18c0-.07,0-.12.06-.2a.2.2,0,0,1,0-.13l0,0a.55.55,0,0,0,0-.22s-.17,0-.23.06-.2.08-.27.06a.9.9,0,0,1,.06-.43c0-.08.07-.16,0-.23s-.28-.05-.27-.16.26-.21.18-.28-.22.14-.24,0,0-.18,0-.26l0-.09v-.21c0-.06,0-.19,0-.22s-.08.15-.11.21a1.8,1.8,0,0,0-.16.38,2.25,2.25,0,0,0-.06.36c-.06,0-.07-.13-.12-.17,0,.12-.13.15-.14.26s0,.21,0,.31,0,.22,0,.26-.36-.09-.44-.11a.61.61,0,0,0,0,.3,1.33,1.33,0,0,0,0,.2s0,0,0,0v.11c0,.09,0,.44-.08.47a.13.13,0,0,1-.08,0l-.21-.06s-.12,0-.16,0a.78.78,0,0,1,0,.34s0,.17,0,.2-.2,0-.27,0,.08.34.07.47-.24-.15-.32-.1,0,0,.06,0a1.66,1.66,0,0,0,.06.16,1.3,1.3,0,0,0,.19.22s.14.13.15.19-.46-.14-.47-.07a1.2,1.2,0,0,1,.28.41c-10,1.17-19.73,2.44-28.87,3.73q-1.53,1.59-3,3.28c34.73-5,78.58-9.93,115-9.93C199.21,47.46,239.65,51.79,273.14,56.39ZM210.6,45.71c.24.24.42.39.42.39l1.1-.11v.75l-1.53-.12ZM99.71,48.44l.1-2.61c1.13,0,2.24,1.48,2.77,2.33Zm2.17-4.92.07-2.13,5.52-1.27-2.07,2.57-2.16.53Zm3,4.42-1.09.1.16-4.18,8.18-2L112,45.35l-7.1,1.82Zm12.82-1.14h0l.06-1.7h0Zm.08-2.16-3.34,2.43-4.28.38,0-.82,7.59-2Zm-4.76.45.1-2.7,2.1-.3.29,1,.83.42,0,.72Zm5-7.84-4.09,1.85-.08,2.31-.7.05,0-.65-5,1.22.12-3.4,9.83-5.4Zm-6.31-1.74,0-2.29L118.1,32Zm11.77-11.06,3-1.74v1.93a11.66,11.66,0,0,0-3,2.05Zm-4.24,6s1.92-2,3.39-1.82v.9a26.7,26.7,0,0,0-3.5,6.36Zm7.92,11.36-1.85.4-.15,4-1.11.08.14-3.82-3.48.77-.13,3.31-.82.07.12-3.19-1,.21,0-.91,8.26-2.26Zm1-15.61c.05,2.36-3,3.69-4.9,9l.13-7a10,10,0,0,1,4.78-2.88Zm.48-2.19-1.09.22V22l1.08-.65Zm38.63,20.59.14-.18c.05.07.11.12.16.18ZM169.59,41c-.31.18-.38.5-.68.78a1.13,1.13,0,0,1-.26,0l0-1.43.93,0Zm1.48,3.37.1-.12.07.1Zm1.05-2.77a4.58,4.58,0,0,0-1-.06,13.73,13.73,0,0,0,.38,1.5c0,.09-.08.18-.2.28a1.25,1.25,0,0,0-.45-.2l.07-2.87,1.28-.05Zm16,3.57a.6.6,0,0,0-.09-.15l-1.14-1.23-.81-.88.13-6,.83.16-.14,6.32v.18l.06.07c1.75.28,2.18-.81,2.18-.81l-.51-.32.25-.4.78.17,0,2,1.07,1Zm-8.54-11.75-.15-3.51,8.11,4.48-.17.37Zm1.3,1.09-.51.55-1.22-.19v-.61Zm6.62,1.18-.51.53-.76-.15v-.62ZM206.53,34l2.8.72-.05,2.73-2.81-.73Zm-8.32,3.62,8,2.08,0,1.23-8-2.1Zm-.16,4.68,0,2.2,1,.21,0-2.22,2.54.5,0,2.22,1,.21,0-2.23,2.45.51,0,2.22,1.67.36,0-2.24,2.6.54,0,1.93q-6.27-.48-12.47-.86a.1.1,0,0,1,0,0,.28.28,0,0,0-.09,0l-2.7-.15,0-2.15,1.62.4,0-1.87ZM175.19,25.87l6.43,1.2.06-2.59,2.22.33,6.36-3,7.27,7.87-.21,9.57-1.55,1.27.06-2.79c0-.49-.65-1.06-1.49-1.25s-1.49.06-1.5.55c0,0,0,2-.07,3.71l-1-.24.08-3.7c0-.46-.71-1-1.59-1.16s-1.6,0-1.61.47h0l-.12,5.44h-.19a2.73,2.73,0,0,0-.13-1.72c-.19,0-.81.61-.82.61l.09-4,1.21-1.8-9.7-5.44-3.84,1.81Zm-.38,16.59.2-8.81,2.47.3.53.8-.16,7.08L179,42l.14-6.26,1.33.21-.09,3.81a2.26,2.26,0,0,0-.57-.06,8.91,8.91,0,0,0,.3,1.21c0,.18-.51.32-.43.55a2.13,2.13,0,0,0,.64.9,2.43,2.43,0,0,0,.25.2,8.1,8.1,0,0,0,1.69.24c.18-.45,1-1.11.89-1.25-.11-.37-.58-.49-.71-.51a4.29,4.29,0,0,0,0-.72,1.06,1.06,0,0,0-.53,0c0-.38.16-.81-.2-1.08-.39.08-.4.4-.68.64l-.19,0,.11-4.67.68-.68,2.76.47.65.91-.13,5.82-.72-.78a.35.35,0,0,0-.35-.11.31.31,0,0,0-.2.29l0,1.69a.42.42,0,0,0,.32.41.29.29,0,0,0,.34-.29l0-1,.6.65V43l.5.1.65.71.62.67.6.65-2-.08-.69-.74V45l-3.42-.12-2.29-.07v-.56l-4.1-1.14ZM168.05,7l-.64.13-14.26-2V4.88Zm-1,.84,0,4-13.89-1.62V6ZM152.8,4v.53l-4.69,2.15V6.28Zm-5.92-.32,0,3.41-1.22,0s0-.47,0-1.78A1.61,1.61,0,0,1,146.88,3.71Zm-5.08,5,2.41,1.41,0-2.23,4.07.2v.27l4.62,2.77,15.05,1.72,0-1.44,6.41,3.45L141,11.39l0-2.68Zm-2.76,0-.78.43-.74-.48Zm.24,36.63c-3.45.18-6.94.39-10.44.62l.56-30.72,2-1.2,2.72-5.58,3,2.58,2.78-1.53Zm11.36-1.82c-.46.24-.49.63-.85,1a5.82,5.82,0,0,1-.73.08l.05-1.39,1.55-.34Zm3,.19c-.26,0-.53,0-.8.06l0-1.35.82-.18Zm7.52-2.67-.18,0,.18,0,0,1.42a6.45,6.45,0,0,0-1.39.06,11.5,11.5,0,0,0,.38,1.45c0,.09-.09.19-.21.3a.79.79,0,0,0-.37-.13l.08-2.9-.67.09-.06,1.91-.23.08c0-.47.2-1.07-.25-1.3-.5.19-.51.59-.87,1a12.93,12.93,0,0,0-1.63.13,11.07,11.07,0,0,0,.38,1.45s0,.09-.06.14l-.8,0a4,4,0,0,0,.07-.91,1.54,1.54,0,0,0-.68.15c0-.47.21-1.08-.24-1.3a.61.61,0,0,0-.22.15l0-.73,4.28-.72-5.77.77.33-12.28a6.76,6.76,0,0,0-4.94-1.17,7.77,7.77,0,0,0-4.47,1.72l-.17,7.25,1.08-.31c1.16-.62,3.25-4.29,3.25-4.29.6,1.3,2.94,2.6,2.94,2.6l-.21,6.78-2.61.35a.4.4,0,0,0-.31.42.28.28,0,0,0,.37.26l.3-.07,0,1.33-.24.06a1,1,0,0,0,0,.15l-1.08,0a.52.52,0,0,0-.31-.54,1.27,1.27,0,0,0-.55.58q-2.91.1-5.85.26l.59-33,33.68,3.41-.58,26.42-.28.05c0-.48.2-1-.25-1.34-.43.11-.5.43-.75.73l0-1.64v-.06s0,0,0,0v0a0,0,0,0,0,0,0l0,0v0l0,0s0,0,0,0l0,0,0,0s0,0,0,0h-.06l0,0h-.09l-1.58.21.22-9.28a4.89,4.89,0,0,0-3.06-1.38,3.49,3.49,0,0,0-2.51.55l-.11,5h.4l.62-1.31s1.43,2.29,3.26,2.7l-.09,3.84-6.7.9.28-11a5.89,5.89,0,0,0-4-1.37,5.32,5.32,0,0,0-3.45,1l-.13,5.82.81-.29,1.09-2a9.57,9.57,0,0,0,3.74,2.92Zm2.47,1h-.09a1.64,1.64,0,0,0,.07.44l0,1.25a1.37,1.37,0,0,0-.51-.11,4,4,0,0,0,0-.92.89.89,0,0,0-.23,0l0-1.9.72-.09Zm.67,0,0-1.35,3.71-.28,0,1.34a2.57,2.57,0,0,0-.68,0,13.92,13.92,0,0,0,.37,1.48c0,.09-.08.19-.2.28a1.34,1.34,0,0,0-.64-.2,4.07,4.07,0,0,0,.06-.92,1.37,1.37,0,0,0-.67.08c0-.48.2-1-.24-1.33-.49.17-.5.57-.86.93A8.06,8.06,0,0,1,164.28,42Z"/><path class="cls-2" d="M71.09,132.92c8.28-1,15.45-7.37,15.45-16.81V74.21c0-8.28-7.17-14.17-15.45-13.16S56,68.42,56,77.86v41.9C56,129.2,62.81,133.93,71.09,132.92ZM66.86,71.48a4.9,4.9,0,0,1,4.23-4.58c2.26-.27,4.54,1.32,4.54,3.57v52c0,2.24-2.28,4.3-4.54,4.58a3.67,3.67,0,0,1-4.23-3.57Z"/><path class="cls-2" d="M9.23,135.56l-.59.14c-2.67.63-5.33,1.29-8,1.93v8.44c2.85-.73,5.72-1.42,8.57-2.11V173.4c4.78-1.19,9.6-2.33,14.39-3.42V140.69c2.1-.47,5.23-1.39,7.33-1.79,10.43-2.05,18.87-12.71,18.87-23.85V89.89c0-16.47-12.3-24.26-26.2-21.48C16,70,8.29,71.61.66,73.38v8.38c2.85-.67,5.72-1.3,8.57-1.94Zm14.19-59c5.94-1.2,11.79.95,11.79,8.93v35.42c0,4.75-3.62,9.31-8.09,10.18-.89.18-2.8.84-3.7,1Z"/><path class="cls-2" d="M107.76,128.58V108.16c4.5-.3,9.09,3.11,9.09,7.62V128c3.62-.22,7.26-.43,10.9-.61v-8.71c0-7-2.15-11.17-6.89-14.24a15.39,15.39,0,0,0,6.89-12.68V75.53c0-14.44-9.47-18.58-20-17.85q-8.72.62-17.4,1.46V65c2.16-.21,4.33-.41,6.49-.6v38.86c-2.16.19-4.33.4-6.49.63v5.85c2.16-.23,4.33-.44,6.49-.64v20.45Q102.3,129,107.76,128.58Zm0-65.06c4.5-.31,9.09,2,9.09,7.62V95.67a6.66,6.66,0,0,1-6.13,6.51c-.67,0-2.29.09-3,.14Z"/><path class="cls-2" d="M149.16,126.77V61.88c2.22,0,4.43,0,6.63,0h2.61V56h-2.61q-13.39,0-26.77.53v5.82c3.07-.13,6.16-.23,9.24-.31V127C141.89,126.88,145.52,126.79,149.16,126.77Z"/><path class="cls-2" d="M270.64,73.51q4.29.7,8.54,1.45v84.27c-2.83-.55-5.68-1.09-8.54-1.6v8.28q11.5,2.13,22.93,4.6c13.81,3,26.32-.77,26.32-19.94V93.79a23.81,23.81,0,0,0-18.82-23.24c-9.7-2-20.66-3.71-30.43-5.32Zm22.93,4.11c.89.17,3,.35,3.91.53,4.44.9,8.06,4.44,8.06,10.81v65.73c0,6.89-6.05,8.75-12,7.48Z"/><path class="cls-2" d="M224.88,129.73V58.59c-1.82-.16-4.67-.27-6.48-.45-18.84-1.84-26.48,9.25-26,32.48v10.59q-3.24-.15-6.48-.27v5.82q3.24.12,6.48.27v14.56c-4.08-.2-13.5-.35-17.58-.46V56.24c-3.63-.11-7.27-.15-10.92-.19v70.71c11.44.1,28.15.68,39.42,1.42V107.63c2.72.18,8,.36,10.68.57v20.57C217.62,129.06,221.25,129.37,224.88,129.73ZM203.3,101.8V91c0-18.08,2.78-26.8,10.68-26.74v38.07C211.26,102.16,206,102,203.3,101.8Z"/><path class="cls-2" d="M255.13,133.72c3.63.53,7.28,1.09,10.9,1.7V78a16.67,16.67,0,0,0-14.31-16.08c-5.22-.66-11.84-1.56-17.07-2.1v71.1c3.65.43,7.27.87,10.91,1.35V66.88c.68.08,1.35.15,2,.25,4.8.65,7.54,3.81,7.54,7.18Z"/><path class="cls-1" d="M110.88,66.69a7.17,7.17,0,0,1,2.92,1,6,6,0,0,0-4.53-2.57V100l.94,0a4.94,4.94,0,0,0,.67-.12Z"/><path class="cls-1" d="M94.58,67.84V66.07l-4.42.41-.45,0v1.77l2.07-.19C92.71,68,93.64,67.92,94.58,67.84Z"/><path class="cls-1" d="M128.36,63.91v1.68l2-.08c1.77-.08,3.65-.14,5.66-.21V63.64c-2.64.07-5,.16-7.28.25Z"/><path class="cls-1" d="M7,83.79v-2l-.15,0c-2,.46-4.07.91-6.1,1.39L0,83.39v2l2.33-.55C3.87,84.47,5.41,84.13,7,83.79Z"/><path class="cls-1" d="M70,124.81V72.71A3,3,0,0,1,72.55,70l.28,0a2.41,2.41,0,0,1,.53.07c0-1-1.14-1.68-2.14-1.68h-.28a3,3,0,0,0-2.57,2.7v52A1.72,1.72,0,0,0,70,124.81Z"/><path class="cls-1" d="M31.78,80.4c-1.36-2.1-3.69-2.65-5.77-2.65-.35,0-.72,0-1.08,0v51.43c.54-.16,1-.3,1.43-.38l.18-.05V79.41c.37,0,.73,0,1.09,0A7.77,7.77,0,0,1,31.78,80.4Z"/><path class="cls-1" d="M176.31,55.59v63.32l1.62,0V55.63Z"/><path class="cls-1" d="M301.57,82.62a7.66,7.66,0,0,0-4.84-3c-.34-.06-1-.14-1.65-.22v80.78a12.54,12.54,0,0,0,1.49.09h.12V81c.66.07,1.31.15,1.65.22A8.2,8.2,0,0,1,301.57,82.62Z"/><path class="cls-1" d="M276.91,77.51V76.17c-2.3-.39-4.61-.79-6.93-1.17v1.34l1.58.27Z"/><path class="cls-1" d="M190.11,108.46l-4.66-.19h-.21v1.55l1.83.07,3,.12Z"/><path class="cls-1" d="M207.05,71.19c-1.51,4-2.24,10.36-2.24,19.45v9l1.61.08V92.26c0-9.09.74-15.46,2.24-19.46a9,9,0,0,1,3-4.4V66C210.07,66.46,208.35,67.74,207.05,71.19Z"/><path class="cls-1" d="M314.61,76a25.73,25.73,0,0,1,6.79,17.4v56.78c0,7.76-2,13.66-5.89,17.54-3.47,3.46-8.32,5.21-14.4,5.21h0a39.24,39.24,0,0,1-8.32-1c-7.78-1.68-15.46-3.22-22.81-4.58v1.32l1.55.29c7.37,1.36,15.07,2.9,22.87,4.58a39.38,39.38,0,0,0,8.32,1h0c6.09,0,10.94-1.75,14.41-5.2,3.9-3.88,5.88-9.78,5.88-17.54V95A25.73,25.73,0,0,0,314.61,76Z"/><path class="cls-1" d="M152.29,129.87V65L157,65h2.58l1.92,0V55.39h-1.62v8l-1.91,0h-2.59l-4.74,0v64.88l-1.87,0c-3.16,0-6.52.09-10.87.21h-.33v1.66l2,0c4.35-.13,7.7-.19,10.87-.22Z"/><path class="cls-1" d="M206.42,131.44V110.87l2.74.13,2.54.12V109.6c-1.25-.08-2.72-.15-4.15-.22l-2.74-.13v20.57l-2-.13c-10.83-.71-27.36-1.31-39.3-1.42h-.26v1.6h1.87c11.94.12,28.48.71,39.31,1.42Z"/><path class="cls-1" d="M228,133.05v-75L226.39,58v73.49l-2.08-.21c-3.34-.33-6.89-.64-10.86-1h-.13v1.49l1.74.14c4,.32,7.53.63,10.87,1Z"/><path class="cls-1" d="M268.36,74.73V74.2a18.82,18.82,0,0,0-5.44-8.37,18,18,0,0,1,4.62,11.79v59.66l-2.2-.37c-3.63-.61-7.28-1.18-10.86-1.7h0v1.39l1.62.23c3.58.52,7.24,1.09,10.86,1.69l2.21.37V79.24a16.57,16.57,0,0,0-.64-4.49Z"/><path class="cls-1" d="M247.07,68.64V134l-2.14-.28c-3.62-.47-7.29-.92-10.88-1.34H234v1.43l1.68.2c3.59.41,7.25.86,10.88,1.34l2.13.27V70.26a8.11,8.11,0,0,1,3.44,1.25A6.9,6.9,0,0,0,247.07,68.64Z"/><path class="cls-1" d="M45.48,72.62c3.73,4.17,5.85,10,5.85,16.89v25.17c0,12-9.15,23.49-20.4,25.7-1.16.22-2.69.62-4.16,1l-1.64.42v29.31l-1.47.33c-5.29,1.21-10,2.33-14.35,3.41l-.74.19v2l2.35-.59c4.37-1.09,9.06-2.2,14.36-3.41l1.47-.34v-29.3l1.64-.42c1.47-.39,3-.78,4.16-1C43.8,139.78,53,128.25,53,116.29V91.12C53,83.27,50.2,76.83,45.48,72.62Z"/><path class="cls-1" d="M0,147.71v2l2.36-.6c1.53-.39,3.07-.76,4.6-1.14v-2c-2.07.49-4.15,1-6.21,1.53Z"/><path class="cls-1" d="M88.09,101.79h0l1.57-.16V75.44a14.92,14.92,0,0,0-5.15-11.35,15,15,0,0,1,3.54,9.74v28Z"/><path class="cls-1" d="M89.66,117.34v-4.27l2.14-.23,2.78-.28v-1.78l-4.4.44-.52.06h0l-1.57.16v0h0v4.31c0,10.9-8.61,17.65-17.11,18.68a19.54,19.54,0,0,1-2.39.15h0a15,15,0,0,1-9.75-3.26,14.48,14.48,0,0,0,11.37,4.88h0a19.41,19.41,0,0,0,2.39-.15C81.06,135,89.66,128.25,89.66,117.34Z"/><path class="cls-1" d="M110.88,131.57V111.4a7.48,7.48,0,0,1,2.81,1.21,7.13,7.13,0,0,0-4.42-2.82V130l-1.75.13c-3.51.26-7.06.57-10.87.94l-.46,0v1.77l2.07-.2c3.81-.36,7.37-.67,10.88-.93Z"/><path class="cls-1" d="M129.07,130.51l1.8-.09V119.9c0-6.42-1.76-10.93-5.67-14.27A17.07,17.07,0,0,0,130.87,93V76.77c0-5.26-1.26-9.57-3.62-12.82l-.51-.67a15.55,15.55,0,0,0-1.92-2c2.88,3.34,4.44,8,4.44,13.84V91.37A17.06,17.06,0,0,1,123.59,104c3.9,3.35,5.67,7.85,5.67,14.28v10.52l-1.8.08c-3.54.18-7.2.38-10.88.61l-.39,0v1.72l2-.12C121.88,130.89,125.54,130.68,129.07,130.51Z"/><path class="cls-1" d="M90.17,160.42c-3.07.25-6.13.53-9.19.81V145.16c2.79-.27,5.57-.51,8.35-.75a14.35,14.35,0,0,1,2.27,0c2.33.18,3.89,1.61,4,3.35a4.08,4.08,0,0,1-2.24,3.71,4,4,0,0,1,2.9,3.66C96.24,157.52,93.66,160.13,90.17,160.42Zm-.09-12.93a6.81,6.81,0,0,0-1.29,0l-4,.35V151l4-.34a4.11,4.11,0,0,0,1.68-.39A1.47,1.47,0,0,0,90.08,147.49Zm.14,6.24a9.33,9.33,0,0,0-1.61,0l-3.77.33v3.81l3.5-.3c1.53-.13,2.13-.26,2.84-.86A1.67,1.67,0,0,0,90.22,153.73Z"/><path class="cls-1" d="M115.28,158.71l-3.51-5.15-2.9.18v5.33l-3.86.24V143.24c2.72-.18,5.45-.34,8.17-.5,7.91-.41,8.75,7.51,2.55,10,1.31,1.89,2.62,3.8,3.93,5.7ZM108.84,146v4.81l3.54-.21c4.49-.25,4.46-5,.38-4.83Z"/><path class="cls-1" d="M128.56,158.11V142q6.63-.24,13.27-.39v3c-3.14.07-6.27.15-9.41.25v2.92q3.6-.12,7.2-.21v3l-7.2.2V155c3.36-.12,6.72-.2,10.07-.27v3Q135.53,157.85,128.56,158.11Z"/><path class="cls-1" d="M169.72,157.59l-4,0-3.48-10.76c-1.16,3.58-2.33,7.15-3.5,10.74h-4l-5.61-16,4.08,0,3.54,10.94c1.13-3.66,2.25-7.31,3.39-11l4.23,0q1.69,5.58,3.38,11.16l3.54-11.1,4.08.07Q172.53,149.58,169.72,157.59Z"/><path class="cls-1" d="M183.73,157.88V141.8l3.86.12V158Z"/><path class="cls-1" d="M208.51,159l-7.91-11v10.57l-3.87-.18V142.27l4.29.21q4,5.53,8,11.12V142.91l3.87.24v16.07Z"/><path class="cls-1" d="M231.28,160.9a11.48,11.48,0,0,1-7.6-3.29,8.92,8.92,0,0,1-2.6-6,6.5,6.5,0,0,1,2.49-5.32c2.12-1.93,5.68-2.39,8-2.07a14.91,14.91,0,0,1,6.61,2.34l-2.22,2.86a7.89,7.89,0,0,0-3.67-1.87c-4.07-.71-7,1.31-6.76,4.47.24,3.81,3.14,5.56,6.64,5.66a6.38,6.38,0,0,0,2.21-.43v-2.64l-3.35-.29v-2.94c2.46.21,4.91.42,7.36.66v7.67A15,15,0,0,1,231.28,160.9Z"/><path class="cls-2" d="M133.28,151.67l6.36-.17.83,0v-3.7l1.34,0v4.73l-.84,0-6,.17h-.35V154l-1.33,0Z"/><path class="cls-2" d="M133.28,145.74q4.29-.13,8.58-.22l.83,0v-3.71l1.34,0v4.73l-.85,0q-4.11.09-8.22.22h-.35v.17l-1.33,0Z"/><path class="cls-2" d="M85.7,148.6l3.16-.27a4.1,4.1,0,0,1,.48,0c.22,0,.43,0,.65,0a.5.5,0,0,1,.48.41.63.63,0,0,1-.16.56h-.12L87,149.6V150l-1.33.12Z"/><polygon class="cls-2" points="154.12 141.62 155.12 141.61 157.18 147.98 156.69 149.58 154.12 141.62"/><path class="cls-2" d="M109.7,146.84l3.11-.18H113c1.14,0,1.74.49,1.89,1a3.16,3.16,0,0,0-.55,0h-.19l-3.12.18v2l-1.33.08Z"/><polygon class="cls-2" points="165.26 141.6 166.29 141.61 168.26 148.09 167.73 149.74 165.26 141.6"/><path class="cls-2" d="M228.9,156.08a4.57,4.57,0,0,1-2.56-4.12,3.16,3.16,0,0,1,.81-2.42,4.77,4.77,0,0,1,3.53-1.28,8.6,8.6,0,0,1,1.41.13,7.22,7.22,0,0,1,3.23,1.65l.14.14a6.39,6.39,0,0,0-2-.79,9,9,0,0,0-1.43-.13,4.72,4.72,0,0,0-3.52,1.28,3.12,3.12,0,0,0-.81,2.42A5,5,0,0,0,228.9,156.08Zm7.74-5.06a4.9,4.9,0,0,0-.54-.44l3.21-4.15c.22.14.44.28.65.43l.73.52-2.9,3.75Z"/><polygon class="cls-2" points="231.46 156.1 231.46 155.22 233.47 155.4 233.47 156.28 231.46 156.1"/><path class="cls-2" d="M208.19,150.94l-6-8.33.63,0,5.39,7.45Z"/><path class="cls-2" d="M85.7,154.83l3-.26c.25,0,.45,0,.63,0s.5,0,.74,0h.1a.74.74,0,0,1,.74.52.82.82,0,0,1,0,.44h-.26l-.62,0-3,.26v1l-1.33.11Z"/><path class="cls-2" d="M189.64,159.87l-4.61-.14-.83,0v-.95l4.25.13V142l1.33.05v17.79Z"/><path class="cls-2" d="M171,159.44l-4,0h-.62l-.32-1,3.62,0h.62l5.86-16.73,1.68,0-6.21,17.69Z"/><path class="cls-2" d="M214.18,161.08c-1.46-.1-2.93-.19-4.39-.27l-.41,0-.69-1,4.16.26.92.06V143.26l1.33.08v17.79Zm-17-.91v-.94l4.25.2v-8.81l1.33,1.85v8Z"/><path class="cls-2" d="M81.46,162.05c2.93-.27,5.85-.53,8.78-.78,4.1-.34,6.86-3.46,6.86-6.16A4.75,4.75,0,0,0,95,151.32a4.61,4.61,0,0,0,1.47-3.62,3.9,3.9,0,0,0-1.1-2.52,4.21,4.21,0,0,1,2.44,3.52A4.57,4.57,0,0,1,96.56,152l-.25.28.3.24a4.69,4.69,0,0,1,1.82,3.56c0,2.69-2.76,5.82-6.86,6.16-3.06.25-6.11.53-9.17.81l-.94.09Z"/><path class="cls-2" d="M233.5,162.77l-.93,0a12.62,12.62,0,0,1-7.57-3,12.9,12.9,0,0,0,6.24,2c.3,0,.62,0,.93,0a14.64,14.64,0,0,0,6.57-1.31l.46-.24v-8.1l1.33.12v9l-.45.25A14.9,14.9,0,0,1,233.5,162.77Z"/><path class="cls-2" d="M105.48,160.14l4.25-.26v-5.34l1.61-.09.7,1-1,.06v5.34l-.81,0-3.85.25-.92.06Zm10-.58,4.23-.22,1.53-.07L117,153.12c2.66-1.48,4.09-4.11,3.59-6.66a5.17,5.17,0,0,0-1.5-2.73,5.38,5.38,0,0,1,2.82,3.73,6.3,6.3,0,0,1-3.25,6.46l-.32.2,4.22,6.14-1.53.08-4.38.22-.47,0Z"/><path class="cls-2" d="M129,159c4.44-.16,9-.3,13.48-.39h.84v-3.71l1.34,0v4.73l-.84,0c-4.66.09-9.35.23-13.93.4l-.89,0Z"/><path class="cls-2" d="M155.07,158.4h4.27l2.88-8.82.82,2.55-2.37,7.26h-.1l-4.53,0h-.62Z"/><path class="cls-3" d="M137.77,168.07a1.34,1.34,0,0,1,.35.05,3,3,0,0,0,.46.06,1.22,1.22,0,0,0,.46-.09,1.75,1.75,0,0,0,1,.21,1.16,1.16,0,0,1,.61.1l.1.06H141a2.43,2.43,0,0,1,.64.1,3.65,3.65,0,0,0,.77.12h.07l.15.06a3.2,3.2,0,0,0,1.29.41.65.65,0,0,0,.37.32,15,15,0,0,1,1.9,4.79h.62a4.59,4.59,0,0,1,.1-.51,2.83,2.83,0,0,0,.12-1.15,1.73,1.73,0,0,0,.49-.82l0,0c.14.17.13.23.13.23l-.17.14.06.23a8.83,8.83,0,0,1,.69,3.4l0,.27.27,0a.83.83,0,0,0,.22,0,2.52,2.52,0,0,0,1.1-.35,1,1,0,0,0-.21.37l-.32,1,.25-.21a1.12,1.12,0,0,0,.1.31l.11.21.23-.05a8.17,8.17,0,0,0,1.71-.67H152l-.62.37-.05,0,0,.05c-.06.06-.08.06-.1.06H151a.69.69,0,0,0-.43.15.65.65,0,0,0-.36.39c0,.08,0,.08-.13.11l-.16,0-.06.16a1.3,1.3,0,0,0,0,.59,1,1,0,0,1,0,.3l-.07.2.16.13a5,5,0,0,1,.84,1,7.43,7.43,0,0,0,.57.75l-.2-.09a2.68,2.68,0,0,0-.74-.28,1.6,1.6,0,0,0-.26-.22.5.5,0,0,1-.23-.29l-.18-.56-.36.47a2,2,0,0,0-.25,1.56,1.93,1.93,0,0,1-.05,1l-.07.13.06.13a3,3,0,0,1,.26,1.47l0,.14.09.11a.87.87,0,0,1,.24.49,2,2,0,0,0,.08.27,4.77,4.77,0,0,1-1.47.22,6.38,6.38,0,0,0-1.33.15,6.2,6.2,0,0,1-2.33-2.22l-.05-.08-.15-.08h-.13c-.33,0-.57.35-.83.72l-.22.29-.24.21a4,4,0,0,0-.78.76l-1.79,1.09a.66.66,0,0,0-.36.39c0,.08,0,.08-.13.11a.51.51,0,0,0-.4.57.83.83,0,0,1-.36.09c-.28,0-.46-.24-.75-.66a4,4,0,0,0-.79-.9l-.21-.17-.41.39a21.4,21.4,0,0,1-3,2.63.69.69,0,0,0-.22.1,1.22,1.22,0,0,0-.22-.47,2.76,2.76,0,0,0-.3-1.1,1.78,1.78,0,0,1-.22-.8v-.22l-.13,0a10.51,10.51,0,0,0,.07-2.36,1.64,1.64,0,0,0-1-1.25,4.09,4.09,0,0,0-.79-.32,3.93,3.93,0,0,1-.41-.14,7.39,7.39,0,0,1-1.32-.73.2.2,0,0,0,0-.11c0-.24-.27-.34-.44-.4l-.13-.06a.82.82,0,0,0-.63-.53,5.62,5.62,0,0,0-1.29-2l-.41-.47a.58.58,0,0,1,.25-.09l.15.26.29-.13a1.4,1.4,0,0,0,.18-.12l.1-.06.15.19.25-.26a3.18,3.18,0,0,1,2.24-.74,7.25,7.25,0,0,0,1.13-.13,1.34,1.34,0,0,0,.86.33c.26,0,.41,0,.52.2l.25.34.25-.33a.88.88,0,0,0,0-.87,1.66,1.66,0,0,0-.06-.21,3.36,3.36,0,0,0,.84-1.18c.11-.22.21-.42.33-.61l.09-.13-.05-.15,0-.11a.78.78,0,0,0,0-.59,1.47,1.47,0,0,1,.1-.13,2,2,0,0,1,.9-.74l.06,0,0,0c.31-.32.05-.71-.11-.94l-.1-.16a.93.93,0,0,1,.35-.11c.05,0,.11,0,.18.13l.14.21.23-.09a3.08,3.08,0,0,1,1.07-.15,3.57,3.57,0,0,0,1.25-.18l.26-.09-.06-.27a4.5,4.5,0,0,0-.46-1.07c-.34-.65-.76-1.46-.6-2Z"/><path class="cls-3" d="M177.89,168.64a8.88,8.88,0,0,1,1,.44,6.37,6.37,0,0,0,1.49.6,1.35,1.35,0,0,1,.2.52,1.68,1.68,0,0,0,.45.93.64.64,0,0,0,.45.22.66.66,0,0,0,.42-.17l.08-.06.09,0,0,0,.06,0a1.59,1.59,0,0,0,.26,0,.5.5,0,0,0,.39-.18l.38.09a4.36,4.36,0,0,0,1,.16h.09a.35.35,0,0,0,.18,0h0a1.24,1.24,0,0,0,.5-.18,1.44,1.44,0,0,0,.46.08,3.08,3.08,0,0,0,.47-.05,1.41,1.41,0,0,1,.35-.05l.19,0,.08,0a.59.59,0,0,0,.18.53,1,1,0,0,0,.11.45,3.76,3.76,0,0,0-.59,1.93v.09l.05.08a7.63,7.63,0,0,1,.55,1.52,8.45,8.45,0,0,0,.62,1.64,7.77,7.77,0,0,0-.22.86,6.09,6.09,0,0,1-.3,1.09,7.51,7.51,0,0,0-1.19,1.66l-.26.48.55,0h.37a4.16,4.16,0,0,0,1.47-.21l.09,0L188,181a3.51,3.51,0,0,0,.75-1.82,8.08,8.08,0,0,1,1.6-1.6l.37-.32a.53.53,0,0,0,.24.06.79.79,0,0,0,.52-.26.1.1,0,0,1,.06-.05.42.42,0,0,0,.27.12h.08a.62.62,0,0,0,.3-.18h.11a.9.9,0,0,0,.45-.1,1.36,1.36,0,0,0,.71.22.94.94,0,0,0,.58-.19c.29.13.59.24.88.35.56.23,1.1.43,1.67.73-.13.13-.25.27-.37.41a2.36,2.36,0,0,1-.85.74l-.25.09,0,.26c0,.05-.11.18-.2.28a1.13,1.13,0,0,0-.42.81,2,2,0,0,1-.28.19,2.34,2.34,0,0,0-.86.84,2.21,2.21,0,0,0-1.13.73l-.13.13-.09-.08-.33-.2-.13.36c0,.1-.06.11-.15.16l0,0a1.6,1.6,0,0,0-.71-.16,2.44,2.44,0,0,0-.62.09.47.47,0,0,1-.23-.21,1.1,1.1,0,0,0-.51-.45l-.27-.11-.13.27c-.31.64.3,1,.7,1.28l.09.06a.9.9,0,0,0,.31.52,1.87,1.87,0,0,0,0,.58,1.17,1.17,0,0,1,0,.56l-.11.2.18.15.08.07a19.76,19.76,0,0,0-.23,2.46.8.8,0,0,0-.1.46v.13a0,0,0,0,1,0,0,1,1,0,0,0-.42-.62.8.8,0,0,0-.63-.24.23.23,0,0,1-.22-.09.53.53,0,0,0-.39-.17.51.51,0,0,0-.22.05,1.07,1.07,0,0,0-.75-.39.47.47,0,0,0-.17,0,.35.35,0,0,0-.36-.33.8.8,0,0,0-.28.07.26.26,0,0,1-.06-.14.72.72,0,0,0-.21-.42l0,0,0,0c-.43-.22-1-.57-1.14-1l-.12-.37-.34.21c-.22.13-.38.44-.66,1a5.38,5.38,0,0,1-.62,1.06,4.21,4.21,0,0,1-.68.42,4.22,4.22,0,0,0-.6.35.58.58,0,0,0-.19,0,1.86,1.86,0,0,0-.33,0l-.17,0a1.33,1.33,0,0,1-.69-.54,3,3,0,0,0-.56-.56,11.32,11.32,0,0,0-1.25-.77,12.85,12.85,0,0,1-1.12-.68h0s.17-.33.17-.33l-.33-.12a.91.91,0,0,1-.53-.46,1.81,1.81,0,0,0-.32-.4.58.58,0,0,0,0-.14l0-.06.25-.29-.33-.17a6.71,6.71,0,0,1-1.55-1.13l-.28-.26-.21.33a1.59,1.59,0,0,0,0,1.68l.09.21a2.2,2.2,0,0,1-.59-.59l-.09-.11a.9.9,0,0,0-.19-.82l-.11-.18a3.87,3.87,0,0,0,.14-1.66c0-.2,0-.41,0-.61v-.58l-.48.31a5.58,5.58,0,0,1-1.21.49l-.12,0a1.42,1.42,0,0,0-.65.32,1.15,1.15,0,0,1-.26.17c.34-.44.65-.82,1-1.19a20.92,20.92,0,0,0,1.43-1.9l.21-.33-.37-.13a23.79,23.79,0,0,1-2.59-1.06,2.86,2.86,0,0,0,.2-.76h0a2.69,2.69,0,0,1,.42.26,1.42,1.42,0,0,0,.81.4.57.57,0,0,0,.31-.1l.41-.27-.22-.13h.12a.42.42,0,0,0,.33-.14.66.66,0,0,0,.07-.56c0-.12,0-.28,0-.33l.23-.21-.19-.23c-.12-.12-.1-.29-.08-.57l0-.27,0-.08-.18-.28a1.05,1.05,0,0,1-.22-.42,4.19,4.19,0,0,1,1.07.88l.37.36.17-.47c.49-1.63,1.73-3.59,2.93-4l.14-.05.05-.14a.87.87,0,0,1,.33-.43A3.36,3.36,0,0,0,177.89,168.64Z"/><path class="cls-3" d="M157.51,167.14a7.16,7.16,0,0,1,1.52.2,8,8,0,0,0,1.65.21H161s0,0,0,0a.55.55,0,0,0,.49.39c.2,0,.41,0,.62,0a13.67,13.67,0,0,0,1.6-.12,13.44,13.44,0,0,1,1.35-.1,2.73,2.73,0,0,1,1.43.32h0a0,0,0,0,0,0,0,.81.81,0,0,0-.09.24l-.06.22.19.12a3.84,3.84,0,0,0,.35.18c.38.17.51.25.5.55v.13l.09.09a2.27,2.27,0,0,0,.57.38c.36.19.53.29.54.61v.26l.25,0a2.9,2.9,0,0,0,.48,0,4.11,4.11,0,0,0,.92-.12,3.37,3.37,0,0,1,.66-.11.72.72,0,0,0,.41.17h0a.59.59,0,0,1,0,.14.81.81,0,0,0,.23.57,11.9,11.9,0,0,0,1.09,5.18,18.15,18.15,0,0,1,.72,2.08l.06.21.19,0,.16.25a5.26,5.26,0,0,1,.85,1.71l0,.1.07.08a2.35,2.35,0,0,1,0,.26,5.08,5.08,0,0,1-1.7.68c-.33.09-.68.19-1,.3l-.29.11.1.29c.07.18.22.58.58.58a.7.7,0,0,0,.44-.21c.13-.11.22-.18.33-.18h.07l.08,0,.07,0h.07s0,.07,0,.11a.87.87,0,0,0,.23.43l.11.09.15,0,.32,0a2.14,2.14,0,0,1,.64.11c.16,0,.33.08.53.11a1.56,1.56,0,0,0,1,.86,2.69,2.69,0,0,1,.38.2,2.75,2.75,0,0,0,1.21,2c0,.05.12.1.17.16,0,.39,0,.93.44,1.11.06.5.09,1,.12,1.56a14.25,14.25,0,0,0,.23,2.32,4,4,0,0,0-.58,1.88l0,0a1.21,1.21,0,0,0-.55-.49c-.18,0-.31-.05-.44-.07-.54,0-.56-.1-.56-.24v-.25l-.25-.05a.55.55,0,0,0-.18,0,.51.51,0,0,0-.49.29,12.87,12.87,0,0,0-2.5-.6l-.18,0a1.3,1.3,0,0,0-.15-.27c-.05-.05-.05-.06-.05-.07v-.27l-.27,0a2.34,2.34,0,0,1-.89-.29,3.37,3.37,0,0,0-.61-.24,1.34,1.34,0,0,0-.15-.53.79.79,0,0,1-.07-.56l.09-.36-.38,0-1.22,0a37.43,37.43,0,0,0-5.42.43c-.21,0-.36.14-.42.41h0l-.1-.71-.45.64a2.37,2.37,0,0,1-1,.65l-.48.23a1.47,1.47,0,0,0-.71.48c-.2.21-.31.32-.56.32h-.12a7,7,0,0,1-1.47-.92,10.15,10.15,0,0,0-1.28-.85l-.08,0h-.09l-.46,0a9.38,9.38,0,0,1-1.32-.12,8.42,8.42,0,0,0-1.39-.13l-.62,0-.17,0-.08.15a1.34,1.34,0,0,1-.28.32,1.44,1.44,0,0,0-.55.92.64.64,0,0,0-.4.22.66.66,0,0,0-.19.41,2.71,2.71,0,0,0-1.67.77h-.11a.19.19,0,0,1,0-.08l-.59-.17c-.09.17-.34.26-.59.36l-.26.11h-.07a1,1,0,0,1-.45-.21,1.08,1.08,0,0,0-.53-.21.43.43,0,0,0-.4.22.79.79,0,0,0-.21-.36l-.12-.1-.14,0a1.94,1.94,0,0,1-.33,0,2.6,2.6,0,0,1-.64-.1,3.07,3.07,0,0,0-.59-.12.79.79,0,0,0-.25-.19l-.08,0a.46.46,0,0,1,0-.15l.12-.32-.34-.09-.29,0a.93.93,0,0,0-.54.17l-.13.07v-1.2a10.17,10.17,0,0,0,.89-1.66,4.66,4.66,0,0,1,1.93-2.55l.06,0,0,0c.25-.29.28-.48.13-.73v0a2.3,2.3,0,0,0,1.57-.89l.38,0a2.88,2.88,0,0,0,.71-.09.68.68,0,0,0,.52-.61.74.74,0,0,0-.4-.74c-.68-.33-1.39-.64-2.07-.94l-.59-.26v0l-.14,0c-.28-.12-.6-.26-.93-.42l-.11-.05-.25-.12a1.1,1.1,0,0,0,.37-.23l.79-.71-.44.08.63-1.32a26.25,26.25,0,0,1,3.44-5.85l.09-.09v-.13a2,2,0,0,1,.4-1.57,2.22,2.22,0,0,1,1.69-.54,7.07,7.07,0,0,1,.76,0h.07l.07,0a1.32,1.32,0,0,0,.69-.73c.06-.1.11-.2.17-.28a10.93,10.93,0,0,0,1.75-.59l.09,0,.05-.09c.18-.29.34-.61.5-.92a7.16,7.16,0,0,1,.78-1.33Z"/><path class="cls-4" d="M131,179c-.06.61-.82-.14,0,0Z"/><path class="cls-4" d="M143.29,179.94c.25-.59,0,.63,0,0Z"/><path class="cls-4" d="M151.6,176.48a8.08,8.08,0,0,1-1.7.69c-.46-.93,1.24,0,.76-.83.13-.07.2.1.29.18l.18-.12a.58.58,0,0,1-.4-.52,2.4,2.4,0,0,0-.84.39c.12-.37.46-.51.83-.64,0-.21,0-.43,0-.64-.74.26-1.58,1-2.22.84a8.85,8.85,0,0,0-.71-3.53c.21-.17.16-.41-.06-.68.11-.53.58-1,.28-1.62-1.05.69-.47,1.76-1.39,2.47a4.21,4.21,0,0,1-.19,1.74,15.68,15.68,0,0,0-2-5.07c-.17.07-.27-.12-.37-.32a3.31,3.31,0,0,1-1.57-.48c-.61,0-1.12-.28-1.74-.2-.52-.32-1.2,0-1.69-.41-.61.33-1-.1-1.59.07-.54.94.81,2.58,1,3.37-.83.3-1.5,0-2.32.33-.27-.43-.68-.28-1.11,0-.22.28.56.8.3,1.08-.74.3-.92.74-1.29,1.14.37.35,0,.53.14.82-.42.6-.54,1.28-1.23,1.83-.05.32.31.74.09,1-.42-.57-1.1-.09-1.51-.7-1.23.33-2.67-.06-3.71,1-.15-.18-.4.07-.61.18-.23-.4-.91.06-1,.23a7.66,7.66,0,0,1,1.9,2.8c.25-.11.43,0,.58.36s.74.23.45.45h-.1a8.37,8.37,0,0,0,1.68,1,10.36,10.36,0,0,1,1.17.44,1.32,1.32,0,0,1,.8,1,10,10,0,0,1-.12,2.57.37.37,0,0,1,.18,0c0,.76.54,1.15.52,2,.39.43.12.69.51,1.12.52-.09-.16-.48.36-.58a22.75,22.75,0,0,0,3.28-2.9c.93.75,1.05,2.11,2.33,1.46.2-.14-.1-.4.24-.5s.23-.4.58-.54l1.84-1.12a5.63,5.63,0,0,1,1-1c.24-.25.64-1,.89-.91a6.79,6.79,0,0,0,2.55,2.41c1.13-.34,2.09,0,3.27-.55-.29-.41-.11-.7-.5-1.13a3.22,3.22,0,0,0-.29-1.64c.39-.76-.28-1.78.28-2.5.15.46.42.4.61.7.59,0,1.45.89,1.83.33-.9-.71-1.1-1.52-1.93-2.25.11-.27-.1-.62,0-.89.43-.12.23-.4.58-.54s.42.07.73-.27c.58-.31,1.17-.71,1.76-1.07A7.33,7.33,0,0,1,151.6,176.48Zm-13.66-8.24a12.08,12.08,0,0,1,5.9,1.09l1.37,2.23c0,.52.87,1.25.27,1.63a4.4,4.4,0,0,1-1.23-2.31c0,.27-.29.45-.07.77-.67.17-.4-.57-.57-.92s-.45.23-.31.37c-.32.12-.53-.63-.48-.79-.13-.15-.34,0-.26.16-.6-.14-.95-1.31-1.68-1l-.32-.52c-.38.2-.1.57-.2.84-.33.12-.45-.61-.69-.84-.76.12.14.63-.42.8l-.4-.66c-.22.32.1.77.38,1.21.49.11,1,0,1.43.57-.65.36-1.07-.2-1.67-.06C138.41,169.92,137.79,169,137.94,168.24Zm6.62,11.1a15.29,15.29,0,0,1-3.09-5.32,9.82,9.82,0,0,0-.37-3.56,3.62,3.62,0,0,1,1.23,1.41,6.46,6.46,0,0,1-.06,2.56c.07.28.26.59.14.81l.8,1.32c.68.89,1.44,1.5,2.13,2.3.54.75,1.88,1.39,1.66,2.42C145.87,181.93,145.26,180.45,144.56,179.34Zm-1.11-3.29c-.47-1-.76-2-.24-2.74-.41-.69-.15-1.23-.65-1.94.31,0,.54.23.75.63a8.93,8.93,0,0,1,2.63,2.53c-.47-.23-.51-.1-.9,0a5.19,5.19,0,0,0,1,2.47c.12.7.77,1.53,0,2C145.21,177.71,144.24,177.25,143.45,176.05Zm-7.83-4.23c1.13-.17,2.08.35,3.35-.42.34.44.9,0,1.33.1a.42.42,0,0,0,.5.23c.24.28-.07.43.27.73-.49.32-.67-.65-1.14-.38-.17.58.77.47,1,1-.54.52-.66-.68-1.14-.39-.3.4.42.36.48.79-.44,0-.75-.6-1.16-.73-.16.15.09.39.19.6-.45.18-.67-.63-1-.81-.42.4.27.42.43,1-.38.21-.57-.4-.82-.76a2.67,2.67,0,0,0-1.75-.19Zm7,5.83a7,7,0,0,1-2.21.81,8,8,0,0,1-2.44-4.28l.27-.16c.6-.16,1,.47,1.66.06-.12.48.43.19.72.29s.48.49.69.83c-.33.18-.65.37-.71.62l.56.92C141.58,177.3,142.18,177.11,142.61,177.65ZM135,173.46c.12-.08,0-.22,0-.34,1-.47,1.76.12,2.64.19-.15.26.09.61-.41.79.76,1.3,1.08,3,2.27,4,0,.33.45.78.3,1.08-.43.41-.54-.52-.82-.76l-.64-1.05a16.81,16.81,0,0,1-1.13-1.84c-.43-.38-.83-.89-1.27-1.2-.46,0-.79-.46-1.38.12C134.32,174,134.75,173.77,135,173.46Zm3.15,4.56c-.26-.05-.23.08-.39.24.22.33.52.31.8.42.06.55-.51,0-.69.06-.27.4.42.69.66.5.05.49-.62.13-.92.55a1.43,1.43,0,0,0,1,.13c.12.45-.47.18-.65.4s.15.71-.34.92c-1.16-1.58-.5-2.73-.27-4C137.76,176.86,137.87,177.78,138.15,178Zm-2.73-1.22c-.58.93.46,1.4,1,2.27-.61-.31-1.78-1.41-1.57-2.29.47-.23,1-.75,1.39-.67C136.31,176.65,135.37,176.43,135.42,176.8Zm1.48.36c-.05.06-.4,0-.42-.1C136.37,176.48,137.19,176.85,136.9,177.16Zm-.7.62c-.25.24-.34-.14-.56,0,0-.16.21-.24.1-.42C136,177.26,136.05,177.59,136.2,177.78Zm.17-2.09c-.06-.23.12-.05.26-.15A.15.15,0,0,1,136.37,175.69Zm-3,.73c.28-.3.67-.58.68-.95.67-.36,1.14-1.31,1.64-.27-.57.34-.65.81-1.28,1.14-.09.31.06.69-.55.88.41.4.9.46.43,1,.22.65.73.08,1,.47.13.53-.27-.34-.48.11.34.62.88.37,1.3.64-.38.6.38.49.64,1.06-.86,0-1.5-.9-2.3-1.12A25.32,25.32,0,0,1,133.38,176.42ZM130.69,182c-.19-.46-.52-.32-.7-.84-1.27-.41-1.74-1.41-2.67-2.88.57-.48,1-.31,1.53-.75l.17.26c.67-.71,2-.42,2.92-.52.4.2.75.61,1.22.52l.56.92c-.13.07-.2-.1-.29-.19-.33.09,0,1.08.4.66.28.71.79.44,1.07,1.15-.62.25-1-.39-1.66-.07-.36-.56-1-.08-1.3-.65a12.44,12.44,0,0,1-2-.37c-.26-.1-.36-.63-.72-.29-.15.21.64.43.88.55s.7.47,1.14.39c.25.48-.7,0-.45.45-.23,0-.15-.39-.54-.58-.11.34,0,.74-.25,1,.46.54,1.43,0,1.82-.56.44-.27.67.31,1.06.25.15.34-.53.44-.6.2C132.22,181.31,131,181.87,130.69,182Zm3.44-.85a1.61,1.61,0,0,1-1.36,1C132.81,181.77,133.75,181.55,134.13,181.19Zm-2.84.66c.92,0,1.54-1,2.18-1.15.22.42-1.2.45-.68,1-.12,0-.21-.06-.34,0s0,.31.11.48c-.26,0-.57.2-.72-.29C131.61,182.08,131.42,182.09,131.29,181.85Zm3.48,6a3.34,3.34,0,0,1-.81,1,9.17,9.17,0,0,1-.52-5.27c.69-.43.29-1.12,1.26-1.49.32.07.52.61.77,1a1,1,0,0,1-.57.53c-.56.69-.19,1.6-.78,2.28a3.17,3.17,0,0,1,0,1.44c.23.1.54-.09.76.08a1.45,1.45,0,0,0-.11-1.37c.41-.46,0-1.11.91-1.46a16.22,16.22,0,0,1,.39,2.11C135.3,187,135.64,187.83,134.77,187.83Zm2.36-2.34c-.37.28-.22.7-.89.9a3.58,3.58,0,0,0-.23-1.84c-.06-.53.58.53.4.66.51-.4-.15-1.08-.06-1.58C136.62,183.81,136.79,184.92,137.13,185.49Zm5.43-1.15c-.13.08,0,.23,0,.35-.19.16-.3,0-.47.11s.07.31-.11.42a7.33,7.33,0,0,1-1.78.91c-.09.16,0,.39-.24.5.08-.28-.3-.66-.22-.94-.57.41,0,1.12-.49,1.55s-.35-.45-.88-.54l-.63-1.06c-.17-.18,0-.29-.12-.47-.23-.46-.75-1-.66-1.39.47-.28.75.28,1.18.18,1-.39.85-1.54,2-1.54.1.28-.45.41-.08.76.15.2.47-.48.92-.56,0,.78-1.34.77-.91,1.45.15.3.5-.22.74-.27,0-.4.4-.72.81-1,.32.49-.28.75-.39,1.14.62.18.68-.73,1.23-.94a.86.86,0,0,0,.19.61c.51-.1.2-.4.37-.59.43-.38.7-.12,1.13-.51A2.61,2.61,0,0,1,142.56,184.34Zm.61-2.53c-1.22.74-2.13.18-3.21.34-.09-.25-.26-.19-.43-.11-.23-.95.82-1.58,1.25-2.38-1.41.41-1.66,2.07-2.3,3-.33.14.09.47-.15.63a3.7,3.7,0,0,1-3-1.4c-.36-.49.31-.74,0-1.23.47-.13.85.2,1.27.3s.78.19.82.76c-.3.33-.45,0-.73.27.37.9,1,0,1.42-.33a4.61,4.61,0,0,1,1.2-1.28c.13-.12-.07-.31.11-.42,1.23-.62,2.47-1.25,3.71-1.9.34.46.56.88.16,1.16.13.14.35,0,.27-.16.32.08.56.44.82.76-.34.49-.35-.4-.63-.16s.15.14.24.39c-.31.34-.46,0-.74.28s.53.54.69.83c.56-.2.53-.54,1-.77.45.67-.5,1-1.13,1.41A.43.43,0,0,1,143.17,181.81Zm5.08-2.91c.13.36.49.78.09,1,.54.58.16.93.54,1.47-.26.76-.51,1.52-.78,2.28.52.77,1.34.7,1.52,1.59a17,17,0,0,1-3.17.13,4.25,4.25,0,0,1-1.74-2.54.83.83,0,0,0,.21-.85c.12-.11-.07-.31.1-.42.2.16.14-.08,0-.21.39.11.7.52,1,.81.47-.24.83-.05,1.35-.46.08-.09,0-.21.18-.29.22-.69-.31-1.38-.87-2-.09-1,.56-1.73.11-2.76l.53-.33c.57.34.43.94,1,1.58C147.84,178.13,148.59,178.64,148.25,178.9Zm.58.36c-.11,0,0-.23,0-.22S148.89,179.27,148.83,179.26Zm-.19-.61c-.06-.16.09-.15.14-.08S148.69,178.73,148.64,178.65Zm1.94,1.7c.07.21-.22.15-.34,0-.2-.4-.54-.22-.74-.63-.32-.75,0-1.34-.6-2.15.76.15.69,1.13.91,1.78A11.47,11.47,0,0,0,150.58,180.35Zm-3-4.64c-.53,0-.45-.85-.72-1.18.37-.44-.21-1.1.36-1.48A9,9,0,0,0,147.56,175.71Zm.12-1.88c.11-.48.11.42.4.66-.39.24.21.72.09,1C147.49,175.27,147.85,174.33,147.68,173.83Zm1.13,2.74c.31-.34.46,0,.74-.27C149.7,176.5,148.85,177.09,148.81,176.57Z"/><path class="cls-4" d="M133.22,182.65c-.93.36,0,.58,0,0Z"/><path class="cls-4" d="M190.24,188.17a17.2,17.2,0,0,1,.26-2.77.56.56,0,0,1-.22-.13c.22-.5-.08-.88.11-1.37a.69.69,0,0,1-.36-.58c-.44-.31-1-.57-.81-1,.45.19.32.52.84.69a1.58,1.58,0,0,1,1.37.12c.15-.15.34-.14.45-.45.13.08.09.21.18.3.51-.39.94-1.07,1.54-1.05.35-.73.86-.8,1.28-1.2-.18-.57.67-.8.59-1.26.62-.22,1.08-1.1,1.65-1.52a27.75,27.75,0,0,0-3.13-1.36c-.33.32-.75.3-1.24,0a.93.93,0,0,1-.64.15c-.15,0-.15.15-.29.18s-.19-.16-.26-.16c-.29,0-.49.64-.85.21a11.5,11.5,0,0,0-2.26,2.22,3.26,3.26,0,0,1-.7,1.74A5.67,5.67,0,0,1,186,181a7.07,7.07,0,0,1,1.18-1.62c.32-.75.34-1.43.6-2.16-.62-1-.67-2.23-1.24-3.28a3.47,3.47,0,0,1,.65-1.95.75.75,0,0,1-.16-.63c-.46-.14.12-.55-.49-.66s-1,.26-1.59-.07a1,1,0,0,1-.5.23c.07-.33-.1,0-.22.06a11.46,11.46,0,0,1-1.63-.28c-.12.41-.43.08-.64.15-.28-.1-.41.44-.76.07s-.26-1.05-.7-1.5c-.86-.15-1.85-.87-2.74-1.13-.23.44-.57.41-.77,1-1.38.5-2.64,2.59-3.13,4.22a3.78,3.78,0,0,0-1.5-1.09c-.33.53.1.87.31,1.26,0,.34-.11.7.13,1-.35.32.16,1-.22.95a19.42,19.42,0,0,0-2.12-1.09c0,.22,0,.45,0,.67.15.08.3.13.35.06l1.31.8c-.31.21-.85-.45-1.26-.59a1,1,0,0,0-.41-.12,2.7,2.7,0,0,1-.51,1.54l0,0c.09-.08.16-.25.29-.18A23.73,23.73,0,0,0,173,177.8c-.81,1.26-1.64,2-2.64,3.43.65.51,1-.32,1.48-.35a5.85,5.85,0,0,0,1.43-.57,5.68,5.68,0,0,1-.12,2.27c0,.36.55.61.25,1,.31.32.86,1.33,1.45.88-.13-.64-.74-1.16-.25-1.95a6.64,6.64,0,0,0,1.63,1.17c-.2.24,0,.37,0,.56.41.31.35.74,1,1-.09.17-.15.34.1.42.78.53,1.65.93,2.37,1.45.52.37.66.93,1.28,1.14.27.09.55-.13.9,0,.47-.38,1-.51,1.46-.91.51-.61.89-1.78,1.21-2a2.4,2.4,0,0,0,1.28,1.14c.22.21,0,.53.5.66.55-.21.11,0,.52.33.38-.28.74.1,1,.43.12-.15.23-.29.43-.11.34.34.52,0,.87.35s.18.7.68,1C190.32,188.84,190,188.23,190.24,188.17Zm1.62-6.08c-.45.15.15-.11.29-.18C192.57,181.61,192.09,182.39,191.86,182.09Zm-2.4-3.44c.47-.66,1.48-.93,1.78-1.44,1,0,2.06-.14,3.11-.08.28.55,1.17.38,1.79.91-.65.82-1.36,1.45-2,2.38a10.68,10.68,0,0,1-4.08,1.66,12.33,12.33,0,0,0-1.52-.75,1.37,1.37,0,0,1,1.27-.31,8.23,8.23,0,0,1,2.7-.88c.71-.73,1.64-.63,2.38-1.24.13-.31-.54-.14-.63.15-.19-.59.75-.44.64-1.05-.54-.09-.87.71-1.32,1-.27-.38.41-.69.56-.92-.25-.51-1.11.34-1.41,1.12-.46-.59.55-.83.75-1.53-.71,0-1.19.94-1.73,1.65-.44.17.44-.92.59-1.26-.56-.28-1.31,1-1.3,1.55-.71.2.29-1,.45-1.34-1-.36-1,1.64-1.68,1.86a4.51,4.51,0,0,1,.62-1.61c-.62-.13-.91,1.15-1.38,1.68C188.57,179.66,189.17,179,189.46,178.65Zm-.83,4c-.49.6-1.18.34-1.82.33.27-.25.65-.08.92-.33-.24-.68-1.13-.08-1.58-.07C186.3,181.65,187.7,181.88,188.63,182.64Zm-2.18-1.14c-.17.21-.41.16-.69-.06A.65.65,0,0,1,186.45,181.5Zm-1.35.43c.67.54-.36,1.08-.83,1.66-.71-.73-.58-1.66-1.89-2.23.31-.13.59-.36,1-.13-.18.61.5,1,1.13,1.41C184.79,182.8,184.88,182.12,185.1,181.93Zm-2.44-2.2c-.5-.3-.32.51-.58.35-.81-.32-.23-1-.78-1.37a.71.71,0,0,1,.1-.47c-.39-.24-.23-.61-.54-.88.09-.23.26-.15.37-.31-.13-.38-.18-.09-.53-.32.25-.39.62-.24.88-.55s-.47-.18-.66-.4c.38-.44.88-.4,1.3-.65-.36-.26-.58.06-.94-.21.59-.78,1.54-.09,2.19-.65.68.4.3,1-.15,1.71-.32-.24-.54-.08-.71.29.91.94.64,2.15,1.11,3.2-.2.76-.84,1.13-1.39,1.68-.34-.34-.52,0-.86-.36.47-.21,1-.12,1.43-.56A1.11,1.11,0,0,0,182.66,179.73Zm.15-5.86c.2-.4.55-.22.75-.62C184.13,173.62,183.14,174.25,182.81,173.87Zm1.9,4.58c-.66.15.09-1-.31-1.27l.32-.52c.43.11.23.39.58.52C185.16,177.59,184.49,178.13,184.71,178.45Zm.74-1.52c.65-.15.14.93-.11,1.37C185.18,177.88,185.84,177.28,185.45,176.93ZM182,181.67a8.06,8.06,0,0,1,1.6,1.52c-.63,0-1.48-.89-2.13-.94C181.35,181.74,181.82,182.12,182,181.67Zm5-3.79c.28,1.43-1.86,2.91-2.28,4-.53.16-1-.64-1.23-.93.33-.63.3-.85.8-1.31,0,.53.38,1,.15,1.53C185.48,180.73,186.23,179.16,187,177.88Zm-1,.82a3.11,3.11,0,0,0-.85,1.1c-.4-.44.54-1.59,1-1.58.07-.13-.1-.2-.19-.29.66-.36.08-.71.65-1.05C187.17,177.29,186.28,178.07,186,178.7Zm.89-2.34c-.44.37-1.07-.11-1.69-.49.28-.48.49-.94.25-1.29-.6-.16-.87,1-1.31,1.54a8.4,8.4,0,0,0,0,2.35c-.55.27-.14-.63-.63-.74.31-.45-.18-.7,0-1.11l.64-1.05c.23-.69-.24-1.21.1-1.92C185.9,173,186.78,175.27,186.89,176.36Zm-3.08-5.3c.54.22,1.08.44,1.46,0a1.47,1.47,0,0,0,1,.09c.34.18.29.45.5.66-.08.6-.58.79-.54,1.48-.16.4-.65-.54-.82-.14-.15-.35.41-.38.35-.87-.29-.13-.47.19-.71.29-.17-.15.2-.43,0-.56s-.45.31-.67.49c-.41-.12-.09-.42-.15-.63-.39,0-.64.44-.91.89-.43-.3.41-.92-.17-1.19-.19,0-.57,1.1-1,1.58-.83.47-1.31,2.35-2.37,1.8a28.46,28.46,0,0,0,2.12-3.76A3.19,3.19,0,0,0,183.81,171.06Zm-4,4.42c-.14.48.18.86.52,1.22-.14.48.17.85.52,1.22-.17.52.15.93.44,1.34-.23.39,0,.68.12,1-.07.17-.17.22-.29.18a2.8,2.8,0,0,1,0,1.25,4.16,4.16,0,0,1,0,1.79.38.38,0,0,1-.64.15,1.26,1.26,0,0,1-.16,1.16,8.18,8.18,0,0,1-1-1.12c.49-1.31.44-2.49.88-3.78.07-.77-.21-1.45-.09-2.22-.69-1-.57-2.17-1.11-3.2C179.46,174.32,179.33,175.26,179.84,175.48Zm-.18-1.19c-.18-.36-.73-.63-.38-1.13a1,1,0,0,0-.5.23c-.29-.19.28-.59.35-.87a.76.76,0,0,0,1-.12C180.66,172.86,180.12,173.59,179.66,174.29Zm-1.37-.11c.47.55-.46.84-.72,1.18C177.4,175.05,178.16,174.75,178.29,174.18Zm.54-.58c0,.11-.2.11-.22.06S178.81,173.54,178.83,173.6Zm-.71-4.75c.31.11.3.3.45.45a3,3,0,0,1,2.29,1.57c-.22.51,0,.83-.52,1.13-.34-.05-.79-.56-1.39-.66s-1.32.11-1.3.65.38.24.79.48c-.49.53-.06.83-.46,1.34,0-.33-.23-.62.09-1-.52-.28-.87.12-1.37-.12a2.35,2.35,0,0,1-1.2,1.07c0,.27-.21.57.28.72-.21.75-.38,2.33-1.39,2.57-.5-.62-.11-1.46-.3-2.16.52-1.25.71-2.41,1.35-3.69C176.36,170.53,177.15,169.32,178.12,168.85Zm.48,3.35c0-.11.19-.11.21,0S178.61,172.26,178.6,172.2Zm-1.41,1.13c.44.34.38.8.1,1.31A2.23,2.23,0,0,1,177.19,173.33Zm-.94,2.12c-.3-.53-.43-1.75.44-1.89A2,2,0,0,1,176.25,175.45Zm-4.39,1.29.16-.26.52.32C172.44,177.27,172.11,176.85,171.86,176.74Zm.81.13c.08-.12.22,0,.35,0C172.94,177,172.79,176.91,172.67,176.87Zm.41-1.55c.45-.66-.19-1.07.15-1.71.92.9.15,2.2.55,3.22C173,176.91,173.55,175.7,173.08,175.32Zm0,3.8c-.46.39-.88,1-1.35,1.33.34-.65,1.18-1.58,1.65-2.41C174,178.24,173.2,178.76,173.1,179.12Zm.24.5c-.25.18-.09-.16,0-.34S173.46,179.44,173.34,179.62Zm.32-.52c0-.11.2-.11.21,0S173.68,179.16,173.66,179.1Zm.18,1.19c.74.23.67,1.62.26,2.5C173.45,182.09,173.84,181.14,173.84,180.29Zm2,2.31a1.62,1.62,0,0,1-.94-2c.23.24.18.55.63.74C175.12,181.88,176.35,182,175.85,182.6Zm.77-1a5.14,5.14,0,0,0-1.23-.93c.19-.46-.38-.73-.6-1.09.14-.59-.27-1.05-.28-1.61,1.2-1.51,2.79-1.47,4-3l.39.24a10,10,0,0,1,.41,1.7c0,.13.28.23.32.37s-.15.33-.11.47a3.1,3.1,0,0,0,.41.79c-.14.34-.21.65,0,.9-.56.8-.09,2.41-1.11,3.29C178.36,182.22,177.42,182.25,176.62,181.63Zm5.59,5a1.61,1.61,0,0,0-.86,1.1c-.67,0-.78-.65-.94-1.12a10.56,10.56,0,0,1-4-3.51.41.41,0,0,0,0-.55c.17-.26.47,0,.59-.37.32.59,1,.7,1.49,1.09s.67,1,1.21,1.28c-.25.32.06.51.29.71.49.52.59-.64,1.1,0,.26-.36-.28-.53.22-.95.47.15-.11.55.51.67.27-.45-.1-.73-.26-1.06.44-.28.51.46.92.56.21-.27.26-.51.05-.69,1,.44.69,2.15.14,3.33C182.4,187,182.48,186.78,182.21,186.66Zm1.16.17c-.05-.89.44-1.9,0-2.7a.92.92,0,0,1,1,.43C184,185.34,184.07,186,183.37,186.83Zm5,.14c-.29,0-.53.26-.9,0q-.06-.32-.15-.63c-.34-.49-.35.4-.63.15s-.9-.3-.5-.66a2.83,2.83,0,0,1-1.46-1.44c.31-.56.62-1.12,1.06-1.15.82.36,1,.88,1.76,1.25l-.16.26a3.77,3.77,0,0,1,1.44,1.78c.31.09.44-.63.84-.2.34-.46-.48-1,.17-1.16-.24-.2-.19-.48-.28-.72-.52-.43-.76.28-1.29-.24.24-.52.78.14,1.05-.26-.32-.52-1.38-.18-2-.3.22-.45.67,0,.92-.34.39.2.62-.21,1-.12l.27.16a4.87,4.87,0,0,1,.22,4.64C189.31,187.63,188.38,187.41,188.33,187Zm.59-1.26c.09-.13.23,0,.34,0C189.19,185.86,189.05,185.74,188.92,185.71Z"/><path class="cls-4" d="M178.88,188c-.43,0-.43-.5-.4-1-.62-.58-1.37-1-1.39-2.19-.46-.41-1.31-.42-1.4-1.2-.66,0-1-.33-1.79-.2-.22-.18-.07-.73-.61-.59-.7-.16-.85.91-1.19,0a9.57,9.57,0,0,0,2.89-1.12,2.1,2.1,0,0,0,0-.56s0,0,0,0a7,7,0,0,0-1.15-2.28h-.13c-.65-2.41-2-4.15-1.79-7.38-.37,0-.13-.67-.4-.79s-.39,0-.41-.2c-.82,0-1.24.34-2.19.2,0-.78-.8-.79-1.19-1.2,0-.68-.59-.74-1-1,.07-.29.24-.34,0-.6-1.4-.84-3.28,0-5.2-.2-.31,0-.15-.51-.6-.4-1.46.07-2.28-.51-3.79-.4a16.05,16.05,0,0,0-1.39,2.39,10.56,10.56,0,0,1-1.8.6c-.3.3-.36.84-.8,1-2.1-.24-3.33.38-3.19,2.39-1.79,2.07-2.92,4.79-4.19,7.37-.15.06-.25.06-.3,0-.08.13-.17.24-.26.37s0,0,0,0a1.13,1.13,0,0,0,.37,0,.84.84,0,0,1-.5.22c-.19.37.06.46.57.69l1,.45.16,0h-.06c.89.4,1.78.78,2.65,1.2a.42.42,0,0,1-.06.77,2.9,2.9,0,0,1-1.21,0c-.23.67-1,.82-1.72,1,0,.54.33.4,0,.8-1.67.79-2,3-3,4.38v1.59c.61.15.59-.34,1.2-.19-.23.62.31.48.4.79.65,0,1,.34,1.8.2.2.19.05.74.59.6.11-1,.75.28,1.4,0,.37-.16.8-.26,1-.6,0,.36.19.47.59.4a2.54,2.54,0,0,1,1.81-.8c0-.43.16-.63.59-.59-.07-.81.54-.92.8-1.4,1.48-.15,2.34.32,3.79.2,1,.52,1.72,1.35,2.8,1.79.94.14.93-.66,1.6-.79.55-.31,1.24-.49,1.59-1,0,.23.32.22.6.2.05-.16,0-.4.2-.4a35.2,35.2,0,0,1,6.59-.4c-.16.69.3.77.2,1.4.68.11,1,.54,1.8.59,0,.26.25.28.19.6a12,12,0,0,1,3.2.8c0-.24.06-.47.4-.4,0,.61.7.5,1.19.6s.45.75,1,.8a3.82,3.82,0,0,1,.6-2.4C179,190.93,179.08,189.31,178.88,188Zm-6.38-4.19c.62.1.78-.43,1.19,0-.39.21-.8.4-1.19.6ZM171.29,171a1.45,1.45,0,0,1-.39,1.39c-.08.34.15.38.39.4.2,3,1.89,4.51,2.2,7.38-.23.49-.83-.49-.79.39h-1c-.61.13.18.43,0,.8-.4,0-.26.54-.8.4-.13,1.2-.84,1.82-1.2,2.79-.61-.37.23-1,0-1.59-.8.92-1.2,2.25-2,3.19a7.68,7.68,0,0,1,.79,1.19c0,.23-.2.11-.2,0-1.06,0-.54.39-.8,1-1.08.22-1-.7-2.19-.4.12-.18.24-.36,0-.4q-.78-.18-.6.6a14.14,14.14,0,0,0-3.59.2c-.83-.18-1.12-.88-1.4-1.6.91-.28,2.21-.18,3.19-.39.54-.6,1.58-.69,2.2-1.2a4.72,4.72,0,0,0,1.6-3.59c.41-.05,0-.88.59-.8a5,5,0,0,1,1-3c0-.3-.54-.65-.4,0-.65-.54.55-.9.4-1.59-.27-.52-.71.46-.8.79-.48-.43.37-1.21.6-1.59a.89.89,0,0,0-.8.4c-.54-.18.28-.62,0-1.2-.57.47-.66.39-.4-.39-1.46-.15-.6,2-.4,2.58V178c-.38-1.7-1.15-3.53-.79-5.38.83-.17,1.37-.62,2.19-.8.2,0,.16-.24.2-.4C169.38,171.51,169.92,170.85,171.29,171ZM171.7,185c-.35,0-.46-.34-.41-.8A.9.9,0,0,1,171.7,185Zm-1-1.4c-.1-.1.14-.25.2-.2S170.75,183.64,170.7,183.58Zm-1,2c0,.22-.2.11-.2,0S169.7,185.47,169.7,185.58Zm-.6-.2c-.36-.15,0-.36,0-.6C169.46,184.93,169.13,185.15,169.1,185.38Zm-13.77,2.19c-.48.08-.44-.36-1-.2a9.56,9.56,0,0,1-2.59-5.19c.61-.14.38.55,1,.41a1.33,1.33,0,0,0-.2,1c.45.11.29-.38.6-.39h1c1,.49,2.61.44,3,1.59-.45.21-1.2.13-1.59.4-.08.47.91-.11.6.59.37-.14.13-.59.59-.19.5-.67,2.6-.77,3.8-1.2.41,0,.39-.53.6-.8.29,0,.06.6.39.6.61.2.36-.44.41-.8.45-.06.22.58.59.6s0-1,.4-1.19c.55-.15.41.39.8.4V182a1.18,1.18,0,0,1,.8-.2v-.6a8.36,8.36,0,0,0,2.2-2.59c.23,0,.17.36.19.6-.38,1.93-1.59,3.05-2.19,4.78-.55.39-1.41.45-1.6,1.2a4.12,4.12,0,0,0-1.79.59h-1.6c-.79.15-1.45.42-2.2.61-.19,0-.15.24-.2.39-.61-.14-.72.21-1.19.2v-.39C155.84,186.88,155.46,187.11,155.33,187.57Zm3-7.57c1,.2,1.2,1.19,2.2,1.39-.43.49.47.85.19,1.8-.55.23-.83.43-1.39.19a1.15,1.15,0,0,0-.6-1.2C159.14,181.39,158.12,181.14,158.32,180Zm-1.6-6c0,1,.35,1.51.2,2.59a.9.9,0,0,0-.6-.2c.21,1.79,1.46,2.54,1.2,4.78-1.11-.34-1.34-1.58-1.6-2.79.13-1.3-.07-3.16,0-5a2,2,0,0,0,.61-1.2,5.49,5.49,0,0,0,2.19-1.39,7.65,7.65,0,0,0,2.6-.6h1.39a18.91,18.91,0,0,1,2.2,2c-.39.48-1,.78-1.2,1.4-.15-.78-.8-1.07-1-1.8-.75.1-1.43-.19-2,.2-.08.06-.14.37-.19.4-.34.18-1.28-.36-1,.6-.26-.07-.32-.35-.6-.4s-.09.71-.2,1a.89.89,0,0,1-.4-.8c-.16,0-.2.2-.4.2-.58.28.36.68.2,1.2-.35-.05-.45-.35-.4-.8C156.94,173.5,157.59,175,156.72,174Zm8.39,2.78c-.29.25-.3.77-.6,1-.08,1.32.2,3-1,3.19-.34-.6-.5-1.36-.8-2-.27-.45-.68-.77-1-1.2-.05-.61-1-.33-.81-1.19,2.07-.13,3.59-.81,3.8-2.79.88.58.36,2.56.8,3.59-.24,0-.17.36-.2.59C164.87,178,165.23,177.16,165.11,176.8Zm-3.39,5.79a1.05,1.05,0,0,1-.4-1.4,12.63,12.63,0,0,1-.8-3.59c.4-.16.44.4.6.6s.52.48.6.6-.08.44,0,.6.37.13.4.2a5.55,5.55,0,0,1,.19,1.59C161.52,180.46,161.72,181.93,161.72,182.59Zm-1.2-6.58c-.48-.42.16-1.42.8-1.4C161.1,175.13,160.59,175.35,160.52,176Zm1.4-1a4,4,0,0,1,.79-1c.2,0,.16.24.2.4a1.62,1.62,0,0,1-1,1c-.09.38-.08.86-.6.8A1,1,0,0,1,161.92,175Zm3-3.79c-.14-.6.2-.72.2-1.19C165.68,169.72,165.42,171.37,164.91,171.22Zm-6.59,4.19a5.47,5.47,0,0,0,1.2-1.79c.4.06.62,0,.6-.4.9,0,1.37-.49,2.19-.6.25.65-.64.15-.39.8-1.1.1-1.36,1-2.6,1,.12.54-.26,1.58.2,1.79-1.08-.07-.15.91,0,1.79h-.6c-.21.88.68.65.6,1.4.28.32.71.49.6,1.19a9.53,9.53,0,0,1-2.2-2.19C157.71,177.06,158.32,176.53,158.32,175.41Zm1.6,3c0,.19-.25.16-.4.2C159.53,178.41,159.76,178.44,159.92,178.4Zm-2-11c1.84,1.09,5.45.41,8.19.6.33,1.13,1.45,1.47,2,2.39-.11.76-.85.88-1.6,1,.17-1-.58-.46-.59,0-.58-.28.43-1.18-.2-1.59-.81-.08-1.26.2-1.2,1-.41-.19-.43-.77-.4-1.4-.42-.1-.38.29-.4.6q-.65.06-.6-.6c-1.25,0-1.55-.23-2.4.2-.46,0-.58-.34-1.19-.2.1-.63-1-.07-.8-.79h-1.2c-.34-.08-.37.15-.4.39C156.25,168.66,157.15,167.4,157.92,167.44Zm-4.39,3.78c1.09-.79,3.17-2.07,5-1.79.3,0,.51.52,1,.6-.55.32-1.11.75-1.8.4-.23,0-.16.36-.2.6-.26-.07-.31-.35-.6-.4s-.09.71-.2,1c-.37,0-.13-.67-.59-.6s.11.64,0,1c-.77.17-.24-1-1-.8-.54.19.2.7.2,1,.41.51-.27-.42-.8-.2.11.89.86,1.13.8,2.2a.55.55,0,0,1-.4-.6c-.22,0-.14.4-.4.4a9.32,9.32,0,0,1,.8,5c-1.14-.46-1.26-1.93-1.4-3.39a13.87,13.87,0,0,1-.6-3.79C153.57,171.79,153.5,171.46,153.53,171.22Zm-2.19.2h1.39c0,.85-.38,1.29,0,2-.36,0-.42-.25-.8-.2-.23.63.32.48.4.8s.37.17.6.2a3.65,3.65,0,0,1,.2,1.59c-.44-.18-1.62-.86-1.6.2a7.26,7.26,0,0,0,2,.79c-.48.54-1.59,0-2.19,0-.43,1,1,.19.8,1a3.69,3.69,0,0,1,1.59.2c-.12.41-1,.06-.8.8,1.41.32,2,1.5,3.39,1.79,0,.68.59.75,1,1,.07.66.6.87,1,1.2,0,.7.94.39.8,1.19-1.09.16-1.2-.66-2.2-.6V183c-2.54.21-3.11-1.55-5.39-1.6a14.82,14.82,0,0,0-2-3.59C149.58,175.12,150.74,173.56,151.34,171.42Zm-1.8,11a1.85,1.85,0,0,1-1.4-.6h-1.6c-.41-2.13,1.52-3.49,1.8-5.58a1,1,0,0,0,.6-.6c-.06-.32.19-.35.2-.6.81,0-.14,1-.2,1.4a5.74,5.74,0,0,0,.2,2.19,1.13,1.13,0,0,0-.8-.2c-.24,1.1.93.8,1.4,1.2-.38.66-1.28-.35-1.6.2.22.77,1.16.83,2,1-.13.21-.46.21-.4.6.6.53,1.64.62,1.6,1.8C150.83,183.49,149.59,183.16,149.54,182.39ZM145,188.57c.29-.38.8-.53.8-1.2.6-.59,1.43-1,1.79-1.79.46-.27,1.5,0,1.4-.8.33.33,1.17.16,1.8.2,0,.5-.31.62-.6.79s-.16.78-.8.61c-.15.6.34.58.2,1.19-.71.31-.13-.68-.6-.6a1,1,0,0,0-1,.8c-1.55.51-2.25,1.87-3.39,2.79C144,190,145.21,189.49,145,188.57Zm3.39.59c0,.23-.2.12-.2,0S148.34,189.05,148.34,189.16Zm1.2,3.39a16.17,16.17,0,0,0-2.79,0c-.15-1.05-1.7-.7-2.4-1.19.29-.77,1.17-1,1.79-1.4a2.09,2.09,0,0,1,1.6-.8c-.25.75-1.32,1.51-.8,2.4a3.35,3.35,0,0,0,1-2c.6.51-.48,1.78,0,2.2.54-.92.6-2.32,1.4-3,.21.49-1.24,2.08-.6,3,.67.07.33-.87.6-1.2.11-.42.5-.57.4-1.19.57.45-.28,1.16,0,2,.8.06.42-1,.8-1.4.47.13,0,1.23.39,1.4.57-.11.38-1,.6-1.4.73,0,.77-.28,1.4,0C152.45,191.47,151,192,149.54,192.55Zm21.16-3.18a4.18,4.18,0,0,1-2.2-.21c-.44-.11-.29.38-.6.4a13.07,13.07,0,0,1-2.59-.19c-.44-.12-.29.37-.6.39-1.62-.09-2.18.88-3.8.8-.64.08-.16,1.3-1.19,1-.43.09-.39-.29-.4-.6a.55.55,0,0,1-.6-.4c-.34-.18-1.07,0-1-.6-3,0-4.89-1.1-7.58-1.39.09-1.51.51-2.68,1.6-3.19a2.48,2.48,0,0,1,1.39,1.79c.8.27,1.15,1,2,1.2,1.53-.13,2.07-1.25,3.59-1.4a22.64,22.64,0,0,1,2.19,2.19c2.21-.26,4.61-.31,7-.4a4.75,4.75,0,0,0,2-2.38c.19.21.73.06.6.59.44-.08.19-1.09-.2-1,.3-.66.49.41,1,.2.06-.72-.59-.74-.59-1.4.38.09.5.43,1,.4,0,1.27-.11,2.42-.8,3,0,.39.54.25.39.79C170.81,188.65,170.79,189.34,170.7,189.37Zm7.58,3.58c-1.87-.52-3.81-1-5.78-1.39.07-.95-1.1-.64-1.41-1.2,0-.66.85-.49,1-1a10.66,10.66,0,0,1,.4-2.6c2.11.75,3.21,2.5,4.79,3.79a1.14,1.14,0,0,0,.59,1.2c.33-.57-.58-1.32-.79-2a15.55,15.55,0,0,0-4-3.38c.18-.63,1.16-.45,1.2-1.2a1.74,1.74,0,0,0,1.2.2c-.05-1.62-2.45-.36-2.6.39-.61-.74.75-1.24,1.4-1.39.2,0,.16-.24.2-.4,1.69.24,1.93,1.94,3.19,2.6A10.43,10.43,0,0,1,178.28,193Z"/><polygon class="cls-2" points="209.67 37.44 211.58 37.94 211.58 38.19 209.58 37.73 209.67 37.44"/></g></g></svg>