<?xml version="1.0" encoding="utf-8"?>
<!-- Generator: Adobe Illustrator 22.1.0, SVG Export Plug-In . SVG Version: 6.00 Build 0)  -->
<!DOCTYPE svg PUBLIC "-//W3C//DTD SVG 1.1//EN" "http://www.w3.org/Graphics/SVG/1.1/DTD/svg11.dtd">
<svg version="1.1" id="Layer_1" xmlns="http://www.w3.org/2000/svg" xmlns:xlink="http://www.w3.org/1999/xlink" x="0px" y="0px"
	 viewBox="0 0 313 233" style="enable-background:new 0 0 313 233;" xml:space="preserve">
<style type="text/css">
	.st0{fill:#003595;}
	.st1{fill:#3A8DDE;}
	.st2{fill:#92C0E9;}
</style>
<g>
	<g>
		<g>
			<path class="st0" d="M45.5,16H23v127.4h17.3V94.5h5.2c23.4,0,34.3-17.7,34.3-39l0,0c0-0.6,0-1.2,0-1.8C79.7,32.4,68.8,16,45.5,16
				z M46,83.2h-5.7V30.2H45c14.2,0,17.5,9.6,17.5,24.4C62.4,71.1,56.4,83.2,46,83.2z"/>
			<path class="st0" d="M265.4,16h-20.1l-26.1,127.4h17l5.9-33.4h26.5l6.1,33.4h17L265.4,16z M244.5,96.6L255.2,37h0.3l10.6,59.5
				H244.5z"/>
			<path class="st0" d="M148.8,109.5V16h-17.3v99.1c0,8.9-4,15.2-13,15.2c-9,0-13-6.4-13-15.2V16H88.2v96c0,15.2,6.6,32.5,30.3,32.5
				c6.5,0,11.7-1.3,15.8-3.5C136.2,130.2,143,119.9,148.8,109.5z"/>
			<path class="st0" d="M216.2,50.5c0-23.8-13.1-34.5-37.3-34.5h-19.7v86.7c5.7,11.8,14.2,23.1,17.3,35.1V86.1h1.4
				c11.8,0,19.6,3.4,19.6,19.4v37.9h16.3v-39.7c0-16.2-9.7-24.3-23-24.3V79C202.8,77.2,216.2,69.7,216.2,50.5z M178.4,73.3h-1.9
				V31.2h3.1c10.7,0,19.3,5.4,19.3,20C198.9,67.5,187.9,73.3,178.4,73.3z"/>
		</g>
		<path class="st1" d="M155.8,112.4c3.9,8.4,13.4,20.7,14.2,31.3c0.7,9-3.9,16.1-14.2,16.2c-10.3-0.1-14.8-7.3-14.2-16.2
			C142.4,133.1,151.9,120.8,155.8,112.4z"/>
		<g>
			<g>
				<path class="st2" d="M62.1,178.6c-12.2-2.7-13.5-4.5-13.5-7.8v-0.2c0-3.3,3.4-5.5,8.5-5.5c5.2,0,10.4,1.9,15.8,5.7l1.1,0.8
					l7.4-10l-1.1-0.9c-6.7-5.1-14.3-7.6-23.1-7.6c-13.1,0-22.3,7.5-22.3,18.3v0.2c0,11.6,7.9,15.6,21.5,18.8
					c11.8,2.6,12.7,4.7,12.7,7.5v0.2c0,3.6-3.7,5.9-9.4,5.9c-6.7,0-12.3-2.2-18.4-7.2l-1.1-0.9l-8.3,9.4l1.1,0.9
					c7.4,6.3,16.6,9.6,26.5,9.6c14.2,0,23.3-7.4,23.3-18.8V197C82.8,185,72.9,181.1,62.1,178.6z"/>
				<polygon class="st2" points="87,166.5 106.4,166.5 106.4,215.2 120.1,215.2 120.1,166.5 139.5,166.5 139.5,154.1 87,154.1 				
					"/>
				<path class="st2" d="M155.9,167.4L155.9,167.4h-0.1h-0.1h-0.1c-2.7,0-5-0.4-7-1v48.7h13.6v-48.6
					C160.4,167.1,158.3,167.4,155.9,167.4z"/>
				<polygon class="st2" points="189.4,154.1 175.8,154.1 175.8,215.2 221.6,215.2 221.6,203 189.4,203 				"/>
				<polygon class="st2" points="243.5,203 243.5,154.1 229.9,154.1 229.9,215.2 275.7,215.2 275.7,203 				"/>
			</g>
		</g>
		<g>
			<g>
				<path class="st0" d="M274.8,25.9v-8.7h-1.7v-1.2h4.8v1.2h-1.7v8.7H274.8z"/>
				<path class="st0" d="M283.8,25.9V19h0l-1.1,2.9h-0.8l-1.3-2.9h0v6.9h-1.2v-9.8h1.2l1.7,4.1h0l1.6-4.1h1.3v9.8H283.8z"/>
			</g>
		</g>
	</g>
</g>
</svg>
