<svg xmlns="http://www.w3.org/2000/svg" viewBox="0 0 404.47 296.79"><defs><style>.cls-1{fill:#f1e4b2;}.cls-2{fill:none;stroke:#ecab22;stroke-linecap:round;stroke-linejoin:round;stroke-width:0;}.cls-3{fill:#f3e4b1;}.cls-4{fill:#eba900;}.cls-5{fill:#8a2432;}</style></defs><title>pyramid-brewing-co</title><g id="Layer_2" data-name="Layer 2"><g id="Layer_1-2" data-name="Layer 1"><polygon class="cls-1" points="118.16 41.67 59.62 121.31 149.07 123.13 141.82 132.79 193.19 136.42 353.77 132.9 355.17 128.56 243.35 2.85 167.2 94.11 122.48 40.93 118.16 41.67"/><line class="cls-2" x1="322.66" y1="130.87" x2="322.65" y2="130.87"/><polygon class="cls-3" points="137.22 63.13 137.22 63.13 137.21 63.13 137.22 63.13"/><polygon class="cls-3" points="145.55 73.21 145.55 73.21 145.54 73.21 145.55 73.21"/><path class="cls-4" d="M283.58,88.41c.53,0,1.06,0,1.59,0,1,0,2,.11,3.06.12l1.75,0c.78,0,1.56,0,2.35,0a10.66,10.66,0,0,0,1.25-.09,14.83,14.83,0,0,1,3-.08,1.87,1.87,0,0,0,.41,0c1-.09,2,0,3-.08l.36,0,1.09,0,.89.05,1.86.06c.51,0,1,0,1.51,0,.27,0,.53,0,.81,0h.36a.59.59,0,0,1,.61.34c.05.19-.11.4-.38.48a5.3,5.3,0,0,1-1.54.2c-1.09,0-2.17,0-3.26,0a4.17,4.17,0,0,1-.86,0,5.7,5.7,0,0,0-1,0l-3.17,0h-1c-.51,0-1,0-1.54,0s-1.19.07-1.78.07c-.83,0-1.66,0-2.48,0h-2.51c-.86,0-1.72,0-2.58.06l-3.5,0c-.18,0-.35,0-.53,0s-.48,0-.72,0c-1,0-1.92-.1-2.87-.13s-2-.06-3-.07c-.81,0-1.62,0-2.44,0s-1.54-.06-2.31-.09a6.77,6.77,0,0,0-.78,0c-1.06.06-2.14.1-3.2.19-.49,0-1,.07-1.45.08s-.62,0-.75-.34c.12-.11.24-.19.18-.36s.13-.2.28-.26a4.27,4.27,0,0,1,1.37-.26c.54,0,1.09,0,1.63,0l1.65,0,1.29,0,1.74,0,1.33,0,1.86,0,1.78-.06,1.65,0,1.45,0c.57,0,1.13.05,1.7.06.31,0,.62,0,.93,0l1,0m-32.89,27.15c.6,0,1.2-.09,1.79-.08s1,0,1.54,0h1c1,0,2.11,0,3.17,0a6.71,6.71,0,0,1,1,0,4.26,4.26,0,0,0,.87,0c1.08,0,2.17,0,3.25,0a5.36,5.36,0,0,0,1.55-.19c.26-.09.42-.3.38-.48a.61.61,0,0,0-.62-.35h-.36c-.27,0-.54,0-.8,0-.51,0-1,0-1.51,0s-1.24,0-1.86-.06l-.89,0-1.09-.06h-.37c-1,0-2,0-2.95.08a2.77,2.77,0,0,1-.41,0,15.74,15.74,0,0,0-3,.08c-.41,0-.83.09-1.25.1-.78,0-1.56,0-2.35,0-.58,0-1.16,0-1.74,0-1,0-2-.15-3.07-.12-.53,0-1.06,0-1.58,0-.34,0-.67,0-1,0s-.62,0-.93,0c-.57,0-1.14,0-1.7,0s-1,0-1.45,0-1.1,0-1.66,0l-1.78.06-1.85,0c-.45,0-.89,0-1.34,0l-1.73,0-1.29,0-1.66,0-1.62,0a4.44,4.44,0,0,0-1.37.26c-.16.06-.32.15-.28.27s-.07.25-.18.35c.12.3.4.35.74.34.49,0,1,0,1.46-.07,1.06-.1,2.13-.14,3.2-.2q.39,0,.78,0c.77,0,1.54.07,2.31.08s1.63,0,2.44,0c1,0,2,0,3,.07s1.92.1,2.87.13a5.93,5.93,0,0,0,.73,0l.53,0c1.16,0,2.33,0,3.49-.06.86,0,1.72-.1,2.59,0,.24,0,.48,0,.73,0h1.77c.83,0,1.66,0,2.48,0M220.77,92.9a1.34,1.34,0,0,0-.4,0c-.39,0-.77.12-1.15.18-.2,0-.39.08-.59.09a1.89,1.89,0,0,0-1.12.42c-.22.16-.12.47.17.54a5.16,5.16,0,0,0,1.11.19c.56,0,1.13,0,1.7,0,.25,0,.51,0,.76-.07.54,0,1.08,0,1.61-.07a6.07,6.07,0,0,1,.85-.06c.94,0,1.87.07,2.8,0,1.48-.08,3,0,4.43-.1h2c.88,0,1.76,0,2.64,0a17,17,0,0,0,1.75,0,9.66,9.66,0,0,1,1.08,0l1.05,0c.79,0,1.58-.07,2.36-.08s1.57,0,2.36,0,1.62,0,2.43,0,1.42,0,2.12,0c1.15,0,2.29.05,3.45,0l1.65-.18a1.32,1.32,0,0,0,.92-.51c.23-.3.14-.48-.3-.61l-.31-.06a8.48,8.48,0,0,0-.88-.06l-2.75,0q-.3,0-.6,0c-.85,0-1.71.06-2.56.07-.66,0-1.33,0-2,0-.45,0-.89,0-1.33,0l-3.09.08-3,.11-1.9.1c-.43,0-.86,0-1.29,0s-.87,0-1.3,0c-.74,0-1.49,0-2.23,0a22.83,22.83,0,0,0-2.34,0c-.28,0-.56,0-.85,0a29.21,29.21,0,0,0-3.37.07h-.32c-.64,0-1.27,0-1.91,0a9.61,9.61,0,0,1-1.61,0m58-16.62a5.25,5.25,0,0,1-1,0,2.21,2.21,0,0,0-1.09.19l.08.2c0,.25.28.31.55.34h.33l1,0a.44.44,0,0,1-.49.29c-.61,0-1.22,0-1.83,0a10.26,10.26,0,0,0-1.24,0c-.8,0-1.59-.08-2.39,0s-1.81,0-2.72.06l-2.18,0h-2.11l-1,0h-.4c-.45,0-.91,0-1.37,0s-.83.06-1.25.07-.89,0-1.33,0l-1.78.08-3.09,0c-.81,0-1.62,0-2.43,0l-1.89,0c-.63,0-1.25,0-1.87,0a24.37,24.37,0,0,0-3,0,2,2,0,0,0-1,.34c-.23.17-.16.36.13.48a1.73,1.73,0,0,0,.64,0q1.34,0,2.67.06l2.77,0c.58,0,1.17,0,1.75,0,1.15-.07,2.3,0,3.45-.07,1.31-.08,2.63,0,3.94-.07.73,0,1.46-.07,2.19-.09s1.68,0,2.52,0,1.4,0,2.11,0,1.24-.08,1.87-.1,1.16,0,1.74,0l2.52,0c.83,0,1.65,0,2.48,0a18,18,0,0,0,2.2,0c.37,0,.75,0,1.13,0,.63,0,1.27-.07,1.9-.07,1.1,0,2.18.06,3.28.06a2.2,2.2,0,0,0,.77-.15c.15,0,.22-.21.34-.32a1.58,1.58,0,0,0-.49-.24,11.49,11.49,0,0,0-1.18-.1c-.36,0-.72,0-1.08,0l-2.22,0-.07-.06a1.78,1.78,0,0,0,.89-.35c0-.26-.19-.42-.5-.44a10.75,10.75,0,0,0-2.34-.06m-7.23,17.59c.63,0,1.25,0,1.87,0,1.07,0,2.14-.12,3.21-.07.7,0,1.41,0,2.11,0,.54,0,1.09,0,1.63,0,1-.06,1.93-.16,2.9-.24L285,93.4c.47,0,.94-.11,1.4-.18s.46-.29.22-.49a.77.77,0,0,0-.64-.22c-.43,0-.88-.08-1.29,0a21.07,21.07,0,0,1-2.25.15c-.67,0-1.34,0-2,.07s-1.52,0-2.28,0c-1,0-1.9,0-2.84,0l-3.94,0c-.57,0-1.14,0-1.71,0-.75,0-1.5,0-2.25,0-.37,0-.73,0-1.1,0-.9,0-1.8-.12-2.71-.06-.7,0-1.4,0-2.1,0-.37,0-.74,0-1.1,0a5,5,0,0,0-.78.07.9.9,0,0,0-.8.74,4.07,4.07,0,0,0,1.5.22h.37c.52,0,1.05,0,1.58,0l1.78,0h1.05c.5,0,1-.05,1.5-.06s.81,0,1.21,0h1.1c.44,0,.89,0,1.33,0s.87,0,1.3,0M274,118.44c-.43,0-.88-.07-1.29,0a21.07,21.07,0,0,1-2.25.15c-.67,0-1.34,0-2,.08s-1.52,0-2.28,0c-.95,0-1.9,0-2.84,0-1.32,0-2.63,0-3.94,0l-1.71,0-2.25,0c-.37,0-.73,0-1.1,0-.9,0-1.8-.12-2.71-.06-.7,0-1.4,0-2.1,0-.37,0-.74,0-1.1,0a6.65,6.65,0,0,0-.78.08.91.91,0,0,0-.8.73,3.87,3.87,0,0,0,1.5.23h.37l1.57,0h2.84c.5,0,1,0,1.5-.06l1.21,0,1.1,0,1.33,0,1.3,0h1.87c1.07,0,2.14-.12,3.21-.08.7,0,1.41,0,2.11,0,.54,0,1.09,0,1.62,0,1-.06,1.94-.15,2.91-.23.58,0,1.16-.09,1.74-.15s.94-.11,1.4-.19.46-.29.22-.49a.82.82,0,0,0-.64-.22M295.81,94.5a13.33,13.33,0,0,0-3.34.08c-.2,0-.4.06-.6.06l-2.6.08c-.55,0-1.1,0-1.66,0l-2,0c-.34,0-.68,0-1,0a23.91,23.91,0,0,0-2.54,0c-.26,0-.51.06-.77.06-.89,0-1.78,0-2.67,0l-2.77,0-1.84,0h-1.13l-.68,0a3.57,3.57,0,0,0-1.53.23l-.24.22c-.08.27.13.47.5.49a20.37,20.37,0,0,0,2.21,0c1.05-.07,2.09-.11,3.14-.14.88,0,1.75,0,2.63,0s1.49,0,2.24,0,1.7,0,2.55,0l2.19,0h0l2.55,0c.71,0,1.42,0,2.13,0s1.14,0,1.72,0a8.44,8.44,0,0,0,1.66-.08c.35-.09.75-.07,1.12-.14a7.28,7.28,0,0,0,.92-.23c.22-.08.39-.31.34-.45s-.25-.22-.49-.26m-2.69,19.6a12.88,12.88,0,0,0-3.34.08c-.2,0-.4,0-.6.06l-2.6.07c-.55,0-1.1,0-1.66,0l-2,0c-.34,0-.68,0-1,0a23.93,23.93,0,0,0-2.54,0c-.26,0-.51.06-.76.07-.9,0-1.79,0-2.68,0l-2.77.05-1.84,0-.36,0h-.77l-.68-.05a3.72,3.72,0,0,0-1.53.22l-.24.23c-.08.26.14.46.5.48a18.25,18.25,0,0,0,2.22,0c1-.07,2.08-.11,3.13-.13.88,0,1.76,0,2.63,0s1.49,0,2.24,0H281c.73,0,1.46,0,2.19,0h2.55l2.13,0c.58,0,1.15,0,1.72,0a7.72,7.72,0,0,0,1.66-.07,10.08,10.08,0,0,1,1.12-.14,7.32,7.32,0,0,0,.92-.24c.23-.07.39-.31.34-.44s-.25-.23-.49-.26M228.43,89.69c.36,0,.72,0,1.09-.06h1.29l2.31,0h1.44c1,0,1.94,0,2.92,0,.75,0,1.51.07,2.26.08,1,0,1.95,0,2.93,0,.61,0,1.22,0,1.82-.08.87,0,1.74-.1,2.59-.19a4.28,4.28,0,0,0,1.7-.36c.43-.23.48-.49,0-.71a2.24,2.24,0,0,0-.73-.24,9.1,9.1,0,0,0-1.73.05c-.31,0-.61.1-.91.09a13.64,13.64,0,0,0-1.57.09c-1,.07-1.93.18-2.9.24-.55,0-1.11,0-1.66,0-1.25,0-2.49,0-3.74.06-.32,0-.64,0-1,0-.78,0-1.56,0-2.34,0-.57,0-1.14-.06-1.7,0a18.09,18.09,0,0,0-2.54.27c-.5.12-.6.19-.52.61a1.89,1.89,0,0,0,.92.16M252.32,56.2a1.57,1.57,0,0,0,1,.29l3.81,0c.59,0,1.17-.05,1.76-.1s.9,0,1.35,0,.74,0,1.12,0,.76,0,1.13,0h.39a8.75,8.75,0,0,1,1,0c1.17.11,2.34.1,3.52.13.3,0,.6,0,.9,0,.51,0,1,.06,1.54.06.85,0,1.71,0,2.56-.07A3.08,3.08,0,0,0,273.9,56c.21-.12.24-.24.13-.41a.85.85,0,0,0-.69-.31c-.31,0-.62,0-.92,0a11.63,11.63,0,0,0-1.18,0c-.6.06-1.2.16-1.79.23a7.57,7.57,0,0,1-.95,0c-.37,0-.73,0-1.09,0-.61,0-1.19-.11-1.81-.07s-1.14,0-1.71,0a32.44,32.44,0,0,0-3.56.29c-.83.08-1.64,0-2.46,0l-.16,0a19.17,19.17,0,0,0-2.52-.2,13.34,13.34,0,0,0-2.19.12c-.42.07-.65.23-.68.54m-13.41-6.34a5.89,5.89,0,0,0,1.93.26l.29,0a30,30,0,0,0,3.16.13c.35,0,.7,0,1.05,0,.71,0,1.43.06,2.14.07,1.28,0,2.55,0,3.82,0a1.45,1.45,0,0,0,1.4-.61l.05-.09a2.18,2.18,0,0,0-.42-.23,6.31,6.31,0,0,0-.76-.09l-1-.06-2-.11-.68,0c-.42,0-.84-.09-1.26-.09-.61,0-1.21.06-1.82.06-1.23,0-2.47,0-3.71,0-.41,0-.82-.08-1.23-.12h-.28a2.24,2.24,0,0,0-1.07.52c.13.16.15.36.42.43m-3.49,10.87a7.35,7.35,0,0,1,.86.14,1.31,1.31,0,0,0,.59,0,6.5,6.5,0,0,1,2-.12,2.13,2.13,0,0,0,.44,0,27.46,27.46,0,0,1,3.4.16c.43,0,.85.11,1.28.15s1,.09,1.48.11l2.39.1.23,0c.48-.07.92-.15,1.07-.59.08-.26.05-.39-.27-.5a3,3,0,0,0-1.19-.09c-.47,0-.94.09-1.41.11-1,0-2.07-.06-3.11-.07-.23,0-.45-.06-.68-.07-.57,0-1.14-.1-1.73-.08s-1.38-.07-2.06,0a13.7,13.7,0,0,1-1.83-.14,4,4,0,0,0-1.51.12c-.26.09-.41.23-.43.44s.29.32.51.36m11.9-7.06c-.59,0-1.17-.09-1.76-.1-.77,0-1.54,0-2.3,0a17.38,17.38,0,0,0-2.28.08,2.63,2.63,0,0,0-.62.13c-.19.08-.34.17-.31.35s.17.3.42.33a8.18,8.18,0,0,0,1.57.13c.31,0,.62,0,.93,0s.37.06.55.06l3.78,0v0a8.65,8.65,0,0,0,.89-.1,2.74,2.74,0,0,0,.7-.23c.19-.09.25-.38.1-.45a2.18,2.18,0,0,0-.63-.18c-.34,0-.69,0-1,0m26,8.85-2.15.14a2.76,2.76,0,0,0-.4.06c-.24.08-.3.3-.11.42a1.2,1.2,0,0,0,.47.17,10.86,10.86,0,0,0,1.28.1c.44,0,.87-.06,1.3-.08l1,0c1,0,2-.06,3-.07.48,0,1,0,1.45,0a5.79,5.79,0,0,1,1,0,3.74,3.74,0,0,0,.89-.07c.22,0,.29-.13.27-.29s-.27-.38-.56-.45a4.67,4.67,0,0,0-1.4-.15l-3.12.15c-.4,0-.81,0-1.22,0l-1.7.11Zm-41.28,4.6.23,0a8.58,8.58,0,0,0,1.22.19c.81,0,1.64,0,2.46,0l2,0a3.15,3.15,0,0,0,1.53-.33c.19-.1.21-.3,0-.37a4.82,4.82,0,0,0-1-.22c-.44,0-.89,0-1.32,0a24.62,24.62,0,0,0-2.85-.15c-.32,0-.64,0-1,0s-.38,0-.64,0a6,6,0,0,1-.59.1c-.28,0-.46.13-.48.3s.05.36.39.42m32,29.05c.51,0,1,0,1.53-.08l.48,0,1.69,0c.29,0,.42-.1.47-.26s.06-.32-.27-.45l-.25-.11a1.25,1.25,0,0,0-.84-.08,2.29,2.29,0,0,1-.53,0c-.55,0-1.1,0-1.65,0-.9.06-1.8.17-2.7.22-.3,0-.54,0-.66.29a1.48,1.48,0,0,0,1,.4l.64,0c.36,0,.71,0,1.06,0m-3.65-7.37a17,17,0,0,0-2.47,0c-.36,0-.73,0-1.09,0s-.93.15-1.39.16a3.33,3.33,0,0,0-1.3.33c0,.28,0,.3.28.38a1.67,1.67,0,0,0,.39.06q1.66,0,3.33,0c.7,0,1.4-.05,2.1-.1a1.33,1.33,0,0,0,1-.41c.07-.1.06-.18-.1-.25a2.18,2.18,0,0,0-.77-.12m2.48,23.52a1.76,1.76,0,0,0,.39.06q1.67,0,3.33,0c.71,0,1.41,0,2.11-.1a1.3,1.3,0,0,0,1-.41c.07-.1.06-.18-.09-.25a2.27,2.27,0,0,0-.78-.12,15.63,15.63,0,0,0-2.47,0c-.36,0-.73,0-1.09,0s-.92.15-1.39.16a3.37,3.37,0,0,0-1.3.33c0,.27,0,.3.28.38m10.77-35.77v0l.8,0a6.37,6.37,0,0,0,2-.41c.23-.08.26-.29.06-.37a1.76,1.76,0,0,0-.57-.13c-.33,0-.67,0-1,0l-1.53.08a4.06,4.06,0,0,0-1.36.27c-.16.07-.3.15-.27.31s.16.21.37.22l1.49,0M112.52,93.61a.87.87,0,0,1-.66-.33c-.14-.16-.13-.31,0-.6a5.05,5.05,0,0,1,1.68-.16l1.08-.08q.59,0,1.17,0h3l3.75-.06c.75,0,1.51,0,2.26,0s1.37,0,2.06-.07,1.09,0,1.64-.06a4,4,0,0,0,1.14-.13h.12a12.74,12.74,0,0,0,2.05,0,4.42,4.42,0,0,1,.63,0,4,4,0,0,1,.49,0,2.14,2.14,0,0,1,1.13.47c.13.11.05.47-.14.58a1,1,0,0,1-.51.19,7.9,7.9,0,0,0-.85.07,4.59,4.59,0,0,0-.82.17c.2,0,.41,0,.61,0,.75,0,1.51,0,2.26,0a14.26,14.26,0,0,0,1.72-.09,5.44,5.44,0,0,1,1.28.09h.21c.22,0,.43.1.4.26a1.16,1.16,0,0,1-.13.41.6.6,0,0,1-.42.3,6.08,6.08,0,0,1-.87.11c-.59,0-1.18,0-1.77.06s-.91,0-1.36,0h-2.38c-.46,0-.93,0-1.39-.06a1.09,1.09,0,0,1-1-.53c-.11-.22.05-.39.09-.59.2-.07.5,0,.6-.26-.48,0-.94,0-1.41,0l-1.51,0h-.08c-.94.08-1.87,0-2.8,0s-1.61,0-2.41.06l-.94,0c-1,0-2.05.1-3.07.11s-1.78.11-2.67.16c-.72,0-1.45,0-2.17,0m20-12.7c-.59,0-1.19,0-1.78,0-.84-.06-1.68-.07-2.53,0l-1.58,0h-1.79l-1.29.19c-.15,0-.31.07-.3.2l.22.22a2.62,2.62,0,0,0,1.22.25c.76.05,1.53.05,2.3.07h1.17c.38,0,.76,0,1.13,0a6.34,6.34,0,0,1,1.16.09c.37.07.75.06,1.12.1a5,5,0,0,0,1.85-.1c.23-.06.42-.19.4-.32a.61.61,0,0,0-.38-.5,3.48,3.48,0,0,0-.92-.17m-20,6.2a1.85,1.85,0,0,0,.62.23,8.87,8.87,0,0,0,1,0h3.75a8.63,8.63,0,0,1,2,.06,1.6,1.6,0,0,0,.9-.1l.25-.09.13-.31c0-.13,0-.25-.16-.3a11.77,11.77,0,0,0-1.34-.27c-.57-.07-1.16,0-1.74-.09a8.45,8.45,0,0,0-1.51,0,16.36,16.36,0,0,1-1.71.05,8.46,8.46,0,0,0-2.08.25c-.35.07-.41.33-.11.49m28.62-3.53c-.55,0-1.1.06-1.65.08a.7.7,0,0,0-.51.2l.16.21a2,2,0,0,0,.63.21,18.16,18.16,0,0,0,2.76,0,20.83,20.83,0,0,1,2.37,0l.26-.09.61-.36c0-.1-.09-.16-.23-.2a3.33,3.33,0,0,0-.53-.11l-1.51-.07c-.79,0-1.57.11-2.36.08m-4.3-2.46c.53,0,1.06,0,1.58,0s1.27,0,1.9.08l.16,0c.25.1.55-.1.8.06l1-.24c.21-.05.32-.16.32-.36a6.37,6.37,0,0,0-1.72-.32,14.43,14.43,0,0,0-1.74,0c-.36,0-.72,0-1.09.07s-.84,0-1.26,0-.53.07-.6.33.26.35.61.33m3.6,1.08a7.7,7.7,0,0,0-1.36.07l-.56.11c-.11.32-.08.38.31.46s.64.08,1,.14A3.63,3.63,0,0,0,141,83a3.65,3.65,0,0,1,1,0,5.55,5.55,0,0,0,1.23-.06,4,4,0,0,0,.77-.21c.23-.07.26-.15.22-.38a1.52,1.52,0,0,0-.45-.16,3.69,3.69,0,0,0-.88,0,15.06,15.06,0,0,1-2.51.06m4.12,19.86.08.2c0,.26.28.32.56.35h.32l1,0a.43.43,0,0,1-.49.28c-.6,0-1.21,0-1.82,0a10.48,10.48,0,0,0-1.25,0c-.8,0-1.58-.09-2.39,0s-1.8.05-2.71.06l-2.19,0h-2.1c-.33,0-.65,0-1,0h-.39c-.46,0-.92,0-1.37,0s-.83.06-1.25.07-.89,0-1.33,0c-.6,0-1.19.07-1.78.07-1,0-2.06,0-3.09,0l-2.43,0-1.9,0c-.62,0-1.25,0-1.86,0a24.36,24.36,0,0,0-3,0,1.91,1.91,0,0,0-1,.35c-.23.16-.16.36.13.47a1.91,1.91,0,0,0,.63,0l2.68,0,2.76,0c.59,0,1.17,0,1.75,0,1.15-.07,2.3,0,3.46-.07,1.31-.08,2.63,0,3.94-.07.73,0,1.46-.07,2.18-.09s1.68,0,2.53,0l2.1,0c.63,0,1.25-.09,1.87-.11s1.17,0,1.75,0l2.52,0c.82,0,1.65,0,2.47,0a18,18,0,0,0,2.2,0c.37,0,.75,0,1.13,0,.64,0,1.27-.08,1.91-.08,1.09,0,2.18.06,3.27.06a2.3,2.3,0,0,0,.78-.15c.14-.05.22-.2.34-.32a1.69,1.69,0,0,0-.49-.24,11.74,11.74,0,0,0-1.18-.1c-.36,0-.72,0-1.09,0l-2.21,0-.08-.06a1.78,1.78,0,0,0,.9-.35c0-.26-.2-.41-.5-.44a10.76,10.76,0,0,0-2.34-.06,5.25,5.25,0,0,1-1,0,2.27,2.27,0,0,0-1.1.19m-.69,5.68c-.3,0-.61,0-.92,0a11.35,11.35,0,0,0-1.17,0c-.61.06-1.2.17-1.8.23a7.48,7.48,0,0,1-1,0c-.36,0-.73,0-1.09,0-.6,0-1.19-.1-1.8-.07s-1.14,0-1.72,0a30,30,0,0,0-3.55.29c-.83.08-1.65,0-2.46,0l-.16,0a19.17,19.17,0,0,0-2.52-.2,13.28,13.28,0,0,0-2.19.12c-.43.06-.65.23-.69.54a1.6,1.6,0,0,0,1,.29c1.27,0,2.53,0,3.8,0q.88,0,1.77-.09c.45,0,.9,0,1.34,0h1.13c.37,0,.75,0,1.13,0h.39c.34,0,.68-.05,1,0,1.17.1,2.35.1,3.52.12.3,0,.6,0,.9,0,.51,0,1,0,1.54,0,.86,0,1.71,0,2.57-.06a3.08,3.08,0,0,0,1.51-.38c.21-.13.24-.24.12-.42a.9.9,0,0,0-.69-.31M120,72.15a11.2,11.2,0,0,0,1.29.1c.43,0,.87-.06,1.3-.08s.68,0,1,0c1,0,2-.06,3-.07.49,0,1,0,1.46,0a8.51,8.51,0,0,1,1,0,3.36,3.36,0,0,0,.9-.07c.22,0,.29-.12.27-.28s-.27-.38-.57-.45a4.3,4.3,0,0,0-1.39-.15l-3.12.15c-.41,0-.82,0-1.22,0-.57,0-1.14.07-1.7.1v0L120,71.5a2.57,2.57,0,0,0-.4.06c-.24.07-.3.29-.11.41a1.08,1.08,0,0,0,.46.18m8.65,3.48c0,.15.16.22.37.22l1.49.06v0l.81,0a6.37,6.37,0,0,0,2-.42c.23-.08.26-.29.06-.36a1.77,1.77,0,0,0-.56-.14c-.34,0-.68,0-1,0l-1.54.07a4.33,4.33,0,0,0-1.36.27c-.16.07-.3.15-.27.31m232.82,58.78a6.36,6.36,0,0,0-1.52-4.33c-.2-.21-.39-.41-.55-.6h0c-4.39-5.1-8.85-10.21-13.16-15.14-4-4.63-8.21-9.41-12.31-14.16-11.83-13.71-23.95-27.54-35.66-40.91C286,45.31,273.34,30.88,261,16.53c-1-1.11-1.93-2.26-2.91-3.43-2.6-3.07-5.46-6-8.24-8.95l-1-1c-.42-.44-.84-.9-1-1.09a4.87,4.87,0,0,0-2-1.53,8.21,8.21,0,0,0-2.15-.43L243.14,0a.63.63,0,0,0-.44.14l-.41.35a49.39,49.39,0,0,0-6,6.65h0l-1.6,2c-1,1.23-2.09,2.47-3.13,3.67-1.27,1.46-2.59,3-3.79,4.48-3.31,4.1-6.46,7.86-9.36,11.17a5,5,0,0,1-.42.37,7.22,7.22,0,0,0-.55.49,3.73,3.73,0,0,0-.75,1.24h0l-.06.14,0,0a4.45,4.45,0,0,1-.73.75h0a9.58,9.58,0,0,0-1,1h0a3.19,3.19,0,0,0-.3.45.57.57,0,0,0-.3.2l-.35.48c-2.8,3.86-5.94,7.51-9.18,11.23-1.92,2.2-3.81,4.52-5.63,6.76-1.25,1.52-2.52,3.1-3.81,4.63-1.58,1.87-3.21,3.77-4.86,5.7-7.78,9.06-15.33,18.34-22.82,27.65l-.8-.9c-.62-.78-1.27-1.48-1.88-2.14h0c-.4-.44-.8-.87-1.18-1.31l-.12-.15-.18-.16-.11-.06v0l-.12-.2h0a5.4,5.4,0,0,0-.79-1.1,3.31,3.31,0,0,0-1.07-1.12v0a.57.57,0,0,0-.18-.45l-.52-.48a32.06,32.06,0,0,1-2.73-3,40.85,40.85,0,0,0-2.92-3.2,3,3,0,0,0-1.09-1.52h0l-.06,0a46.56,46.56,0,0,1-5-5.86l0,0-.14-.17,0,0c-5.62-6.12-11.36-12.79-18.05-21h0l-.12-.15-.11-.1-.16-.11a8.68,8.68,0,0,1-1.76-1.93h0c-.28-.36-.58-.76-.92-1.17h0c-.11-.12-.24-.29-.39-.49h0A19.68,19.68,0,0,0,125,40.28a4.06,4.06,0,0,0-2.27-1.19h-.24a4.38,4.38,0,0,0-2.38.88,12.69,12.69,0,0,0-2,1.7,51.49,51.49,0,0,0-3.37,3.95c-.42.53-.83,1.06-1.26,1.58-1.36,1.65-2.74,3.38-4.07,5.06-2.51,3.17-4.88,6.16-7.1,8.52l0,0-.09.11h0C95,70.18,87.32,79.44,79.9,88.4c-6,7.18-12.1,14.61-18,22-.69.86-1.39,1.68-1.94,2.32L58.87,114h0a20.19,20.19,0,0,1-1.32,1.89h0a21.33,21.33,0,0,0-1.93,2.39,11.49,11.49,0,0,0-1.57,2.8h0a3.79,3.79,0,0,0-.14,1,2.28,2.28,0,0,0,.49,1.44,2.73,2.73,0,0,0,1.18.8,8.58,8.58,0,0,0,3,.41c1,0,2-.07,2.58-.07h.16q6.54.2,13.08.3c8.92.14,17.84.18,26.75.21,11.47,0,25.18.11,37.54.39-.67.83-1.34,1.67-2,2.53-1,1.37-3,4.12-4,5.68-.36.53-.6.9-.71,1.1a3,3,0,0,0-.41,1.45,2.18,2.18,0,0,0,.55,1.47,3.48,3.48,0,0,0,2,.89,15.56,15.56,0,0,0,2.57.18c.54,0,1,0,1.5,0s.9,0,1.33,0H352.79c.43,0,.89,0,1.36,0h0c.51,0,1,0,1.6,0a9.16,9.16,0,0,0,4.44-1l.47-.26a.59.59,0,0,0,.27-.35l.15-.52h0A8,8,0,0,0,361.42,134.41ZM218.19,41.73l.8-.17.35,0a5.44,5.44,0,0,1,.81.11,11.33,11.33,0,0,0,1.43.12l.57,0,.6,0,.29,0,.11,0,.29.05.07,0h0l.21.19,0,.06.05.1c.08.08.2.13.14.29a2.25,2.25,0,0,1-.08.24.39.39,0,0,1-.24.23l-.2.07a.58.58,0,0,1-.19,0h-.12a1.62,1.62,0,0,0-.62-.06,11.75,11.75,0,0,1-1.68-.1l-.36,0a9.9,9.9,0,0,1-1.8-.18l-.47-.11a.69.69,0,0,1-.31-.2.5.5,0,0,1-.15-.3C217.73,42,217.88,41.79,218.19,41.73ZM207.55,53.39h0a1.86,1.86,0,0,1,.47-.32,3.41,3.41,0,0,1,.46-.1c.3-.09.61,0,.91,0l.13,0h.14a4.85,4.85,0,0,1,1.7,0l.88,0h.32c.13,0,.26,0,.38,0H213q.63,0,1.26.06h.06l.72,0c.71,0,1.41.1,2.11.19l.32,0,.31,0h.07c.3,0,.61,0,.91.06h.06a1.21,1.21,0,0,1,.34.09,1,1,0,0,1,.36.26h0a.24.24,0,0,1,0,.39h0l-.09.08a1.6,1.6,0,0,1-1.09.45l-.69,0-.49,0c-.45-.07-.91-.12-1.37-.16l-.6-.06c-.29,0-.57-.07-.85-.12l-.78-.11c-.11,0-.23,0-.34,0h-.43a4.86,4.86,0,0,0-1.07.11,5.29,5.29,0,0,1-.79.08l-.62,0-.33.06-.16,0h-.21a3.7,3.7,0,0,0-.94,0,1.63,1.63,0,0,1-1.21-.25.35.35,0,0,1-.12-.15.52.52,0,0,1,0-.18A.64.64,0,0,1,207.55,53.39ZM217,59.53a1,1,0,0,1-.32.37.7.7,0,0,1-.21.11l-.16,0a10.56,10.56,0,0,1-1.37.12c-.26,0-.52,0-.78-.06-.51,0-1-.08-1.55-.14a9.17,9.17,0,0,0-1-.16l-.25,0a4.54,4.54,0,0,1-.72-.13l-.17,0-.18-.18h0a.47.47,0,0,1,.12-.41l0,0h0a.5.5,0,0,1,.12-.08h0a3.17,3.17,0,0,1,1.18-.22l.76,0,.69,0,.78,0c.5,0,1,0,1.5.08a7.77,7.77,0,0,1,1,.14.58.58,0,0,1,.22.08A.79.79,0,0,1,217,59.53Zm-14.3,3.7a1.2,1.2,0,0,1,.39-.29,2,2,0,0,1,.34-.12l.22-.06.34-.11.07,0a1.19,1.19,0,0,0,.26,0c.31,0,.63,0,.94,0h.11a5.73,5.73,0,0,0,.82,0l.72,0a11.48,11.48,0,0,1,1.17.07h.39l.18,0A.55.55,0,0,1,209,63a.6.6,0,0,1,.06.11.93.93,0,0,1,0,.13c0,.2,0,.31-.22.43a2.06,2.06,0,0,1-.26.12,2.27,2.27,0,0,1-.84.25h-.24v0h0l-.74,0c-.22,0-.44,0-.66,0h-1.53c-.22,0-.44,0-.66,0h0a3.13,3.13,0,0,1-.68-.12,1.3,1.3,0,0,1-.25-.1,3.07,3.07,0,0,1-.31-.17.24.24,0,0,1-.14-.2A.35.35,0,0,1,202.68,63.23Zm-8.41,5.31a.3.3,0,0,1,.08-.17h0l.21-.1.29-.06a1.72,1.72,0,0,1,1.12,0,1.94,1.94,0,0,0,.54,0l1.44.11.48,0,1.47.09.36,0h.11a2.19,2.19,0,0,0,.36,0l.75-.07h0l.77-.08.61,0,1.25-.09c.44,0,.87.1,1.31,0l.26,0h.14a6.18,6.18,0,0,0,.62.07c.44,0,.9,0,1.35,0l.77,0c.44,0,.88,0,1.32.11l.19,0c.31,0,.61,0,.91,0a9.32,9.32,0,0,1,1.67.23l.35.08a1.16,1.16,0,0,1,.41.24h0v.32a.71.71,0,0,1-.27.25.49.49,0,0,1-.28.06l-.44,0-1-.08h-.27v0l-.27,0-.8,0-1.23,0c-.31,0-.62,0-.93,0a14.89,14.89,0,0,1-1.77-.11l-.3,0a.83.83,0,0,0-.22,0,.51.51,0,0,0-.15.07l-.17,0a1.29,1.29,0,0,0-.69-.11l-.35,0c-.49,0-1,.17-1.48.21h-1.44L200,69.57c-.44,0-.88-.07-1.32-.12a5.79,5.79,0,0,0-.93,0,4.73,4.73,0,0,0-.52,0,1.87,1.87,0,0,1-.41,0h-.65c-.26,0-.53,0-.79,0a1.27,1.27,0,0,1-.39-.06,2.85,2.85,0,0,1-.54-.18.32.32,0,0,1-.1-.1A.8.8,0,0,1,194.27,68.54Zm-88.66-2.26.26-.25a.35.35,0,0,1,.19-.13l.18,0,.38,0,.55,0H108l.5,0a2,2,0,0,1,.34,0l.32,0,.19,0,.29,0a1,1,0,0,1,.62.33l0,.26a2.92,2.92,0,0,1-.37.24l-.08,0h0l-.12.05a1.17,1.17,0,0,1-.24.09,3.41,3.41,0,0,1-.78.11,10.72,10.72,0,0,1-2-.15l-.25-.08-.24-.08-.32-.14-.11-.21-.06-.12h0Zm-2.34,2.51a1,1,0,0,1,.65-.45l.17,0a6.11,6.11,0,0,1,1.54-.09,3.85,3.85,0,0,0,.48,0c.54,0,1.08,0,1.62,0a5.7,5.7,0,0,1,1,.17l.08,0a.45.45,0,0,1,.19.11l0,0a.56.56,0,0,1,0,.12h0a.36.36,0,0,1-.13.24.64.64,0,0,1-.29.19l-.32,0-.21,0a17.92,17.92,0,0,1-2.93,0c-.28,0-.56,0-.84,0l-.27,0a1.85,1.85,0,0,1-.41-.07,1.44,1.44,0,0,1-.4-.3ZM100.12,73a4,4,0,0,1,.59-.09,6.69,6.69,0,0,1,1,0l.44,0c.65,0,1.29,0,1.94,0a.67.67,0,0,1,.62.21l.3.09a.25.25,0,0,1,.22.17l0,.06-.07.19,0,.09a.27.27,0,0,1-.08.07,1,1,0,0,1-.63.24h-.21c-.29,0-.58,0-.86,0l-1.49-.11-.1,0h-.08l-.85,0-.64,0h-.11a.62.62,0,0,1-.48-.3s0,0,0-.07C99.67,73.13,99.87,73.06,100.12,73Zm-6.8,12.36a.12.12,0,0,1,.05,0l.31-.09,1.37-.1a3.58,3.58,0,0,1,1.13.09,2.53,2.53,0,0,0,.38.07c.21,0,.41,0,.62,0h.36a1.76,1.76,0,0,1,.9.28l.23.18a.49.49,0,0,1,.07.19.44.44,0,0,1-.38.44l-.13,0-.31,0-.18,0-2-.17-1.62-.11c-.18,0-.37,0-.56-.08a.18.18,0,0,1-.1,0c-.13-.06-.2-.2-.29-.3a.11.11,0,0,1,0-.1A.65.65,0,0,1,93.32,85.36ZM90.21,91.2a.47.47,0,0,1,.08-.14.45.45,0,0,1,.38-.14l.23,0,.32-.05h.63l.32,0,.93-.1.56,0h.22c.42,0,.83,0,1.23.07h.15a4.1,4.1,0,0,1,.49,0h0c.49,0,1,0,1.47.08s1.12.14,1.67.22l.1,0,.14.06.07.08a.21.21,0,0,1,.06.23.48.48,0,0,1-.14.16,1.2,1.2,0,0,1-.21.13,1.75,1.75,0,0,1-.32.12,11.53,11.53,0,0,1-1.93.22l-.34,0A8.79,8.79,0,0,1,95,92l-.47,0c-.64,0-1.28-.07-1.92-.11H92.5l-.64,0-1.38-.06c-.2,0-.31-.07-.35-.17A.5.5,0,0,1,90.21,91.2ZM86.79,91l.09,0h1.34l.14,0,.17,0,.1,0h0a1,1,0,0,1,.34.5c.06.27,0,.39-.31.41l-.59,0v0l-.95,0h-.21a.46.46,0,0,1-.21,0,.54.54,0,0,1-.22-.29,1.34,1.34,0,0,1-.07-.18.33.33,0,0,1,0-.14,0,0,0,0,0,0,0A.51.51,0,0,1,86.79,91Zm4.53,15.83c-.25,0-.5-.05-.74-.08s-.6-.07-.9-.12-.81-.12-1.21-.2l0,0a1,1,0,0,1-.33-.17A.19.19,0,0,1,88,106a.54.54,0,0,1,0-.11l.14-.22c.25-.05.49-.1.74-.13a4.68,4.68,0,0,1,.66,0,7.17,7.17,0,0,1,1.6.22,1.11,1.11,0,0,1,.41.23l.1.07a.36.36,0,0,1,.07.19h0a.89.89,0,0,1,0,.23A.48.48,0,0,1,91.32,106.79Zm5.07-6.65-1.23-.06c-.31,0-.62,0-.94,0a12.08,12.08,0,0,1-1.47-.09l-.29,0a1,1,0,0,0-.67.07l-.17,0-.09,0A1.4,1.4,0,0,0,91,100c-.13,0-.26,0-.38,0-.5,0-1,.16-1.48.2H87.44l-1.15-.07-1.17-.1h-.38a5.65,5.65,0,0,0-.92,0l-.3,0h-.1c-.17,0-.35,0-.53,0H81.67a1.81,1.81,0,0,1-.23,0,2.48,2.48,0,0,1-.59-.17l-.11,0a.62.62,0,0,1-.22-.54.51.51,0,0,1,.09-.32l.22-.1h0l.24,0a2.75,2.75,0,0,1,.56-.1,1.38,1.38,0,0,1,.56.08,1.94,1.94,0,0,0,.54.05l1.44.12.48,0c.49,0,1,0,1.47.09l.46,0a2.3,2.3,0,0,0,.37,0c.39,0,.78-.06,1.17-.1l.39,0c.62,0,1.24-.08,1.86-.14.44,0,.86.11,1.3.06l.27,0h.14c.2,0,.41.07.61.08.45,0,.91,0,1.35,0a16.18,16.18,0,0,1,2.09.13h.14a8.12,8.12,0,0,0,.86,0h.33a9,9,0,0,1,1.16.16l.64.13.12.06.16.09.13.09,0,.32a.58.58,0,0,1-.55.32c-.39,0-.79-.07-1.19-.1l-.27,0-.27,0v0l-.26,0Zm54.1,10.69-5.91,7.3-2.18,2.69c-4.78-.07-9.64-.09-14.51-.09h-7.15c-7.2,0-14.37,0-21.32-.24l-.13,0-.22,0a4.18,4.18,0,0,1-.54-.1,1.7,1.7,0,0,1-1-.69,2.14,2.14,0,0,1-.29-1.21,7.75,7.75,0,0,1,.66-2.84l0-.07C101,103.76,105.38,97,108.45,85a1.27,1.27,0,0,0,.24-.33,1.54,1.54,0,0,0,.12-.63,1.66,1.66,0,0,1,.06-.16l.15-.48.45-1.39a25.65,25.65,0,0,1,1-2.79h0a2.56,2.56,0,0,1,.29-.4,3.11,3.11,0,0,0,.45-.67h0c.71-1.63,1-3.55,1.62-5.15h0c.56-1.57,1.45-3,2-4.66,1-2.83,1.32-5.78,2.19-8.28a2,2,0,0,1,.39-.56,3.52,3.52,0,0,0,.62-.91h0c.4-1,.47-2.07.75-2.9.65-2,1.74-4.25,2.48-6.46.23-.7.41-1.27.61-1.76a4.53,4.53,0,0,1,.61-1A5.82,5.82,0,0,1,124.39,48c.61.77,1.15,1.68,1.8,2.55l.16.15a1.62,1.62,0,0,1,.47.47.55.55,0,0,0,.21.4,6,6,0,0,1,1.11,1.13.56.56,0,0,0,.21.38,4.65,4.65,0,0,1,1,1,.57.57,0,0,0,.26.41,1.56,1.56,0,0,1,.49.5,1.15,1.15,0,0,0,.28.6,1,1,0,0,0,.57.29,3.6,3.6,0,0,1,.75.76,1.5,1.5,0,0,0,.47.88c.24.23.47.34.58.45l.13.15.21.27a2.36,2.36,0,0,1,.71.73.54.54,0,0,0,.36.23,1.13,1.13,0,0,0,.34.76c.16.14.25.2.26.21a1.5,1.5,0,0,0,.68.89,5,5,0,0,1,.55.34l.08.12a.6.6,0,0,0,.22.32,3.59,3.59,0,0,1,.82.83,1,1,0,0,0,.05.2l.1.17h0a.61.61,0,0,0,.24.33A1.61,1.61,0,0,1,138,64a.53.53,0,0,0,.26.23,1.43,1.43,0,0,0,.21.47.85.85,0,0,0,.51.3,1.5,1.5,0,0,1,.43.44,1.23,1.23,0,0,0,.31.62c.13.15.11.14.11.14a.56.56,0,0,0,.27.41,1.55,1.55,0,0,1,.53.55h0a1.33,1.33,0,0,0,.61.55,1.75,1.75,0,0,1,.33.18V68a.56.56,0,0,0,.2.52,12,12,0,0,1,1.58,1.61.57.57,0,0,0,.28.42.74.74,0,0,1,.31.32,1.57,1.57,0,0,0,.25.62,2.39,2.39,0,0,1,.2.27l.19.25a3.59,3.59,0,0,1,.82.83,1.08,1.08,0,0,0,0,.21l.1.15h0a.64.64,0,0,0,.22.32,2.37,2.37,0,0,1,.65.65.59.59,0,0,0,.07.26.73.73,0,0,0,.29.27.74.74,0,0,0,.24.08,2.8,2.8,0,0,1,.56.58.56.56,0,0,0,.29.44.75.75,0,0,1,.28.28.56.56,0,0,0,.27.45,1.55,1.55,0,0,1,.53.55.53.53,0,0,0,.32.25l0,0a4.92,4.92,0,0,0,.23.6l.24.23a.73.73,0,0,1,.33.34h0a.93.93,0,0,0,.38.42,1.21,1.21,0,0,0,.42.14l.36.06a1.66,1.66,0,0,0,.06.16l.18.33c.13.24.31.53.5.84.39.62.86,1.35,1.18,1.93a3.64,3.64,0,0,1,.37.8.59.59,0,0,0,.3.39.82.82,0,0,1,.34.35h0a3.77,3.77,0,0,0,.61.76c.25.25.55.51.85.76a13,13,0,0,0,1.5,1.09,3.31,3.31,0,0,1,.77.77,1.28,1.28,0,0,0,.24.71c.08.13.05.08.06.12h0l0,0a1,1,0,0,0,.06.27l.08.18.22.33c.17.24.4.52.66.83a24.49,24.49,0,0,0,1.8,1.89,7.31,7.31,0,0,0,1.12.87,1.51,1.51,0,0,1,.47.47.91.91,0,0,0,.23.55.84.84,0,0,0,.55.25,1.34,1.34,0,0,1,.37.38Q157.15,102.58,150.49,110.83Zm35.55-8a1,1,0,0,1-.28.21,1.73,1.73,0,0,1-.37.16,4.36,4.36,0,0,1-1,.18l-.3,0c-.86.09-1.72.13-2.59.19-.6,0-1.22.07-1.82.08-1,0-2,0-2.93,0-.49,0-1,0-1.46-.06l-.81,0c-.61,0-1.21,0-1.82,0h-2.53l-2.32.05H166.5c-.36,0-.72,0-1.08.07a1.87,1.87,0,0,1-.92-.17c0-.2,0-.32,0-.41A1,1,0,0,1,165,103a12,12,0,0,1,1.89-.23l.65,0a5.61,5.61,0,0,1,.58,0l1.11,0h1l1.39,0h.34l.63,0,1.44,0c.77,0,1.53,0,2.3,0h.57l1.09,0c1-.07,1.93-.18,2.9-.24a13.5,13.5,0,0,1,1.57-.1,7,7,0,0,0,.9-.09l.39,0,.44,0a6.88,6.88,0,0,1,.91,0,1.65,1.65,0,0,1,.32.07l.11,0,.3.13C186.12,102.52,186.18,102.69,186,102.86Zm2.13-20H186l-.37-.11-.16-.08-.08,0-.26-.15a.37.37,0,0,1-.13-.17.25.25,0,0,1,.06-.19,1.08,1.08,0,0,1,.72-.56c.11,0,.21-.06.32-.08h.18l.13-.12a.57.57,0,0,0,.29.07,1,1,0,0,0,.17,0l.45,0h1c.28,0,.56,0,.84,0s.59,0,.88,0l.5,0,.51,0,.93,0,.23,0h.13l1.13.07.38,0h.44c.68,0,1.36,0,2,0s1.18,0,1.78.1a1.41,1.41,0,0,0,.2,0h.34a7,7,0,0,1,1.12-.07h.62c.47,0,.94,0,1.4,0a10.24,10.24,0,0,1,1.36.08,3.29,3.29,0,0,1,.61.12l.41.11.22.07a.64.64,0,0,1,.47.34l.13.14h0c-.13.5-.51.64-.94.72a5.57,5.57,0,0,1-2.43-.27,8.77,8.77,0,0,0-1.44-.3,2.72,2.72,0,0,0-.57,0,4,4,0,0,0-.49,0l-.73.07-.7.07-.41,0-.89,0h-.24l-.88,0h-.43l-1-.07-.95-.08h-.17c-.32,0-.65,0-1,0s-.66,0-1,0h-.16l-1,.06c-.22,0-.44,0-.66,0s-.4,0-.6.06ZM196.78,103a3.35,3.35,0,0,1-1.53.33l-1.58,0h-.41c-.82,0-1.64,0-2.46,0l-.27,0a5.5,5.5,0,0,1-.69-.11l-.25,0-.24-.05c-.34-.06-.42-.16-.39-.42a.31.31,0,0,1,0-.12.36.36,0,0,1,.18-.12.83.83,0,0,1,.25-.06l.32,0,.28,0c.25,0,.44,0,.63,0s.64,0,1,0a22.48,22.48,0,0,1,2.85.15c.43.06.89,0,1.33,0a4.59,4.59,0,0,1,1,.22.18.18,0,0,1,.11.07C197,102.8,196.93,102.94,196.78,103ZM331,132.93c-25.43,0-50.81-.07-76.14-.07q-28.7,0-57.32.17l-.25-.23-.13-.35.06-.26a.55.55,0,0,1,.26-.26.59.59,0,0,0,.3-.59v-.16a.45.45,0,0,1,.16-.39c.11-.12.34-.27.59-.54a.58.58,0,0,0,.14-.42v-.09a3.06,3.06,0,0,1,.42-1.36,4,4,0,0,0,.54-1.72,2.47,2.47,0,0,0-.14-.73,7.86,7.86,0,0,0,1.27-2.53.53.53,0,0,1,.24-.25l.15-.11a1.7,1.7,0,0,0,.39-.75,6.81,6.81,0,0,0,.11-.73,2.29,2.29,0,0,1,.18-.91h0l.1-.13.13-.23c.1-.17.2-.39.32-.63.23-.49.51-1.12.78-1.77.53-1.25,1-2.54,1.24-3.13a.53.53,0,0,1,.24-.25.51.51,0,0,0,.24-.28l.17-.16a.73.73,0,0,0,.15-.37,2,2,0,0,1,.49-.51.58.58,0,0,0,.14-.05.8.8,0,0,0,.27-.32,1.12,1.12,0,0,0,.11-.55v-.05a.79.79,0,0,1,.19-.17.59.59,0,0,0,.3-.39c.41-2,1-3.77,1.56-5.72a2.57,2.57,0,0,0,1-1.1,5.8,5.8,0,0,0,.43-1.62,6.26,6.26,0,0,1,.69-2.69h0a1.07,1.07,0,0,0,.28-.67,1.27,1.27,0,0,0-.29-.73c-.1-.11-.18-.22-.26-.32h0a.6.6,0,0,1,.06-.29l.16-.18c.17-.14.49-.27.83-.53l.16-.2.24-.25a6.92,6.92,0,0,0,.91-.31,1,1,0,0,0,.34-.26.7.7,0,0,0,.15-.42.69.69,0,0,0-.24-.52l-.27-.16h0a.52.52,0,0,1-.19-.17.34.34,0,0,1,0-.15s.07-.08.18-.23a.83.83,0,0,0,.18-.5l0-.1a10.11,10.11,0,0,0,.18-1.33,2.89,2.89,0,0,0-.13-.78A7.18,7.18,0,0,0,214,88.77a.58.58,0,0,1,.22-.22l.25-.25a4.6,4.6,0,0,0,.34-1.28,2.65,2.65,0,0,1,.23-.86l.18-.14a.55.55,0,0,0,.38-.3.6.6,0,0,1,.25-.27.51.51,0,0,0,.27-.29,6.3,6.3,0,0,0,.3-1.75,4.69,4.69,0,0,1,.23-1.37c.09-.19.15-.25.27-.3a.59.59,0,0,0,.35-.39,2.87,2.87,0,0,0,.11-.78,2.91,2.91,0,0,0-.14-.89,2.3,2.3,0,0,1-.08-.4,4.6,4.6,0,0,0,.86-1.18c.3-.57.59-1.18.83-1.63a3.14,3.14,0,0,1,.35-.56h0v0l.21-.11a1.2,1.2,0,0,0,.25-.51,2.27,2.27,0,0,0,0-.44c0-.15,0-.28,0-.41h0a5.07,5.07,0,0,0,.71-.16.58.58,0,0,0,.13-1l-.15-.21a1.48,1.48,0,0,1-.07-.46,2.68,2.68,0,0,1,.2-.95,6,6,0,0,0,.68,0,2.49,2.49,0,0,0,.57-.06,1,1,0,0,0,.54-.32.77.77,0,0,0,.16-.48,1.22,1.22,0,0,0-.41-.82,4.48,4.48,0,0,0-.44-.38,3.86,3.86,0,0,0-.06-2.62l.38-.17a1.31,1.31,0,0,0,.47-.36.54.54,0,0,0,.13-.4c0-.15,0-.29,0-.43a5.86,5.86,0,0,1,.5-2.36,22.47,22.47,0,0,0,.8-2.11,2.11,2.11,0,0,0,.59-.6,5.78,5.78,0,0,0,.52-1.12,25.17,25.17,0,0,0,.67-2.49c.11-.49.21-.92.28-1.11l0-.13a13.88,13.88,0,0,1,1.57-4.21h0l.24-.25a.56.56,0,0,0,.3-.41c.07-.34.19-.67.3-1.07a4.69,4.69,0,0,0,.21-1.4v-.1a.58.58,0,0,0-.3-.5l-.19-.2V47.5l.27-.11a2,2,0,0,0,1-.55.57.57,0,0,0,.13-.4v-.28a5.08,5.08,0,0,1,.47-2,7.45,7.45,0,0,0,.67-2.27h0l0-.16a.8.8,0,0,0-.21-.54l-.05,0a1.89,1.89,0,0,0,.32-.31,4.22,4.22,0,0,0,.45-.81c.25-.58.46-1.25.65-1.75a2.35,2.35,0,0,1,.28-.61.56.56,0,0,0,.24-.24A28.7,28.7,0,0,0,234,32.28a15.11,15.11,0,0,1,1.81-4.58l0-.07a.57.57,0,0,1,.26-.27.58.58,0,0,0,.3-.41c0-.25.08-.23.12-.25a1,1,0,0,1,.43-.06h.33a2,2,0,0,0,1-.18.58.58,0,0,0,.24-.76.93.93,0,0,0-.52-.48,1.66,1.66,0,0,0-.49-.12l-.4,0a13.77,13.77,0,0,1,1.27-4.77.57.57,0,0,0,0-.55.59.59,0,0,0-.46-.31,7,7,0,0,1-.91-.13l.51-.15.2-.11A10.27,10.27,0,0,0,239,18a2.91,2.91,0,0,0,.84-1.83v-.11a1,1,0,0,0-.4-.72l0,0,.2,0a1.17,1.17,0,0,0,.6-.33.63.63,0,0,0,.14-.4v-.05a1.63,1.63,0,0,1,.11-.59c.07-.21.17-.44.25-.76a.58.58,0,0,0-.11-.49.69.69,0,0,0-.22-.16l-.13-.15a.75.75,0,0,0-.5-.18h-.11c-.38,0-.76,0-1.05,0a1.29,1.29,0,0,1-.48-.1l0,0a2.16,2.16,0,0,1,.64-.13,17,17,0,0,0,1.9-.16,1.78,1.78,0,0,0,1.2-.77,1.67,1.67,0,0,0,.24-.92l0-.34h0a.69.69,0,0,0-.28-.49.35.35,0,0,0-.08,0h0a2.15,2.15,0,0,1,.13-.36h0a.58.58,0,0,0,.58-.43c.13-.49.24-1,.36-1.5a3,3,0,0,1,.43-1l.21-.14h0v0a2.83,2.83,0,0,0,.72.78c.55.39,1.18.73,1.68,1.12a2.42,2.42,0,0,1,1,1.26.55.55,0,0,0,.29.37l.25.26.26.26a2.14,2.14,0,0,1,.73.76,7,7,0,0,0,.88,1.2l.1.08a1.27,1.27,0,0,1,.37.36,1.05,1.05,0,0,0,.2.56,1.29,1.29,0,0,0,.46.36c.25.1.41.15.46.18a8.59,8.59,0,0,0,2.22,2.9l.06,0a1.3,1.3,0,0,1,.37.37.56.56,0,0,0,.29.42.5.5,0,0,1,.21.22,1.5,1.5,0,0,0,.15.48,1.63,1.63,0,0,0,.36.44,3.21,3.21,0,0,1,.46.38l.19.16a.56.56,0,0,1,.24.24,1.07,1.07,0,0,0,.29.58,1.32,1.32,0,0,0,.62.32l.46.09a2.7,2.7,0,0,0,2,2.23,4.53,4.53,0,0,0,.08.49,2.44,2.44,0,0,0,.53,1.07,1.39,1.39,0,0,0,.64.39,1.27,1.27,0,0,1,.36.37,1.77,1.77,0,0,0,.4,1.07,1.9,1.9,0,0,0,.9.51.64.64,0,0,1,.2.2.59.59,0,0,0,.24.42,2,2,0,0,1,.59.6,16.75,16.75,0,0,0,2.06,2.65l.17.13a.66.66,0,0,1,.25.27.55.55,0,0,0,.31.27h0l.07.1a4.56,4.56,0,0,0,.32.5l.17.14.25.26.11.15.12.13.15.11a.52.52,0,0,1,.22.22.78.78,0,0,0,.07.25.73.73,0,0,0,.29.27.58.58,0,0,0,.16,0,5.18,5.18,0,0,1,.86.89,1.56,1.56,0,0,0,.15.49,1.41,1.41,0,0,0,.44.49,4.77,4.77,0,0,0,.63.35,5.31,5.31,0,0,0,1.21,1.86A6.71,6.71,0,0,1,272,38.46l.17.21a5.35,5.35,0,0,1,.94,1,.57.57,0,0,0,.2.34,3,3,0,0,1,.74.76.55.55,0,0,0,.35.22,4.38,4.38,0,0,1,.79.82l0,.06a13.47,13.47,0,0,1,2.3,3l.25.25.25.26.14.19a5.12,5.12,0,0,1,1.12,1.63l.17.2a2.75,2.75,0,0,1,.67.69.56.56,0,0,0,.23.35,1.88,1.88,0,0,1,.58.61l.08.1.13.12,0,0a5.08,5.08,0,0,1,1,1l.06.07a4.8,4.8,0,0,0,.59.47,1.44,1.44,0,0,1,.33.33l.14.15a5.24,5.24,0,0,1,.93,1,.54.54,0,0,0,.23.36,2.14,2.14,0,0,1,.53.55.58.58,0,0,0,.27.39.55.55,0,0,1,.26.26.57.57,0,0,0,.51.32h.08a.63.63,0,0,1,.11.12,1.41,1.41,0,0,0,.32.82,1.89,1.89,0,0,1,.23.28l.25.27.25.25a.6.6,0,0,0,.32.29l0,0a2,2,0,0,1,.16.33l.25.25.25.25a4.7,4.7,0,0,0,.84,1.65,9.8,9.8,0,0,0,1.47,1.58,3,3,0,0,0,.76.48,1.61,1.61,0,0,0,.35.29.9.9,0,0,1,.22.13h0l.16.23a5,5,0,0,1,1,1,2.85,2.85,0,0,0,.37.7,3.84,3.84,0,0,1,.36.53l.22.24a1.12,1.12,0,0,1,.4.41l0,.11a1.07,1.07,0,0,0,.21.58.8.8,0,0,0,.41.23,2.88,2.88,0,0,1,.66.69l0,0a16.3,16.3,0,0,0,1.69,1.73l.12.08.26.27a.56.56,0,0,0,.24.24,1.23,1.23,0,0,0,.19.36l.18.17.27.26.12.17a15.42,15.42,0,0,1,1.2,1.49l.17.14a.57.57,0,0,1,.26.27l.1.14a6.49,6.49,0,0,1,.73,1.08,3.43,3.43,0,0,0,1.11,1.18h0a2.75,2.75,0,0,1,.73.75l.23.2h0a.53.53,0,0,0,.16.2,4,4,0,0,1,.88.9h0a2.92,2.92,0,0,0,.71,1,3.48,3.48,0,0,1,.63.73l.24.24.22.23a2.28,2.28,0,0,0,.76,1.4c.39.34.79.54,1.06.76a8,8,0,0,1,1.19,1.21.8.8,0,0,0,.21.47.82.82,0,0,0,.49.23,1.24,1.24,0,0,1,.28.28v.2a.57.57,0,0,0,.27.49,1.21,1.21,0,0,1,.4.41,1,1,0,0,0,.18.42c.1.14.17.2.17.21a.52.52,0,0,0,.24.37,2.11,2.11,0,0,1,.59.6.56.56,0,0,0,.33.25,2.37,2.37,0,0,1,.86.53,3.91,3.91,0,0,0,1.16.71h0a.7.7,0,0,1,.2.18,1.33,1.33,0,0,0,.46,1c.23.21.42.32.48.39l.07.11a.54.54,0,0,0,.3.4.59.59,0,0,1,.23.24,4.25,4.25,0,0,0,.87,1.7,6.4,6.4,0,0,1,.9,1.28l.16.21A5.9,5.9,0,0,1,319.19,93l.18.15a6,6,0,0,1,2.05,2.25l.22.21a.59.59,0,0,1,.26.26h0a4.71,4.71,0,0,0,1.58,2h0a2.31,2.31,0,0,1,.53.55.65.65,0,0,0,.06.21.71.71,0,0,0,.28.27l.18.06a5.12,5.12,0,0,1,.91,1,8,8,0,0,0,2.67,3.38l.06,0a.59.59,0,0,1,.24.23,1.87,1.87,0,0,0,.19.54,2.93,2.93,0,0,1,.17.31.59.59,0,0,0,.27.33.59.59,0,0,1,.27.27l.14.18c.46.39.9.82,1.34,1.26l.09.07a1.91,1.91,0,0,1,.59.61,1.27,1.27,0,0,0,.36.54l.3.22h0a.58.58,0,0,0,.31.47.58.58,0,0,1,.24.25c0,.1.08.23.15.38a1.17,1.17,0,0,0,.42.53,1.12,1.12,0,0,0,.32.12h0l.26.26a.55.55,0,0,0,.3.28l.05.06a.6.6,0,0,0,.28.31.53.53,0,0,1,.25.26.63.63,0,0,0,.36.3l.07.1a3.45,3.45,0,0,0,.31.61,1.22,1.22,0,0,0,.51.39h0l.21.22a.56.56,0,0,0,.19.36,9.57,9.57,0,0,1,1.33,1.37,1.55,1.55,0,0,0,.14.46,1.59,1.59,0,0,0,.4.47c.29.22.52.33.61.43l.08.16a.61.61,0,0,0,.3.4.62.62,0,0,1,.26.27.57.57,0,0,0,.39.28,1.34,1.34,0,0,1,.37.38,1.78,1.78,0,0,0,.27.57,1,1,0,0,1,.2.28l.27.29a.68.68,0,0,1,.26.27h0a8,8,0,0,0,1.43,1.79,6.17,6.17,0,0,1,1.2,1.55l.25.25a.6.6,0,0,1,.25.27.57.57,0,0,0,.44.3.46.46,0,0,1,.17.19,1.72,1.72,0,0,0,.1.39,1.08,1.08,0,0,0,.46.58,1.05,1.05,0,0,0,.38.12l.21.22h0a2.15,2.15,0,0,0,.75.92,6.44,6.44,0,0,1,.66.5l.18.3.21.3a3.77,3.77,0,0,1,.83.86,1.17,1.17,0,0,0,.05.2,1,1,0,0,0,.28.32,2,2,0,0,0,.38.21h0l.15.13.25.26h0a2.67,2.67,0,0,0,.82,1c.25.22.34.32.38.55a.6.6,0,0,0,.24.38,2.93,2.93,0,0,1,.74.75l.06.08.12.13.1.08a2,2,0,0,1,.49.51v.05a.56.56,0,0,0,.24.46,2.7,2.7,0,0,1,.67.68l0,.08Z"/><path class="cls-5" d="M402.92,180.53a34.62,34.62,0,0,0-7.76-14.67c-.59-.7-1.51-1.72-1.33-2.7.12-.69.87-1.11,1.44-1.34.36-.15.8-.32.72-.79,0-.16-.2-.51-.39-.51H353.37c-1.3,2.93-2.08,4.43-3.42,7.35a9.35,9.35,0,0,1,1.83,0,2.92,2.92,0,0,1,1.77.63,2.65,2.65,0,0,1,.72,2.08v.06c0,.3,0,62.88,0,63.16a7.09,7.09,0,0,1-.8,3.69,5.77,5.77,0,0,1-3,2.56c-.64.22-.63,1.26.11,1.26H383.5c.05-.06,3.32-3.79,4.68-5.58a89.86,89.86,0,0,0,9.21-14.68A71.28,71.28,0,0,0,404.25,198a52,52,0,0,0-1.33-17.44m-17.09,29.39a53.1,53.1,0,0,1-10.62,18.38c-1.36,1.56-2.53,2.74-2.53,2.74h-3.84l0-63.07v-.15H369l6.28,0a8.83,8.83,0,0,1,3.26,1.9,28,28,0,0,1,8.91,14.84,44.55,44.55,0,0,1,1.17,9.83,49.17,49.17,0,0,1-2.8,15.51"/><path class="cls-5" d="M346.18,240a6.06,6.06,0,0,1-3.8-4.86s0-70.06,0-74.65H326.86c-1.3,2.93-2.08,4.46-3.41,7.38h1.27a3.4,3.4,0,0,1,2.32.64,2.59,2.59,0,0,1,.72,2.06v.06c0,3.53,0,62.67,0,62.89,0,2.72-.89,5.49-3.7,6.49-.62.22-.64,1.28.11,1.28h21.9a.53.53,0,0,0,.56-.55.74.74,0,0,0-.45-.73"/><path class="cls-5" d="M319.87,240a5.18,5.18,0,0,1-1.57-.91c-2.79-2.2-2.06-5.62-1.74-8.67a102.8,102.8,0,0,0,.06-18.4,132.05,132.05,0,0,0-4.38-25c-.91-3.35-2.08-6.62-3.24-9.89-.7-1.95-3.66-7.25-1.74-9.1a2.69,2.69,0,0,1,2.05-.57c.36,0,1.61.17,1.85.23l-3.41-7.23H295.08c-3.77,1-8.06,5.11-10.64,8.42a47.24,47.24,0,0,0-3.95,6.81,47.54,47.54,0,0,0-3.94-6.81c-2.67-3.42-6.44-7-10.64-8.42H253.24l-3.42,7.23c1.36-.18,3.71-.72,4.32,1,.53,1.55-.37,3.56-.91,5-1.68,4.56-3.3,8.9-4.49,13.26a132.05,132.05,0,0,0-4.38,25,102.8,102.8,0,0,0,.06,18.4c.07.67.18,1.63.26,2.47.23,2.3-.08,4.69-2,6.2a5.1,5.1,0,0,1-1.58.91c-.59.22-.67,1.28.11,1.28h21.9c.72,0,.74-1.05.11-1.28-2.81-1-3.73-3.91-4.33-6.54a75.93,75.93,0,0,1-1-12.78,99.81,99.81,0,0,1,1.68-17.42,115.93,115.93,0,0,1,3.13-13.38,96.94,96.94,0,0,1,4.74-12.45l.15.23a52.42,52.42,0,0,1,5.77,11.63c2.27,6.88,2.16,13.7,2.27,20,0,.24-.11,3.61-.28,10l9.44-4.07a120.43,120.43,0,0,1,2.31-24.23,43.31,43.31,0,0,1,6.19-13.3l.16-.24.11.26a114.26,114.26,0,0,1,7.8,25.52A105.53,105.53,0,0,1,303,218.22a68,68,0,0,1-.93,15.28c-.52,2.57-1.55,5.56-4.33,6.53a.65.65,0,0,0,.11,1.28h21.9a.64.64,0,0,0,.59-.6.68.68,0,0,0-.49-.68"/><path class="cls-5" d="M396.34,235.19a3.14,3.14,0,0,0,0,6.28,3.14,3.14,0,1,0,0-6.28m1.7,4.89a2.45,2.45,0,0,1-3.39,0,2.59,2.59,0,0,1,0-3.5,2.45,2.45,0,0,1,3.39,0,2.59,2.59,0,0,1,0,3.5"/><path class="cls-5" d="M397.18,238.54a.87.87,0,0,0,.5-.8,1,1,0,0,0-1.07-1h-1.42v3.2H396v-1.25h.4l.51,1.25h.87l-.61-1.36Zm-.38-.52a.41.41,0,0,1-.31.13H396v-.83h.54a.41.41,0,0,1,.31.13l.12.29Z"/><path class="cls-5" d="M166.28,197.42a27,27,0,0,0,11.39-15.28,24.2,24.2,0,0,0-.22-13,16.53,16.53,0,0,0-1.19-3c-.44-.85-1.31-1.75-1.22-2.77.07-.87,1-1.33,1.7-1.58a.64.64,0,0,0,.13-1.18H129.4l-3.4,7.32a7.48,7.48,0,0,1,2.08-.24,2.28,2.28,0,0,1,2,.74,1.88,1.88,0,0,1,.41,1v64.54a6.53,6.53,0,0,1-2.22,5.35,5,5,0,0,1-1.57.9.65.65,0,0,0-.47.75.62.62,0,0,0,.58.5h22a.63.63,0,0,0,.59-.53.65.65,0,0,0-.48-.72,5.17,5.17,0,0,1-1.58-.9,5.9,5.9,0,0,1-2.17-4.54V204L169,241.34h12.7l-21.19-40.73a49.78,49.78,0,0,0,5.82-3.19m-19.23,2.19a16.79,16.79,0,0,1-2,.83V167.81h9a6.92,6.92,0,0,1,4,1.57c2,1.57,2.82,4.42,2.85,6.86.08,5.51-2.23,11.09-5.38,15.53a24.47,24.47,0,0,1-8.53,7.84"/><path class="cls-5" d="M237.28,240.05a5.7,5.7,0,0,1-3-2.59,6.61,6.61,0,0,1-.81-2.93s0-66.85,0-69.19a7.61,7.61,0,0,1,.21-2.06,2.22,2.22,0,0,1,1.48-1.48c.62-.22.63-1.26-.11-1.26h-40a.33.33,0,0,0-.35.35c0,.27.47.41.67.53s.59.42.88.63a3.53,3.53,0,0,1,.89,4.59c-2.09,3.07-4.46,5.94-6.44,9.08A53.38,53.38,0,0,0,183.06,197c-.15,1.13-.27,2.25-.38,3.39h-3.33c-3.06,4.47-4.46,6.47-6.31,9.21h9.8a18.73,18.73,0,0,0,.34,3.08c1.29,8.34,5,16.14,7.27,20.65a9.22,9.22,0,0,1,1.14,3.87,3.45,3.45,0,0,1-1.47,2.53c-.31.27-.92.47-.87,1a.62.62,0,0,0,.59.56h21.42a.62.62,0,0,0,.6-.62c0-.29-.29-.5-.52-.65l-1.25-.83a25.8,25.8,0,0,1-6.9-8,47.82,47.82,0,0,1-4.32-9.77l-.06-.21a58.82,58.82,0,0,1-1.5-5.84,49.41,49.41,0,0,1-.77-5.7h17.7c1.8-2.6,4.56-7.06,4.56-7.06V234.1a6.57,6.57,0,0,1-.65,3.37,5.86,5.86,0,0,1-3,2.58c-.62.22-.64,1.28.11,1.27h21.9a.65.65,0,0,0,.48-1,.68.68,0,0,0-.37-.25M218.83,168c0,.48,0,32.45,0,32.45h-22.4v-.16a48.38,48.38,0,0,1,5.6-19.87,30.89,30.89,0,0,1,5.55-7.12c2.49-2.36,4.95-4.42,7.38-5.44l0,0h3.86Z"/><path class="cls-5" d="M63.88,159.86c-4.4-6.79-11.6-11.45-20.81-13.49a41.51,41.51,0,0,0-25.18,2.42,31.18,31.18,0,0,0-11.28,8.13C2.57,161.56.44,166.16.07,171A26.06,26.06,0,0,0,1.88,182.6,25.47,25.47,0,0,0,4.72,188,26.2,26.2,0,0,0,8,191.93a23.17,23.17,0,0,0,3,2.43,20.83,20.83,0,0,0,3,1.72c.28.13,1.58.66,1.66.69s3.65-3.35,5.89-5.44a16.14,16.14,0,0,0,2.32-2.81l.58-1.21,0,1.34c0,.26.12,44,.12,45.23a7.07,7.07,0,0,1-.8,3.7,5.14,5.14,0,0,1-1.42,1.65,5.35,5.35,0,0,1-1.57.9.65.65,0,0,0-.39,1c.28.45,1.3.29,1.79.29H42.93a.63.63,0,0,0,.57-.46.65.65,0,0,0-.46-.79,5.26,5.26,0,0,1-1.58-.9,5.1,5.1,0,0,1-1.41-1.65,6.18,6.18,0,0,1-.76-2.89l0-20,.17-.08A87.39,87.39,0,0,0,49,209a64.58,64.58,0,0,0,9.86-8.14A34.73,34.73,0,0,0,66,190.4a32.37,32.37,0,0,0,2.8-15.23,31.24,31.24,0,0,0-4.92-15.31m-8.35,20a27.08,27.08,0,0,1-3.6,12.33c-2.46,4.1-5.18,6.65-11.17,10.87l-1.54,1.06V159.34H23.39L20,166.23c1.62-.2,4.39-.54,4.47,1.83,0,.55-.07,15.13,0,18L23.87,185a3.6,3.6,0,0,0-.72-.88c-.28-.25-.76-.68-1.11-.31a2.16,2.16,0,0,1-.54.55,4.26,4.26,0,0,1-3.53,0,6.85,6.85,0,0,1-3.41-3,17.12,17.12,0,0,1,2.72-21.74A20.81,20.81,0,0,1,28.7,154a27.94,27.94,0,0,1,4.13-.31c8.71,0,17.89,5.63,21.05,14a30.2,30.2,0,0,1,1.65,12.12"/><path class="cls-5" d="M103.26,160.52l-3.39,7.31c1.19-.16,3.17-.68,4,.49a3,3,0,0,1,.42,1.8c0,.28,0,38.53,0,41v.08l-.08.05a11,11,0,0,1-5.56,1.44A10.67,10.67,0,0,1,92,210.44a13.87,13.87,0,0,1-3.85-4.6,21.34,21.34,0,0,1-2.31-9.4c0-6.91,1.85-14.51,6.34-24.7,1.66-3.78,3.44-7.51,5.25-11.22H77.48L74,167.85c1.18-.15,3.22-.68,4.05.5,1,1.4-.13,3.57-.61,5-.69,2-1.41,4.06-2,6.13a64.44,64.44,0,0,0-2.79,18.13,37.26,37.26,0,0,0,1.13,9.87,18.75,18.75,0,0,0,6.33,9.43c6.17,5.32,16.5,7,24,3.59l.25-.11,0,.27a19.91,19.91,0,0,1-3.31,8.17,18.22,18.22,0,0,1-5.93,5.57,18.74,18.74,0,0,1-7,2.47c-1,.15-.71,1-.24,1.57.69.87,1.36,1.77,2,2.67.4.54,1.11,1.93,1.8,2.13,2.92.84,6.58-.18,9.32-1.24a30.2,30.2,0,0,0,13.47-10.56,24.53,24.53,0,0,0,4.14-9.09,22.57,22.57,0,0,0,.45-4.72c0-.48,0-57.11,0-57.11Z"/><path class="cls-5" d="M86.76,279.81a8.11,8.11,0,0,0,.7-.55A6.72,6.72,0,0,0,89,277.44a8.08,8.08,0,0,0,1-4,9,9,0,0,0-2.47-6.55c-1.62-1.64-4-2.49-7.18-2.52H68v32.19H81.34a8.63,8.63,0,0,0,6.44-2.66A9.37,9.37,0,0,0,90.45,287a9.68,9.68,0,0,0-1.3-4.89A6.72,6.72,0,0,0,86.76,279.81Zm-12.4,3.29h5.9a3.38,3.38,0,0,1,3.85,3.61,3.76,3.76,0,0,1-.93,2.55,3.69,3.69,0,0,1-2.91,1.06H74.36Zm8.35-7a3.62,3.62,0,0,1-2.87,1H74.36v-6.81h5.46a4.09,4.09,0,0,1,2.91.92,3.51,3.51,0,0,1,.91,2.47A3.32,3.32,0,0,1,82.71,276.14Z"/><path class="cls-5" d="M121.34,273.73a9.13,9.13,0,0,0-3.24-7.16,9.83,9.83,0,0,0-6.6-2.22H99.08v32.19h6.34v-13h4.14l6.07,13h7.43l-7-13.93C119.5,280.89,121.28,277.92,121.34,273.73Zm-6.09,0a3.85,3.85,0,0,1-1,2.72,3.91,3.91,0,0,1-3,1.17h-5.79v-7.31h6a4.14,4.14,0,0,1,2.7.75A3.14,3.14,0,0,1,115.25,273.74Z"/><polygon class="cls-5" points="130.14 296.54 150.78 296.54 150.78 290.32 136.48 290.32 136.48 283.3 148.69 283.3 148.69 277.34 136.48 277.34 136.48 270.57 150.78 270.57 150.78 264.35 130.14 264.35 130.14 296.54"/><polygon class="cls-5" points="181.14 282.92 176.25 264.35 171.57 264.35 166.66 282.92 162.68 264.35 156.02 264.35 163.8 296.54 168.99 296.54 173.91 277.41 178.81 296.54 184.01 296.54 191.8 264.35 185.14 264.35 181.14 282.92"/><rect class="cls-5" x="199.43" y="264.35" width="6.34" height="32.19"/><polygon class="cls-5" points="233.06 283.62 221.17 264.35 215.5 264.35 215.5 296.54 221.85 296.54 221.85 277.27 233.72 296.54 239.4 296.54 239.4 264.35 233.06 264.35 233.06 283.62"/><path class="cls-5" d="M256.35,272.39a4.69,4.69,0,0,1,1.54-1.29,5,5,0,0,1,2.23-.53,4.69,4.69,0,0,1,3,1,5.85,5.85,0,0,1,1.7,2.7l.2.68h6.56l-.2-1.12a12.58,12.58,0,0,0-3.66-6.89,11.52,11.52,0,0,0-13.89-1,11.14,11.14,0,0,0-3.69,4,9.63,9.63,0,0,0-1.11,3.22,81.16,81.16,0,0,0,0,14.4,9.56,9.56,0,0,0,.46,1.83c.18.43.38.88.61,1.38a11.51,11.51,0,0,0,10.06,6,11.14,11.14,0,0,0,8.11-3.43,11.81,11.81,0,0,0,3.28-8.27V278H259.23v6.22h6v.62a5.49,5.49,0,0,1-1.48,4,4.64,4.64,0,0,1-3.6,1.53,4.26,4.26,0,0,1-2.27-.58,4.49,4.49,0,0,1-1.57-1.3,4.28,4.28,0,0,1-.93-2.13,36.36,36.36,0,0,1-.3-5.87,37.72,37.72,0,0,1,.3-5.93A4.3,4.3,0,0,1,256.35,272.39Z"/><path class="cls-5" d="M311.25,286.74c-1.08,2.41-2.63,3.58-4.74,3.58a4.26,4.26,0,0,1-2.27-.58,4.49,4.49,0,0,1-1.57-1.3,4.28,4.28,0,0,1-.93-2.13,36,36,0,0,1-.31-5.87,37.33,37.33,0,0,1,.31-5.93,4.37,4.37,0,0,1,1-2.12,4.84,4.84,0,0,1,1.55-1.29,5,5,0,0,1,2.23-.53,4.67,4.67,0,0,1,3,1,5.79,5.79,0,0,1,1.71,2.69l.2.68H318l-.21-1.12a12.5,12.5,0,0,0-3.65-6.89,11.55,11.55,0,0,0-13.9-1,11.23,11.23,0,0,0-3.69,4,9.33,9.33,0,0,0-1.11,3.22,81.16,81.16,0,0,0,0,14.4,8.71,8.71,0,0,0,.46,1.83c.18.43.38.88.61,1.38a11.52,11.52,0,0,0,10,6,11.23,11.23,0,0,0,7.23-2.46,12.42,12.42,0,0,0,4-7l.26-1.16H311.5Z"/><path class="cls-5" d="M345.32,270.07a11,11,0,0,0-10-6A10.89,10.89,0,0,0,329,266a11.3,11.3,0,0,0-3.69,4,9.69,9.69,0,0,0-1.11,3.23,83.88,83.88,0,0,0,0,14.41,9.56,9.56,0,0,0,.46,1.83c.18.43.38.88.62,1.38a10.89,10.89,0,0,0,3.71,4,11.11,11.11,0,0,0,6.35,1.92,11.28,11.28,0,0,0,6.35-1.91,10.68,10.68,0,0,0,3.59-3.95,8.21,8.21,0,0,0,1.17-3.33,95.73,95.73,0,0,0,0-14.37A7.88,7.88,0,0,0,345.32,270.07Zm-13.83,2.33a4.6,4.6,0,0,1,1.54-1.3,5,5,0,0,1,2.23-.53,5.33,5.33,0,0,1,2.32.52,5.37,5.37,0,0,1,2.5,3.43,39.64,39.64,0,0,1,.28,5.92,38.47,38.47,0,0,1-.28,5.87,4.64,4.64,0,0,1-1,2.2,4.2,4.2,0,0,1-1.48,1.26,4.79,4.79,0,0,1-4.56,0,4.49,4.49,0,0,1-1.57-1.3,4.28,4.28,0,0,1-.93-2.13,36.36,36.36,0,0,1-.3-5.87,37.72,37.72,0,0,1,.3-5.93A4.26,4.26,0,0,1,331.49,272.4Z"/><rect class="cls-5" x="354.61" y="290.32" width="6.09" height="6.22"/></g></g></svg>