<svg xmlns="http://www.w3.org/2000/svg" viewBox="0 0 736.19 308.58"><defs><style>.cls-1{fill:#0066b3;}.cls-2{fill:#4473b9;}.cls-3{fill:#3bc5e9;}.cls-4{fill:#ef3938;}.cls-5{fill:#8bbe3f;}.cls-6{fill:#be87bc;}.cls-7{fill:#ee6e23;}.cls-8{fill:#ee3e8d;}.cls-9{fill:#3aa6de;}.cls-10{fill:#eeb626;}</style></defs><title>seagrams-escapes</title><g id="Layer_2" data-name="Layer 2"><g id="Layer_1-2" data-name="Layer 1"><path class="cls-1" d="M661.1,86c.54-2.39,1.48-3.85-.47-8.49-1.67-4-7-8.28-7.61-13.38-.92-7.91,3-12.45,8.78-15.13.76-.35,4.66-1.67,5.36-1.83-.77,6.16.33,9.55,2.36,13.37,2.63,5,9.34,11.07,4.22,17C670.2,81.53,664.86,84.11,661.1,86Z"/><path class="cls-1" d="M355.56,25.73c3.58-2.36,11.73-3.32,14.21,2V86.48c0,3.46-2,5.6-3.59,7.23l21.21,17,23.12-15.43-2.91-2.93-8.09,5.5-8.1-6.22V20.42l10-5.93c2.24,4.49,12,16.68,11.28,20.61-.64,3.54-4.3,6.59-6.62,8.81-2.85,2.74-2.52,4.29-1.09,5.13,2.39,1.41,7.06-2.82,11.11-5.47s11.28-7.76,13.1-11.22c3.6-6.78-5.48-18.6-8.48-23.14-2-3-3.78-6.25-5.88-9.21L387.77,15.72l-.82-.8L376.06,6l-22.49,16.6Z"/><path class="cls-1" d="M279.56,98.23c1.59-1.64,3.19-3.13,3.23-6.59V32.52c0-3.44-1.73-4.41-3.31-6.05L318.7.78l28.7,20.51V99.7c0,3.51,2,6.37,4.32,7,2.64.74,3.56.22,4.24,3.12l-24.62,18c-8.34,7.13-21.16,15.56-32.07,14.71-11.71-.89-15.08-10.47-12.48-18.88A53.14,53.14,0,0,1,293.87,109a180.81,180.81,0,0,1-15.78-10.73m31.51-2.56,15.78-10.94V32.23L304.81,15.35V91.69Zm6.25,33.77c5.58-1.41,14.64-7.48,19.08-11.39a17.34,17.34,0,0,1-9.21-10.27c-1.47-4.51-.6-10.45-1.45-15.42-10,4.11-24.3,18-22,29.73C303,126.06,308.49,131.27,315.85,129.44Z"/><path class="cls-1" d="M611.65,154.38c1.56-1.65,4.87-2.65,5.14-7.68l.1-73.23-14.44-14.2-6.85,6.85-.11,67,12.81,8.52-12.44,13.83-22.69-14.88-.06-76.48L557.68,47.6l-4,3.29v65l13.93,9.93-13.32,12.77L525.61,120c1.59-1.65,5.95-3.58,6-7.06V53.82l-11-12.1-5.86,4-2.58-4,20.16-15.95,18.59,20.15L568.7,31.41l25.7,26.82,19.43-15,24.61,24.58v82.85l8,6.8,5.79-4.57,2.61,3.21-19.67,16.68Z"/><path class="cls-1" d="M90,185.43c13.9-13.71,22.09-26.67,22.55-38.41.68-16.86-18.68-27.6-52.92-31.78-20.06-2.46-26.89-6.11-28.39-16.64C30.65,94.2,33.41,75.13,44,70.22c11.35,9.36,22.36,15.65,31.34,15.65,20.14,0,28.1-8,30.51-22.31.22-1.21,1.51-10.66-1.88-10.63-2.95,0-2.62,3.38-2.84,4.58-1.09,5.75-3.94,8.28-10.42,7.71-8.8-.79-19.58-5.68-31-14.51,0,0-26.89,20.06-38,30.06C10.36,91,7.5,100.29,7.68,109.42c.36,20,15.28,28.76,47.1,33.22,40.49,5.69,48.74,29.73,24.44,49-7.17-4.06-15.1-13.06-26.09-15.67s-22.76-3.56-34,1.74C6.87,183.46.08,195.6,0,205.46c0,1.26.3,4.25,3.09,4.23,3.2,0,3.14-3.07,3.35-4.74.67-5.95,4.86-13,14.26-13.54s18.17,4.27,25.5,9.23l20,11.57Z"/><path class="cls-1" d="M717.35,114c7.63,0,11.61-2.56,14.41-6.86,4.56-6.92,6.35-17.37,1.74-17.37-1.59,0-2.33,1.32-2.46,3.69-.18,3.52-3.59,5.66-6.84,5.6-3.65,0-7.37-2.94-11.76-5.84l-15.88-12-30.1,24.65c-7.79,6.83-11.25,22.24,4.38,33.85,11.93,8.87,36.71,12.79,41.6,27.87.74,2.26,1.95,6.38-.48,9.79a53.18,53.18,0,0,1-8.57,8.34s-8.5-11.31-13.44-14.2c-5.62-3.25-11.2-5.62-20.08-5.62-8.36,0-18,6.67-19.83,13.46-.87,3.28.12,7.59,3.44,7.76,4.41.23.28-4.92,2.52-6.5,9.2-6.39,21.7,1.17,28.55,8.51,3.79,4.08,6,8.63,9.81,12.64L724,179.23A23.92,23.92,0,0,0,731.35,151c-2.39-5.76-8.81-9.95-14-13.48-8.46-5.66-23.86-12.79-29.87-16.38-9.7-5.84-8.79-9.3-8.07-14.21.76-5.08,8.8-7.34,13-3.91C698.61,108.14,708.19,114,717.35,114Z"/><path class="cls-1" d="M115.94,134.16c2.46-.83,4.4-2.32,4.4-6.23V67.76c-.08-3.45-2.72-5.12-4.3-6.77l39.54-25,28.48,43.25-41.19,23.3V129L157.4,139l20.41-13.44,3.38,4.24-34.41,23.7Zm26.93-84V96.64L164.61,84Z"/><path class="cls-1" d="M239.88,112.78l-30.06,18.57-20.5-17c1.58-1.63,3.89-4.41,3.94-7.87V45.23c0-3.47-2.41-5.59-4-7.25l41.18-24.52L257.84,34V99.34l8.09,7c1.4.32,5-3.41,6.11-3.85a28.59,28.59,0,0,1,2,3.39l-22.66,15.69Zm-16.17,3.89,12.59-7.79V43.3L214.89,27.46v80.38Z"/><path class="cls-1" d="M480.61,102.28,456,118.05,434.36,98.7c1.56-1.64,4-3.24,4.05-6.71V38.39c-.07-3.45-2.54-5-4.14-6.6L474.37,7.2l27.76,24.85V96.64l9.31,9.68c1.44.31,4-2.13,5.13-2.59a32.9,32.9,0,0,1,2.58,3.69L499.3,120.63Zm-12.25,2,12.25-8.24V40.24L460.06,20.78V96.47Z"/><path class="cls-1" d="M236.34,182.93l-18.48,6,3.63,11.08,17.94-5.88,2.14,6.54-17.95,5.88,5,15.41,18.49-6,2.13,6.54-25.44,8.32-15.09-46.1,25.44-8.33Z"/><path class="cls-1" d="M284.18,171.74l-5.06,4.71a10.2,10.2,0,0,0-3.9-3,7.35,7.35,0,0,0-4.17-.11,7.46,7.46,0,0,0-4.58,2.76,5.36,5.36,0,0,0-1.05,4.61c.51,2.32,2.63,3.81,6.38,4.47l5.15.9q6.29,1.08,9.69,3.85a13.17,13.17,0,0,1,4.47,7.67,14.85,14.85,0,0,1-2,11.76,15.27,15.27,0,0,1-10,6.68,14.85,14.85,0,0,1-11-1.44q-4.76-2.79-7.19-9.22l6.89-3.17q1.41,4.06,3,5.39a7.61,7.61,0,0,0,7.11,1.66A7.7,7.7,0,0,0,283,205.8a8.63,8.63,0,0,0,0-8.61,6.34,6.34,0,0,0-1.66-1.85,9.37,9.37,0,0,0-2.5-1.35,19.93,19.93,0,0,0-3.42-.94l-5-.9q-10.62-2-12.36-9.9a11.7,11.7,0,0,1,2.14-9.82,15,15,0,0,1,9.36-5.84Q277.84,164.79,284.18,171.74Z"/><path class="cls-1" d="M341.43,159.75l.9,8.61q-6.87-4.62-13.62-3.91a16.67,16.67,0,0,0-12,6.65A18.08,18.08,0,0,0,313,184.64a17.71,17.71,0,0,0,6.46,12.28,17,17,0,0,0,13.11,3.9,15.52,15.52,0,0,0,6.4-1.93,19.05,19.05,0,0,0,2.93-2A32.81,32.81,0,0,0,345,194l.93,8.8a26.4,26.4,0,0,1-12.75,4.92,24.34,24.34,0,0,1-18.42-5.37,24.08,24.08,0,0,1-9.12-16.8A24.93,24.93,0,0,1,310,168.42a24.41,24.41,0,0,1,18.49-10.87A24.8,24.8,0,0,1,341.43,159.75Z"/><path class="cls-1" d="M392.9,193.54l-20.76-.42-5.65,11.67-7.88-.16,25-51.07,22.11,52-8-.16Zm-2.85-6.94L383.19,170l-7.87,16.34Z"/><path class="cls-1" d="M429.36,188.7l-2.54,19.53-7.26-.94,6.28-48.11,8.22,1.07a37.93,37.93,0,0,1,9,2,12.49,12.49,0,0,1,5.08,3.9,13.79,13.79,0,0,1,2.8,10.76,13.27,13.27,0,0,1-5.79,9.89q-4.92,3.28-12.43,2.31Zm.89-6.73,2.71.35c6.66.87,10.34-1.26,11-6.39q1-7.44-9.34-8.79l-2.4-.32Z"/><path class="cls-1" d="M497.18,179.13l-19-4.36-2.61,11.36,18.4,4.23-1.54,6.71-18.41-4.23-3.63,15.8,19,4.36-1.54,6.71-26.1-6,10.88-47.29,26.09,6Z"/><path class="cls-1" d="M543.84,194.18l-6.75,1.43a10.3,10.3,0,0,0-1.8-4.59,8.46,8.46,0,0,0-8.86-2.24,5.37,5.37,0,0,0-3.28,3.41c-.76,2.25.3,4.61,3.17,7.11l3.94,3.43q4.85,4.17,6.32,8.3a13.13,13.13,0,0,1-.11,8.87,14.82,14.82,0,0,1-7.78,9,15.29,15.29,0,0,1-12,.6,14.84,14.84,0,0,1-8.67-6.9c-1.76-3.24-2.24-7.1-1.42-11.61l7.55.83q-.9,4.22-.22,6.16a8.36,8.36,0,0,0,11.36,4.74,7.93,7.93,0,0,0,4-4.78,8.34,8.34,0,0,0,.45-2.57,6.73,6.73,0,0,0-.46-2.45,9.85,9.85,0,0,0-1.45-2.44,20.54,20.54,0,0,0-2.45-2.57l-3.81-3.35q-8.08-7.17-5.49-14.85a11.64,11.64,0,0,1,6.89-7.31,15.09,15.09,0,0,1,11-.18Q542,185,543.84,194.18Z"/><rect class="cls-1" x="549.47" y="220.08" width="93.1" height="2.22"/><rect class="cls-1" x="110.09" y="220.08" width="93.1" height="2.22"/><path class="cls-2" d="M135.32,264.69H143l-15.35,19.43L145.32,308H137l-13.82-18.73-4.78,5.86V308h-6.81V264.69h6.81v21.47Z"/><path class="cls-2" d="M149.34,264.69h27.58v6.05H156.15v18h18.41v5.92H156.15V302h21.66V308H149.34Z"/><path class="cls-2" d="M185.28,264.69h27.58v6.05H192.1v18h18.4v5.92H192.1V302h21.65V308H185.28Z"/><path class="cls-2" d="M228,308h-6.81V264.69h11.08c11.91,0,18.47,6.56,18.47,16.56s-6.62,16.5-18.47,16.5H228Zm4-16.31c8.35,0,11.72-3.95,11.72-10.45s-3.44-10.51-11.72-10.51h-4v21Z"/><path class="cls-2" d="M271.42,264.69h6.82V308h-6.82Z"/><path class="cls-2" d="M298.37,270.74H285.5v-6.05h32.55v6.05H305.18V308h-6.81Z"/><path class="cls-3" d="M335.44,286.35a21.75,21.75,0,0,1,22.1-22.23c8,0,13.57,3.12,17.33,8.41l-5.23,3.69c-2.86-3.88-6.56-5.92-12.29-5.92-8.6,0-14.84,6.88-14.84,16.05,0,9.36,6.37,16,15.09,16a15.36,15.36,0,0,0,13-6.3l5.28,3.63c-4.45,5.92-10.12,8.85-18.53,8.85C345,308.58,335.44,299.15,335.44,286.35Z"/><path class="cls-4" d="M378.37,286.35a22.36,22.36,0,1,1,22.36,22.23A21.92,21.92,0,0,1,378.37,286.35Zm37.65,0c0-9.17-6.31-16.05-15.29-16.05s-15.29,6.88-15.29,16.05,6.31,16,15.29,16S416,295.52,416,286.35Z"/><path class="cls-5" d="M430,264.69h6.81V302h19.11V308H430Z"/><path class="cls-6" d="M457.1,286.35a22.36,22.36,0,1,1,22.36,22.23A21.92,21.92,0,0,1,457.1,286.35Zm37.65,0c0-9.17-6.31-16.05-15.29-16.05s-15.29,6.88-15.29,16.05,6.31,16,15.29,16S494.75,295.52,494.75,286.35Z"/><path class="cls-7" d="M538.26,308h-8.09l-7.39-10.51a25.63,25.63,0,0,1-3.12.19h-4.27V308h-6.82V264.69h11.09c11.91,0,18.47,6.56,18.47,16.56,0,6.69-3,11.85-8.66,14.46ZM519.4,291.83c8.35,0,11.72-3.95,11.72-10.58s-3.44-10.51-11.72-10.51h-4v21.09Z"/><path class="cls-8" d="M545.26,264.69h27v6.05H552.08v18h18.41v6.05H552.08V308h-6.82Z"/><path class="cls-9" d="M579.79,292.72v-28h6.82v27.65c0,6.94,3.43,10.06,9.74,10.06s9.68-3.12,9.68-10.06V264.69h6.82v28c0,10.57-7.14,15.86-16.5,15.86S579.79,303.29,579.79,292.72Z"/><path class="cls-10" d="M620.24,264.69h6.81V302h19.11V308H620.24Z"/><path class="cls-1" d="M556.81,179.57a7.28,7.28,0,1,1-7.34,7.24A7.24,7.24,0,0,1,556.81,179.57Zm0,13.48a6.21,6.21,0,1,0-6-6.24A6,6,0,0,0,556.81,193.05ZM554,182.59h3.28c2,0,3,.79,3,2.43a2.18,2.18,0,0,1-2.24,2.31l2.43,3.76H559l-2.31-3.66h-1.4v3.66H554Zm1.32,3.77h1.38c1.17,0,2.24-.06,2.24-1.4,0-1.13-1-1.3-1.87-1.3h-1.75Z"/><path class="cls-10" d="M657.07,293.46a7.28,7.28,0,1,1-7.33,7.23A7.24,7.24,0,0,1,657.07,293.46Zm0,13.48a6.21,6.21,0,1,0-6-6.25A6,6,0,0,0,657.07,306.94Zm-2.84-10.47h3.29c2,0,3,.8,3,2.43a2.2,2.2,0,0,1-2.24,2.32l2.43,3.75h-1.42L657,301.31h-1.4V305h-1.33Zm1.33,3.77h1.38c1.16,0,2.23-.05,2.23-1.4,0-1.12-1-1.3-1.86-1.3h-1.75Z"/></g></g></svg>