<svg xmlns="http://www.w3.org/2000/svg" viewBox="0 0 662.31 597.16"><defs><style>.cls-1{fill:#231f20;}</style></defs><title>seagrams-spiked</title><g id="Layer_2" data-name="Layer 2"><g id="Layer_1-2" data-name="Layer 1"><path class="cls-1" d="M83.24,482.48q-16.55,5.81-29.52,6.14a92.61,92.61,0,0,1-22.16-1.73,63.94,63.94,0,0,1-18.92-6.83,26,26,0,0,1-8.1-8.21,33.44,33.44,0,0,1-3.6-8.22,21.24,21.24,0,0,1-.73-9.3,36.72,36.72,0,0,1,2.51-14.42,71.77,71.77,0,0,1,16.4-25.22,95.35,95.35,0,0,1,10.55-9.16,52.87,52.87,0,0,1,7.74-5.11q3.83-2,6.48-3.63,3.33-1.65,6-2.91c3.19-.48,4.85,0,5,1.35a4,4,0,0,1-1.16,2.86A77.23,77.23,0,0,0,43.43,415.2a129.79,129.79,0,0,0-5.55,15.35,82.93,82.93,0,0,0-2.63,15.12q-.93,14.64,4.93,20.77a25.05,25.05,0,0,0,13.26,7.63q8.81,1.74,20-.88a81.19,81.19,0,0,0,17.92-8,72.5,72.5,0,0,0,13.4-10.42A55.79,55.79,0,0,0,113.94,443a82.31,82.31,0,0,0,5.51-11.53,34.51,34.51,0,0,0,1.86-7.26c.28-2.22.59-4.26.9-6.14a21.49,21.49,0,0,0,.29-5.22,18.21,18.21,0,0,0-3.38-12.05A51.76,51.76,0,0,0,110,390.54a93.89,93.89,0,0,0-13.22-9.36q-14.23-8.94-23.4-15.33a159,159,0,0,1-15.9-12.45A28.33,28.33,0,0,1,50,344.11a48.72,48.72,0,0,1-3.31-8.93,34,34,0,0,1-.75-9.65,47.81,47.81,0,0,1,8.23-23.2q6.18-9.49,19.92-20.12T113.56,264a150.27,150.27,0,0,1,24-3.28,91,91,0,0,1,18.12,1q8.78,1.39,12,7a25.41,25.41,0,0,1,1,13.1q-1.24,6.35-6.26,15.23t-17,19.55a21.25,21.25,0,0,1-2.3,1.57q-2.66,1.61-4.51,0l-.11-1.38a8.19,8.19,0,0,1,.76-3.53,105.39,105.39,0,0,0,3.24-16.21,64.93,64.93,0,0,0,.6-12.18c-.2-3.92-1.39-6.71-3.61-8.39a26.51,26.51,0,0,0-9.92-2.69,41,41,0,0,0-12,1.47,58,58,0,0,0-16.07,7.33,95.82,95.82,0,0,0-13.18,13.18,41.85,41.85,0,0,0-6.58,13.35q-2.19,7.45,2.23,15.08a42.83,42.83,0,0,0,6.85,7.79q4.09,3.49,11.08,8.49a156.18,156.18,0,0,0,18.55,11A106,106,0,0,1,138,363a67.67,67.67,0,0,1,12.52,13.58,32,32,0,0,1,6,18.61,73.51,73.51,0,0,1-6.7,33.82,90.39,90.39,0,0,1-8.4,14.54A83.19,83.19,0,0,1,128.3,458a108.89,108.89,0,0,1-19.07,13.29A151.84,151.84,0,0,1,83.24,482.48Z"/><path class="cls-1" d="M176.94,370.31c7.39-43.74,29.42-25.34,26.85-6.59-3.5,25.58-.66,17.61-.66,17.61,5.21-4.75,20.6-30.13,48.21-32,9.2-.64,13.3,7.86,15.5,14.79A55.49,55.49,0,0,1,269,381.5c-.1,13.51-3.83,27.95-7.06,41.35-3.1,12.37-8.48,28.62-21.4,35.93a33.65,33.65,0,0,1-31.93.19,17,17,0,0,1-5.27-5c-.61-.64-3.54-4.82-2.3-6.26-3.3,3.61-3.4,12.06-4.27,15.83-2.25,11.3-4.14,22.58-6,33.51-4.11,24.94-10.66,49.71-15.08,74.33-1.43,7.87-1.39,15.3-8.2,21.51-2,1.83-.78,3.09-3.7,4C128.06,607.07,175,379.57,176.94,370.31ZM227.76,437a23,23,0,0,0,3.63-6c6.28-12.6,7.69-25.53,9.47-38.48.14-1,.65-4.78.9-9.19.68-7.47.52-16.58-3.91-14.92-5.59,2.41-9.28,11.45-11.3,16-4.26,8.06-7.55,16.73-10.8,25.06l-3.57,10.72c-2.39,7.26-7.15,16.37.69,20.55C217.5,442.82,224.06,441,227.76,437Z"/><path class="cls-1" d="M282.57,449.06a40.2,40.2,0,0,1-2-8.3c-1.84-9.67-1.83-22.5-.41-35.43a254.68,254.68,0,0,1,5.65-36.19c3.28-13.74,6.86-24.46,9.35-27.33a26.17,26.17,0,0,1,2.9-3.24c3.25-3.26,7.33-4.9,12.88-1.91,16,8.35,10.66,11.76,4.93,45.93-11.74,47.42.83,58,7,51.19,6.6-7.21,10.24-15.91,14.55-24.31,3.76-7,7.17-14,10.94-21,4.75-9.11,9.24-18.88,15-27.72,1.39-2.46,4.61-8.09,7.89-9a1.6,1.6,0,0,1,1.11-.42c3.19-.22,3.47,2.8,2.65,6.23,0,0-15.78,30.82-24.53,48.65-7.37,15.37-10.69,21.68-15.56,29.11-7.51,11.32-15.47,18.29-22.67,22.17a23.48,23.48,0,0,1-13,2.93,3.15,3.15,0,0,1-1.81.46C290,461.38,285.38,456.64,282.57,449.06ZM301,278.59c11.32-18.69,48.25,11.18,26.39,32.62a9.88,9.88,0,0,1-2.31,1.51C306,323.83,289.41,296.61,301,278.59Z"/><path class="cls-1" d="M409.54,441c-9.13-10.18-12.14-34.29-18.57-43.63-1.7-2.93-3.24-4.51-6.83-3.92-3.54.24-4.43,14.49-5.47,16.92-3.17,10.36-2.91,23.85-10.76,32.5-12.65,13-20.33,5.12-21.27-6-4.84-51.67,7-107.54,28.83-159.38,9.31-21.92,28.39-61.4,57.89-56.69,7.56,1.16,11.58,7.64,8.24,16.65-1.22,3.8-14.32,30.38-32.57,45.82a76.89,76.89,0,0,1-8.58,6.34c-4.12,2-9.36,35.1-13.12,60,8.45-18.15,27.74-25.9,40.4-16,4.09,3.43,6.35,15.1-2.76,27.89-10.77,14.59-29.54,18.59-21.56,21.75,10.62,4.33,15.65,36.74,24.5,36.13a7.92,7.92,0,0,0,2.57-.85c4.58-2.68,9.17-8.07,14-17.86,13-23.53,30-65.57,38.15-66.13,3.18-.22,4.58,2.38,3.76,5.82-.78,3.09-2.61,6.25-4.05,9.06-9.83,20.6-18.61,36.07-27.31,53.56-3,6.62-10,18.93-10,18.93-6.94,12.3-11.12,22.38-24.22,23.29A13.16,13.16,0,0,1,409.54,441Zm4.16-173.88c8.35-9.7,18.09-24.56,19.63-35.81-2.48.17-5.59,2.41-8.84,5.68-11.45,11.94-25.31,38.9-23.42,40.46C400.7,280.13,406.62,275.33,413.7,267.07Z"/><path class="cls-1" d="M567,345.61a33.61,33.61,0,0,1,6.07-.76c.7-.05,1.32.59,1.63.9a1.55,1.55,0,0,1-.24,1.71c-14.3,27.67-16.48,35.92-28.75,51.3-58.95,74.66-110,37.67-102.52-4.05,7.32-40.7,56.82-92.42,82.56-67.86,21.08,20.16-22,60.62-47.21,83.65C503.8,461.78,566.63,346,567,345.61ZM519.35,335.4c-.9-3.65-11.24-5-23.75,12.12a134.9,134.9,0,0,0-14.81,31.42,90.11,90.11,0,0,0-3,16.41C477.88,395,524.58,358.68,519.35,335.4Z"/><path class="cls-1" d="M604.4,388c-48,58.71-87.4,34.08-75.11-9.66,10.52-35.86,46.09-62.64,83.25-65.21,6.87-14.32,15.47-66.93,17.83-81.61,1.17-8.53,1.67-17.34,7.7-25.53,3.09-4.6,4.74-6.4,10.14-7.45,4.65-.66,9.42.36,12.09,3.89,3,3.84,1.86,12,1.51,17.12A320.86,320.86,0,0,1,657.53,256c-2.51,15.71-5.36,31.44-8.22,47.17l-8.88,49.59q-4,21.56-6.95,43c-3.4,24.9-3,29.59,1,31,8.07,2.48,10.67,16.82-10.23,21C591.5,454.11,600.66,410.25,604.4,388Zm.54-57.79c-28.66,2-72.4,88.43-36.57,75.14C611.91,376.71,616.27,329.46,604.94,330.25Z"/><path class="cls-1" d="M210.87,507.2l12.58-2.91q3.15-.66,9.59-1.47c2.14-.27,5.23-.82,9.27-1.67l9.06-1.35q5.58-.9,15.55-1.89a24.65,24.65,0,0,0,5.38.1,35.94,35.94,0,0,1,5.06-.1,24.68,24.68,0,0,0,5.39.11c2.06-.16,3.48-.23,4.21-.2a5.62,5.62,0,0,1,5.69,3.48l2.06,5.89a2.17,2.17,0,0,1-.2,1.69,14.54,14.54,0,0,1-3.28,4,56.09,56.09,0,0,0-8.45,10.84.68.68,0,0,0,.22,1.06.24.24,0,0,0,.32.2l1.32-.27q10-4.59,20-8.32l11.67-4.65,22.13-8.5q1.05-.23,32.26-11.31t40.17-13a50.86,50.86,0,0,0,5.47-1.42c1.54-.51,2.82-1,3.84-1.36a44.62,44.62,0,0,1,5.68-1.75l1.58-.33a22,22,0,0,1,4.47-1.62q2.73-.72,4.79-1.42a23.44,23.44,0,0,1,3.89-1.09l1.58-.33,12.06-2.81,1.05-.23a28.19,28.19,0,0,0,4.53-.67,25.11,25.11,0,0,0,4.42-1.21l1.32-.27a47.44,47.44,0,0,0,8.85-1,48.36,48.36,0,0,1,5.85-.95c3.23-.31,5.55-.62,6.95-.91l1.59-.33a56.3,56.3,0,0,1,6.37-1.06q2.16-.18,5.64-.64a45.31,45.31,0,0,1,6-.43l1-.22q3.38-1,11.6-1.06a9.21,9.21,0,0,0,2.69-.29c.87-.18,2.38-.45,4.5-.81a15.52,15.52,0,0,1,5.78,0,8.44,8.44,0,0,0,3.53-.2,35.88,35.88,0,0,1,11.56.05,23.43,23.43,0,0,0,5.23,0l1-.23a4.21,4.21,0,0,1,2.43-.23,35,35,0,0,0,5.49-.05,43.81,43.81,0,0,1,8.81.07c.92,0,1.87,0,2.88,0a15,15,0,0,1,2.93.2,3.33,3.33,0,0,1,2.7,1.09c.68.59,1.91,1.7,3.73,3.34a24.4,24.4,0,0,1,4.37,5.13,10.56,10.56,0,0,0,1.15,1.54,10.61,10.61,0,0,1,1.15,1.55l3.11,5.66,2.59,5.79c.29.48.46,2.19.53,5.11a2.6,2.6,0,0,1-.78,1.53,2.81,2.81,0,0,1-1.47.86l-.53.12L582,486.17c-4.58-.87-8-1.44-10.25-1.69q-15.27-2-69.78,5.44T389.76,509.49Q349.49,518,317,527.1T266.63,545l-2.36,1.87a2.32,2.32,0,0,0-1,1,2.73,2.73,0,0,1-.76,1c-.7,1.06-1.3,1.65-1.83,1.76l-.58-.16c-.39-.1-1-.21-1.72-.33a2.89,2.89,0,0,1-1.89-1.11c-1.63-2.58-3.87-3.59-6.67-3l-.79.17-.37-.47-.11-.53q10.4-14.55,15.58-20a65.21,65.21,0,0,0,7.55-9.83c.42-.64.43-1,.05-1.11-.08-.35-.38-.48-.9-.36q-12.3.38-35.46,5.24l-10.74,2.54q-30.75,6.72-84.84,28.67T58.91,584.75l-2.73,1.4a23.78,23.78,0,0,1-4.59,3,47.65,47.65,0,0,0-5.12,3.15c-.59.66-1.48.77-2.69.28a9.11,9.11,0,0,1-5.31-4.38q-2.58-4.41-5.9-9.76a11.5,11.5,0,0,1-.77-1.07,4.74,4.74,0,0,1-.63-1.65,8,8,0,0,0-1.86-4.29c-1.12-1.41-1.94-2.43-2.43-3.06a8.23,8.23,0,0,1-1.77-3.21l-.17-.78a1.25,1.25,0,0,0-.06-.95,3,3,0,0,1-.33-.89q-.33-1.59,1-1.86A77.48,77.48,0,0,0,38,555.62q22.1-9.87,52-19.86t82.59-21.07l10.79-2.26Z"/><path class="cls-1" d="M580.18,70.18c.44-2,1.2-3.14-.39-6.93-1.37-3.29-5.75-6.76-6.22-10.92-.74-6.46,2.44-10.17,7.17-12.36.62-.29,3.81-1.36,4.38-1.49a16.24,16.24,0,0,0,1.93,10.92c2.15,4.11,7.63,9,3.44,13.85C587.61,66.58,583.25,68.69,580.18,70.18Z"/><path class="cls-1" d="M330.68,21c2.92-1.93,9.57-2.71,11.59,1.66v48c0,2.83-1.64,4.57-2.92,5.9l17.31,13.89,18.89-12.59-2.38-2.4-6.61,4.49L360,74.83V16.67l8.19-4.84c1.83,3.67,9.79,13.62,9.21,16.83-.52,2.89-3.51,5.38-5.41,7.2-2.33,2.23-2.06,3.5-.89,4.18,1.95,1.16,5.77-2.29,9.08-4.46s9.2-6.33,10.69-9.16c2.94-5.54-4.47-15.19-6.93-18.9C382.3,5.1,380.81,2.42,379.1,0L357,12.84l-.67-.66-8.89-7.26L329.05,18.47Z"/><path class="cls-1" d="M268.61,80.22c1.3-1.35,2.61-2.56,2.64-5.39V26.55c0-2.81-1.41-3.59-2.7-4.93l32-21L324,17.39v64c0,2.87,1.65,5.21,3.52,5.72,2.16.6,2.91.18,3.47,2.54l-20.1,14.69c-6.81,5.82-17.28,12.7-26.2,12-9.56-.72-12.31-8.55-10.19-15.41a43.7,43.7,0,0,1,5.78-12,151,151,0,0,1-12.88-8.76m25.73-2.09L306,69.19V26.32l-16.8-13.78V74.88Zm5.11,27.57c4.55-1.15,11.95-6.11,15.57-9.3A14.11,14.11,0,0,1,306.31,88c-1.2-3.68-.49-8.53-1.19-12.59-8.16,3.35-19.85,14.72-18,24.27C287.77,102.94,292.23,107.19,298.25,105.7Z"/><path class="cls-1" d="M539.79,126.07c1.28-1.35,4-2.17,4.2-6.28l.08-59.8L532.28,48.4,526.69,54l-.09,54.69,10.45,7L526.9,126.93l-18.53-12.15-.05-62.45-12.6-13.46-3.29,2.69v53l11.37,8.11-10.87,10.43L469.53,98c1.3-1.35,4.86-2.93,4.93-5.77V44l-9-9.88-4.79,3.29-2.1-3.29L475,21,490.2,37.5l14.52-11.85,21,21.9,15.87-12.29,20.09,20.07V123l6.51,5.55,4.72-3.73,2.14,2.62L559,141.05Z"/><path class="cls-1" d="M113.85,151.42c11.35-11.19,18-21.78,18.41-31.37.56-13.76-15.25-22.53-43.21-25.94-16.38-2-22-5-23.19-13.59-.51-3.6,1.74-19.17,10.38-23.18C85.51,65,94.5,70.12,101.83,70.12c16.45,0,23-6.54,24.92-18.22.18-1,1.24-8.7-1.54-8.68-2.4,0-2.13,2.76-2.31,3.74-.89,4.7-3.22,6.77-8.51,6.3-7.18-.64-16-4.64-25.34-11.85,0,0-22,16.38-31,24.54-9.24,8.36-11.57,16-11.43,23.4.3,16.32,12.48,23.49,38.47,27.13,33.06,4.65,39.8,24.27,20,40-5.86-3.31-12.34-10.67-21.31-12.79S65.12,140.75,56,145.08c-10,4.73-15.56,14.64-15.63,22.69,0,1,.25,3.48,2.53,3.46,2.61,0,2.56-2.51,2.73-3.87.55-4.86,4-10.64,11.65-11.05s14.83,3.48,20.82,7.53l16.37,9.45Z"/><path class="cls-1" d="M626.11,93.11c6.23,0,9.48-2.09,11.77-5.6,3.72-5.65,5.18-14.19,1.41-14.19-1.29,0-1.9,1.08-2,3-.15,2.88-2.94,4.63-5.59,4.57-3,0-6-2.39-9.6-4.76l-13-9.82L584.55,86.44c-6.36,5.58-9.19,18.16,3.58,27.64,9.74,7.25,30,10.45,34,22.77.6,1.84,1.59,5.2-.4,8a43.46,43.46,0,0,1-7,6.81s-7-9.24-11-11.6a30,30,0,0,0-16.39-4.58c-6.84,0-14.7,5.44-16.2,11-.71,2.68.1,6.2,2.81,6.34,3.6.19.23-4,2.06-5.3,7.51-5.22,17.72.95,23.32,6.94,3.09,3.33,4.9,7,8,10.33l24.18-18.4a19.54,19.54,0,0,0,6-23.07c-1.95-4.71-7.19-8.12-11.43-11-6.91-4.62-19.49-10.44-24.39-13.37-7.92-4.77-7.18-7.6-6.6-11.6.63-4.15,7.19-6,10.6-3.2C610.81,88.31,618.63,93.11,626.11,93.11Z"/><path class="cls-1" d="M135,109.55c2-.67,3.59-1.89,3.59-5.08V55.33c-.07-2.81-2.22-4.17-3.51-5.53l32.29-20.43,23.25,35.32L157,83.72V105.3l11.86,8.23,16.67-11,2.77,3.46-28.11,19.35ZM157,41v38l17.75-10.33Z"/><path class="cls-1" d="M236.2,92.1l-24.54,15.16L194.92,93.34c1.29-1.33,3.18-3.6,3.22-6.43v-50c0-2.83-2-4.56-3.26-5.91l33.63-20,22.37,16.75V81.12l6.6,5.7c1.15.26,4.11-2.79,5-3.15a24.35,24.35,0,0,1,1.63,2.77L245.6,99.26ZM223,95.27l10.29-6.36V35.36L215.8,22.43V88.06Z"/><path class="cls-1" d="M432.78,83.52,412.71,96.4,395,80.59c1.27-1.33,3.25-2.64,3.3-5.47V31.35c-.05-2.81-2.07-4.05-3.37-5.39L427.69,5.88l22.67,20.29V78.91l7.6,7.91c1.18.25,3.3-1.74,4.19-2.12a26,26,0,0,1,2.11,3L448.05,98.51Zm-10,1.64,10-6.73V32.86L416,17v61.8Z"/><path class="cls-1" d="M233.32,149.38l-15.09,4.94,3,9.05,14.65-4.8,1.75,5.34-14.66,4.8,4.12,12.58,15.1-4.94,1.74,5.34-20.77,6.8-12.33-37.65,20.78-6.8Z"/><path class="cls-1" d="M272.38,140.24l-4.13,3.85a8.22,8.22,0,0,0-3.19-2.46,6.91,6.91,0,0,0-7.14,2.17,4.38,4.38,0,0,0-.86,3.76c.42,1.89,2.15,3.11,5.22,3.65l4.2.73a17,17,0,0,1,7.91,3.15,10.75,10.75,0,0,1,3.66,6.26,12.15,12.15,0,0,1-1.64,9.61,12.47,12.47,0,0,1-8.13,5.45,12.08,12.08,0,0,1-9-1.18,14.12,14.12,0,0,1-5.87-7.52l5.63-2.6a10.31,10.31,0,0,0,2.44,4.41,6.81,6.81,0,0,0,9.94-1.46,6.47,6.47,0,0,0,.8-5,6.62,6.62,0,0,0-.77-2,5.58,5.58,0,0,0-1.35-1.52,7.77,7.77,0,0,0-2.05-1.1,16.84,16.84,0,0,0-2.79-.77l-4.07-.74q-8.69-1.62-10.1-8.08a9.56,9.56,0,0,1,1.75-8A12.38,12.38,0,0,1,260.5,136Q267.21,134.57,272.38,140.24Z"/><path class="cls-1" d="M319.13,130.45l.74,7q-5.61-3.78-11.12-3.19a13.64,13.64,0,0,0-9.78,5.43,14.76,14.76,0,0,0-3.07,11.05,14.42,14.42,0,0,0,5.28,10,13.91,13.91,0,0,0,10.7,3.19,12.74,12.74,0,0,0,5.23-1.58,15.49,15.49,0,0,0,2.39-1.64,30.33,30.33,0,0,0,2.55-2.39l.76,7.19a21.63,21.63,0,0,1-10.42,4,19.84,19.84,0,0,1-15-4.38,19.63,19.63,0,0,1-7.45-13.72,20.32,20.32,0,0,1,3.57-13.95,19.93,19.93,0,0,1,15.09-8.88A20.28,20.28,0,0,1,319.13,130.45Z"/><path class="cls-1" d="M361.17,158l-17-.34-4.61,9.53-6.44-.13,20.45-41.7,18.06,42.48-6.54-.13Zm-2.33-5.66-5.6-13.59-6.43,13.34Z"/><path class="cls-1" d="M390.94,154.09,388.86,170l-5.93-.77L388.06,130l6.71.88a30.39,30.39,0,0,1,7.37,1.66,10.05,10.05,0,0,1,4.14,3.18,11.31,11.31,0,0,1,2.3,8.79,10.91,10.91,0,0,1-4.73,8.08q-4,2.67-10.16,1.88Zm.72-5.5,2.22.29q8.16,1.06,9-5.22.79-6.07-7.63-7.18l-2-.25Z"/><path class="cls-1" d="M446.32,146.28l-15.49-3.56L428.7,152l15,3.45-1.26,5.48-15-3.46-3,12.91L440,173.93l-1.27,5.48-21.3-4.9,8.88-38.61,21.3,4.9Z"/><path class="cls-1" d="M484.42,158.56l-5.52,1.17a8.38,8.38,0,0,0-1.46-3.75,6.92,6.92,0,0,0-7.24-1.82,4.32,4.32,0,0,0-2.67,2.78c-.63,1.83.24,3.77,2.58,5.81l3.22,2.8a16.87,16.87,0,0,1,5.16,6.77,10.76,10.76,0,0,1-.09,7.25,12.12,12.12,0,0,1-6.35,7.39,12.49,12.49,0,0,1-9.78.49,12.14,12.14,0,0,1-7.09-5.64,14.1,14.1,0,0,1-1.15-9.47l6.16.67a10.15,10.15,0,0,0-.18,5,6.82,6.82,0,0,0,9.28,3.87,6.47,6.47,0,0,0,3.27-3.9,6.69,6.69,0,0,0,.37-2.1,5.38,5.38,0,0,0-.38-2,7.8,7.8,0,0,0-1.18-2,17.35,17.35,0,0,0-2-2.09l-3.11-2.74q-6.6-5.85-4.48-12.12a9.52,9.52,0,0,1,5.62-6,12.33,12.33,0,0,1,9-.14Q482.9,151,484.42,158.56Z"/><rect class="cls-1" x="489.02" y="179.71" width="76.03" height="1.81"/><rect class="cls-1" x="130.22" y="179.71" width="76.02" height="1.81"/><path class="cls-1" d="M495,146.64a5.94,5.94,0,1,1-6,5.91A5.91,5.91,0,0,1,495,146.64Zm0,11a5.07,5.07,0,1,0-4.91-5.1A4.91,4.91,0,0,0,495,157.65Zm-2.32-8.55h2.68c1.65,0,2.43.65,2.43,2A1.79,1.79,0,0,1,496,153l2,3.06H496.8l-1.89-3h-1.14v3h-1.08Zm1.08,3.08h1.13c1,0,1.82-.05,1.82-1.14,0-.92-.79-1.07-1.52-1.07h-1.43Z"/></g></g></svg>